<svg width="129" height="43" viewBox="0 0 129 43" fill="none" xmlns="http://www.w3.org/2000/svg">
<path d="M16.5899 30.0286C16.5899 34.4696 12.9859 38.0736 8.54497 38.0736C4.10402 38.0736 0.5 34.4696 0.5 30.0286C0.5 25.5877 4.10402 21.9836 8.54497 21.9836C12.9859 21.9836 16.5899 25.5877 16.5899 30.0286Z" fill="#FCA695"/>
<path d="M112.41 30.0286C112.41 34.4696 116.014 38.0736 120.455 38.0736C124.896 38.0736 128.5 34.4696 128.5 30.0286C128.5 25.5877 124.896 21.9836 120.455 21.9836C116.014 21.9836 112.41 25.5877 112.41 30.0286Z" fill="#FCA695"/>
<path d="M76.4066 39.3357C76.4066 44.1354 52.6133 44.1354 52.6133 39.3357C52.6133 34.5361 56.5077 30.6588 61.2902 30.6588H67.7296C72.5293 30.6588 76.4066 34.5532 76.4066 39.3357Z" fill="#261E1C"/>
<path d="M28.8183 17.7817C28.8183 24.5456 23.3354 30.0285 16.5715 30.0285C9.80759 30.0285 4.3418 24.5456 4.3418 17.7817C4.3418 11.0178 28.8183 11.0178 28.8183 17.7817Z" fill="#261E1C"/>
<path d="M7.8584 10.3011C7.8584 10.3011 16.8428 10.8819 23.0772 2" stroke="#261E1C" stroke-width="3" stroke-linecap="round" stroke-linejoin="round"/>
<path d="M100.181 17.7817C100.181 24.5456 105.664 30.0285 112.427 30.0285C119.191 30.0285 124.674 24.5456 124.674 17.7817C124.674 11.0178 100.198 11.0178 100.198 17.7817H100.181Z" fill="#261E1C"/>
<path d="M121.142 10.3011C121.142 10.3011 112.157 10.8819 105.923 2" stroke="#261E1C" stroke-width="3" stroke-linecap="round" stroke-linejoin="round"/>
</svg>
