<svg width="160" height="153" viewBox="0 0 160 153" fill="none" xmlns="http://www.w3.org/2000/svg">
<g clip-path="url(#clip0_532_3538)">
<path d="M146.23 25.7219C145.304 22.553 142.394 20.1469 139.151 19.4696C135.909 18.7923 132.445 19.7227 129.742 21.6262C128.559 22.4603 127.433 23.5047 126.007 23.7721C124.859 23.986 123.679 23.6616 122.51 23.7115C119.465 23.8434 117.044 26.5845 116.272 29.5218C115.5 32.4626 116.004 35.5674 116.515 38.5652L121.917 39.3316C121.038 38.1909 121.778 36.405 123.022 35.6814C124.266 34.9578 125.799 34.9899 127.24 35.0434C130.05 35.1503 132.86 35.2537 135.669 35.3606C138.154 35.4533 140.785 35.5139 142.948 34.2948C145.829 32.6729 147.155 28.8873 146.23 25.7184V25.7219Z" fill="#EBEBEB"/>
<path d="M151.2 13.2143C150.457 12.1521 148.591 11.4178 147.311 12.448C146.396 13.3676 146.256 14.9646 147.036 16.0019C147.815 17.0392 149.431 17.3457 150.514 16.6328C151.597 15.9199 151.94 14.2766 151.2 13.2143Z" fill="#EBEBEB"/>
<path d="M134.128 125.62C128.012 121.574 126.457 113.829 126.524 106.828C126.535 105.659 126.378 104.432 126.911 103.395C127.443 102.358 128.727 101.627 129.785 102.094C130.664 102.482 131.068 103.481 131.576 104.304C132.251 105.398 133.234 106.293 134.386 106.853C135.14 107.22 136.069 107.434 136.795 107.013C137.792 106.432 137.878 105.038 137.842 103.88C137.775 101.716 137.71 99.5523 137.646 97.3886C137.61 96.2266 137.578 95.0431 137.914 93.931C138.25 92.8188 139.026 91.7779 140.123 91.4429C141.224 91.1078 142.608 91.7102 142.869 92.8402C142.976 93.3107 142.894 93.8026 142.937 94.2839C142.98 94.7651 143.219 95.2926 143.68 95.4174C144.149 95.5422 144.606 95.2035 144.946 94.8542C146.118 93.6529 146.898 92.1237 147.623 90.6016C148.349 89.0831 149.05 87.5254 150.111 86.2207C151.17 84.9161 152.653 83.8645 154.319 83.7326C155.985 83.5972 157.787 84.581 158.248 86.2029C158.709 87.8284 157.794 89.5144 156.782 90.8618C155.284 92.8651 153.497 94.6474 151.495 96.1375C151.134 96.4048 150.744 96.6971 150.612 97.1284C150.376 97.9091 151.13 98.6612 151.906 98.8965C152.782 99.1638 153.722 99.0497 154.63 99.1353C155.542 99.2208 156.535 99.5951 156.896 100.443C157.401 101.62 156.435 102.885 155.477 103.726C153.558 105.405 151.348 106.749 148.982 107.68C148.134 108.011 147.237 108.307 146.562 108.924C145.886 109.54 145.493 110.595 145.932 111.401C146.368 112.21 147.448 112.446 148.342 112.257C149.236 112.068 150.026 111.565 150.873 111.223C152.456 110.581 154.526 110.642 155.584 111.996C156.282 112.888 156.371 114.146 156.056 115.237C155.742 116.324 155.073 117.272 154.362 118.149C151.87 121.211 148.646 123.706 144.964 125.078C141.281 126.451 137.853 126.882 134.132 125.624" fill="#EBEBEB"/>
<path d="M135.834 121.193C136.781 117.639 138.143 113.829 139.702 109.894C140.095 108.91 140.485 107.94 140.867 106.985C141.253 106.03 141.636 105.085 142.065 104.183C142.919 102.372 143.877 100.7 144.839 99.1392C145.801 97.5779 146.769 96.1306 147.685 94.7832C148.603 93.4394 149.483 92.1989 150.334 91.1045C152.028 88.9088 153.601 87.3011 154.727 86.2424C155.288 85.7113 155.739 85.3121 156.046 85.0483C156.196 84.9235 156.311 84.8237 156.4 84.7489C156.479 84.6811 156.522 84.649 156.525 84.6526C156.525 84.6526 156.49 84.6954 156.414 84.7667C156.329 84.8451 156.218 84.9485 156.075 85.0839C155.778 85.3584 155.335 85.7683 154.784 86.3066C153.68 87.3831 152.128 88.9979 150.452 91.2008C149.612 92.2987 148.739 93.5392 147.831 94.8866C146.923 96.2376 145.962 97.6848 145.007 99.2461C144.053 100.807 143.102 102.476 142.254 104.276C141.825 105.174 141.45 106.112 141.064 107.07C140.681 108.026 140.292 108.999 139.899 109.979C138.34 113.911 136.974 117.711 136.02 121.25" fill="#E0E0E0"/>
<path d="M142.129 104.169C142.129 104.169 142.071 103.998 142.003 103.677C141.936 103.356 141.85 102.893 141.753 102.316C141.56 101.164 141.349 99.5636 141.12 97.7991C140.895 96.0347 140.659 94.4413 140.452 93.2935C140.348 92.7196 140.259 92.2562 140.195 91.9389C140.13 91.6181 140.102 91.4399 140.116 91.4363C140.13 91.4328 140.187 91.6039 140.273 91.9211C140.363 92.2348 140.473 92.6946 140.599 93.265C140.849 94.4057 141.106 96.0026 141.331 97.7706C141.549 99.5137 141.75 101.089 141.9 102.294C141.971 102.84 142.032 103.296 142.082 103.663C142.125 103.987 142.139 104.166 142.125 104.169H142.129Z" fill="#E0E0E0"/>
<path d="M157.029 101.017C157.029 101.017 156.818 101.064 156.432 101.103C156.049 101.146 155.495 101.206 154.809 101.302C153.439 101.484 151.563 101.798 149.5 102.236C147.441 102.678 145.596 103.16 144.27 103.545C143.605 103.734 143.072 103.897 142.704 104.012C142.336 104.126 142.129 104.183 142.125 104.168C142.121 104.154 142.318 104.072 142.679 103.933C143.04 103.794 143.569 103.605 144.231 103.398C145.55 102.974 147.394 102.472 149.461 102.026C151.527 101.588 153.418 101.292 154.794 101.153C155.481 101.078 156.042 101.039 156.428 101.021C156.814 101.007 157.029 101.003 157.029 101.021V101.017Z" fill="#E0E0E0"/>
<path d="M136.009 120.915C136.009 120.915 135.966 120.858 135.902 120.737C135.83 120.591 135.741 120.416 135.634 120.202C135.401 119.739 135.083 119.058 134.704 118.21C133.939 116.516 132.96 114.146 131.912 111.515C130.865 108.885 129.907 106.507 129.181 104.8C128.823 103.969 128.53 103.288 128.312 102.782C128.219 102.561 128.141 102.379 128.08 102.233C128.03 102.105 128.005 102.037 128.012 102.033C128.019 102.033 128.055 102.094 128.119 102.212C128.191 102.354 128.28 102.532 128.387 102.746C128.62 103.21 128.938 103.891 129.317 104.739C130.082 106.432 131.061 108.803 132.109 111.433C133.156 114.064 134.114 116.442 134.84 118.149C135.197 118.98 135.491 119.66 135.709 120.167C135.802 120.388 135.88 120.569 135.941 120.719C135.991 120.847 136.016 120.915 136.009 120.919V120.915Z" fill="#E0E0E0"/>
<path d="M155.745 114.039C155.745 114.039 155.68 114.075 155.548 114.125C155.394 114.182 155.205 114.25 154.976 114.332C154.447 114.517 153.732 114.766 152.863 115.073C151.079 115.697 148.623 116.588 145.914 117.579C143.2 118.57 140.737 119.44 138.939 120.028C138.042 120.324 137.309 120.552 136.801 120.702C136.565 120.769 136.372 120.823 136.215 120.869C136.079 120.905 136.008 120.919 136.008 120.912C136.008 120.905 136.072 120.876 136.204 120.826C136.358 120.769 136.548 120.702 136.776 120.62C137.305 120.434 138.02 120.185 138.889 119.878C140.673 119.254 143.129 118.363 145.839 117.372C148.548 116.385 151.015 115.515 152.813 114.927C153.711 114.631 154.443 114.403 154.951 114.253C155.187 114.185 155.38 114.128 155.537 114.086C155.673 114.05 155.745 114.036 155.745 114.043V114.039Z" fill="#E0E0E0"/>
<path d="M3.91543 87.4612C3.91543 87.4612 1.28791 88.7337 4.7877 94.241C8.28748 99.7484 10.6076 102.422 10.6076 102.422C10.6076 102.422 11.2582 103.716 10.1428 104.029C9.02748 104.343 6.49648 104.179 6.12112 105.609C5.73146 107.091 6.90401 108.346 9.13473 109.337C11.3654 110.328 16.17 112.674 16.6026 112.887C17.028 113.098 17.4892 113.686 16.7671 114.021C16.0414 114.356 10.4824 115.465 11.1688 118.063C11.8516 120.662 18.5187 122.401 19.2444 122.605C19.9701 122.808 20.1632 123.089 20.1417 123.478C20.1203 123.866 18.2184 124.063 16.6491 124.44C15.0797 124.818 13.328 125.535 13.85 127C14.3719 128.465 18.4866 131.267 27.842 131.309L32.1783 131.046L34.1909 127.185C37.991 118.659 37.1187 113.768 35.9926 112.691C34.8666 111.615 33.4938 112.916 32.5036 114.185C31.5133 115.454 30.5517 117.104 30.1871 116.965C29.8224 116.826 29.6473 116.534 29.7581 115.789C29.8689 115.048 31.0129 108.271 28.918 106.582C26.8231 104.892 23.5271 109.494 22.923 110.014C22.3188 110.535 21.972 109.875 21.9542 109.401C21.9363 108.92 21.7611 103.587 21.7719 101.153C21.7826 98.7182 21.1141 97.1391 19.5983 96.8824C18.1362 96.6365 17.2461 99.0069 16.5025 99.8909C15.7589 100.775 14.8402 99.6521 14.8402 99.6521C14.8402 99.6521 13.3459 96.4475 9.74603 91.0044C6.14614 85.5612 3.85823 87.4861 3.85823 87.4861" fill="#EBEBEB"/>
<path d="M32.495 132.043C29.8675 128.033 25.3131 120.832 21.3736 114.669C17.4341 108.506 13.8628 102.931 11.2568 98.9101C9.95193 96.9032 8.89734 95.2778 8.1645 94.1513C7.80344 93.5917 7.52102 93.1568 7.32441 92.8574C7.23146 92.7112 7.15996 92.6007 7.10991 92.5188C7.06344 92.4403 7.04199 92.4011 7.04199 92.4011C7.04199 92.4011 7.07059 92.4368 7.12421 92.5116C7.17784 92.59 7.25291 92.7005 7.34943 92.8431C7.54962 93.139 7.83919 93.5703 8.21097 94.1228C8.95812 95.235 10.027 96.8533 11.339 98.8602C13.9665 102.87 17.5521 108.435 21.4916 114.598C25.4311 120.761 29.9711 127.972 32.5772 131.993" fill="#E0E0E0"/>
<path d="M9.6569 105.983C9.6569 105.983 9.76772 105.994 9.96791 106.04C10.1645 106.083 10.4469 106.154 10.7973 106.247C11.4944 106.432 12.4524 106.71 13.5034 107.034C14.5402 107.359 15.4768 107.655 16.1917 107.879C16.5135 107.979 16.7887 108.061 17.0068 108.129C17.1998 108.186 17.3071 108.225 17.3035 108.232C17.3035 108.243 17.1927 108.221 16.9925 108.179C16.7959 108.136 16.5135 108.065 16.1631 107.968C15.466 107.776 14.5116 107.487 13.4605 107.159C12.4238 106.842 11.4836 106.553 10.7687 106.332C10.4434 106.236 10.1717 106.15 9.95003 106.086C9.75699 106.026 9.65332 105.99 9.65332 105.979L9.6569 105.983Z" fill="#E0E0E0"/>
<path d="M17.5692 107.929C17.5335 107.918 18.0232 105.925 18.6631 103.477C19.303 101.024 19.85 99.0457 19.8857 99.0564C19.9215 99.0671 19.4317 101.06 18.7918 103.509C18.1519 105.958 17.605 107.936 17.5692 107.929Z" fill="#E0E0E0"/>
<path d="M23.1911 117.668C23.1911 117.668 23.2375 117.561 23.3412 117.386C23.4628 117.187 23.6093 116.937 23.7881 116.641C24.1634 116.01 24.6818 115.137 25.2144 114.153C25.7507 113.169 26.2047 112.264 26.53 111.604C26.6837 111.294 26.8124 111.034 26.9125 110.824C27.0055 110.638 27.0591 110.539 27.0662 110.542C27.0734 110.546 27.0376 110.653 26.959 110.845C26.8803 111.034 26.7659 111.308 26.6122 111.644C26.3119 112.314 25.8686 113.23 25.3288 114.217C24.7926 115.205 24.2635 116.074 23.8667 116.691C23.6665 117.001 23.5021 117.247 23.3841 117.415C23.2661 117.582 23.1982 117.675 23.1875 117.668H23.1911Z" fill="#E0E0E0"/>
<path d="M15.6455 117.476C15.6455 117.476 15.7528 117.458 15.9422 117.454C16.1603 117.454 16.432 117.447 16.7501 117.444C17.4294 117.44 18.3696 117.444 19.4098 117.458C20.4501 117.472 21.3903 117.49 22.0695 117.511C22.3877 117.522 22.6558 117.533 22.8739 117.543C23.0633 117.554 23.1706 117.565 23.1706 117.572C23.1706 117.583 23.0669 117.59 22.8739 117.593C22.6558 117.593 22.3841 117.601 22.066 117.604C21.3867 117.608 20.4465 117.604 19.4063 117.59C18.3696 117.576 17.4294 117.558 16.7466 117.536C16.4284 117.526 16.1603 117.515 15.9422 117.504C15.7528 117.494 15.6455 117.483 15.6455 117.476Z" fill="#E0E0E0"/>
<path d="M19.5127 126.696C19.5127 126.696 19.6485 126.678 19.8916 126.671C20.1597 126.667 20.5065 126.66 20.9248 126.653C21.797 126.642 23.0018 126.639 24.3316 126.642C25.6615 126.646 26.8698 126.657 27.742 126.675C28.1603 126.685 28.507 126.692 28.7752 126.699C29.0182 126.707 29.1541 126.717 29.1541 126.728C29.1541 126.739 29.0182 126.746 28.7752 126.753C28.507 126.757 28.1603 126.764 27.742 126.771C26.8698 126.781 25.665 126.785 24.3316 126.781C23.0018 126.778 21.797 126.767 20.9248 126.749C20.5065 126.739 20.1597 126.732 19.8916 126.724C19.6485 126.717 19.5127 126.707 19.5127 126.696Z" fill="#E0E0E0"/>
<path d="M28.9219 126.66C28.9219 126.66 28.9791 126.525 29.1042 126.297C29.24 126.047 29.4224 125.723 29.6368 125.331C30.0837 124.515 30.7022 123.385 31.3456 122.116C31.9927 120.85 32.5468 119.688 32.94 118.843C33.1295 118.437 33.2868 118.102 33.4083 117.845C33.5191 117.61 33.5871 117.482 33.5942 117.485C33.6014 117.489 33.5549 117.624 33.4548 117.867C33.3583 118.109 33.2117 118.458 33.0258 118.883C32.654 119.738 32.1106 120.907 31.4636 122.176C30.8201 123.445 30.1909 124.572 29.7191 125.377C29.4831 125.78 29.2901 126.104 29.1507 126.325C29.0112 126.546 28.9326 126.668 28.9219 126.66Z" fill="#E0E0E0"/>
<path d="M49.2037 67.108C47.8273 66.5662 46.3152 65.3792 45.5537 64.1102C45.1247 63.3973 44.8209 62.5596 44.9531 61.7397C45.0854 60.9163 45.7539 60.1463 46.5869 60.1071C47.1588 60.0822 47.7022 60.3923 48.0883 60.8093C48.4744 61.2264 48.7318 61.7468 48.982 62.2601C49.0857 61.426 49.5826 60.6133 50.3548 60.2747C51.1269 59.936 52.1136 60.1998 52.5783 60.902C53.0574 61.6221 52.9108 62.6772 52.4961 63.326C52.0814 63.9747 51.4665 64.5557 50.9196 65.1011C50.1975 65.8247 49.2037 66.3986 49.2037 67.108Z" fill="#EBEBEB"/>
<path d="M151.199 57.3829C150.244 57.0086 149.2 56.1852 148.671 55.3083C148.375 54.8164 148.164 54.2354 148.257 53.6686C148.349 53.0983 148.811 52.5636 149.386 52.5386C149.783 52.5208 150.158 52.7347 150.426 53.0234C150.695 53.3122 150.873 53.6722 151.045 54.0286C151.116 53.4512 151.46 52.888 151.996 52.6563C152.532 52.4246 153.211 52.6064 153.537 53.0911C153.869 53.5902 153.765 54.3209 153.479 54.7701C153.193 55.2192 152.768 55.622 152.389 55.9999C151.889 56.4989 151.199 56.8981 151.199 57.3901" fill="#F5F5F5"/>
<path d="M88.0001 48.3014C87.1421 47.9627 86.1983 47.2213 85.7229 46.4335C85.4548 45.9879 85.2653 45.4675 85.3475 44.9542C85.4297 44.4409 85.848 43.9597 86.3663 43.9347C86.7238 43.9169 87.0634 44.113 87.303 44.3732C87.5461 44.6334 87.7033 44.9578 87.8606 45.2786C87.925 44.7581 88.236 44.252 88.715 44.0417C89.1941 43.8313 89.8125 43.9953 90.1021 44.4338C90.4024 44.8829 90.3094 45.5424 90.052 45.9452C89.7946 46.3515 89.4086 46.7115 89.0689 47.0537C88.6185 47.5029 87.9965 47.8629 87.9965 48.3049" fill="#EBEBEB"/>
<path d="M10.1421 56.3131C8.60134 55.7071 6.914 54.3811 6.06319 52.9659C5.58058 52.1675 5.24454 51.2336 5.39111 50.3174C5.53768 49.3978 6.28483 48.5351 7.21787 48.4924C7.85419 48.4638 8.46549 48.8096 8.89805 49.2766C9.33061 49.7435 9.6166 50.3246 9.89901 50.8985C10.017 49.9681 10.5711 49.0591 11.4326 48.6813C12.2942 48.3034 13.3952 48.5993 13.9172 49.38C14.4534 50.1856 14.2854 51.3619 13.8242 52.0891C13.363 52.8162 12.6731 53.4614 12.0654 54.071C11.2575 54.8801 10.1457 55.5218 10.1457 56.3131" fill="#F5F5F5"/>
<path d="M118.354 71.6562C117.038 71.1393 115.598 70.0057 114.868 68.7973C114.457 68.1165 114.168 67.318 114.297 66.5338C114.422 65.7496 115.062 65.0117 115.855 64.9761C116.399 64.9511 116.92 65.247 117.289 65.6462C117.66 66.0455 117.904 66.5409 118.143 67.0293C118.243 66.2344 118.715 65.4573 119.451 65.1329C120.188 64.8085 121.128 65.0616 121.575 65.7318C122.032 66.4197 121.89 67.425 121.496 68.0452C121.103 68.6654 120.513 69.218 119.991 69.7384C119.301 70.4264 118.35 70.9789 118.35 71.6526" fill="#EBEBEB"/>
<path d="M12.8151 27.3198L13.1726 27.9721C13.573 28.7029 14.1772 29.3053 14.9136 29.7081L15.5678 30.0646L14.9136 30.421C14.1807 30.8203 13.5766 31.4227 13.1726 32.157L12.8151 32.8093L12.4577 32.157C12.0573 31.4262 11.4531 30.8238 10.7167 30.421L10.0625 30.0646L10.7167 29.7081C11.4495 29.3089 12.0537 28.7065 12.4577 27.9721L12.8151 27.3198Z" fill="#EBEBEB"/>
<path d="M122.06 4.57666L122.418 5.22898C122.818 5.95973 123.422 6.56215 124.159 6.96495L124.813 7.32141L124.159 7.67787C123.426 8.0771 122.822 8.67952 122.418 9.41383L122.06 10.0662L121.703 9.41383C121.302 8.68308 120.698 8.08067 119.962 7.67787L119.308 7.32141L119.962 6.96495C120.695 6.56571 121.299 5.96329 121.703 5.22898L122.06 4.57666Z" fill="#EBEBEB"/>
<path d="M30.165 31.4331L30.6834 32.3777C31.2661 33.4364 32.1383 34.3097 33.2001 34.8872L34.1474 35.4041L33.2001 35.9209C32.1383 36.502 31.2625 37.3717 30.6834 38.4304L30.165 39.375L29.6467 38.4304C29.064 37.3717 28.1917 36.4984 27.13 35.9209L26.1826 35.4041L27.13 34.8872C28.1917 34.3062 29.0675 33.4364 29.6467 32.3777L30.165 31.4331Z" fill="#EBEBEB"/>
<path d="M27.4611 9.76367L27.6577 10.1201C27.8758 10.5194 28.2082 10.8509 28.6086 11.0683L28.9661 11.2644L28.6086 11.4604C28.2082 11.6779 27.8758 12.0094 27.6577 12.4086L27.4611 12.7651L27.2645 12.4086C27.0464 12.0094 26.7139 11.6779 26.3135 11.4604L25.9561 11.2644L26.3135 11.0683C26.7139 10.8509 27.0464 10.5194 27.2645 10.1201L27.4611 9.76367Z" fill="#F5F5F5"/>
<path d="M131.197 0L131.394 0.356461C131.612 0.755696 131.945 1.0872 132.345 1.30465L132.702 1.5007L132.345 1.69675C131.945 1.91419 131.612 2.2457 131.394 2.64494L131.197 3.0014L131.001 2.64494C130.783 2.2457 130.45 1.91419 130.05 1.69675L129.692 1.5007L130.05 1.30465C130.45 1.0872 130.783 0.755696 131.001 0.356461L131.197 0Z" fill="#F5F5F5"/>
<path d="M160.001 132.522C160.001 132.572 124.181 132.614 80.0067 132.614C35.8321 132.614 0.00488281 132.572 0.00488281 132.522C0.00488281 132.472 35.8178 132.429 80.0067 132.429C124.196 132.429 160.001 132.472 160.001 132.522Z" fill="#263238"/>
<path d="M112.864 48.7037V37.9065H126.52V60.6808L112.864 48.7037Z" fill="#FEF2CA"/>
<path d="M127.502 37.2678H111.505V41.9624H127.502V37.2678Z" fill="#FEF2CA"/>
<path d="M127.475 41.9618C127.475 42.0117 123.907 42.0545 119.503 42.0545C115.099 42.0545 111.531 42.0117 111.531 41.9618C111.531 41.9119 115.099 41.8691 119.503 41.8691C123.907 41.8691 127.475 41.9119 127.475 41.9618Z" fill="#263238"/>
<path d="M15.0312 72.0626L77.0122 19.1104L148.234 72.2658L142.268 77.3703L77.2159 30.0965L21.298 77.3061L15.0312 72.0626Z" fill="#FEF2CA"/>
<g opacity="0.3">
<path d="M77.2145 30.0965L77.0107 19.1104L148.233 72.2658L142.266 77.3703L77.2145 30.0965Z" fill="black"/>
</g>
<path d="M77.2174 30.0968C77.2174 30.0968 77.1923 29.9435 77.178 29.6655C77.1673 29.3482 77.153 28.9561 77.1387 28.4892C77.1065 27.4554 77.0672 26.1044 77.0207 24.6073C76.9778 23.0924 76.9528 21.7164 76.9564 20.7219C76.9564 20.2229 76.9635 19.8236 76.9743 19.5456C76.985 19.2675 76.9957 19.1143 77.01 19.1143C77.0243 19.1143 77.035 19.2675 77.0493 19.5456C77.0601 19.8628 77.0744 20.2549 77.0887 20.7219C77.1208 21.7556 77.1602 23.1102 77.2066 24.6037C77.2495 26.1187 77.2746 27.4946 77.271 28.4892C77.271 28.9882 77.2638 29.3875 77.2531 29.6655C77.2424 29.9435 77.2317 30.0968 77.2174 30.0968Z" fill="#263238"/>
<path d="M61.2094 55.4044C60.666 54.2209 60.119 53.0232 59.8509 51.7471C59.5864 50.471 59.6221 49.0915 60.212 47.9294C60.5552 47.2486 61.0771 46.6604 61.3559 45.951C61.7385 44.9743 61.6491 43.798 62.2997 42.9746C63.315 41.6878 65.3634 42.0834 66.8791 41.4489C68.0588 40.957 68.9168 39.8199 70.1537 39.4813C71.2333 39.1854 72.3772 39.5597 73.3889 40.0409C74.397 40.5222 75.3765 41.121 76.4776 41.3135C77.2641 41.4489 78.0684 41.367 78.8656 41.4204C79.6628 41.4703 80.4993 41.6806 81.0355 42.2688C81.5718 42.857 81.6468 43.905 81.0177 44.3933C82.4226 44.2151 83.6774 45.6552 83.5987 47.0668C83.5201 48.4748 82.4047 49.6725 81.0963 50.2036C79.7879 50.7347 78.3186 50.7134 76.9137 50.5458C72.9385 50.0717 68.9918 48.3928 66.3965 45.3486" fill="#263238"/>
<path d="M62.2775 50.4628L58.7384 70.0467C58.1378 73.376 59.1602 78.5946 62.9138 79.0402C66.9248 79.4822 69.7382 78.3201 70.2995 75.2118C70.564 73.7361 70.9143 69.4372 70.9537 69.2874C70.9537 69.2874 76.0371 69.7152 77.2919 64.8459C77.8961 62.4933 78.7469 57.5456 79.4654 53.0578C80.2376 48.242 77.1632 43.6437 72.4086 42.4887L71.9368 42.3747C66.7675 41.4336 63.0818 45.287 62.2811 50.4663L62.2775 50.4628Z" fill="#FFBE9D"/>
<path d="M70.9512 69.2839C70.9512 69.2839 67.8196 68.7136 65.0312 65.8547C65.0312 65.8547 65.807 70.0218 70.8046 70.7668L70.9512 69.2803V69.2839Z" fill="#EB996E"/>
<path d="M76.4962 56.4858C76.4211 56.8565 76.0422 57.0989 75.6489 57.0276C75.2593 56.9563 75.0055 56.5963 75.0805 56.222C75.1556 55.8513 75.5345 55.6089 75.9278 55.6802C76.3174 55.7515 76.5713 56.1115 76.4962 56.4858Z" fill="#263238"/>
<path d="M77.8269 55.1957C77.7197 55.267 77.2836 54.7466 76.5293 54.5648C75.7785 54.3723 75.1315 54.6254 75.0743 54.5149C75.0457 54.465 75.1708 54.3224 75.4568 54.2048C75.7356 54.0871 76.1825 54.0159 76.6508 54.1335C77.1191 54.2511 77.473 54.5185 77.6553 54.7502C77.8448 54.9819 77.8806 55.1672 77.8305 55.1957H77.8269Z" fill="#263238"/>
<path d="M69.4239 54.9571C69.3488 55.3278 68.9699 55.5702 68.5767 55.4954C68.187 55.4241 67.9332 55.064 68.0083 54.6898C68.0833 54.319 68.4623 54.0766 68.8555 54.1479C69.2452 54.2192 69.499 54.5793 69.4239 54.9535V54.9571Z" fill="#263238"/>
<path d="M70.3894 53.5417C70.2786 53.613 69.8461 53.0925 69.0918 52.9108C68.341 52.7183 67.694 52.9713 67.6368 52.8608C67.6082 52.8109 67.7333 52.6684 68.0193 52.5507C68.2981 52.4331 68.745 52.3618 69.2133 52.4794C69.6816 52.5971 70.0355 52.8644 70.2178 53.0961C70.4037 53.3278 70.4431 53.5132 70.393 53.5417H70.3894Z" fill="#263238"/>
<path d="M71.7656 59.7692C71.7728 59.7264 72.259 59.7585 73.0419 59.8476C73.2385 59.8761 73.4315 59.8797 73.4959 59.7585C73.5745 59.6301 73.5459 59.4056 73.5066 59.1596C73.4387 58.6534 73.3672 58.1188 73.2957 57.5627C73.0133 55.292 72.8595 53.4456 72.9525 53.4349C73.0454 53.4242 73.3493 55.2564 73.6281 57.5235C73.6925 58.0831 73.7568 58.6142 73.814 59.124C73.8319 59.3592 73.8998 59.6373 73.7318 59.9011C73.646 60.0329 73.478 60.1007 73.3457 60.1042C73.2134 60.1114 73.1062 60.0864 73.0097 60.0686C72.2375 59.926 71.762 59.8119 71.7692 59.7692H71.7656Z" fill="#263238"/>
<path d="M69.4222 59.751C69.5474 59.7724 69.3507 60.5887 69.9084 61.3372C70.4661 62.0858 71.3598 62.207 71.3384 62.3211C71.3384 62.3745 71.106 62.4316 70.7342 62.3531C70.3696 62.2783 69.8727 62.0359 69.5295 61.576C69.1899 61.1162 69.1219 60.5993 69.1756 60.2607C69.2292 59.9114 69.3686 59.7332 69.4222 59.751Z" fill="#263238"/>
<path d="M71.3027 50.6473C71.1776 50.8326 70.4519 50.5546 69.5403 50.4476C68.6323 50.3229 67.8602 50.4049 67.7851 50.1946C67.7529 50.0947 67.9245 49.9308 68.2605 49.806C68.593 49.6777 69.0935 49.5993 69.6404 49.6706C70.1838 49.7418 70.6485 49.9415 70.9381 50.1518C71.2312 50.3621 71.3564 50.5617 71.2992 50.6508L71.3027 50.6473Z" fill="#263238"/>
<path d="M78.0799 52.957C77.9047 53.096 77.4293 52.793 76.8072 52.6326C76.1924 52.4508 75.6275 52.4686 75.5489 52.2583C75.5167 52.1585 75.6418 52.0088 75.91 51.9019C76.1781 51.7949 76.5892 51.7557 77.0146 51.8733C77.44 51.991 77.7725 52.2369 77.9476 52.4615C78.1264 52.6896 78.155 52.8821 78.0763 52.9534L78.0799 52.957Z" fill="#263238"/>
<path d="M61.796 54.1772C61.721 54.1201 58.6716 52.3663 57.9638 55.7313C57.256 59.0963 60.7915 59.1106 60.8165 59.0143C60.8415 58.9181 61.796 54.1736 61.796 54.1736V54.1772Z" fill="#FFBE9D"/>
<path d="M60.0504 57.5248C60.0504 57.5248 59.9825 57.5533 59.8752 57.5782C59.768 57.6032 59.5964 57.5961 59.4355 57.4963C59.1066 57.2895 58.9243 56.6657 59.0351 56.0526C59.0923 55.746 59.2174 55.468 59.3747 55.247C59.5284 55.0224 59.7251 54.8834 59.911 54.8905C60.0968 54.887 60.2041 55.0189 60.2255 55.1222C60.2506 55.2256 60.2148 55.2898 60.2327 55.2969C60.2398 55.3076 60.3185 55.2541 60.3185 55.1115C60.3185 55.0402 60.297 54.9547 60.2291 54.8727C60.1612 54.7907 60.0504 54.7301 59.9217 54.7194C59.6571 54.6838 59.3747 54.8727 59.1996 55.1115C59.0101 55.3504 58.8599 55.6605 58.7992 56.0062C58.6776 56.6871 58.8921 57.3964 59.3497 57.6388C59.5749 57.7493 59.7858 57.7208 59.9074 57.6638C60.0289 57.6032 60.0611 57.5319 60.0539 57.5212L60.0504 57.5248Z" fill="#EB996E"/>
<path d="M80.6313 48.5206C79.9949 49.7504 76.9778 50.1068 74.8078 49.3547C72.8059 48.6596 72.1267 47.3478 70.8826 46.1751C70.3583 45.6808 69.6541 45.3695 68.7699 45.2412C67.6974 45.0843 66.7894 46.118 65.9457 46.7953C66.2854 49.508 64.9734 52.1244 63.7007 54.5448C63.5613 54.8121 63.4005 55.0973 63.1216 55.222C62.6497 55.4288 62.1171 55.0474 61.8597 54.6054C61.4486 53.896 61.4307 53.0263 61.4807 52.2064C61.5951 50.3385 62.0027 48.4742 62.8356 46.7989C63.6686 45.1235 64.9412 43.6406 66.5642 42.7032C68.5947 41.534 71.1007 41.2809 73.3707 41.8655C75.6408 42.4536 77.6641 43.8474 79.1477 45.6582C79.8377 46.4995 80.4239 47.4548 80.6277 48.5206" fill="#263238"/>
<path d="M73.3743 56.428C73.4029 56.428 73.4064 56.1357 73.5602 55.6473C73.7139 55.1661 74.0785 54.471 74.8364 53.9542C75.5692 53.4373 76.7489 53.1806 77.8607 53.6476C78.4077 53.8722 78.9224 54.2714 79.2764 54.8097C79.641 55.3408 79.8305 56.0109 79.809 56.6918C79.7733 57.3726 79.5302 58.0249 79.1191 58.524C78.7223 59.0301 78.1753 59.3866 77.6105 59.5648C76.4629 59.9391 75.3083 59.5862 74.6219 59.0088C73.9105 58.4313 73.6066 57.7077 73.4922 57.2158C73.3778 56.7132 73.3993 56.4209 73.3707 56.4209C73.36 56.4209 73.3528 56.4922 73.3457 56.6312C73.3349 56.7702 73.3457 56.9769 73.3886 57.2372C73.4744 57.7505 73.7603 58.524 74.5003 59.1549C75.2117 59.7858 76.4451 60.1922 77.6891 59.8037C78.3004 59.6183 78.8974 59.2369 79.33 58.6879C79.7768 58.1497 80.045 57.4368 80.0843 56.6989C80.1093 55.9575 79.8984 55.2303 79.498 54.6528C79.1083 54.0718 78.5507 53.6405 77.9537 53.4052C76.7454 52.9133 75.4834 53.2163 74.722 53.7866C73.9319 54.3534 73.5816 55.102 73.4565 55.6081C73.3886 55.8648 73.3635 56.068 73.3635 56.207C73.36 56.346 73.3635 56.4173 73.3707 56.4173L73.3743 56.428Z" fill="#263238"/>
<path d="M65.3743 54.6921C65.4029 54.6921 65.4064 54.3999 65.5602 53.9115C65.7139 53.4303 66.0785 52.7352 66.8364 52.2183C67.5692 51.7014 68.7489 51.4448 69.8607 51.9118C70.4077 52.1363 70.9224 52.5356 71.2764 53.0738C71.641 53.6049 71.8305 54.2751 71.809 54.9559C71.7733 55.6368 71.5302 56.2891 71.1191 56.7881C70.7223 57.2943 70.1753 57.6508 69.6105 57.829C68.4629 58.2033 67.3083 57.8504 66.6219 57.2729C65.9105 56.6955 65.6066 55.9718 65.4922 55.4799C65.3778 54.9773 65.3993 54.685 65.3707 54.685C65.36 54.685 65.3528 54.7563 65.3457 54.8953C65.3349 55.0344 65.3457 55.2411 65.3886 55.5013C65.4744 56.0146 65.7604 56.7881 66.5003 57.4191C67.2117 58.05 68.4451 58.4564 69.6891 58.0678C70.3004 57.8825 70.8974 57.5011 71.33 56.9521C71.7768 56.4139 72.045 55.7009 72.0843 54.9631C72.1093 54.2216 71.8984 53.4944 71.498 52.917C71.1083 52.3359 70.5507 51.9046 69.9537 51.6694C68.7454 51.1774 67.4834 51.4804 66.722 52.0508C65.9319 52.6176 65.5816 53.3661 65.4565 53.8723C65.3886 54.1289 65.3635 54.3321 65.3635 54.4711C65.36 54.6102 65.3635 54.6815 65.3707 54.6815L65.3743 54.6921Z" fill="#263238"/>
<path d="M72.011 55.0808C72.0432 55.1521 72.4829 54.9668 72.9798 55.1414C73.4767 55.3125 73.7091 55.726 73.777 55.6904C73.8092 55.6761 73.7985 55.5478 73.6912 55.3731C73.5875 55.1985 73.373 54.9882 73.0692 54.8812C72.7653 54.7743 72.465 54.8099 72.2756 54.8812C72.0825 54.9525 71.9932 55.0487 72.011 55.0808Z" fill="#263238"/>
<path d="M60.8418 53.6335C60.8418 53.7083 61.9214 53.801 63.2584 53.8366C64.5954 53.8723 65.6786 53.8402 65.6822 53.7654C65.6822 53.6905 64.6025 53.5978 63.2656 53.5622C61.9286 53.5265 60.8454 53.5586 60.8418 53.6335Z" fill="#263238"/>
<path d="M24.0871 80.9988L30.697 88.4773L38.8298 80.9988L45.4325 88.6876C45.4325 88.6876 37.979 96.4086 34.0216 98.0982C30.3073 99.688 28.5378 98.2622 27.2615 97.9414C26.0354 97.6348 19.2217 85.5044 19.2217 85.5044L24.0871 80.9988Z" fill="#FFBE9D"/>
<path d="M28.2242 72.3933C28.2242 72.3933 27.8775 72.9173 26.9373 74.5748C25.9864 76.2502 26.1008 78.2107 25.5931 79.7756C24.9818 81.6541 24.3955 82.0106 24.3955 82.0106L19.2263 85.5075C19.2263 85.5075 16.7275 83.9711 15.8838 82.5702C15.0366 81.1693 13.6745 76.3535 13.6745 76.3535L11.3223 72.1259C11.3223 72.1259 11.2901 71.8942 11.3652 71.7552C11.7763 71.0031 12.8416 70.9603 13.3171 71.6732C13.3171 71.6732 14.1178 70.9674 15.4763 71.7695C16.5952 72.4289 16.4808 73.3842 16.4808 73.3842C17.1422 73.6943 20.3023 78.6385 21.0888 77.3588C21.7859 76.2288 22.4329 75.801 22.4329 75.801C24.9246 74.4857 24.4742 74.4786 25.5466 73.0777C26.612 71.6875 27.9883 71.3453 28.2278 72.4004L28.2242 72.3933Z" fill="#FFBE9D"/>
<path d="M14.7849 78.595C14.7849 78.595 14.767 78.5237 14.7527 78.3847C14.7384 78.2243 14.7205 78.0246 14.6991 77.7787C14.6598 77.2262 14.6026 76.4669 14.5346 75.5437C14.5025 75.0696 14.4667 74.5527 14.431 74.0002C14.4131 73.7222 14.3952 73.4334 14.3738 73.1411C14.3595 72.8488 14.3094 72.5316 14.4167 72.2001C14.4703 72.0397 14.5811 71.8793 14.7384 71.7866C14.8957 71.6903 15.0816 71.6583 15.2603 71.6761C15.6143 71.701 15.961 71.9185 16.1541 72.225C16.3543 72.528 16.4508 72.8774 16.5294 73.2231C16.6045 73.5653 16.6831 73.9147 16.7582 74.2676C17.1622 76.1354 17.5411 77.8856 17.8664 79.3756L17.7806 79.3115C18.5814 79.2687 19.3142 79.422 19.9112 79.6679C20.5154 79.9068 20.9837 80.2347 21.334 80.5341C21.6844 80.8371 21.9132 81.1223 22.0562 81.3219C22.1276 81.4217 22.1741 81.5037 22.2099 81.5572C22.242 81.6106 22.2563 81.6427 22.2528 81.6427C22.2277 81.6641 21.9739 81.1864 21.2733 80.6019C20.9193 80.3167 20.4582 80.0066 19.8648 79.7856C19.2785 79.5539 18.5635 79.4184 17.7913 79.4647H17.7234L17.7091 79.4006C17.3802 77.9106 16.9906 76.1639 16.5759 74.2961C16.4972 73.9432 16.4222 73.5938 16.3471 73.2516C16.2685 72.913 16.1791 72.5815 16.0003 72.3141C15.8287 72.0397 15.5463 71.8721 15.246 71.8436C14.9422 71.808 14.6633 71.9719 14.5811 72.25C14.4882 72.5209 14.5239 72.8274 14.5382 73.1233C14.5525 73.4192 14.5704 73.7079 14.5847 73.9859C14.6133 74.5385 14.6419 75.0553 14.6669 75.533C14.7098 76.4598 14.7456 77.219 14.7706 77.7716C14.7777 78.0211 14.7849 78.2207 14.7885 78.3811C14.7885 78.5201 14.7885 78.595 14.7813 78.595H14.7849Z" fill="#EB996E"/>
<path d="M23.1375 75.4191C23.1518 75.4441 22.9266 75.5759 22.5906 75.8183C22.2581 76.0607 21.8148 76.4314 21.4645 76.9483C21.1106 77.4616 20.9569 78.0177 20.914 78.4205C20.8711 78.8269 20.9033 79.0871 20.8711 79.0906C20.8532 79.0942 20.7746 78.8411 20.7817 78.4098C20.7924 77.9856 20.9354 77.3832 21.3108 76.8414C21.6826 76.2996 22.158 75.9288 22.5191 75.7078C22.8802 75.4868 23.1304 75.3977 23.1375 75.4191Z" fill="#EB996E"/>
<path d="M14.5222 74.2296C14.4757 74.2439 14.2148 73.6486 13.8358 72.9356C13.464 72.2192 13.1673 71.6346 13.2138 71.606C13.2567 71.5811 13.6285 72.1265 14.0038 72.8501C14.3828 73.5701 14.5758 74.2118 14.5222 74.2296Z" fill="#EB996E"/>
<path d="M34.6384 93.1327C34.5812 93.1612 34.0986 91.8565 33.0226 90.5555C31.9608 89.2437 30.7775 88.5129 30.8133 88.463C30.824 88.4452 31.135 88.6021 31.5855 88.9336C32.0359 89.2615 32.6222 89.7784 33.1655 90.4414C33.7054 91.1044 34.0986 91.7781 34.331 92.2843C34.5669 92.7905 34.6598 93.1255 34.6384 93.1327Z" fill="#EB996E"/>
<path d="M59.1793 67.685C59.1793 67.685 49.6094 70.2301 45.434 73.0604C43.3462 74.4755 36.1465 82.9736 36.1465 82.9736L43.3427 93.6103L50.782 86.3314L59.1757 67.6814L59.1793 67.685Z" fill="#E0E0E0"/>
<path d="M46.5641 87.4932L49.0272 116.096L54.8864 116.498H83.4459L83.3709 87.069L82.1125 74.1224L71.1127 69.9411C67.2018 73.7303 60.9351 72.775 59.1512 67.7346L46.5605 87.4897L46.5641 87.4932Z" fill="#E0E0E0"/>
<path d="M45.8297 78.5811C45.8798 78.5775 46.248 82.5021 46.6484 87.3464C47.0487 92.1907 47.3347 96.1225 47.2811 96.1261C47.2275 96.1296 46.8628 92.205 46.4625 87.3607C46.0621 82.5164 45.7761 78.5846 45.8297 78.5811Z" fill="#263238"/>
<g opacity="0.3">
<path d="M58.3899 110.86L57.7715 111.092C62.4009 110.849 66.8731 108.436 69.6078 104.704C66.033 107.049 62.4117 109.416 58.3864 110.863L58.3899 110.86Z" fill="black"/>
</g>
<path d="M69.9634 95.7141C69.9634 95.7141 69.9456 95.7783 69.8919 95.8888C69.8276 96.0171 69.7525 96.1775 69.656 96.37C69.5559 96.5803 69.4236 96.8334 69.2592 97.1221C69.0947 97.4109 68.9196 97.7424 68.6908 98.0953C68.2582 98.8082 67.6934 99.628 67.0213 100.505C66.3385 101.371 65.5413 102.291 64.6405 103.193C63.7289 104.087 62.803 104.875 61.9271 105.549C61.0442 106.212 60.2184 106.768 59.4998 107.196C59.1459 107.42 58.8099 107.591 58.5203 107.755C58.2307 107.919 57.9769 108.048 57.766 108.147C57.5694 108.24 57.4121 108.315 57.2798 108.379C57.169 108.429 57.1082 108.454 57.1047 108.447C57.1011 108.44 57.1547 108.408 57.2619 108.344C57.3871 108.272 57.5408 108.187 57.7303 108.083C57.934 107.973 58.1843 107.837 58.4667 107.666C58.7491 107.495 59.0816 107.317 59.4283 107.085C60.1361 106.647 60.9476 106.084 61.8199 105.417C62.685 104.74 63.6038 103.952 64.5046 103.064C65.4019 102.17 66.1955 101.261 66.8819 100.405C67.5575 99.5389 68.1295 98.7333 68.5728 98.0311C68.8052 97.6853 68.9911 97.361 69.1627 97.0794C69.3378 96.7977 69.4737 96.5518 69.5881 96.345C69.6953 96.1597 69.7811 96.0028 69.8526 95.8781C69.9134 95.7711 69.9491 95.7177 69.9563 95.7212L69.9634 95.7141Z" fill="#263238"/>
<path d="M27.4946 133.581L29.7539 143.847C29.7539 143.847 19.9231 148.83 20.1554 150.769L40.3999 147.871L37.5364 131.73L27.4946 133.581Z" fill="#455A64"/>
<g opacity="0.6">
<path d="M35.8191 141.847C36.2266 141.883 36.5769 142.271 36.5591 142.677C36.5412 143.087 36.148 143.444 35.7368 143.415C35.3293 143.387 34.8932 142.934 34.9575 142.531C35.0219 142.129 35.5045 141.733 35.8977 141.858" fill="white"/>
</g>
<g opacity="0.6">
<path d="M40.4004 147.867L40.1109 146.242L20.6601 149.721C20.6601 149.721 20.0523 150.099 20.0738 150.929L40.4004 147.867Z" fill="white"/>
</g>
<path d="M29.4121 143.804C29.4336 143.9 29.934 143.857 30.4738 144.085C31.0208 144.299 31.3461 144.677 31.4319 144.624C31.5177 144.588 31.2639 144.028 30.6061 143.764C29.9483 143.494 29.3764 143.718 29.4157 143.807L29.4121 143.804Z" fill="#263238"/>
<path d="M27.459 145.059C27.4554 145.159 27.9094 145.248 28.3205 145.601C28.7388 145.943 28.9068 146.375 29.0033 146.353C29.0999 146.353 29.0605 145.765 28.5458 145.337C28.031 144.902 27.4483 144.967 27.4626 145.059H27.459Z" fill="#263238"/>
<path d="M26.7207 147.792C26.8136 147.795 26.8601 147.282 26.5097 146.79C26.163 146.298 25.6625 146.17 25.6339 146.259C25.5946 146.348 25.9449 146.584 26.2238 146.99C26.5133 147.389 26.617 147.799 26.7171 147.792H26.7207Z" fill="#263238"/>
<path d="M29.1561 141.407C29.2133 141.489 29.6387 141.272 30.1999 141.208C30.7612 141.133 31.2259 141.24 31.2617 141.147C31.3046 141.065 30.8184 140.78 30.157 140.862C29.4957 140.94 29.0917 141.336 29.1525 141.404L29.1561 141.407Z" fill="#263238"/>
<g opacity="0.3">
<path d="M27.9453 135.612L28.3457 137.444L38.2159 135.559L37.9263 133.897L27.9453 135.612Z" fill="black"/>
</g>
<path d="M28.7402 139.326C28.7474 139.365 29.1442 139.358 29.7483 139.137C30.0486 139.026 30.3918 138.862 30.7422 138.624C30.9173 138.506 31.0925 138.367 31.2641 138.214C31.3463 138.139 31.4464 138.057 31.5251 137.921C31.6144 137.8 31.6287 137.529 31.475 137.39C31.3427 137.255 31.1497 137.223 31.0031 137.244C30.853 137.265 30.7386 137.319 30.6349 137.365C30.4204 137.462 30.2238 137.572 30.0486 137.693C29.6947 137.936 29.423 138.214 29.23 138.47C28.8403 138.987 28.751 139.379 28.7867 139.394C28.8368 139.419 29.0083 139.069 29.4195 138.627C29.6232 138.406 29.8949 138.171 30.2274 137.961C30.3954 137.857 30.5777 137.761 30.7743 137.679C30.9781 137.586 31.1568 137.551 31.2319 137.636C31.2569 137.668 31.2641 137.683 31.2319 137.754C31.1962 137.818 31.1211 137.893 31.0389 137.968C30.8816 138.117 30.7207 138.249 30.5634 138.367C30.2452 138.606 29.9307 138.784 29.659 138.916C29.112 139.18 28.7367 139.276 28.7474 139.329L28.7402 139.326Z" fill="#263238"/>
<path d="M28.8916 139.445C28.931 139.452 29.0597 139.067 28.981 138.425C28.9417 138.108 28.838 137.734 28.6414 137.349C28.5413 137.16 28.4198 136.967 28.2732 136.786C28.1195 136.607 27.9264 136.368 27.5368 136.393C27.3366 136.422 27.2007 136.607 27.1686 136.75C27.1257 136.896 27.1364 137.017 27.1328 137.138C27.14 137.381 27.1864 137.609 27.2544 137.816C27.3974 138.233 27.6369 138.554 27.8728 138.775C28.3626 139.224 28.7915 139.266 28.7951 139.231C28.8201 139.177 28.4412 139.049 28.0516 138.603C27.8585 138.382 27.6655 138.083 27.5618 137.716C27.5082 137.534 27.476 137.334 27.476 137.131C27.4688 136.914 27.5189 136.725 27.6011 136.732C27.7012 136.711 27.9014 136.843 28.0122 136.996C28.1481 137.156 28.2625 137.327 28.3626 137.495C28.5556 137.834 28.6736 138.172 28.7415 138.461C28.8773 139.045 28.838 139.43 28.8952 139.434L28.8916 139.445Z" fill="#263238"/>
<path d="M26.788 136.168C26.788 136.168 19.8456 107.83 19.7669 103.951C19.6847 99.8308 23.4741 96.3624 26.0122 95.7814C28.5504 95.1968 34.2058 97.1431 37.3302 101.036C40.4511 104.928 50.4035 112.321 50.4035 112.321C54.5146 115.397 60.6061 116.706 66.1436 113.822C66.1436 113.822 74.2728 126.43 74.8019 126.109C75.7564 125.535 75.1344 127.121 74.3729 129.078C72.8679 132.95 69.8865 136.25 66.4296 136.332L46.5605 137.22L38.8209 128.597L39.5395 134.561L26.788 136.168Z" fill="#263238"/>
<path d="M39.3458 132.853C39.3458 132.853 39.3136 132.75 39.2743 132.554C39.2349 132.354 39.1742 132.062 39.1134 131.684C38.9847 130.925 38.8346 129.82 38.7452 128.447C38.6522 127.075 38.6272 125.435 38.6951 123.617C38.7273 122.708 38.7738 121.757 38.8381 120.769C38.9061 119.782 38.9597 118.766 38.9275 117.721C38.8632 115.633 38.6129 113.647 38.2733 111.868C37.9373 110.086 37.5083 108.507 37.0579 107.213C36.6003 105.923 36.1427 104.907 35.7459 104.251C35.5707 103.909 35.3848 103.677 35.2812 103.502C35.1703 103.331 35.1167 103.242 35.1203 103.238C35.1239 103.235 35.1918 103.317 35.3098 103.481C35.4241 103.648 35.6208 103.876 35.8067 104.215C36.2249 104.864 36.7039 105.88 37.1794 107.17C37.6513 108.464 38.091 110.05 38.4413 111.836C38.7917 113.622 39.0526 115.615 39.1134 117.718C39.1456 118.769 39.092 119.8 39.0205 120.783C38.9561 121.771 38.9025 122.719 38.8703 123.628C38.7952 125.442 38.806 127.075 38.881 128.444C38.9525 129.813 39.0848 130.918 39.1885 131.677C39.235 132.058 39.2886 132.351 39.3136 132.554C39.3422 132.753 39.3529 132.86 39.3493 132.86L39.3458 132.853Z" fill="#455A64"/>
<path d="M51.8154 118.548C51.7582 118.548 51.8047 117.333 51.5938 115.857C51.39 114.381 51.0111 113.226 51.0647 113.208C51.0862 113.201 51.2113 113.479 51.3579 113.95C51.5044 114.42 51.6689 115.083 51.7761 115.828C51.8798 116.573 51.9048 117.258 51.8905 117.75C51.8762 118.242 51.8369 118.545 51.8119 118.545L51.8154 118.548Z" fill="#455A64"/>
<path d="M48.0167 137.519L38.0929 141.059C38.0929 141.059 39.0759 152.013 37.3064 152.844L29.0234 134.197L44.2595 128.048L48.0167 137.516V137.519Z" fill="#455A64"/>
<g opacity="0.6">
<path d="M36.5738 134.875C36.3271 134.547 35.8124 134.458 35.4763 134.693C35.1403 134.925 35.0438 135.449 35.2869 135.777C35.5264 136.108 36.1413 136.233 36.4523 135.966C36.7633 135.698 36.8384 135.078 36.5273 134.814" fill="white"/>
</g>
<g opacity="0.6">
<path d="M29.0234 134.201L30.5606 133.581L37.932 151.863C37.932 151.863 37.932 152.576 37.217 153.001L29.027 134.201H29.0234Z" fill="white"/>
</g>
<path d="M38.3113 141.327C38.2183 141.362 37.9895 140.913 37.5105 140.578C37.0386 140.229 36.5417 140.154 36.5453 140.054C36.5274 139.961 37.1387 139.879 37.7143 140.296C38.2934 140.71 38.4042 141.312 38.3113 141.327Z" fill="#263238"/>
<path d="M38.2824 143.643C38.2002 143.7 37.882 143.362 37.3637 143.205C36.8489 143.03 36.3949 143.119 36.3627 143.027C36.3127 142.945 36.831 142.667 37.4709 142.874C38.1144 143.077 38.3682 143.604 38.2824 143.643Z" fill="#263238"/>
<path d="M36.3484 145.718C36.2948 145.643 36.7059 145.329 37.3101 145.365C37.9142 145.397 38.2896 145.753 38.2252 145.821C38.168 145.903 37.7855 145.732 37.2886 145.71C36.7953 145.678 36.3913 145.807 36.3449 145.718H36.3484Z" fill="#263238"/>
<path d="M40.4826 140.271C40.3825 140.268 40.3396 139.79 40.0966 139.284C39.8606 138.771 39.5246 138.432 39.5853 138.354C39.6318 138.272 40.1323 138.535 40.4147 139.138C40.7007 139.74 40.5792 140.289 40.4862 140.275L40.4826 140.271Z" fill="#263238"/>
<g opacity="0.3">
<path d="M46.0494 138.218L44.2798 138.849L40.6406 129.51L42.2064 128.872L46.0494 138.218Z" fill="black"/>
</g>
<path d="M42.4711 139.519C42.4317 139.537 42.228 139.191 42.0957 138.568C42.0314 138.257 41.9885 137.876 42.0028 137.452C42.0099 137.241 42.0349 137.02 42.0743 136.792C42.0957 136.682 42.11 136.557 42.1815 136.418C42.2387 136.275 42.4603 136.122 42.657 136.179C42.8428 136.218 42.9715 136.365 43.0323 136.5C43.0931 136.639 43.111 136.764 43.1253 136.874C43.1574 137.106 43.1682 137.331 43.1574 137.544C43.136 137.972 43.0466 138.35 42.9322 138.649C42.6999 139.252 42.4139 139.541 42.3817 139.516C42.3352 139.487 42.539 139.156 42.6963 138.575C42.7749 138.286 42.8357 137.933 42.8357 137.537C42.8357 137.341 42.8214 137.135 42.7857 136.924C42.7571 136.703 42.6927 136.532 42.5819 136.514C42.539 136.511 42.5247 136.514 42.4854 136.578C42.4496 136.643 42.4282 136.746 42.4067 136.853C42.3638 137.063 42.3352 137.27 42.3209 137.47C42.2887 137.865 42.303 138.225 42.3352 138.528C42.3996 139.131 42.5175 139.498 42.4675 139.516L42.4711 139.519Z" fill="#263238"/>
<path d="M42.2882 139.452C42.2596 139.423 42.5206 139.11 43.1069 138.835C43.4 138.7 43.7718 138.589 44.2008 138.55C44.4153 138.532 44.6405 138.532 44.8764 138.561C45.1088 138.596 45.4127 138.632 45.5986 138.974C45.6808 139.159 45.5986 139.373 45.4913 139.477C45.3876 139.591 45.284 139.648 45.1803 139.712C44.973 139.837 44.7549 139.919 44.5404 139.969C44.1114 140.068 43.711 140.04 43.3965 139.954C42.7566 139.78 42.492 139.437 42.5206 139.416C42.5564 139.366 42.8638 139.619 43.4501 139.712C43.7396 139.758 44.0971 139.762 44.4653 139.655C44.6477 139.605 44.8335 139.527 45.0087 139.42C45.1982 139.309 45.3305 139.17 45.2804 139.102C45.2447 139.006 45.0266 138.906 44.8371 138.896C44.6262 138.867 44.4224 138.856 44.2258 138.867C43.8362 138.885 43.4858 138.963 43.2034 139.06C42.635 139.256 42.3276 139.491 42.2918 139.448L42.2882 139.452Z" fill="#263238"/>
<path d="M46.4823 125.787C46.4823 125.787 66.4157 107.198 72.9612 108.185C79.5068 109.173 81.094 112.338 81.6875 114.908C82.2809 117.478 82.0843 125.192 73.1579 129.74C64.2314 134.289 45.1917 139.233 45.1917 139.233L41.2236 128.158L46.4787 125.784L46.4823 125.787Z" fill="#263238"/>
<path d="M46.4835 125.788C46.4835 125.788 46.3726 125.845 46.1438 125.952C45.9115 126.059 45.5754 126.216 45.1357 126.419C44.242 126.829 42.93 127.428 41.2427 128.198L41.2642 128.148C42.2508 130.882 43.6128 134.66 45.2573 139.212L45.1751 139.169C49.8545 137.915 55.342 136.339 61.312 134.343C64.2934 133.334 67.4 132.226 70.528 130.868C71.3144 130.543 72.083 130.155 72.8623 129.784C73.2556 129.606 73.6202 129.367 74.0027 129.16L74.5711 128.839C74.7642 128.736 74.9322 128.597 75.1181 128.476C76.5873 127.527 77.9243 126.326 79.0111 124.9C80.1658 123.418 80.9701 121.703 81.4063 119.931C81.5349 119.493 81.5886 119.04 81.6708 118.595C81.7173 118.145 81.778 117.696 81.778 117.247C81.8066 116.349 81.7423 115.454 81.5135 114.602C81.299 113.747 80.9522 112.934 80.4804 112.21C80.0085 111.487 79.3972 110.87 78.7108 110.371C78.0244 109.872 77.2737 109.473 76.4944 109.18C75.7222 108.867 74.9179 108.664 74.1243 108.478C73.7239 108.407 73.3235 108.336 72.9267 108.264C72.7301 108.254 72.5335 108.243 72.3368 108.232C72.1402 108.243 71.9436 108.268 71.747 108.286C70.9677 108.407 70.2098 108.624 69.4948 108.917C68.0542 109.483 66.7315 110.207 65.4803 110.949C62.9814 112.442 60.7793 114.032 58.7988 115.518C54.8486 118.505 51.8028 121.122 49.708 122.933C48.6641 123.842 47.8598 124.558 47.3164 125.043C47.0483 125.282 46.8409 125.467 46.6979 125.595C46.5585 125.72 46.4835 125.781 46.4835 125.781C46.4835 125.781 46.5478 125.71 46.6836 125.581C46.8231 125.449 47.0268 125.26 47.2914 125.014C47.8276 124.519 48.6248 123.795 49.6615 122.876C51.7421 121.047 54.7771 118.416 58.7202 115.411C60.6971 113.918 62.8992 112.317 65.4016 110.813C66.6564 110.068 67.9827 109.334 69.434 108.76C70.1562 108.464 70.9248 108.239 71.722 108.115C71.9257 108.097 72.1259 108.072 72.3297 108.058C72.5335 108.068 72.7408 108.079 72.9481 108.093C73.3485 108.165 73.7525 108.236 74.1564 108.307C74.9572 108.492 75.7723 108.696 76.5552 109.016C77.3452 109.312 78.1138 109.715 78.8109 110.225C79.5116 110.735 80.1372 111.366 80.6269 112.107C81.1131 112.845 81.467 113.679 81.6887 114.549C81.9246 115.419 81.989 116.335 81.9639 117.244C81.9639 117.7 81.8996 118.156 81.8531 118.612C81.7709 119.065 81.7137 119.521 81.585 119.967C81.1417 121.764 80.3266 123.503 79.1577 125.004C78.0566 126.447 76.7017 127.663 75.2182 128.618C75.0323 128.739 74.8607 128.878 74.6676 128.982L74.0921 129.306C73.706 129.513 73.3378 129.752 72.941 129.934C72.1581 130.308 71.3859 130.693 70.5959 131.021C67.4607 132.382 64.347 133.488 61.362 134.493C55.3813 136.485 49.8903 138.05 45.2037 139.287L45.1429 139.301L45.1214 139.241C43.4984 134.678 42.1543 130.896 41.1784 128.158L41.1641 128.123L41.1998 128.109C42.8943 127.353 44.2063 126.768 45.1036 126.365C45.5468 126.169 45.8865 126.02 46.1224 125.916C46.3512 125.816 46.4727 125.77 46.4727 125.77L46.4835 125.788Z" fill="#455A64"/>
<path d="M57.1045 112.448C56.7971 111.892 57.4298 110.916 56.8293 110.705C54.5271 109.9 56.293 106.267 53.9372 106.905L50.7842 112.473C52.1605 113.311 51.5742 115.667 52.7754 116.74C53.4725 117.36 54.5306 117.325 55.4422 117.122C58.9098 116.348 61.8376 114.523 62.7314 111.094C62.8922 110.477 57.412 113.012 57.1045 112.452V112.448Z" fill="#E0E0E0"/>
<path d="M89.95 51.0874C87.9946 51.3476 85.8175 52.5774 85.0668 54.4096C84.4841 55.8319 85.149 57.9528 85.1704 59.4892C85.1883 60.7332 85.2098 61.9773 85.2848 63.2178C85.2705 63.339 85.2562 63.4601 85.2419 63.5813C85.0668 65.0749 84.8273 66.7431 84.8809 68.5504C84.8916 68.9995 84.9309 69.4487 84.9846 69.8871C85.0167 70.1081 85.0453 70.3256 85.0918 70.5395C85.1383 70.7533 85.1704 70.9672 85.2276 71.174C85.4314 72.0081 85.7138 72.7852 86.0356 73.4945C86.679 74.9168 87.4512 76.0753 88.1412 77.0056C88.8311 77.936 89.4424 78.6382 89.8821 79.1088C89.9286 79.1587 89.9715 79.2014 90.0144 79.2478C90.5006 80.4883 90.9867 81.7287 91.4729 82.9692C91.9591 84.2097 92.4596 85.4787 93.314 86.5018C94.1684 87.5248 95.4517 88.2841 96.7744 88.1557C97.9863 88.0417 99.0409 87.1933 99.6451 86.1346C100.249 85.0759 100.449 83.8319 100.474 82.6128L89.9536 51.0874H89.95ZM88.7382 76.5922C88.1412 75.6333 87.4619 74.4712 86.9007 73.1131C86.3359 71.755 85.939 70.2044 85.8997 68.5183C85.8926 68.2652 85.8926 68.0157 85.8961 67.7662C86.4359 70.101 87.3118 72.3538 88.1876 74.5888C88.5737 75.5762 88.9598 76.5636 89.3459 77.551C89.1564 77.2587 88.9526 76.9379 88.7346 76.5922H88.7382Z" fill="#263238"/>
<path d="M107.606 75.0068L93.4355 80.6924C93.4355 80.6924 98.6691 92.3308 103.163 91.2828C107.656 90.2384 109.837 79.5731 109.837 79.5731L107.603 75.0068H107.606Z" fill="#FFBE9D"/>
<path d="M108.311 75.4667C108.311 75.4667 109.87 86.0928 105.365 86.9519C102.209 87.5543 94.8731 79.9688 94.8731 79.9688C93.5933 80.3467 92.6424 81.0026 91.6307 81.6299C88.3919 83.6332 87.18 87.7504 88.6922 91.2365C90.2544 94.8439 92.31 99.5385 93.4718 101.966C95.5202 106.247 100.318 108.921 100.318 108.921L99.9244 118.014C99.9244 118.014 112.297 115.426 118.928 116.089C125.56 116.748 129.946 115.308 129.946 115.308L121.134 100.038L114.399 74.7859C114.399 74.7859 111.328 74.9998 108.311 75.4632V75.4667Z" fill="#455A64"/>
<path d="M114.4 74.7925C114.4 74.7925 118.425 74.7568 120.763 79.5762C121.964 82.0536 126.98 90.3876 126.98 90.1773L134.537 78.9845L141.126 82.6453C141.126 82.6453 134.98 95.6098 134.004 97.5561C133.029 99.5023 131.759 102.226 128.056 102.614C124.349 103.003 120.742 99.8909 119.959 98.0444C119.18 96.1979 113.521 86.5664 113.521 86.2741C113.521 85.9818 114.4 74.7996 114.4 74.7996V74.7925Z" fill="#455A64"/>
<path d="M127.145 110.464C127.145 110.464 127.095 110.4 127.013 110.268C126.923 110.122 126.805 109.929 126.659 109.687C126.348 109.159 125.912 108.421 125.368 107.509C124.278 105.634 122.766 103.039 121.054 100.094L121.043 100.077V100.055C121.007 99.2495 120.964 98.4118 120.896 97.5563C120.746 95.5601 120.403 93.678 119.881 92.0241C119.373 90.3701 118.626 88.9763 117.85 87.9283C117.075 86.8732 116.26 86.1745 115.67 85.7397C115.369 85.5293 115.134 85.3689 114.966 85.2727C114.801 85.1729 114.715 85.1159 114.719 85.1123C114.719 85.1052 114.812 85.1515 114.987 85.2406C115.162 85.3262 115.405 85.4759 115.716 85.6791C116.32 86.0961 117.16 86.7877 117.961 87.8463C118.762 88.8979 119.527 90.3024 120.053 91.9706C120.585 93.6317 120.939 95.5316 121.089 97.5385C121.157 98.3976 121.2 99.2388 121.232 100.044L121.222 100.002C122.916 102.96 124.403 105.566 125.483 107.448C126.005 108.375 126.423 109.12 126.723 109.655C126.859 109.904 126.966 110.104 127.049 110.253C127.12 110.389 127.156 110.464 127.152 110.467L127.145 110.464Z" fill="#263238"/>
<path d="M127.304 95.0285C127.258 95.0392 127.004 93.9947 126.929 92.6758C126.89 92.0164 126.9 91.4175 126.929 90.9898C126.958 90.5585 127 90.2947 127.022 90.2947C127.076 90.2947 127.036 91.3605 127.115 92.6651C127.19 93.9698 127.358 95.0213 127.304 95.0285Z" fill="#263238"/>
<path d="M110.179 92.1099C110.179 92.1099 110.25 92.2631 110.35 92.5483C110.404 92.6909 110.461 92.8691 110.508 93.0794C110.558 93.2897 110.629 93.525 110.669 93.7959C110.719 94.0633 110.769 94.3556 110.794 94.6764C110.837 94.9936 110.84 95.3358 110.851 95.6959C110.851 96.4159 110.787 97.2072 110.629 98.0235C110.461 98.8398 110.211 99.5955 109.932 100.259C109.782 100.587 109.646 100.9 109.485 101.178C109.339 101.463 109.178 101.716 109.028 101.941C108.888 102.173 108.731 102.365 108.602 102.54C108.477 102.715 108.356 102.857 108.252 102.968C108.048 103.196 107.934 103.313 107.923 103.306C107.895 103.281 108.352 102.786 108.917 101.873C109.056 101.645 109.21 101.392 109.35 101.107C109.503 100.829 109.632 100.519 109.775 100.194C110.039 99.5349 110.279 98.7899 110.447 97.9879C110.604 97.1823 110.669 96.4052 110.679 95.6959C110.672 95.343 110.672 95.0043 110.64 94.6906C110.622 94.3734 110.579 94.0847 110.54 93.8173C110.368 92.7551 110.14 92.1241 110.175 92.1099H110.179Z" fill="#263238"/>
<path d="M102.695 56.5993C101.455 52.1186 96.7036 49.5378 92.1528 50.9637C87.863 52.3075 85.4643 56.8773 86.5403 61.1834C87.4841 64.9583 88.5172 68.7332 89.0785 70.0236C90.7729 73.9233 93.7365 74.4722 94.8697 74.5364C95.1271 74.5507 95.7706 74.4223 96.0244 74.3546C96.0244 74.3546 96.0566 74.3617 96.0602 74.376L97.0611 79.2452C97.8976 82.3607 100.665 84.2927 103.828 83.4693C107.003 82.6459 108.393 79.3985 107.614 76.2545L102.695 56.5993Z" fill="#FFBE9D"/>
<path d="M89.2463 63.1376C89.3214 63.487 89.6825 63.708 90.0543 63.6331C90.4225 63.5583 90.662 63.2125 90.5869 62.8667C90.5118 62.5174 90.1508 62.2964 89.779 62.3713C89.4072 62.4461 89.1713 62.7919 89.2463 63.1412V63.1376Z" fill="#263238"/>
<path d="M87.9016 61.8574C88.0053 61.9216 88.4128 61.4225 89.1278 61.2407C89.8392 61.0482 90.454 61.2728 90.5076 61.1659C90.5362 61.1195 90.4111 60.9841 90.143 60.8807C89.8785 60.7773 89.4531 60.7167 89.0098 60.8344C88.5665 60.952 88.234 61.2122 88.0624 61.4332C87.8873 61.6578 87.8515 61.8289 87.9016 61.8574Z" fill="#263238"/>
<path d="M95.928 61.5393C96.0031 61.8886 96.3641 62.1096 96.7359 62.0347C97.1041 61.9599 97.3436 61.6141 97.2686 61.2683C97.1935 60.919 96.8324 60.698 96.4606 60.7729C96.0888 60.8477 95.8529 61.1935 95.928 61.5428V61.5393Z" fill="#263238"/>
<path d="M94.9426 60.167C95.0463 60.2311 95.4574 59.7321 96.1688 59.5503C96.8802 59.3578 97.495 59.5824 97.5487 59.4754C97.5773 59.4291 97.4557 59.2936 97.184 59.1903C96.9195 59.0869 96.4941 59.0263 96.0508 59.1439C95.6075 59.2616 95.2751 59.5218 95.1035 59.7428C94.9283 59.9674 94.8925 60.1385 94.9426 60.167Z" fill="#263238"/>
<path d="M93.6916 66.0671C93.6845 66.0279 93.2233 66.0671 92.4797 66.1633C92.2939 66.1918 92.1115 66.2025 92.0508 66.0849C91.9757 65.9673 92.0007 65.7534 92.0365 65.5217C92.0972 65.0405 92.158 64.5379 92.2259 64.0103C92.4762 61.8644 92.6084 60.1213 92.5191 60.1106C92.4333 60.1035 92.158 61.8359 91.9078 63.9782C91.8506 64.5058 91.797 65.0084 91.7433 65.4896C91.7255 65.7106 91.6683 65.9744 91.8291 66.2204C91.9113 66.3415 92.0722 66.4057 92.1973 66.4057C92.3225 66.4093 92.4261 66.3843 92.5191 66.3665C93.2519 66.2168 93.7023 66.1027 93.6952 66.0635L93.6916 66.0671Z" fill="#263238"/>
<path d="M96.0498 74.3429C96.0498 74.3429 98.8596 73.851 101.784 70.9102C101.784 70.9102 101.616 74.7885 96.3215 75.6547L96.0498 74.3429Z" fill="#EB996E"/>
<path d="M94.428 67.6852C94.5996 67.2824 95 66.983 95.4611 66.9152C95.7793 66.8689 96.1296 66.9331 96.3799 67.1327C96.6301 67.3323 96.7624 67.6745 96.6516 67.9597C96.5264 68.2769 96.1404 68.4444 95.7757 68.4373C95.4111 68.4302 95.0608 68.284 94.7283 68.1379C94.6354 68.0951 94.5424 68.0523 94.4709 67.9811C94.403 67.9098 94.3637 67.8028 94.4066 67.7173" fill="#EB996E"/>
<path d="M95.9122 66.0103C95.7942 66.0352 95.9872 66.798 95.4653 67.5145C94.9434 68.231 94.0961 68.3593 94.1176 68.4698C94.1176 68.5197 94.3392 68.5696 94.6896 68.4912C95.0328 68.4128 95.5046 68.1775 95.8264 67.7391C96.1445 67.3006 96.2053 66.8123 96.1517 66.4915C96.0981 66.1635 95.9658 65.996 95.9122 66.0138V66.0103Z" fill="#263238"/>
<path d="M94.0455 57.9046C94.1635 58.0793 94.8534 57.8013 95.715 57.6836C96.5765 57.5482 97.3129 57.6159 97.3773 57.4163C97.4059 57.3201 97.2414 57.1703 96.9233 57.0563C96.6051 56.9422 96.1296 56.878 95.6113 56.9529C95.0965 57.0278 94.6568 57.2274 94.3815 57.4306C94.1063 57.6337 93.9883 57.8227 94.0419 57.9082L94.0455 57.9046Z" fill="#263238"/>
<path d="M87.4741 59.897C87.6421 60.0253 88.089 59.7294 88.6789 59.569C89.2616 59.3872 89.7978 59.3944 89.8693 59.1947C89.8979 59.0985 89.7799 58.9595 89.5225 58.8668C89.2687 58.7705 88.8755 58.742 88.4751 58.8597C88.0711 58.9773 87.7565 59.2161 87.5957 59.4336C87.4277 59.651 87.4026 59.8364 87.4777 59.897H87.4741Z" fill="#263238"/>
<path d="M113.194 74.4081C112.039 70.2517 110.727 66.1418 109.262 62.0852C108.379 59.6399 107.428 57.1982 106.048 54.9988C104.668 52.7959 102.816 50.8318 100.493 49.6768C98.8481 48.8606 96.9534 48.4934 95.1481 48.7251C93.3714 48.6217 91.5947 49.0174 90.247 50.1438C89.5677 50.7106 88.9993 51.6445 89.364 52.4537C89.6535 53.0953 90.3971 53.3698 91.062 53.5801C92.9031 54.1611 94.7441 54.7457 96.5852 55.3267C96.5995 55.341 96.6138 55.3553 96.6281 55.3695C96.721 55.4693 96.8283 55.5834 96.9498 55.7046C97.4289 56.2108 98.0366 57.0235 98.5478 58.1499C99.0554 59.2763 99.4487 60.72 99.6381 62.3597C99.8312 63.9994 99.8133 65.853 99.8812 67.8207C99.9527 69.7883 100.164 71.7168 100.746 73.385C101.311 75.0461 102.108 76.4078 102.838 77.4843C103.535 78.4931 104.175 79.2595 104.657 79.7871C104.718 80.0722 104.761 80.3645 104.779 80.6568C104.829 81.5159 104.661 82.375 104.672 83.234C104.682 84.0931 104.904 85.0199 105.562 85.5724C106.227 86.1321 107.217 86.182 108.014 85.8469C108.811 85.5118 109.43 84.8452 109.884 84.1074C110.87 82.4962 111.146 80.5249 110.999 78.6357C110.981 78.404 110.956 78.1687 110.928 77.9406C111.26 77.88 111.585 77.7945 111.893 77.659C112.601 77.356 113.233 76.7607 113.376 76.0015C113.476 75.4703 113.333 74.9285 113.19 74.4045L113.194 74.4081ZM103.456 77.0958C102.823 76.005 102.133 74.6683 101.651 73.0999C101.157 71.5386 100.982 69.7242 100.911 67.7886C100.864 66.5553 100.846 65.3468 100.771 64.1848C100.871 64.6589 100.961 65.133 101.047 65.6071C101.704 69.2715 102.087 73.0286 103.456 76.4934C103.699 77.1065 103.974 77.716 104.21 78.3363C103.974 77.9656 103.717 77.5521 103.449 77.0994L103.456 77.0958Z" fill="#263238"/>
<path d="M106.31 55.3237C106.31 55.3237 106.252 55.313 106.142 55.2987C106.024 55.288 105.863 55.2702 105.663 55.2488C105.455 55.231 105.198 55.206 104.905 55.1668C104.612 55.1312 104.272 55.0991 103.904 55.0421C103.164 54.9458 102.284 54.7997 101.312 54.6107C100.343 54.4147 99.285 54.1687 98.184 53.8622C97.0865 53.5485 96.0534 53.2063 95.1239 52.8712C94.198 52.5255 93.3686 52.1939 92.6858 51.8874C92.3391 51.7412 92.0352 51.5951 91.7671 51.4703C91.4954 51.3491 91.2666 51.2351 91.0772 51.1424C90.8948 51.0533 90.7483 50.9855 90.641 50.9321C90.5409 50.8857 90.4873 50.8608 90.4873 50.8643C90.4873 50.8643 90.5374 50.8964 90.6339 50.9499C90.7411 51.0069 90.8805 51.0818 91.0593 51.1745C91.2452 51.2743 91.474 51.3919 91.7421 51.5167C92.0102 51.645 92.3141 51.7983 92.6572 51.948C93.34 52.2617 94.1658 52.6039 95.0917 52.9532C96.0212 53.2954 97.0579 53.6412 98.1589 53.9549C99.26 54.2614 100.322 54.5074 101.294 54.6999C102.266 54.8852 103.149 55.0242 103.893 55.1134C104.265 55.1633 104.601 55.1918 104.898 55.2239C105.194 55.2559 105.448 55.2738 105.659 55.288C105.859 55.2987 106.02 55.3094 106.142 55.3165C106.252 55.3237 106.31 55.3237 106.31 55.3165V55.3237Z" fill="#455A64"/>
<path d="M106.504 56.0361C106.504 56.0361 106.443 56.0361 106.333 56.0397C106.211 56.0468 106.047 56.0575 105.843 56.0717C105.736 56.0789 105.618 56.086 105.489 56.0967C105.36 56.1002 105.217 56.1038 105.067 56.1109C104.763 56.1181 104.42 56.1395 104.038 56.1252C103.848 56.1252 103.648 56.1216 103.441 56.1181C103.233 56.1181 103.015 56.0967 102.794 56.086C102.347 56.0717 101.871 56.0147 101.367 55.9684C100.366 55.8472 99.2723 55.6618 98.1427 55.3838C97.0166 55.095 95.962 54.7421 95.0218 54.375C94.5571 54.1789 94.1102 54.0043 93.7063 53.8046C93.5025 53.7084 93.3059 53.6229 93.12 53.5266C92.9341 53.4304 92.7589 53.3377 92.5873 53.2521C92.2441 53.081 91.951 52.9028 91.6865 52.7531C91.5542 52.6782 91.4326 52.6069 91.3218 52.5428C91.211 52.475 91.1109 52.4109 91.0215 52.3538C90.8464 52.2433 90.7069 52.1578 90.6033 52.0936C90.5067 52.0366 90.4567 52.0045 90.4531 52.0081C90.4531 52.0081 90.4996 52.0473 90.5925 52.1115C90.6926 52.1792 90.8285 52.2719 91.0001 52.3859C91.0894 52.4465 91.1895 52.5107 91.2968 52.582C91.4076 52.6533 91.5292 52.721 91.6579 52.7994C91.9188 52.9527 92.212 53.1381 92.5551 53.3127C92.7232 53.4018 92.9019 53.4981 93.0842 53.5943C93.2701 53.6906 93.4667 53.7797 93.6705 53.8795C94.0745 54.0827 94.5177 54.2609 94.986 54.4605C95.9262 54.8313 96.9844 55.1913 98.114 55.48C99.2473 55.758 100.348 55.9434 101.353 56.0575C101.857 56.1038 102.336 56.1537 102.783 56.1644C103.008 56.1715 103.223 56.1894 103.433 56.1894C103.641 56.1894 103.841 56.1894 104.034 56.1894C104.417 56.1965 104.76 56.1715 105.064 56.1573C105.214 56.1502 105.357 56.1466 105.485 56.1359C105.614 56.1252 105.732 56.1109 105.839 56.1003C106.043 56.0789 106.208 56.061 106.329 56.0503C106.44 56.0361 106.501 56.029 106.497 56.0254L106.504 56.0361Z" fill="white"/>
<path d="M109.173 81.9854C109.173 81.9854 109.173 81.9604 109.173 81.9176C109.173 81.8677 109.166 81.8 109.162 81.718C109.152 81.5398 109.137 81.2796 109.098 80.9445C109.03 80.2744 108.894 79.3083 108.64 78.1285C108.39 76.9486 108.011 75.5655 107.532 74.047C107.053 72.5285 106.478 70.8745 105.891 69.1385C104.704 65.6666 103.628 62.5226 102.849 60.2413C102.456 59.1077 102.138 58.1916 101.916 57.55C101.805 57.2363 101.719 56.9939 101.659 56.8192C101.63 56.7408 101.605 56.6767 101.587 56.6303C101.569 56.5875 101.562 56.5662 101.559 56.5662C101.555 56.5662 101.562 56.5876 101.576 56.6339C101.591 56.6838 101.612 56.7444 101.637 56.8264C101.694 57.001 101.773 57.247 101.877 57.5643C102.091 58.2094 102.399 59.1291 102.781 60.2662C103.553 62.5511 104.619 65.6987 105.798 69.1742C106.388 70.9137 106.964 72.5641 107.446 74.0791C107.933 75.594 108.315 76.9735 108.572 78.1463C108.837 79.319 108.98 80.2815 109.062 80.9481C109.105 81.2831 109.127 81.5434 109.144 81.718C109.155 81.8 109.162 81.8677 109.166 81.9176C109.173 81.964 109.177 81.9854 109.177 81.9854H109.173Z" fill="#455A64"/>
<path d="M104.323 71.7912C104.323 71.7912 104.323 71.7341 104.305 71.6236C104.287 71.506 104.262 71.3492 104.233 71.1531C104.169 70.7432 104.069 70.1514 103.94 69.4207C103.679 67.9592 103.282 65.9488 102.771 63.7423C102.26 61.5358 101.735 59.5539 101.327 58.128C101.123 57.4151 100.955 56.8376 100.83 56.442C100.769 56.2495 100.723 56.0998 100.687 55.9857C100.655 55.8823 100.633 55.8289 100.63 55.8289C100.63 55.8289 100.641 55.8859 100.666 55.9928C100.698 56.1069 100.737 56.2602 100.791 56.4527C100.902 56.8626 101.062 57.4401 101.255 58.1459C101.645 59.5753 102.16 61.5607 102.671 63.7637C103.182 65.9666 103.59 67.9735 103.869 69.4314C104.005 70.1514 104.115 70.7396 104.194 71.1567C104.233 71.3527 104.262 71.5096 104.283 71.6272C104.305 71.7341 104.319 71.7912 104.323 71.7912Z" fill="#455A64"/>
<path d="M136.031 77.6163C136.031 77.6163 136.467 76.3865 136.664 74.6542C136.86 72.9253 136.864 72.8362 136.481 72.0734C136.099 71.3106 135.423 70.9933 135.105 70.6262C134.787 70.259 135.984 69.7849 137.028 70.4943C138.069 71.2 138.876 72.551 139.094 72.8683C140.192 74.4759 141.146 74.5187 141.146 74.5187L145.322 73.4422C145.322 73.4422 146.191 72.1874 146.956 72.3514L147.292 72.412L147.427 72.3336C147.771 72.1375 148.221 72.3621 148.235 72.7542C148.235 72.8683 148.214 72.9966 148.15 73.1285C147.853 73.7274 145.193 76.08 145.054 76.7145C144.914 77.3454 145.061 78.3578 143.885 79.4771C142.709 80.5964 141.329 81.0277 139.877 81.2095L139.656 81.8154L135.194 79.3487L136.031 77.6199V77.6163Z" fill="#FFBE9D"/>
<path d="M144.279 78.0086C144.279 78.0086 144.279 77.866 144.322 77.6129C144.372 77.3206 144.433 76.9677 144.508 76.5471C144.593 76.0837 144.694 75.5526 144.804 74.9715C144.862 74.6828 144.926 74.362 144.786 74.1053C144.722 73.977 144.608 73.8736 144.475 73.8523C144.34 73.8273 144.189 73.8808 144.072 73.977C143.789 74.2087 143.721 74.6293 143.6 74.9822C143.485 75.3423 143.378 75.688 143.274 76.0124C143.071 76.6398 142.892 77.1923 142.745 77.6486L142.735 77.6842H142.699C142.377 77.7199 142.145 77.8553 142.005 77.9587C141.866 78.0656 141.801 78.144 141.791 78.1334C141.784 78.1298 141.83 78.0371 141.966 77.9123C142.102 77.7876 142.338 77.6236 142.688 77.5737L142.642 77.6129C142.774 77.1531 142.938 76.5934 143.121 75.9589C143.217 75.631 143.321 75.2852 143.432 74.9216C143.489 74.7398 143.539 74.5545 143.607 74.362C143.678 74.1731 143.775 73.9699 143.957 73.8237C144.107 73.7025 144.307 73.6241 144.511 73.6598C144.719 73.6954 144.872 73.8487 144.954 74.0127C145.126 74.3549 145.033 74.7113 144.976 74.9965C144.851 75.574 144.74 76.1015 144.64 76.5649C144.543 76.9784 144.465 77.3313 144.397 77.6165C144.336 77.866 144.297 78.0015 144.282 77.9979L144.279 78.0086Z" fill="#EB996E"/>
<path d="M147.407 72.4509C147.45 72.4758 146.942 73.4062 146.27 74.5255C145.598 75.6448 145.019 76.5323 144.972 76.5038C144.929 76.4789 145.437 75.5485 146.109 74.4292C146.781 73.3099 147.36 72.4223 147.403 72.4509H147.407Z" fill="#EB996E"/>
<path d="M144.872 74.476C144.825 74.4724 144.861 74.0197 145.143 73.5492C145.422 73.0751 145.805 72.8291 145.833 72.8683C145.869 72.9111 145.565 73.2034 145.304 73.6418C145.04 74.0803 144.925 74.4866 144.872 74.476Z" fill="#EB996E"/>
<path d="M139.363 73.5277C139.363 73.5277 139.599 73.6953 139.852 74.0803C140.106 74.4581 140.382 75.0534 140.46 75.7556C140.539 76.4578 140.407 77.0995 140.242 77.5237C140.078 77.955 139.906 78.1831 139.888 78.1689C139.863 78.1546 139.992 77.9051 140.117 77.4809C140.246 77.0567 140.349 76.4436 140.274 75.7734C140.199 75.1033 139.96 74.5294 139.738 74.1444C139.52 73.7559 139.338 73.5456 139.359 73.5242L139.363 73.5277Z" fill="#EB996E"/>
<path d="M142.239 76.928C142.181 76.9316 142.131 76.3826 141.835 75.7838C141.545 75.1849 141.141 74.8035 141.18 74.7643C141.205 74.7251 141.692 75.0637 142.003 75.7053C142.317 76.3434 142.289 76.9351 142.239 76.928Z" fill="#EB996E"/>
<path d="M143.329 75.1312C143.347 75.1811 143.025 75.3415 142.614 75.4912C142.203 75.641 141.853 75.7265 141.835 75.6766C141.817 75.6267 142.139 75.4663 142.55 75.3166C142.961 75.1669 143.311 75.0813 143.329 75.1312Z" fill="#EB996E"/>
<path d="M131.642 135.072L141.065 137.759C141.065 137.759 140.815 147.983 142.506 148.646L149.062 130.847L134.555 126.057L131.642 135.068V135.072Z" fill="#455A64"/>
<g opacity="0.6">
<path d="M142.1 131.931C142.311 131.614 142.783 131.5 143.108 131.696C143.437 131.892 143.555 132.37 143.351 132.691C143.147 133.011 142.586 133.165 142.282 132.933C141.978 132.701 141.867 132.134 142.143 131.871" fill="white"/>
</g>
<g opacity="0.6">
<path d="M149.061 130.847L147.599 130.366L141.868 147.772C141.868 147.772 141.911 148.435 142.601 148.784L149.061 130.847Z" fill="white"/>
</g>
<path d="M140.875 138.022C140.964 138.047 141.146 137.62 141.572 137.281C141.986 136.928 142.444 136.828 142.433 136.736C142.444 136.65 141.872 136.607 141.364 137.032C140.853 137.449 140.785 138.015 140.871 138.022H140.875Z" fill="#263238"/>
<path d="M141.044 140.165C141.123 140.211 141.398 139.88 141.87 139.702C142.335 139.509 142.764 139.566 142.789 139.477C142.828 139.399 142.331 139.17 141.752 139.402C141.169 139.63 140.962 140.136 141.048 140.165H141.044Z" fill="#263238"/>
<path d="M142.964 141.976C143.011 141.901 142.607 141.637 142.049 141.705C141.492 141.769 141.166 142.122 141.227 142.186C141.284 142.261 141.631 142.076 142.089 142.026C142.546 141.965 142.925 142.061 142.964 141.976Z" fill="#263238"/>
<path d="M138.794 137.171C138.887 137.16 138.898 136.718 139.094 136.23C139.28 135.738 139.573 135.407 139.513 135.335C139.466 135.264 139.016 135.535 138.79 136.112C138.562 136.686 138.708 137.193 138.79 137.171H138.794Z" fill="#263238"/>
<path d="M122.061 133.274L113.178 137.398C113.178 137.398 115.029 147.454 113.46 148.377L104.19 131.819L117.768 124.826L122.058 133.27L122.061 133.274Z" fill="#455A64"/>
<g opacity="0.6">
<path d="M111.241 131.802C110.984 131.52 110.501 131.481 110.208 131.727C109.915 131.973 109.872 132.461 110.126 132.746C110.376 133.032 110.959 133.096 111.22 132.821C111.484 132.547 111.502 131.966 111.187 131.748" fill="white"/>
</g>
<g opacity="0.6">
<path d="M104.19 131.82L105.56 131.114L113.95 147.411C113.95 147.411 114.011 148.071 113.385 148.527L104.19 131.82Z" fill="white"/>
</g>
<path d="M113.404 137.629C113.318 137.668 113.071 137.276 112.599 137.005C112.135 136.724 111.666 136.695 111.663 136.602C111.641 136.517 112.199 136.388 112.764 136.727C113.336 137.059 113.489 137.608 113.404 137.629Z" fill="#263238"/>
<path d="M113.575 139.772C113.503 139.833 113.182 139.548 112.688 139.444C112.199 139.327 111.784 139.448 111.745 139.366C111.691 139.294 112.148 138.992 112.756 139.131C113.367 139.262 113.65 139.733 113.571 139.772H113.575Z" fill="#263238"/>
<path d="M111.962 141.861C111.905 141.797 112.262 141.469 112.824 141.451C113.385 141.43 113.764 141.726 113.71 141.797C113.667 141.879 113.295 141.75 112.834 141.772C112.373 141.783 112.012 141.936 111.962 141.861Z" fill="#263238"/>
<path d="M115.323 136.464C115.23 136.468 115.151 136.033 114.879 135.58C114.618 135.124 114.275 134.842 114.325 134.764C114.361 134.686 114.847 134.885 115.158 135.42C115.473 135.951 115.408 136.471 115.323 136.464Z" fill="#263238"/>
<path d="M129.546 113.419C129.546 113.419 143.18 109.955 146.619 110.682C150.058 111.409 154.33 111.933 154.952 114.478C155.578 117.02 155.371 121.176 152.868 123.461C150.369 125.746 119.844 135.513 119.844 135.513L116.823 127.307L109.098 113.295C115.836 113.637 123.268 114.239 129.549 113.427L129.546 113.419Z" fill="#263238"/>
<path d="M118.97 127.718C118.97 127.718 119.056 127.675 119.22 127.614C119.402 127.547 119.645 127.458 119.949 127.344C120.582 127.108 121.49 126.755 122.591 126.271C124.797 125.308 127.76 123.761 130.731 121.601C132.215 120.517 133.584 119.423 134.889 118.503C136.197 117.591 137.437 116.839 138.556 116.368C139.672 115.89 140.63 115.645 141.302 115.559C141.634 115.491 141.899 115.498 142.078 115.481C142.256 115.47 142.349 115.466 142.349 115.473C142.349 115.495 141.978 115.516 141.316 115.634C140.651 115.741 139.711 116.005 138.614 116.493C137.513 116.974 136.29 117.73 134.992 118.65C133.698 119.573 132.333 120.674 130.845 121.758C127.86 123.925 124.872 125.461 122.648 126.395C121.536 126.866 120.618 127.201 119.978 127.418C119.66 127.529 119.406 127.604 119.238 127.657C119.066 127.707 118.977 127.732 118.977 127.725L118.97 127.718Z" fill="#455A64"/>
<path d="M104.214 112.51C104.214 112.51 100.081 113.797 98.9697 119.511C97.8579 125.225 100.846 131.666 101.59 132.6C102.334 133.534 116.819 134.158 116.819 134.158L137.135 137.273C137.135 137.273 139.373 135.509 139.82 131.688C140.159 128.79 139.841 127.923 139.841 127.923L118.027 117.54C118.027 117.54 107.85 111.79 104.21 112.506L104.214 112.51Z" fill="#263238"/>
<path d="M109.092 113.291C109.092 113.291 109.146 113.308 109.25 113.355C109.357 113.405 109.507 113.472 109.704 113.561C110.108 113.75 110.698 114.025 111.452 114.378C112.978 115.098 115.188 116.139 117.94 117.436C123.453 120.053 131.142 123.699 139.883 127.845L139.926 127.866L139.933 127.913C140.09 129.025 140.147 130.183 140.015 131.345C139.886 132.507 139.561 133.666 139.043 134.75C138.81 135.245 138.531 135.716 138.224 136.154C137.917 136.592 137.58 136.995 137.198 137.348L137.166 137.377L137.123 137.369C131.882 136.564 126.92 135.797 122.43 135.106C121.308 134.935 120.217 134.757 119.148 134.614C118.09 134.418 117.068 134.19 116.106 133.89C114.176 133.309 112.442 132.579 110.919 131.816C109.393 131.053 108.077 130.251 106.955 129.499C106.404 129.107 105.886 128.754 105.439 128.39C104.978 128.044 104.577 127.702 104.22 127.392C103.855 127.093 103.559 126.793 103.294 126.544C103.026 126.298 102.815 126.073 102.647 125.891C102.483 125.713 102.354 125.578 102.261 125.478C102.175 125.385 102.136 125.332 102.136 125.332C102.136 125.332 102.186 125.375 102.275 125.464C102.368 125.56 102.5 125.692 102.672 125.863C102.844 126.041 103.058 126.259 103.33 126.501C103.598 126.743 103.898 127.039 104.266 127.335C104.627 127.642 105.028 127.977 105.493 128.319C105.943 128.679 106.465 129.025 107.012 129.413C108.134 130.155 109.453 130.946 110.976 131.702C112.499 132.454 114.226 133.178 116.149 133.748C117.107 134.044 118.123 134.268 119.177 134.457C120.239 134.596 121.333 134.771 122.455 134.938C126.949 135.626 131.911 136.382 137.155 137.184L137.08 137.206C137.799 136.532 138.417 135.634 138.878 134.668C139.386 133.605 139.708 132.465 139.833 131.32C139.965 130.176 139.908 129.035 139.754 127.938L139.804 128.005C131.074 123.838 123.395 120.167 117.89 117.54C115.148 116.221 112.95 115.166 111.427 114.431C110.676 114.068 110.093 113.782 109.689 113.586C109.496 113.49 109.35 113.419 109.243 113.365C109.142 113.316 109.092 113.283 109.092 113.283V113.291Z" fill="#455A64"/>
<path d="M101.399 132.765C101.399 132.765 101.359 132.704 101.295 132.583C101.234 132.462 101.145 132.283 101.038 132.048C100.82 131.581 100.519 130.897 100.187 130.034C99.5326 128.316 98.7604 125.842 98.6568 123.008C98.6103 121.597 98.7211 120.246 98.9964 119.048C99.1286 118.449 99.3181 117.897 99.5111 117.387C99.7256 116.884 99.9437 116.424 100.187 116.029C100.666 115.234 101.159 114.66 101.524 114.296C101.703 114.107 101.86 113.983 101.96 113.89C102.064 113.801 102.117 113.755 102.121 113.762C102.132 113.772 101.924 113.972 101.574 114.346C101.227 114.724 100.755 115.302 100.298 116.097C100.065 116.489 99.8543 116.948 99.6506 117.444C99.4647 117.95 99.2859 118.495 99.1572 119.087C98.8927 120.267 98.789 121.604 98.8355 123.001C98.9356 125.803 99.6792 128.266 100.301 129.988C100.612 130.854 100.895 131.542 101.095 132.016C101.188 132.237 101.263 132.419 101.32 132.565C101.37 132.69 101.395 132.757 101.388 132.761L101.399 132.765Z" fill="#455A64"/>
<path d="M81.6382 76.1537C80.816 73.4375 79.5219 70.846 79.1001 68.0371L76.5154 68.4043C74.7459 68.8748 73.1694 70.0297 72.1863 71.5696C71.2032 73.1095 70.8207 75.0202 71.1389 76.8203C71.4248 78.4422 72.2435 79.9215 72.6331 81.522C73.0228 83.1225 72.8548 85.0545 71.55 86.0598C72.1648 86.0954 72.7869 85.9065 73.2766 85.5358C73.341 86.1311 73.1694 86.7513 72.8119 87.2325C73.9415 87.4 75.132 87.1327 76.0793 86.4982C76.1008 86.9367 75.9041 87.3822 75.5645 87.6638C77.8667 87.6424 80.1403 86.3877 81.3165 84.4129C82.7679 81.9712 82.464 78.8699 81.6382 76.1502V76.1537Z" fill="#263238"/>
<path d="M73.7628 75.8186C73.3553 73.0632 75.7147 69.7267 78.4923 69.438L85.1201 69.6554C86.0317 69.6839 86.8468 70.2186 87.2436 71.0385L90.4431 89.2786C90.4431 89.2786 91.7515 94.9427 86.736 95.6557C82.2316 96.2973 81.4773 91.5671 81.4773 91.5635L80.8839 88.1201C80.8839 88.1201 77.2662 88.7368 75.5788 84.3559C74.7387 82.1779 74.2204 78.8771 73.7664 75.8186H73.7628Z" fill="#FFBE9D"/>
<path d="M76.4515 79.0694C76.5051 79.3795 76.8125 79.5863 77.1378 79.5364C77.4631 79.4865 77.6812 79.1942 77.6276 78.8841C77.574 78.5739 77.2665 78.3672 76.9412 78.4171C76.6159 78.467 76.3978 78.7593 76.4515 79.0694Z" fill="#263238"/>
<path d="M75.0779 78.0608C75.1673 78.1214 75.5391 77.7008 76.1647 77.5689C76.7903 77.4298 77.3193 77.6544 77.3694 77.5617C77.3944 77.5225 77.2943 77.4013 77.0619 77.298C76.8332 77.1946 76.4685 77.1269 76.0753 77.2088C75.6856 77.2944 75.3853 77.5083 75.228 77.6936C75.0672 77.8826 75.0314 78.0323 75.0743 78.0608H75.0779Z" fill="#263238"/>
<path d="M81.7435 77.9437C81.7971 78.2538 82.1045 78.4606 82.4298 78.4106C82.7551 78.3607 82.9732 78.0684 82.9196 77.7583C82.866 77.4482 82.5585 77.2415 82.2332 77.2914C81.9079 77.3413 81.6898 77.6336 81.7435 77.9437Z" fill="#263238"/>
<path d="M80.8748 76.9351C80.9641 76.9957 81.3359 76.575 81.9615 76.4431C82.5871 76.3041 83.1162 76.5287 83.1663 76.436C83.1913 76.3968 83.0912 76.2756 82.8588 76.1722C82.63 76.0689 82.2654 76.0011 81.8722 76.0831C81.4825 76.1687 81.1822 76.3825 81.0249 76.5679C80.864 76.7568 80.8283 76.9065 80.8712 76.9351H80.8748Z" fill="#263238"/>
<path d="M79.9543 81.8788C79.9507 81.8468 79.5468 81.8717 78.8997 81.9323C78.7353 81.9501 78.578 81.9537 78.5315 81.8681C78.4707 81.779 78.5065 81.6186 78.5494 81.4475C78.628 81.0911 78.7103 80.7132 78.7961 80.3211C78.8926 79.9112 79.3001 77.6191 79.2644 77.4124C79.1893 77.4053 78.8568 78.6956 78.5244 80.2961C78.4457 80.6883 78.3707 81.0661 78.2992 81.4226C78.2741 81.5901 78.2062 81.7826 78.3349 81.9715C78.3993 82.0642 78.5351 82.1141 78.6423 82.1141C78.7496 82.1177 78.8425 82.1034 78.9212 82.0891C79.5647 81.9893 79.9579 81.9109 79.9543 81.8788Z" fill="#263238"/>
<path d="M80.8604 88.1529C80.8604 88.1529 83.9598 87.7002 86.6016 85.2441C86.6016 85.2441 85.7222 88.7375 81.082 89.2793L80.8604 88.1529Z" fill="#EB996E"/>
<path d="M81.8458 81.5356C81.7421 81.5498 81.8851 82.2307 81.4061 82.8367C80.9271 83.4426 80.1871 83.5211 80.2014 83.6173C80.2014 83.6601 80.3908 83.7136 80.6983 83.6565C81.0021 83.6031 81.4204 83.4141 81.7135 83.0434C82.0067 82.6727 82.0746 82.2449 82.0389 81.9633C82.0031 81.6746 81.8923 81.5213 81.8458 81.5356Z" fill="#263238"/>
<path d="M80.6338 74.8022C80.7482 74.9805 81.2558 74.7202 81.9208 74.6276C82.5785 74.5171 83.1648 74.6062 83.197 74.403C83.2077 74.3068 83.0647 74.1535 82.8002 74.0287C82.5392 73.9039 82.1567 73.8255 81.7599 73.8861C81.3631 73.9467 81.0413 74.1357 80.8483 74.3317C80.6553 74.5278 80.5838 74.7167 80.6374 74.8022H80.6338Z" fill="#263238"/>
<path d="M74.6011 75.9149C74.7405 76.0682 75.1766 75.8293 75.7272 75.7473C76.2741 75.6404 76.7639 75.7224 76.8461 75.5299C76.8818 75.4372 76.7853 75.2768 76.5565 75.1414C76.3313 75.0095 75.9774 74.9239 75.5985 74.9881C75.2195 75.0522 74.9121 75.2519 74.7441 75.455C74.5725 75.6582 74.5332 75.84 74.5975 75.9184L74.6011 75.9149Z" fill="#263238"/>
<path d="M76.1212 68.5546C75.0631 71.3884 77.7979 71.9445 79.2814 72.7786C80.7686 73.6128 82.4273 74.0833 84.0753 74.5182C84.4828 74.6251 84.9154 74.7427 85.205 75.0493C85.4445 75.2988 85.5553 75.6446 85.6554 75.9725C85.9593 76.9528 86.2631 77.9295 86.567 78.9098C86.7815 79.6049 86.9995 80.3071 87.0281 81.0343C87.0532 81.7614 86.8673 82.5243 86.3668 83.0518C86.7886 83.0091 87.189 82.7845 87.4428 82.4458C87.5 83.5045 87.2677 84.581 86.7743 85.5221C88.1006 85.5078 89.3875 84.6702 89.9274 83.4618C89.9917 83.9608 90.2813 84.2923 90.6959 84.6523C90.8604 84.7949 91.1643 84.8805 91.0892 84.6773C90.9319 84.2424 90.8389 83.6578 90.7388 83.255C91.3966 83.5224 91.5646 83.7291 92.9624 83.2978C92.1831 82.6989 91.9114 82.3104 91.6254 81.4834C91.6254 81.4834 92.0008 82.2534 93.2091 81.8755C93.2091 81.8755 91.6504 80.6422 91.5325 78.5818C91.4324 76.7781 91.4967 74.6607 91.1285 72.8998C90.7603 71.1389 89.9059 69.4315 88.5081 68.2979C87.357 67.3676 85.9021 66.8685 84.4507 66.6083C82.8885 66.3303 81.2869 66.3517 79.7211 66.6083C78.738 66.7723 76.586 67.1252 76.1212 68.551" fill="#263238"/>
<path d="M86.7737 85.5184C86.7701 85.4934 87.1455 85.4863 87.789 85.2795C88.1071 85.1762 88.4932 85.0051 88.8757 84.7092C89.2511 84.4169 89.6479 83.9999 89.8731 83.4402L89.9411 83.2727L89.9839 83.4473C90.0519 83.7183 90.1591 83.9998 90.3486 84.2458C90.5273 84.4882 90.8133 84.695 91.1279 84.7377L91.0564 84.8233C90.9349 84.3314 90.8026 83.8145 90.6703 83.2727L90.6274 83.0944L90.7847 83.1907C91.3853 83.5507 92.2218 83.5543 92.9296 83.2263L92.9225 83.3689C92.2897 82.9626 91.7714 82.2995 91.5462 81.5082L91.4175 81.0555L91.6999 81.4298C92.0073 81.8397 92.6615 82.0286 93.1763 81.7934L93.1584 81.9466C92.2039 81.1981 91.6892 79.9861 91.4747 78.7634C91.2602 77.5622 91.3281 76.3716 91.3209 75.2452C91.3245 74.1152 91.2423 73.0244 90.9206 72.0406C90.2914 70.0622 88.958 68.6008 87.6388 67.7773C86.3018 66.9432 85.0185 66.6759 84.1498 66.5868C83.7136 66.5404 83.3705 66.544 83.1381 66.544C83.0308 66.544 82.945 66.5511 82.8736 66.5511C82.8128 66.5511 82.7842 66.5511 82.7842 66.5475C82.7842 66.5475 83.2704 66.4513 84.1569 66.5155C85.0328 66.5832 86.3412 66.8327 87.7068 67.6668C89.0581 68.4903 90.4308 69.9696 91.0814 71.9871C91.4175 72.9923 91.5033 74.1081 91.4997 75.2452C91.5068 76.3787 91.4425 77.5586 91.6534 78.7314C91.8608 79.9291 92.3648 81.0911 93.2657 81.8041L93.3836 81.8967L93.2478 81.9573C92.6436 82.2282 91.9179 82.0108 91.5569 81.5367L91.7142 81.4583C91.9215 82.2069 92.4113 82.8378 93.0119 83.2263L93.137 83.3083L93.0047 83.3689C92.2433 83.7218 91.3567 83.7111 90.7061 83.3154L90.8205 83.2335C90.9527 83.7753 91.0743 84.2957 91.1958 84.7876L91.2208 84.8874L91.1243 84.8732C90.7418 84.8161 90.4487 84.5844 90.2521 84.3207C90.0519 84.0533 89.9446 83.7539 89.8767 83.4723L89.9911 83.4794C89.7409 84.0747 89.3297 84.4882 88.9365 84.7841C88.5397 85.0799 88.1429 85.2439 87.814 85.3401C87.4887 85.44 87.2242 85.4827 87.049 85.5006C86.8738 85.5184 86.7809 85.5255 86.7809 85.5219L86.7737 85.5184Z" fill="#455A64"/>
<path d="M90.0442 80.3147C90.0442 80.3147 90.037 80.2434 90.0442 80.1079C90.0549 79.9511 90.0656 79.755 90.0799 79.5162C90.1085 79.0029 90.155 78.2579 90.0907 77.3418C90.0227 76.4328 89.8333 75.3313 89.2506 74.2727C88.961 73.7451 88.5713 73.2389 88.0637 72.8254C87.5597 72.4119 86.9519 72.0876 86.2942 71.8559C84.9715 71.396 83.6202 71.2891 82.4083 71.1714C81.1893 71.0645 80.0882 70.9112 79.1909 70.6439C78.2936 70.3908 77.6216 70.0165 77.2033 69.7135C76.996 69.5531 76.8422 69.4284 76.7457 69.3285C76.6492 69.2323 76.5991 69.1824 76.6027 69.1753C76.617 69.161 76.8172 69.3642 77.2426 69.6565C77.668 69.9381 78.3365 70.2874 79.2267 70.5227C80.1132 70.7686 81.2036 70.9041 82.4226 71.0039C83.638 71.1108 85.0001 71.2142 86.3549 71.6848C87.027 71.92 87.6562 72.2551 88.1781 72.6864C88.7036 73.1177 89.104 73.6488 89.3971 74.1907C89.987 75.285 90.1657 76.4114 90.2194 77.3346C90.2658 78.2614 90.1979 79.01 90.1479 79.5233C90.1228 79.78 90.0942 79.9796 90.0764 80.115C90.0549 80.2505 90.0442 80.3182 90.037 80.3182L90.0442 80.3147Z" fill="#455A64"/>
<path d="M71.8788 105.041L71.6357 107.889C74.1667 108.003 76.065 108.713 77.6594 109.615L77.4842 105.041H71.8788Z" fill="#FFBE9D"/>
<path d="M75.5653 124.366C75.5653 124.366 72.7304 132.201 74.9432 136.04C77.1561 139.879 77.9425 140.453 80.7452 140.289C83.5479 140.125 85.4319 138 86.0074 137.184C86.5794 136.368 87.8092 125.093 87.8092 125.093L87.3158 114.506L78.8792 114.88L75.5688 124.369L75.5653 124.366Z" fill="#263238"/>
<path d="M98.8733 113.818C98.8733 113.818 99.8671 119.703 99.7849 124.851C99.7026 129.998 97.8401 136.318 95.8346 138.899C94.8837 140.125 92.4099 140.456 90.6725 140.31C89.0639 140.175 87.5195 138.874 87.4373 136.421C87.3551 133.969 87.8234 124.352 87.8055 124.516C87.7876 124.679 85.5283 117.344 85.5283 117.344L86.9046 114.503L98.8733 113.818Z" fill="#263238"/>
<path d="M88.2091 122.616C88.2592 122.623 88.1662 123.646 87.9982 124.904C87.8302 126.162 87.655 127.175 87.6014 127.168C87.5514 127.16 87.6443 126.137 87.8123 124.879C87.9804 123.621 88.1555 122.608 88.2091 122.616Z" fill="#455A64"/>
<path d="M74.9433 136.04C74.9433 136.04 74.8968 135.997 74.8253 135.901C74.7503 135.808 74.6609 135.655 74.5644 135.452C74.3749 135.042 74.1997 134.404 74.1247 133.605C73.9638 132.005 74.164 129.78 74.6716 127.392C75.1757 125 75.8799 122.897 76.4734 121.414C76.7701 120.673 77.0418 120.085 77.2348 119.682C77.3313 119.482 77.4135 119.329 77.4707 119.222C77.5279 119.119 77.5601 119.065 77.5637 119.069C77.5708 119.069 77.5494 119.129 77.5029 119.24C77.4493 119.368 77.3814 119.525 77.2991 119.71C77.124 120.12 76.8737 120.716 76.5949 121.461C76.0336 122.951 75.3509 125.05 74.8504 127.428C74.3463 129.802 74.1283 132.008 74.2534 133.591C74.3106 134.382 74.4607 135.01 74.6287 135.42C74.7932 135.83 74.9576 136.022 74.9397 136.033L74.9433 136.04Z" fill="#455A64"/>
<g opacity="0.3">
<path d="M77.7033 118.795L77.5889 119.262C82.2183 121.629 87.7236 121.964 92.7999 120.834C95.1128 120.317 97.4973 119.415 98.9165 117.522C91.8955 118.527 84.7922 118.952 77.7033 118.798V118.795Z" fill="black"/>
</g>
<path d="M79.0151 89.6467C79.0151 89.6467 74.7182 90.2135 73.3776 96.5086C72.1085 102.461 71.583 105.042 71.583 105.042H79.6479L79.0151 89.6467Z" fill="#FEF2CA"/>
<path d="M90.0391 86.5414C90.0391 86.5414 95.8518 85.3579 99.0406 88.7265C101.672 91.5069 103.856 96.0624 103.856 96.0624L97.4176 99.3312L90.0391 86.5414Z" fill="#FEF2CA"/>
<path d="M79.0148 89.6466L80.9488 89.0477C80.9488 89.0477 83.6156 90.1848 86.0251 89.4969C89.0351 88.6378 89.9574 86.5347 89.9574 86.5347L94.8156 86.8305L97.9579 101.902L99.7847 117.486C91.8521 120.291 84.2233 121.489 77.2988 118.976L77.9101 116.916L77.2988 99.214L79.0148 89.6466Z" fill="#FEF2CA"/>
<path d="M77.826 114.502C77.826 114.502 77.8117 114.434 77.8009 114.302C77.7902 114.149 77.7795 113.96 77.7652 113.728C77.7402 113.204 77.7044 112.492 77.6615 111.622C77.6258 110.724 77.5829 109.668 77.5328 108.496C77.5114 107.907 77.4864 107.291 77.4649 106.649C77.4435 106.008 77.4256 105.345 77.3612 104.674C77.1146 101.972 76.5497 99.5734 76.228 97.8197C76.06 96.9463 75.9349 96.2334 75.8562 95.7415C75.8241 95.5134 75.7955 95.3244 75.774 95.1747C75.7561 95.0428 75.7526 94.9751 75.7561 94.9751C75.7633 94.9751 75.7812 95.0393 75.8098 95.1676C75.8419 95.3173 75.8812 95.5027 75.9277 95.7272C76.035 96.2405 76.1815 96.9392 76.3567 97.7911C76.7106 99.5342 77.3005 101.933 77.5471 104.653C77.6115 105.334 77.6258 105.997 77.6472 106.638C77.6687 107.277 77.6866 107.897 77.7044 108.485C77.7366 109.654 77.7688 110.713 77.7938 111.611C77.8117 112.481 77.826 113.197 77.8367 113.721C77.8367 113.953 77.8367 114.142 77.8367 114.295C77.8367 114.427 77.8296 114.495 77.826 114.495V114.502Z" fill="#263238"/>
<path d="M94.3939 112.071C94.3939 112.071 94.2331 112.174 93.9221 112.334C93.6146 112.495 93.1606 112.709 92.5922 112.958C91.4554 113.457 89.8539 114.077 88.0378 114.623C86.2218 115.172 84.5488 115.553 83.3298 115.785C82.722 115.903 82.2251 115.984 81.8819 116.034C81.5387 116.084 81.3457 116.106 81.3457 116.091C81.3457 116.077 81.5316 116.034 81.8712 115.963C82.243 115.885 82.7256 115.781 83.3047 115.657C84.513 115.393 86.1789 114.994 87.9878 114.448C89.7967 113.906 91.3982 113.307 92.5457 112.841C93.1177 112.605 93.5789 112.409 93.897 112.27C94.2152 112.131 94.3939 112.063 94.4011 112.074L94.3939 112.071Z" fill="#263238"/>
<g opacity="0.3">
<path d="M76.0296 96.5085L75.9367 96.6761C75.1502 99.0109 75.69 101.745 77.3058 103.609C77.0699 101.214 76.6409 98.8362 76.026 96.5085H76.0296Z" fill="black"/>
</g>
<path d="M93.3368 110.706C93.3475 110.727 93.0079 110.973 92.4252 111.323C91.8425 111.672 91.0096 112.118 90.0551 112.531C89.1006 112.945 88.2069 113.248 87.5527 113.437C86.8985 113.626 86.4838 113.708 86.4767 113.683C86.4695 113.654 86.8699 113.529 87.5098 113.312C88.1497 113.094 89.0291 112.77 89.9764 112.36C90.9238 111.95 91.7567 111.526 92.3537 111.209C92.9507 110.891 93.3154 110.685 93.3332 110.706H93.3368Z" fill="#263238"/>
<path d="M102.905 94.8857C102.905 94.8857 103.963 97.5699 104.814 99.8762C105.714 102.325 107.402 107.782 103.827 109.069C101.106 110.05 99.7552 106.959 99.7552 106.959L97.5674 99.288L99.5872 98.2044L98.9223 96.3187L102.898 94.8857H102.905Z" fill="#FFBE9D"/>
<path d="M99.2766 97.2068C99.2766 97.2068 97.7001 95.5884 97.4749 95.0181L96.6562 91.5533C96.6562 91.5533 96.953 91.0685 97.5071 91.539C97.836 91.8171 98.1756 92.4266 98.1756 92.4266L98.6331 93.3962L98.8476 92.7724L98.4973 90.3948C98.4973 90.3948 98.197 88.6909 98.5724 88.7587C98.9477 88.8264 99.2302 89.2613 99.3624 89.9956C99.4911 90.7299 99.6556 91.6638 99.6556 91.6638C99.6556 91.6638 99.7271 91.9454 99.8593 91.3893C99.988 90.8333 99.5412 88.805 99.5555 88.5056C99.5698 88.2061 99.3338 87.5075 99.8379 87.3898C100.342 87.2722 100.421 88.2347 100.421 88.2347L101.128 91.2182C101.128 91.2182 101.114 89.9314 101.118 89.7104C101.125 89.4894 101 88.8228 101.021 88.4307C101.043 88.0386 101.218 87.7855 101.447 87.7356C101.854 87.6501 101.965 87.9388 101.965 87.9388L102.247 90.5944C102.247 90.5944 102.305 91.8278 102.362 91.8884C102.419 91.949 102.705 91.2574 102.705 91.2574L102.766 90.3485C102.766 90.3485 102.623 89.1294 102.984 88.9797C103.345 88.8299 103.452 89.051 103.452 89.051L103.688 91.2824L103.52 93.9487L102.98 96.3976L101.736 96.7648L99.2659 97.2068H99.2766Z" fill="#FFBE9D"/>
<path d="M101.013 107.024C101.013 107.024 100.981 107.01 100.927 106.963C100.873 106.92 100.802 106.849 100.716 106.749C100.552 106.546 100.355 106.215 100.223 105.769C99.951 104.878 99.8438 103.588 99.9296 102.187C100.015 100.789 99.8581 99.5346 99.6472 98.647C99.4398 97.7594 99.2289 97.2283 99.2575 97.2176C99.2682 97.214 99.3361 97.3388 99.4327 97.5776C99.5292 97.8164 99.6543 98.1693 99.7758 98.6149C100.023 99.5025 100.205 100.789 100.119 102.194C100.09 102.892 100.065 103.555 100.115 104.154C100.162 104.757 100.233 105.295 100.355 105.733C100.469 106.172 100.637 106.5 100.78 106.71C100.923 106.917 101.031 107.013 101.02 107.027L101.013 107.024Z" fill="#EB996E"/>
<path d="M101.146 95.2529C101.117 95.2636 101.035 95.0248 100.792 94.7182C100.552 94.4153 100.123 94.0445 99.5442 93.9019C99.4012 93.8627 99.2618 93.8485 99.1117 93.8307C99.0366 93.82 98.9615 93.8057 98.8865 93.7843C98.8436 93.7665 98.8221 93.7701 98.7685 93.7273C98.722 93.6881 98.7077 93.6596 98.6863 93.631C98.5361 93.3922 98.4503 93.1712 98.3681 92.9858C98.2144 92.6116 98.125 92.3834 98.1429 92.3727C98.1679 92.3585 98.3038 92.5724 98.4896 92.9288C98.5862 93.1035 98.6898 93.3245 98.8293 93.5312C98.8722 93.5883 98.8722 93.5918 98.9436 93.6132C99.0008 93.631 99.0688 93.6417 99.1367 93.6489C99.2761 93.6631 99.437 93.6774 99.5907 93.7202C100.22 93.8806 100.674 94.2976 100.899 94.6398C101.128 94.9892 101.167 95.2494 101.146 95.2529Z" fill="#EB996E"/>
<path d="M74.9069 107.882C74.771 107.626 74.46 107.519 74.174 107.487C73.888 107.455 73.5878 107.476 73.3161 107.38C73.0944 107.301 72.9085 107.148 72.6976 107.048C72.1614 106.795 71.4679 106.931 71.0639 107.369L70.8995 107.269C70.6635 107.07 70.306 107.062 70.02 107.184C69.7341 107.305 69.5088 107.533 69.3158 107.775C68.7402 108.481 68.3613 109.344 68.2219 110.246C68.1683 110.595 68.1861 111.019 68.4864 111.204C68.6938 111.333 68.9762 111.286 69.18 111.155C69.3837 111.023 69.5303 110.816 69.6626 110.609C70.0737 109.96 70.4026 109.258 70.6349 108.527C70.4312 109.404 70.231 110.285 70.1702 111.183C70.1559 111.411 70.1523 111.647 70.231 111.864C70.3132 112.078 70.4991 112.267 70.7279 112.288C70.9173 112.306 71.0997 112.206 71.2283 112.071C71.357 111.935 71.4428 111.761 71.5215 111.589C71.8754 110.82 72.1757 110.025 72.4152 109.212C72.2436 110.05 72.1471 110.901 72.1256 111.753C72.1185 112.046 72.1435 112.388 72.3902 112.548C72.5689 112.666 72.8156 112.637 72.9979 112.523C73.1802 112.409 73.3053 112.228 73.4019 112.035C73.8559 111.155 73.8308 110.067 74.3921 109.248C74.5387 109.034 74.721 108.845 74.8425 108.62C74.9677 108.396 75.0248 108.11 74.9033 107.882H74.9069Z" fill="#FFBE9D"/>
<path d="M74.9063 107.883C74.9063 107.883 74.9492 107.929 74.9742 108.043C74.9992 108.157 74.9992 108.339 74.9099 108.55C74.8241 108.76 74.6417 108.974 74.4594 109.227C74.2807 109.483 74.1341 109.815 74.0269 110.204C73.9125 110.592 73.8374 111.034 73.6873 111.505C73.6122 111.74 73.5192 111.982 73.3798 112.214C73.244 112.442 73.0045 112.681 72.6827 112.692C72.5254 112.702 72.3538 112.638 72.243 112.51C72.1322 112.385 72.0857 112.221 72.0643 112.068C72.0321 111.754 72.0643 111.455 72.075 111.141C72.1143 110.514 72.1965 109.861 72.3324 109.191L72.4968 109.234C72.3646 109.687 72.2073 110.146 72.0321 110.61C71.9427 110.842 71.8462 111.073 71.7461 111.305C71.6389 111.537 71.5531 111.776 71.3958 112.004C71.2456 112.228 70.9596 112.435 70.6379 112.36C70.3269 112.278 70.141 111.986 70.0945 111.704C70.0445 111.419 70.0802 111.145 70.1017 110.874C70.1267 110.603 70.166 110.328 70.2125 110.057C70.3054 109.526 70.4234 109.006 70.5414 108.496L70.7201 108.546C70.427 109.434 70.0373 110.25 69.5047 110.966C69.3617 111.137 69.1615 111.294 68.9255 111.341C68.6967 111.398 68.4179 111.316 68.2713 111.116C68.1283 110.916 68.1033 110.685 68.1105 110.474C68.1176 110.261 68.1605 110.061 68.2034 109.865C68.3857 109.077 68.7361 108.378 69.1794 107.812C69.3974 107.53 69.6441 107.263 69.9694 107.12C70.2876 106.981 70.6772 106.988 70.9382 107.209L70.931 107.202C70.9918 107.238 71.0419 107.27 71.0955 107.306L71.0168 107.316C71.503 106.81 72.2287 106.76 72.7077 106.992C72.9473 107.109 73.1331 107.263 73.3369 107.334C73.5371 107.405 73.7409 107.412 73.9196 107.427C74.2843 107.437 74.5738 107.523 74.724 107.648C74.8813 107.769 74.9063 107.876 74.9063 107.876C74.8956 107.883 74.8598 107.783 74.7061 107.676C74.5524 107.569 74.2807 107.498 73.9196 107.498C73.7409 107.491 73.53 107.491 73.3119 107.416C73.0903 107.345 72.8972 107.188 72.6684 107.084C72.2216 106.878 71.5459 106.942 71.1133 107.405L71.0776 107.445L71.0311 107.416C70.9775 107.384 70.9239 107.352 70.8667 107.316H70.8631L70.8595 107.309C70.6486 107.131 70.309 107.12 70.0302 107.248C69.7442 107.377 69.5118 107.626 69.3009 107.904C68.8755 108.457 68.5395 109.138 68.3714 109.901C68.3321 110.093 68.2928 110.289 68.2856 110.478C68.2785 110.67 68.3107 110.87 68.4143 111.009C68.5216 111.152 68.7075 111.209 68.8934 111.166C69.0793 111.13 69.2401 111.006 69.3724 110.849C69.8693 110.171 70.2661 109.348 70.5485 108.485L70.7273 108.535C70.6093 109.045 70.4913 109.558 70.402 110.086C70.3555 110.353 70.3162 110.621 70.2911 110.888C70.2697 111.155 70.2375 111.423 70.2804 111.665C70.3197 111.904 70.4735 112.121 70.6844 112.175C70.8917 112.228 71.1205 112.086 71.2492 111.893C71.385 111.697 71.478 111.455 71.5817 111.227C71.6818 110.995 71.7783 110.767 71.8676 110.539C72.0464 110.082 72.2001 109.626 72.336 109.177L72.5004 109.22C72.3646 109.883 72.2788 110.528 72.2359 111.148C72.2216 111.455 72.1894 111.768 72.2144 112.046C72.2323 112.185 72.2716 112.317 72.3538 112.41C72.4325 112.503 72.554 112.549 72.6791 112.545C72.9365 112.538 73.1403 112.349 73.269 112.139C73.4013 111.922 73.4978 111.69 73.5729 111.462C73.723 111.002 73.8088 110.56 73.9303 110.168C74.0483 109.776 74.2056 109.434 74.3986 109.173C74.5953 108.917 74.7776 108.717 74.867 108.521C75.0564 108.115 74.8956 107.872 74.9134 107.876L74.9063 107.883Z" fill="#EB996E"/>
</g>
<defs>
<clipPath id="clip0_532_3538">
<rect width="160" height="153" fill="white"/>
</clipPath>
</defs>
</svg>
