<svg width="126" height="140" viewBox="0 0 126 140" fill="none" xmlns="http://www.w3.org/2000/svg">
<g clip-path="url(#clip0_532_4421)">
<path d="M107.362 75.8409L84.6847 67.2909C83.1161 66.7002 82.3271 64.9528 82.9196 63.3921L94.7918 32.0958C95.3843 30.5319 97.1369 29.7453 98.7024 30.336L113.085 35.7583L119.88 51.3971L111.276 74.0812C110.684 75.6451 108.931 76.4317 107.366 75.8409H107.362Z" fill="#F5F5F5"/>
<path d="M113.085 35.7588L109.745 44.5669C109.193 46.0188 109.929 47.6449 111.385 48.1921L119.88 51.3976L113.085 35.7588Z" fill="#EBEBEB"/>
<path d="M109.565 45.3816C109.565 45.3816 108.642 47.4771 110.815 49.097C110.896 49.1592 110.984 49.212 111.071 49.2649C112.106 49.8805 118.917 53.9285 118.98 53.7606C119.048 53.5803 119.878 51.3946 119.878 51.3946L111.383 48.1922C111.383 48.1922 109.29 47.3217 109.565 45.3816Z" fill="#E0E0E0"/>
<path d="M107.979 43.4907C107.935 43.6026 105.552 42.8098 102.655 41.7185C99.7582 40.6272 97.4443 39.6479 97.4879 39.5359C97.5316 39.424 99.9141 40.2168 102.811 41.3081C105.708 42.3994 108.022 43.3788 107.979 43.4907Z" fill="#E0E0E0"/>
<path d="M112.863 51.0235C112.82 51.1354 108.919 49.7705 104.15 47.9735C99.3821 46.1764 95.5495 44.6249 95.5931 44.513C95.6368 44.4011 99.5349 45.766 104.306 47.563C109.074 49.3601 112.904 50.9116 112.863 51.0235Z" fill="#E0E0E0"/>
<path d="M112.841 55.7681C112.798 55.88 108.55 54.3846 103.352 52.4258C98.153 50.464 93.9743 48.7851 94.0179 48.6731C94.0616 48.5612 98.309 50.0567 103.508 52.0185C108.706 53.9773 112.885 55.6593 112.841 55.7712V55.7681Z" fill="#E0E0E0"/>
<path d="M111.356 59.6919C111.312 59.8039 107.065 58.3084 101.866 56.3497C96.6677 54.3909 92.4889 52.7089 92.5326 52.597C92.5762 52.485 96.8236 53.9805 102.022 55.9424C107.221 57.9011 111.4 59.5831 111.356 59.6951V59.6919Z" fill="#E0E0E0"/>
<path d="M109.866 63.6158C109.822 63.7277 105.575 62.2322 100.376 60.2735C95.1775 58.3116 90.9987 56.6327 91.0423 56.5208C91.086 56.4089 95.3334 57.9043 100.532 59.8662C105.73 61.8249 109.909 63.507 109.866 63.6189V63.6158Z" fill="#E0E0E0"/>
<path d="M108.38 67.5396C108.337 67.6515 104.089 66.156 98.8907 64.1973C93.6921 62.2386 89.5133 60.5565 89.557 60.4446C89.6006 60.3327 93.848 61.8282 99.0466 63.79C104.245 65.7488 108.424 67.4308 108.38 67.5427V67.5396Z" fill="#E0E0E0"/>
<path d="M31.7401 43.3452L1.83968 53.7847C0.805854 54.1456 0.261265 55.2738 0.623305 56.3045L15.6253 99.0144C15.9873 100.045 17.1189 100.588 18.1527 100.227L48.0532 89.7877C49.087 89.4267 49.6316 88.2985 49.2695 87.2678L34.2676 44.5579C33.9055 43.5272 32.7739 42.9843 31.7401 43.3452Z" fill="#EBEBEB"/>
<path d="M32.1225 46.0033L3.19922 56.1016L18.0682 98.4329L46.9915 88.3346L32.1225 46.0033Z" fill="#E0E0E0"/>
<path d="M31.6088 45.8004L2.68555 55.8987L17.2711 97.4231L46.1944 87.3248L31.6088 45.8004Z" fill="#FAFAFA"/>
<path d="M46.1883 87.3288C46.0667 86.9806 40.1946 70.3127 31.5657 45.8191L31.6187 45.844C22.8464 48.9065 13.0324 52.3358 2.70082 55.9424H2.6977L2.72577 55.8864C8.17691 71.4848 13.2507 85.8893 17.3017 97.4117L17.2549 97.3899C34.8464 91.2712 45.9046 87.4252 46.1883 87.3257C45.9046 87.4252 34.8557 91.296 17.2798 97.4583L17.2455 97.4707L17.233 97.4365C13.1821 85.9111 8.12078 71.5066 2.64157 55.9144L2.62598 55.8709L2.66964 55.8553H2.67275C13.0044 52.2488 22.8214 48.8225 31.5938 45.7632L31.6343 45.7507L31.6468 45.7912C40.2289 70.3002 46.0698 86.9806 46.1915 87.3288H46.1883Z" fill="#E0E0E0"/>
<path d="M35.9318 90.91C35.9318 90.91 42.3715 85.4939 43.488 79.854C43.488 79.854 41.7011 82.6491 37.9807 83.159C37.9807 83.159 37.8528 89.0818 35.9287 90.91H35.9318Z" fill="#E0E0E0"/>
<path d="M12.5712 65.1515L11.0496 65.6827C10.4936 65.8768 10.2008 66.4835 10.3955 67.0377L10.9283 68.5548C11.123 69.1091 11.7315 69.401 12.2874 69.2069L13.8091 68.6757C14.365 68.4816 14.6579 67.8749 14.4632 67.3207L13.9303 65.8036C13.7356 65.2493 13.1271 64.9574 12.5712 65.1515Z" fill="#EBEBEB"/>
<path d="M12.3846 67.7665C12.3627 67.7727 12.3347 67.7696 12.316 67.7603L11.6174 67.3561C11.5769 67.3312 11.5613 67.2784 11.5862 67.2379C11.6112 67.1975 11.6642 67.182 11.7047 67.2069L12.3191 67.5613L13.055 65.9912C13.0769 65.9477 13.1268 65.929 13.1704 65.9508C13.2141 65.9725 13.2328 66.0223 13.211 66.0658L12.4345 67.723C12.4251 67.7447 12.4064 67.7603 12.3846 67.7696V67.7665Z" fill="white"/>
<path d="M32.3556 58.7278C32.365 58.7527 28.6072 60.0834 23.9668 61.7032C19.3234 63.3231 15.5562 64.6196 15.5469 64.5947C15.5375 64.5698 19.2953 63.2391 23.9357 61.6193C28.576 59.9994 32.3463 58.706 32.3525 58.7278H32.3556Z" fill="#E0E0E0"/>
<path d="M23.537 64.7007C23.537 64.7007 23.4435 64.7474 23.2657 64.8158C23.0724 64.8873 22.8198 64.9806 22.511 65.0956C21.8717 65.3257 20.9892 65.6397 20.0131 65.9817C19.0339 66.3237 18.1482 66.6284 17.5058 66.8429C17.194 66.9455 16.9383 67.0295 16.7418 67.0947C16.5609 67.1507 16.4611 67.1818 16.458 67.1756C16.458 67.1694 16.5516 67.1289 16.7293 67.0605C16.9227 66.989 17.1753 66.8958 17.484 66.7807C18.1233 66.5507 19.0058 66.2366 19.985 65.8946C20.9611 65.5526 21.8499 65.2479 22.4923 65.0334C22.8042 64.9308 23.0599 64.8469 23.2563 64.7816C23.4372 64.7256 23.537 64.6945 23.5401 64.7007H23.537Z" fill="#E0E0E0"/>
<path d="M32.758 59.8694C32.7673 59.8943 29.0095 61.225 24.3692 62.8448C19.7257 64.4647 15.9586 65.7612 15.9492 65.7363C15.9399 65.7114 19.6977 64.3807 24.338 62.7609C28.9783 61.141 32.7486 59.8476 32.7548 59.8694H32.758Z" fill="#E0E0E0"/>
<path d="M14.7421 71.3387L13.2205 71.87C12.6645 72.0641 12.3717 72.6707 12.5664 73.225L13.0992 74.7421C13.2939 75.2963 13.9024 75.5883 14.4583 75.3942L15.98 74.8629C16.5359 74.6688 16.8288 74.0622 16.6341 73.5079L16.1012 71.9908C15.9065 71.4366 15.298 71.1446 14.7421 71.3387Z" fill="#EBEBEB"/>
<path d="M14.5574 73.953C14.5356 73.9592 14.5075 73.9561 14.4888 73.9468L13.7903 73.5426C13.7497 73.5177 13.7341 73.4649 13.7591 73.4245C13.784 73.384 13.837 73.3685 13.8776 73.3934L14.4919 73.7478L15.2279 72.1777C15.2497 72.1342 15.2996 72.1155 15.3433 72.1373C15.3869 72.1591 15.4057 72.2088 15.3838 72.2523L14.6073 73.9095C14.598 73.9312 14.5793 73.9468 14.5574 73.9561V73.953Z" fill="white"/>
<path d="M34.5285 64.9153C34.5378 64.9402 30.78 66.2709 26.1397 67.8907C21.4963 69.5106 17.7291 70.8071 17.7197 70.7822C17.7104 70.7573 21.4682 69.4266 26.1085 67.8068C30.7488 66.1869 34.5191 64.8935 34.5254 64.9153H34.5285Z" fill="#E0E0E0"/>
<path d="M25.7079 70.8882C25.7079 70.8882 25.6144 70.9349 25.4366 71.0033C25.2432 71.0748 24.9907 71.1681 24.6819 71.2831C24.0426 71.5132 23.1601 71.8272 22.184 72.1692C21.2048 72.5112 20.3191 72.8159 19.6767 73.0304C19.3649 73.133 19.1092 73.217 18.9127 73.2822C18.7318 73.3382 18.632 73.3693 18.6289 73.3631C18.6289 73.3569 18.7225 73.3164 18.9002 73.248C19.0936 73.1765 19.3462 73.0833 19.6549 72.9682C20.2942 72.7382 21.1767 72.4241 22.1559 72.0821C23.132 71.7401 24.0208 71.4354 24.6632 71.2209C24.9751 71.1183 25.2308 71.0344 25.4272 70.9691C25.6081 70.9131 25.7079 70.882 25.711 70.8882H25.7079Z" fill="#E0E0E0"/>
<path d="M34.9308 66.0569C34.9402 66.0818 31.1824 67.4125 26.542 69.0323C21.8986 70.6522 18.1314 71.9487 18.1221 71.9238C18.1127 71.8989 21.8705 70.5682 26.5109 68.9484C31.1512 67.3285 34.9215 66.0351 34.9277 66.0569H34.9308Z" fill="#E0E0E0"/>
<path d="M16.9179 77.5255L15.3962 78.0568C14.8403 78.2509 14.5475 78.8575 14.7422 79.4118L15.275 80.9288C15.4697 81.4831 16.0782 81.775 16.6341 81.581L18.1558 81.0497C18.7117 80.8556 19.0045 80.2489 18.8099 79.6947L18.277 78.1776C18.0823 77.6234 17.4738 77.3314 16.9179 77.5255Z" fill="#EBEBEB"/>
<path d="M16.7313 80.141C16.7094 80.1472 16.6814 80.1441 16.6626 80.1348L15.9641 79.7306C15.9236 79.7057 15.908 79.6529 15.9329 79.6125C15.9579 79.572 16.0109 79.5565 16.0514 79.5814L16.6658 79.9358L17.4017 78.3657C17.4236 78.3222 17.4735 78.3035 17.5171 78.3253C17.5608 78.347 17.5795 78.3968 17.5577 78.4403L16.7811 80.0975C16.7718 80.1192 16.7531 80.1348 16.7313 80.1441V80.141Z" fill="white"/>
<path d="M36.7023 71.1033C36.7117 71.1282 32.9539 72.4589 28.3135 74.0787C23.6701 75.6986 19.9029 76.9951 19.8936 76.9702C19.8842 76.9453 23.642 75.6146 28.2823 73.9948C32.9227 72.3749 36.6929 71.0815 36.6992 71.1033H36.7023Z" fill="#E0E0E0"/>
<path d="M27.8837 77.0762C27.8837 77.0762 27.7901 77.1229 27.6124 77.1913C27.419 77.2628 27.1664 77.356 26.8577 77.4711C26.2184 77.7012 25.3359 78.0152 24.3598 78.3572C23.3806 78.6992 22.4949 79.0039 21.8525 79.2184C21.5407 79.321 21.2849 79.4049 21.0885 79.4702C20.9076 79.5262 20.8078 79.5573 20.8047 79.5511C20.8047 79.5449 20.8982 79.5044 21.076 79.436C21.2693 79.3645 21.5219 79.2713 21.8307 79.1562C22.47 78.9261 23.3525 78.6121 24.3317 78.2701C25.3078 77.9281 26.1966 77.6234 26.839 77.4089C27.1508 77.3063 27.4066 77.2224 27.603 77.1571C27.7839 77.1011 27.8837 77.07 27.8868 77.0762H27.8837Z" fill="#E0E0E0"/>
<path d="M37.1046 72.2449C37.114 72.2698 33.3562 73.6005 28.7159 75.2203C24.0724 76.8402 20.3053 78.1367 20.2959 78.1118C20.2866 78.0869 24.0444 76.7562 28.6847 75.1364C33.325 73.5165 37.0953 72.2231 37.1015 72.2449H37.1046Z" fill="#E0E0E0"/>
<path d="M19.0888 83.7142L17.5671 84.2455C17.0112 84.4396 16.7184 85.0462 16.9131 85.6005L17.4459 87.1176C17.6406 87.6718 18.2491 87.9638 18.805 87.7697L20.3267 87.2384C20.8826 87.0443 21.1754 86.4376 20.9808 85.8834L20.4479 84.3663C20.2532 83.8121 19.6447 83.5201 19.0888 83.7142Z" fill="#EBEBEB"/>
<path d="M18.9021 86.3272C18.8803 86.3334 18.8523 86.3303 18.8335 86.3179L18.135 85.9137C18.0945 85.8888 18.0789 85.836 18.1038 85.7956C18.1288 85.7551 18.1818 85.7396 18.2223 85.7645L18.8367 86.1189L19.5726 84.5488C19.5945 84.5053 19.6444 84.4866 19.688 84.5084C19.7317 84.5301 19.7504 84.5799 19.7286 84.6234L18.952 86.2806C18.9427 86.3023 18.924 86.3179 18.9021 86.3272Z" fill="white"/>
<path d="M38.8752 77.2864C38.8845 77.3113 35.1267 78.642 30.4864 80.2618C25.8429 81.8817 22.0758 83.1782 22.0664 83.1533C22.0571 83.1284 25.8149 81.7977 30.4552 80.1779C35.0955 78.558 38.8658 77.2646 38.872 77.2864H38.8752Z" fill="#E0E0E0"/>
<path d="M30.0546 83.2627C30.0546 83.2627 29.961 83.3094 29.7833 83.3778C29.5899 83.4493 29.3373 83.5426 29.0286 83.6576C28.3893 83.8877 27.5068 84.2017 26.5307 84.5437C25.5515 84.8857 24.6658 85.1904 24.0234 85.4049C23.7116 85.5075 23.4558 85.5915 23.2594 85.6568C23.0785 85.7127 22.9787 85.7438 22.9756 85.7376C22.9756 85.7314 23.0691 85.691 23.2469 85.6226C23.4402 85.5511 23.6928 85.4578 24.0016 85.3427C24.6409 85.1127 25.5234 84.7987 26.5026 84.4567C27.4787 84.1147 28.3675 83.81 29.0099 83.5954C29.3217 83.4928 29.5775 83.4089 29.7739 83.3436C29.9548 83.2876 30.0546 83.2565 30.0577 83.2627H30.0546Z" fill="#E0E0E0"/>
<path d="M39.2775 78.4302C39.2869 78.4551 35.5291 79.7858 30.8887 81.4056C26.2453 83.0255 22.4781 84.322 22.4688 84.2971C22.4594 84.2722 26.2172 82.9415 30.8575 81.3217C35.4979 79.7018 39.2681 78.4084 39.2744 78.4302H39.2775Z" fill="#E0E0E0"/>
<path d="M5.96094 51.8573L6.72497 54.0306C7.1678 55.2929 8.55241 55.9551 9.81853 55.5136L25.8164 49.9297C27.0826 49.4882 27.7468 48.1077 27.304 46.8454L26.5431 44.6753L5.96406 51.8542L5.96094 51.8573Z" fill="#E0E0E0"/>
<path d="M16.4628 48.9095C15.2777 49.323 13.9773 48.6981 13.5625 47.5166C13.1478 46.3352 13.7746 45.0387 14.9596 44.6251C16.1447 44.2116 17.4451 44.8366 17.8598 46.018C18.2746 47.1995 17.6478 48.496 16.4628 48.9095ZM15.2465 45.4491C14.5168 45.704 14.1301 46.5031 14.3858 47.2306C14.6415 47.9581 15.443 48.3436 16.1727 48.0887C16.9025 47.8337 17.2892 47.0347 17.0334 46.3072C16.7777 45.5796 15.9763 45.1941 15.2465 45.4491Z" fill="#E0E0E0"/>
<path d="M29.2486 54.5494C29.2642 54.5898 25.0448 56.1009 19.8276 57.9228C14.6103 59.7447 10.3692 61.1874 10.3536 61.1469C10.338 61.1065 14.5573 59.5955 19.7746 57.7736C24.9918 55.9516 29.233 54.509 29.2486 54.5494Z" fill="#E0E0E0"/>
<path d="M23.8483 55.3207C23.8639 55.3611 22.0053 56.0483 19.7007 56.8535C17.3961 57.6588 15.5157 58.2775 15.5001 58.2371C15.4845 58.1966 17.3431 57.5095 19.6477 56.7043C21.9523 55.899 23.8327 55.2803 23.8483 55.3207Z" fill="#E0E0E0"/>
<path d="M106.955 118.324C108.074 117.749 109.393 117.674 110.638 117.879C111.305 117.988 112.004 118.187 112.456 118.688C112.911 119.188 112.995 120.068 112.474 120.497C112.163 120.752 111.729 120.792 111.327 120.786C110.354 120.774 109.275 120.603 108.495 121.187C108.052 121.52 107.756 122.073 107.226 122.238C106.708 122.4 106.122 122.092 105.848 121.626C105.573 121.159 105.564 120.575 105.692 120.049C105.692 120.049 105.826 118.902 106.955 118.321V118.324Z" fill="#FEF2CA"/>
<path d="M104.391 113.384C105.077 114.36 106.405 114.036 107.023 113.439C107.64 112.846 107.902 111.981 108.139 111.157C108.682 109.276 109.228 107.305 108.825 105.39C108.704 104.818 108.489 104.246 108.086 103.823C107.684 103.397 107.063 103.145 106.496 103.294C105.825 103.472 105.408 104.128 105.105 104.75C104.219 106.581 103.748 108.614 103.742 110.647C103.739 111.599 103.851 112.594 104.388 113.377" fill="#FEF2CA"/>
<path d="M102.508 114.783C103.25 113.903 103.393 112.619 103.063 111.519C102.732 110.415 101.984 109.479 101.123 108.714C100.113 107.816 98.9247 107.119 97.6492 106.672C97.1471 106.494 96.617 106.358 96.0868 106.407C95.5567 106.457 95.0234 106.728 94.7771 107.197C94.4122 107.893 94.7615 108.736 95.1419 109.423C95.8093 110.636 96.5733 111.795 97.4247 112.887C98.1076 113.767 98.8904 114.634 99.9351 115.029C100.98 115.424 102.059 115.38 102.614 114.659" fill="#FEF2CA"/>
<path d="M104.345 128.096C104.345 128.096 104.379 127.937 104.407 127.651C104.438 127.328 104.479 126.924 104.525 126.442C104.582 125.932 104.656 125.329 104.797 124.666C104.937 124.007 105.158 123.295 105.442 122.574C105.735 121.856 106.094 121.203 106.515 120.68C106.93 120.155 107.416 119.776 107.872 119.558C108.324 119.334 108.732 119.244 109.013 119.204C109.297 119.176 109.456 119.151 109.456 119.138C109.456 119.126 109.297 119.123 109.007 119.132C108.717 119.151 108.296 119.225 107.815 119.44C107.335 119.651 106.821 120.037 106.384 120.575C105.944 121.11 105.573 121.775 105.274 122.509C104.984 123.245 104.765 123.964 104.631 124.635C104.497 125.307 104.435 125.919 104.394 126.432C104.357 126.945 104.341 127.362 104.335 127.648C104.329 127.934 104.332 128.096 104.345 128.096Z" fill="#263238"/>
<path d="M104.426 127.164C104.426 127.164 104.435 127.092 104.439 126.958C104.439 126.803 104.439 126.61 104.439 126.371C104.439 125.861 104.439 125.121 104.464 124.21C104.51 122.385 104.666 120.423 104.972 117.656C105.259 115.054 105.645 112.025 106.054 110.057C106.141 109.609 106.229 109.205 106.313 108.854C106.391 108.5 106.459 108.195 106.525 107.949C106.581 107.716 106.628 107.526 106.662 107.377C106.69 107.247 106.706 107.175 106.699 107.175C106.693 107.175 106.668 107.24 106.628 107.368C106.584 107.517 106.525 107.704 106.456 107.931C106.381 108.176 106.303 108.478 106.213 108.829C106.119 109.18 106.023 109.582 105.926 110.029C105.524 111.814 105.093 114.307 104.788 117.081C104.482 119.854 104.345 122.379 104.333 124.207C104.323 125.121 104.342 125.861 104.364 126.371C104.379 126.61 104.392 126.803 104.401 126.958C104.411 127.092 104.42 127.164 104.426 127.164Z" fill="#263238"/>
<path d="M104.44 122.295C104.44 122.295 104.449 122.077 104.437 121.679C104.415 121.284 104.359 120.715 104.25 120.016C104.131 119.319 103.966 118.489 103.707 117.591C103.595 117.18 103.33 116.195 102.69 114.721C101.848 112.725 100.701 111.096 99.7029 110.085C99.469 109.818 99.2102 109.625 99.0012 109.435C98.8921 109.345 98.7985 109.255 98.7018 109.184C98.6052 109.115 98.5147 109.053 98.4305 108.997C98.1031 108.773 97.9191 108.655 97.9129 108.667C97.8848 108.708 98.6488 109.156 99.6124 110.178C100.573 111.201 101.686 112.821 102.525 114.799C102.993 115.871 103.317 116.829 103.548 117.64C103.816 118.533 103.991 119.35 104.125 120.041C104.253 120.734 104.324 121.297 104.371 121.688C104.409 122.08 104.434 122.298 104.446 122.298L104.44 122.295Z" fill="#263238"/>
<path d="M99.7197 130.884L100.206 137.569H108.823L109.312 130.884H99.7197Z" fill="#263238"/>
<path d="M110.34 128.248H98.8857V130.885H110.34V128.248Z" fill="#263238"/>
<path d="M98.8857 137.313V138.044H99.4221H110.15V137.313H98.8857Z" fill="#455A64"/>
<path d="M99.9499 139.329L99.4229 138.045H109.739L109.125 139.329H99.9499Z" fill="#455A64"/>
<path d="M109.151 133.07C109.151 133.07 109.139 133.092 109.111 133.132C109.076 133.179 109.033 133.235 108.983 133.303C108.861 133.459 108.693 133.673 108.481 133.944L108.459 133.972L108.437 133.941C108.122 133.505 107.701 132.924 107.205 132.24H107.277C106.909 132.759 106.5 133.334 106.064 133.953L106.026 134.006L105.983 133.956C105.534 133.425 105.047 132.849 104.542 132.249H104.626C104.601 132.28 104.573 132.315 104.548 132.349C104.102 132.905 103.669 133.446 103.26 133.956L103.217 134.009L103.176 133.953C102.74 133.338 102.331 132.759 101.963 132.24H102.035C101.436 132.924 100.928 133.499 100.538 133.941L100.51 133.972L100.491 133.938C100.295 133.608 100.136 133.344 100.023 133.154C99.9734 133.07 99.936 132.999 99.9017 132.946C99.8767 132.899 99.8643 132.871 99.8643 132.871C99.8643 132.871 99.883 132.893 99.9142 132.936C99.9485 132.989 99.9921 133.055 100.048 133.139C100.167 133.325 100.332 133.583 100.541 133.91H100.494C100.878 133.459 101.377 132.874 101.966 132.187L102.004 132.144L102.038 132.19C102.409 132.709 102.824 133.282 103.263 133.897H103.182C103.591 133.384 104.021 132.843 104.467 132.284C104.495 132.249 104.52 132.215 104.545 132.184L104.586 132.134L104.629 132.184C105.135 132.784 105.618 133.362 106.064 133.894H105.983C106.426 133.282 106.837 132.706 107.208 132.193L107.246 132.144L107.28 132.193C107.767 132.884 108.178 133.471 108.487 133.913H108.443C108.665 133.648 108.839 133.44 108.964 133.288C109.02 133.222 109.067 133.17 109.104 133.126C109.136 133.089 109.154 133.073 109.157 133.073L109.151 133.07Z" fill="#E0E0E0"/>
<path d="M109.431 130.841C109.431 130.873 107.273 130.894 104.609 130.894C101.946 130.894 99.7881 130.869 99.7881 130.841C99.7881 130.813 101.946 130.789 104.609 130.789C107.273 130.789 109.431 130.813 109.431 130.841Z" fill="#455A64"/>
<path d="M109.867 138.116C109.867 138.144 107.522 138.169 104.628 138.169C101.734 138.169 99.3887 138.144 99.3887 138.116C99.3887 138.088 101.734 138.063 104.628 138.063C107.522 138.063 109.867 138.088 109.867 138.116Z" fill="#263238"/>
<path d="M24.8904 116.788C24.8654 116.816 24.669 116.701 24.4507 116.524C24.2324 116.35 24.0733 116.185 24.0983 116.154C24.1232 116.126 24.3197 116.241 24.538 116.418C24.7563 116.592 24.9153 116.757 24.8904 116.788Z" fill="#263238"/>
<path d="M30.8642 107.887C30.9016 107.054 30.9235 106.202 30.6615 105.412C30.3996 104.622 29.7883 103.895 28.9682 103.727C28.0357 103.534 27.0784 104.122 26.5544 104.914C26.0305 105.707 25.8528 106.674 25.6969 107.61C24.6334 114.071 24.2405 120.64 24.5274 127.182L28.3476 127.717C30.0253 120.883 30.5586 114.913 30.8642 107.884V107.887Z" fill="#455A64"/>
<path d="M28.4397 103.696C28.4397 103.696 28.4365 103.717 28.4209 103.758C28.4053 103.804 28.3835 103.86 28.3586 103.932C28.2962 104.094 28.212 104.311 28.1029 104.591C28.0498 104.734 27.9781 104.889 27.922 105.067C27.8658 105.244 27.8035 105.437 27.738 105.642C27.6725 105.85 27.6008 106.071 27.5228 106.304C27.4604 106.544 27.395 106.795 27.3263 107.06C27.0394 108.114 26.7993 109.398 26.5873 110.828C26.3814 112.261 26.2442 113.847 26.1382 115.513C25.9417 118.849 25.9137 121.878 25.8263 124.066C25.7858 125.161 25.7484 126.047 25.7047 126.659C25.686 126.955 25.6673 127.191 25.6579 127.362C25.6517 127.437 25.6455 127.496 25.6424 127.546C25.6392 127.586 25.6361 127.608 25.633 127.608C25.633 127.608 25.6299 127.586 25.6299 127.546C25.6299 127.496 25.6299 127.437 25.6299 127.362C25.6361 127.188 25.6424 126.955 25.6517 126.656C25.6767 126.044 25.7016 125.158 25.7297 124.063C25.792 121.875 25.8076 118.846 26.001 115.504C26.107 113.834 26.2473 112.246 26.4625 110.809C26.6808 109.376 26.9303 108.092 27.2328 107.035C27.3045 106.77 27.3731 106.519 27.4386 106.279C27.5166 106.046 27.5945 105.825 27.6631 105.617C27.7349 105.412 27.8004 105.219 27.8596 105.042C27.9189 104.865 27.9937 104.712 28.053 104.569C28.1715 104.296 28.265 104.078 28.3305 103.919C28.3617 103.851 28.3866 103.798 28.4053 103.752C28.4241 103.714 28.4334 103.696 28.4365 103.696H28.4397Z" fill="#263238"/>
<path d="M28.7921 103.698C28.7921 103.698 29.026 103.938 29.2599 104.485C29.5 105.029 29.6497 105.893 29.6091 106.947C29.5062 109.052 29.3191 111.95 29.0665 115.152C28.8139 118.355 28.5333 121.246 28.3087 123.339C28.1965 124.383 28.0998 125.229 28.0281 125.813C27.9906 126.096 27.9626 126.32 27.9407 126.485C27.9314 126.553 27.922 126.612 27.9158 126.659C27.9096 126.7 27.9033 126.718 27.9033 126.718C27.9033 126.718 27.9033 126.696 27.9033 126.659C27.9064 126.612 27.9096 126.553 27.9158 126.482C27.9314 126.317 27.9501 126.09 27.9782 125.807C28.0343 125.21 28.1185 124.365 28.2183 123.326C28.4179 121.234 28.6829 118.339 28.9355 115.137C29.185 111.937 29.3908 109.037 29.5156 106.941C29.5686 105.893 29.4376 105.045 29.2131 104.5C28.9979 103.953 28.7796 103.701 28.7952 103.692L28.7921 103.698Z" fill="#263238"/>
<path d="M31.4387 113.551C31.4262 113.585 31.1019 113.504 30.7152 113.364C30.3285 113.224 30.026 113.085 30.0385 113.05C30.0509 113.016 30.3753 113.1 30.762 113.237C31.1486 113.377 31.4511 113.517 31.4387 113.551Z" fill="#263238"/>
<path d="M31.9009 109.671C31.9165 109.705 31.6078 109.876 31.2117 110.053C30.8157 110.23 30.482 110.345 30.4664 110.311C30.4508 110.277 30.7595 110.106 31.1556 109.929C31.5516 109.751 31.8853 109.636 31.9009 109.671Z" fill="#263238"/>
<path d="M31.6594 106.507C31.6594 106.544 31.4005 106.556 31.0887 106.535C30.7768 106.513 30.5273 106.466 30.5273 106.429C30.5273 106.392 30.7862 106.379 31.098 106.401C31.4099 106.423 31.6594 106.469 31.6594 106.507Z" fill="#263238"/>
<path d="M27.7192 104.476C27.688 104.494 27.5196 104.289 27.345 104.012C27.1703 103.736 27.055 103.496 27.0861 103.475C27.1173 103.456 27.2857 103.661 27.4604 103.938C27.635 104.215 27.7504 104.454 27.7192 104.476Z" fill="#263238"/>
<path d="M26.419 106.391C26.419 106.428 26.1758 106.453 25.8764 106.447C25.577 106.441 25.3369 106.407 25.3369 106.366C25.3369 106.329 25.5802 106.304 25.8795 106.31C26.1789 106.316 26.419 106.351 26.419 106.391Z" fill="#263238"/>
<path d="M25.4826 110.221C25.467 110.255 25.2144 110.187 24.9119 110.066C24.6094 109.944 24.3786 109.817 24.3911 109.783C24.4067 109.749 24.6593 109.817 24.9618 109.938C25.2643 110.059 25.4951 110.187 25.4826 110.221Z" fill="#263238"/>
<path d="M25.383 113.445C25.3892 113.483 25.1741 113.557 24.8965 113.616C24.619 113.676 24.3913 113.691 24.382 113.654C24.3757 113.616 24.5909 113.542 24.8685 113.483C25.146 113.424 25.3737 113.408 25.383 113.445Z" fill="#263238"/>
<path d="M24.9419 118.715C24.9481 118.752 24.7173 118.824 24.4273 118.877C24.1342 118.93 23.8941 118.942 23.8878 118.905C23.8816 118.867 24.1124 118.796 24.4024 118.743C24.6924 118.69 24.9356 118.678 24.9419 118.715Z" fill="#263238"/>
<path d="M24.6499 121.626C24.6686 121.66 24.4753 121.794 24.2196 121.931C23.9638 122.064 23.7424 122.148 23.7268 122.114C23.7081 122.08 23.9015 121.946 24.1572 121.809C24.4129 121.676 24.6343 121.592 24.6499 121.626Z" fill="#263238"/>
<path d="M27.0334 124.928C27.0023 124.947 26.8339 124.717 26.6592 124.412C26.4846 124.107 26.3692 123.846 26.4035 123.827C26.4347 123.809 26.6031 124.039 26.7777 124.344C26.9524 124.648 27.0677 124.909 27.0334 124.928Z" fill="#263238"/>
<path d="M27.7208 119.44C27.7458 119.468 27.5618 119.692 27.3029 119.944C27.0472 120.196 26.8165 120.376 26.7884 120.351C26.7634 120.323 26.9474 120.099 27.2063 119.847C27.462 119.595 27.6928 119.415 27.7208 119.44Z" fill="#263238"/>
<path d="M27.5681 116.561C27.54 116.586 27.3685 116.446 27.1814 116.244C26.9943 116.042 26.8664 115.861 26.8945 115.833C26.9226 115.809 27.0941 115.948 27.2812 116.151C27.4683 116.35 27.5962 116.533 27.5681 116.561Z" fill="#263238"/>
<path d="M28.0428 112.88C28.0709 112.905 27.915 113.125 27.6935 113.368C27.4721 113.614 27.2725 113.791 27.2445 113.766C27.2164 113.741 27.3723 113.52 27.5937 113.278C27.8152 113.032 28.0147 112.855 28.0428 112.88Z" fill="#263238"/>
<path d="M28.307 110.212C28.282 110.24 28.0638 110.069 27.8205 109.833C27.5773 109.597 27.4026 109.382 27.4307 109.354C27.4556 109.326 27.6739 109.497 27.9172 109.734C28.1604 109.97 28.3351 110.184 28.307 110.212Z" fill="#263238"/>
<path d="M28.832 106.602C28.8632 106.621 28.754 106.864 28.5887 107.143C28.4203 107.423 28.2613 107.635 28.227 107.613C28.1958 107.594 28.305 107.352 28.4702 107.072C28.6386 106.792 28.7977 106.581 28.832 106.602Z" fill="#263238"/>
<path d="M29.8128 103.257C29.8471 103.276 29.7504 103.518 29.5976 103.798C29.4448 104.078 29.2951 104.292 29.2608 104.274C29.2265 104.255 29.3232 104.013 29.476 103.733C29.6288 103.453 29.7785 103.238 29.8128 103.257Z" fill="#263238"/>
<path d="M30.9316 104.777C30.9472 104.811 30.7944 104.917 30.5917 105.016C30.3858 105.113 30.2081 105.166 30.1925 105.131C30.1769 105.097 30.3297 104.992 30.5324 104.892C30.7382 104.796 30.916 104.743 30.9316 104.777Z" fill="#263238"/>
<path d="M30.9585 116.788C30.9523 116.822 30.6061 116.775 30.2101 116.608C29.8172 116.44 29.5427 116.225 29.5614 116.194C29.5833 116.16 29.8827 116.322 30.2631 116.483C30.6436 116.645 30.9648 116.751 30.9554 116.788H30.9585Z" fill="#263238"/>
<path d="M30.5005 119.334C30.5067 119.371 30.2791 119.446 29.9859 119.502C29.6959 119.558 29.4527 119.573 29.4464 119.536C29.4402 119.499 29.6678 119.424 29.961 119.368C30.251 119.312 30.4942 119.297 30.5005 119.334Z" fill="#263238"/>
<path d="M29.9407 123.696C29.9189 123.724 29.6258 123.525 29.3607 123.186C29.0925 122.851 28.9646 122.521 28.9958 122.505C29.0301 122.487 29.2079 122.776 29.4667 123.102C29.7224 123.429 29.9657 123.665 29.9407 123.696Z" fill="#263238"/>
<path d="M23.8015 125.693C23.7765 125.665 23.9324 125.49 24.1476 125.307C24.3628 125.124 24.5592 124.996 24.5842 125.024C24.6091 125.052 24.4532 125.226 24.238 125.41C24.0229 125.593 23.8264 125.721 23.8015 125.693Z" fill="#263238"/>
<path d="M22.0378 116.169C21.7883 115.395 21.3236 114.493 20.5066 114.481C20.0232 114.475 19.5866 114.82 19.3621 115.246C19.1345 115.672 19.0378 116.166 19.0534 116.648C19.1469 119.832 19.6989 123.472 20.806 126.79H23.7873C23.7498 123.105 23.1667 119.679 22.0409 116.172L22.0378 116.169Z" fill="#455A64"/>
<path d="M16.6466 111.298C16.2287 109.635 14.9876 108.739 13.5437 108.655C12.2246 108.885 11.7131 110.179 11.5572 111.503C11.4013 112.828 11.8129 114.146 12.2215 115.418C13.5312 119.497 14.8379 123.576 16.1477 127.658C17.3826 127.524 18.6206 127.388 19.8556 127.254C18.683 121.788 18.0063 116.72 16.6466 111.298Z" fill="#455A64"/>
<path d="M20.5112 114.48C20.5112 114.48 20.3896 114.614 20.2586 114.9C20.1307 115.189 20.0684 115.649 20.1183 116.215C20.1775 116.781 20.2399 117.462 20.3365 118.205C20.4332 118.951 20.5673 119.769 20.7357 120.624C21.0725 122.331 21.453 123.863 21.6931 124.98C21.8147 125.539 21.9083 125.99 21.9644 126.304C21.9894 126.45 22.0112 126.568 22.0268 126.668C22.0392 126.752 22.0455 126.795 22.0393 126.795C22.033 126.795 22.0205 126.755 21.9987 126.674C21.9738 126.578 21.9457 126.46 21.9114 126.317C21.8334 125.984 21.7274 125.542 21.5964 125.001C21.3314 123.891 20.9353 122.362 20.5985 120.649C20.4301 119.794 20.2991 118.97 20.2087 118.22C20.1619 117.844 20.1307 117.487 20.0995 117.151C20.0715 116.818 20.0372 116.507 20.0185 116.218C19.9779 115.646 20.0559 115.167 20.2056 114.875C20.3553 114.586 20.5049 114.477 20.5049 114.477L20.5112 114.48Z" fill="#263238"/>
<path d="M13.5952 108.549C13.5952 108.549 13.3987 108.736 13.1461 109.149C12.8966 109.556 12.6316 110.222 12.5817 111.083C12.5255 111.944 12.7189 112.964 13.0401 114.061C13.3644 115.162 13.723 116.368 14.0973 117.637C14.8363 120.171 15.5068 122.465 15.9964 124.144C16.2303 124.968 16.4205 125.64 16.5578 126.122C16.617 126.346 16.6669 126.526 16.7043 126.66C16.7355 126.784 16.7511 126.849 16.7449 126.849C16.7417 126.849 16.7168 126.787 16.6763 126.666C16.6326 126.532 16.5765 126.355 16.5047 126.134C16.3582 125.655 16.1524 124.99 15.9029 124.169C15.4039 122.493 14.721 120.205 13.9663 117.674C13.5952 116.406 13.2397 115.196 12.9185 114.093C12.6004 112.992 12.4133 111.95 12.485 111.074C12.5474 110.197 12.8311 109.522 13.0993 109.118C13.3675 108.708 13.5921 108.546 13.5921 108.546L13.5952 108.549Z" fill="#263238"/>
<path d="M19.0448 126.858C19.0448 126.858 19.0105 126.799 18.9606 126.681C18.9107 126.563 18.8327 126.389 18.7485 126.162C18.5707 125.708 18.3462 125.039 18.1092 124.197C17.8722 123.357 17.6414 122.344 17.4169 121.215C17.2017 120.083 16.9647 118.84 16.7184 117.537C16.4595 116.234 16.1726 115.003 15.8389 113.903C15.5053 112.802 15.1342 111.835 14.7568 111.055C14.3826 110.271 14.024 109.665 13.7558 109.258C13.6279 109.049 13.5125 108.9 13.4439 108.791C13.3722 108.685 13.3379 108.626 13.341 108.623C13.3441 108.623 13.3878 108.673 13.4658 108.773C13.5406 108.875 13.6653 109.021 13.7994 109.223C14.0832 109.621 14.4543 110.224 14.841 111.008C15.2308 111.791 15.6144 112.758 15.9543 113.862C16.2974 114.966 16.5874 116.2 16.8462 117.506C17.0895 118.812 17.3233 120.055 17.5354 121.187C17.7537 122.316 17.972 123.329 18.1965 124.169C18.4179 125.008 18.63 125.68 18.7922 126.14C18.867 126.37 18.9387 126.547 18.9793 126.669C19.0229 126.79 19.0416 126.855 19.0385 126.855L19.0448 126.858Z" fill="#263238"/>
<path d="M12.2855 114.808C12.2948 114.845 12.0921 114.926 11.8333 114.988C11.5745 115.05 11.3593 115.072 11.3499 115.035C11.3406 114.997 11.5433 114.916 11.8021 114.854C12.0609 114.792 12.2761 114.77 12.2855 114.808Z" fill="#263238"/>
<path d="M11.8936 112.283C11.8936 112.32 11.6098 112.336 11.2668 112.351C10.9237 112.363 10.6431 112.37 10.6368 112.332C10.6306 112.295 10.9112 112.227 11.2605 112.214C11.6098 112.199 11.8936 112.245 11.8905 112.283H11.8936Z" fill="#263238"/>
<path d="M12.3114 109.978C12.2864 110.006 12.0869 109.876 11.8623 109.686C11.6378 109.497 11.4756 109.319 11.5006 109.291C11.5255 109.263 11.7251 109.394 11.9496 109.584C12.1742 109.773 12.3363 109.951 12.3114 109.978Z" fill="#263238"/>
<path d="M13.4443 107.843C13.4817 107.852 13.4723 108.033 13.4661 108.247C13.4599 108.465 13.4599 108.645 13.4224 108.651C13.385 108.658 13.3226 108.477 13.332 108.244C13.3382 108.011 13.41 107.834 13.4474 107.843H13.4443Z" fill="#263238"/>
<path d="M15.7543 108.85C15.7855 108.872 15.695 109.055 15.5516 109.257C15.4081 109.459 15.2678 109.608 15.2366 109.587C15.2054 109.565 15.2959 109.381 15.4393 109.179C15.5828 108.977 15.7231 108.828 15.7543 108.85Z" fill="#263238"/>
<path d="M17.2572 111.449C17.2728 111.483 17.0794 111.595 16.8268 111.698C16.5742 111.8 16.3591 111.853 16.3466 111.819C16.331 111.785 16.5243 111.673 16.7769 111.57C17.0295 111.468 17.2447 111.415 17.2572 111.449Z" fill="#263238"/>
<path d="M18.1644 114.123C18.18 114.157 17.9243 114.301 17.575 114.378C17.2258 114.459 16.9357 114.437 16.9326 114.4C16.9326 114.363 17.2102 114.322 17.5438 114.245C17.8775 114.17 18.1457 114.086 18.1613 114.12L18.1644 114.123Z" fill="#263238"/>
<path d="M13.9854 113.365C13.948 113.352 13.9761 113.169 14.0447 112.951C14.1133 112.734 14.1975 112.569 14.2318 112.578C14.2692 112.591 14.2411 112.774 14.1725 112.992C14.1039 113.209 14.0197 113.374 13.9854 113.365Z" fill="#263238"/>
<path d="M14.5689 116.72C14.5346 116.704 14.6094 116.456 14.7373 116.163C14.8651 115.871 14.9961 115.647 15.0304 115.663C15.0647 115.678 14.9899 115.927 14.862 116.219C14.7341 116.512 14.6032 116.736 14.5689 116.72Z" fill="#263238"/>
<path d="M13.1286 117.639C13.113 117.673 12.8791 117.611 12.5953 117.521C12.3115 117.431 12.0808 117.35 12.0901 117.313C12.0964 117.275 12.3458 117.3 12.6359 117.39C12.9259 117.48 13.1442 117.602 13.1286 117.636V117.639Z" fill="#263238"/>
<path d="M13.9599 120.375C13.9818 120.406 13.8227 120.556 13.6044 120.711C13.3861 120.867 13.1928 120.966 13.1709 120.935C13.1491 120.904 13.3082 120.755 13.5265 120.599C13.7448 120.444 13.9381 120.344 13.9599 120.375Z" fill="#263238"/>
<path d="M14.6258 123.105C14.6351 123.142 14.4387 123.22 14.1861 123.282C13.9335 123.344 13.7245 123.363 13.7152 123.326C13.7058 123.289 13.9023 123.211 14.1549 123.149C14.4075 123.086 14.6164 123.068 14.6258 123.105Z" fill="#263238"/>
<path d="M18.2415 116.403C18.2602 116.434 18.0918 116.568 17.8486 116.661C17.6054 116.754 17.3902 116.764 17.3839 116.726C17.3777 116.689 17.5679 116.621 17.8018 116.534C18.0357 116.446 18.2259 116.372 18.2446 116.403H18.2415Z" fill="#263238"/>
<path d="M18.7576 120.649C18.742 120.683 18.5424 120.624 18.3117 120.516C18.0809 120.407 17.9063 120.292 17.9219 120.257C17.9375 120.223 18.137 120.282 18.3678 120.391C18.5986 120.5 18.7732 120.615 18.7576 120.649Z" fill="#263238"/>
<path d="M19.6696 123.687C19.6572 123.721 19.3921 123.652 19.0802 123.528C18.7684 123.407 18.5252 123.279 18.5407 123.245C18.5532 123.211 18.8183 123.279 19.1301 123.404C19.442 123.525 19.6852 123.652 19.6696 123.687Z" fill="#263238"/>
<path d="M14.7725 126.065C14.7538 126.031 14.997 125.869 15.2777 125.646C15.5584 125.425 15.7767 125.229 15.8047 125.254C15.8328 125.279 15.655 125.524 15.3619 125.751C15.0688 125.981 14.7881 126.096 14.7725 126.062V126.065Z" fill="#263238"/>
<path d="M17.1819 124.523C17.1445 124.526 17.0914 124.324 16.9979 124.085C16.9074 123.845 16.8077 123.662 16.8388 123.637C16.8669 123.615 17.0259 123.777 17.1257 124.035C17.2255 124.29 17.2193 124.517 17.1819 124.52V124.523Z" fill="#263238"/>
<path d="M16.5427 120.867C16.5209 120.898 16.365 120.824 16.1966 120.702C16.025 120.581 15.9065 120.457 15.9284 120.426C15.9502 120.395 16.1061 120.469 16.2745 120.591C16.446 120.712 16.5645 120.836 16.5427 120.867Z" fill="#263238"/>
<path d="M22.1605 115.144C22.1823 115.175 22.0326 115.324 21.8206 115.476C21.6116 115.632 21.4245 115.731 21.3996 115.7C21.3777 115.669 21.5274 115.52 21.7395 115.367C21.9484 115.212 22.1355 115.113 22.1605 115.144Z" fill="#263238"/>
<path d="M23.0052 117.451C23.0083 117.488 22.7713 117.538 22.4781 117.504C22.185 117.473 21.9636 117.373 21.9729 117.339C21.9854 117.302 22.2131 117.339 22.4906 117.37C22.7713 117.401 23.002 117.413 23.002 117.451H23.0052Z" fill="#263238"/>
<path d="M19.3684 117.966C19.3778 118.003 19.1564 118.081 18.8726 118.099C18.5888 118.118 18.3612 118.071 18.3643 118.034C18.3643 117.997 18.5919 117.984 18.8633 117.966C19.1346 117.947 19.3591 117.931 19.3684 117.966Z" fill="#263238"/>
<path d="M19.6798 115.784C19.6798 115.821 19.4553 115.824 19.2121 115.712C18.9688 115.6 18.8285 115.429 18.8534 115.404C18.8784 115.376 19.0468 115.488 19.2682 115.588C19.4896 115.69 19.683 115.743 19.6798 115.78V115.784Z" fill="#263238"/>
<path d="M23.3173 119.925C23.2985 119.957 23.0709 119.851 22.8089 119.686C22.547 119.521 22.3536 119.366 22.3723 119.332C22.3911 119.301 22.6187 119.406 22.8807 119.571C23.1426 119.736 23.336 119.891 23.3173 119.925Z" fill="#263238"/>
<path d="M32.1949 126.401H12.7822V129.831H32.1949V126.401Z" fill="#FEF2CA"/>
<path d="M14.2334 129.149L16.5941 139.4H28.1637L30.749 129.149H14.2334Z" fill="#FEF2CA"/>
<path d="M32.1862 129.834C32.1862 129.872 27.8078 129.903 22.4066 129.903C17.0053 129.903 12.627 129.872 12.627 129.834C12.627 129.797 17.0053 129.766 22.4066 129.766C27.8078 129.766 32.1862 129.797 32.1862 129.834Z" fill="#263238"/>
<path d="M21.3891 118.041C21.3579 118.059 21.2238 117.907 21.0928 117.696C20.9618 117.484 20.8808 117.298 20.9119 117.279C20.9431 117.26 21.0772 117.413 21.2082 117.624C21.3392 117.835 21.4203 118.022 21.3891 118.041Z" fill="#263238"/>
<path d="M21.3945 120.802C21.3601 120.789 21.4038 120.556 21.4974 120.279C21.5878 120.003 21.6938 119.788 21.7281 119.801C21.7624 119.813 21.7188 120.046 21.6252 120.323C21.5348 120.6 21.4288 120.814 21.3945 120.802Z" fill="#263238"/>
<path d="M22.3437 123.699C22.3094 123.715 22.1659 123.485 22.0194 123.183C21.8759 122.882 21.7855 122.624 21.8198 122.608C21.8541 122.593 21.9975 122.823 22.1441 123.124C22.2875 123.426 22.378 123.684 22.3437 123.699Z" fill="#263238"/>
<path d="M20.2952 126.031C20.2672 126.007 20.3825 125.826 20.5541 125.63C20.7256 125.435 20.8877 125.295 20.9158 125.32C20.9439 125.344 20.8285 125.525 20.657 125.721C20.4854 125.916 20.3233 126.056 20.2952 126.031Z" fill="#263238"/>
<path d="M19.8627 121.796C19.8565 121.834 19.6694 121.83 19.4449 121.793C19.2203 121.753 19.0457 121.691 19.0519 121.656C19.0582 121.619 19.2453 121.622 19.4698 121.659C19.6943 121.7 19.869 121.762 19.8627 121.796Z" fill="#263238"/>
<path d="M87.4035 102.824H41.3682V139.424H87.4035V102.824Z" fill="#E0E0E0"/>
<g opacity="0.3">
<path d="M44.7199 102.902C50.1399 104.83 56.118 105.24 61.9341 105.349C63.1378 105.371 64.3571 105.371 65.5234 105.672C66.6898 105.974 67.8187 106.627 68.4174 107.668C69.0692 108.803 69.0006 110.224 68.6295 111.477C68.2584 112.73 67.6191 113.887 67.1544 115.112C66.3405 117.257 66.0879 119.614 66.4278 121.88C66.5713 122.844 66.8301 123.814 67.3883 124.616C67.9465 125.415 68.8478 126.025 69.827 126.04C71.5765 126.065 72.774 124.352 73.6409 122.835C77.1991 116.619 81.0474 109.556 83.3239 102.771L44.7168 102.899L44.7199 102.902Z" fill="black"/>
</g>
<path d="M57.0547 139.229C57.0111 139.229 56.9736 131.117 56.9736 121.112C56.9736 111.107 57.0111 102.992 57.0547 102.992C57.0984 102.992 57.1358 111.104 57.1358 121.112C57.1358 131.121 57.0984 139.229 57.0547 139.229Z" fill="#455A64"/>
<path d="M75.9168 75.7743C75.7796 74.8633 73.0446 71.8444 73.0446 71.8444C73.0446 71.8444 71.6756 66.3692 71.2671 64.7556C71.1642 64.3514 70.9459 63.8944 70.6715 63.4342C69.7172 61.8206 68.317 60.5117 66.6767 59.5914L62.8908 57.4679L61.9833 55.4594L52.8866 50.7988L50.4199 55.1391C50.4199 55.1391 44.4293 57.0388 43.6372 58.3944C42.8451 59.75 44.0301 77.9196 44.0301 77.9196C44.0301 77.9196 41.5228 88.4035 40.9927 90.5736C40.4656 92.7438 41.1642 95.3306 41.1642 95.3306L45.6268 89.7466C47.0145 88.0117 50.0582 87.2158 52.2442 87.2469L70.9272 87.3277L70.185 82.1106L85.291 85.0394C85.291 85.0394 87.8918 79.9871 88.0945 79.8845C88.3004 79.7819 75.9199 75.7743 75.9199 75.7743H75.9168Z" fill="#FEF2CA"/>
<path d="M52.4972 56.8429C52.3662 56.7092 53.5544 60.7075 55.0419 64.7773C55.8433 66.9692 56.2456 69.2948 56.2456 71.6391V86.3763L65.2051 85.77L63.8673 76.0634C63.8673 76.0634 62.7758 69.8016 62.4702 67.42C62.1895 65.2406 61.229 59.327 61.229 59.327C61.229 59.327 56.2487 60.6577 52.5003 56.8491L52.4972 56.8429Z" fill="white"/>
<path d="M72.3747 79.4363C72.3747 79.4363 72.3622 79.3555 72.3747 79.2125C72.3872 79.0694 72.4215 78.8611 72.4932 78.6124C72.6304 78.1149 72.9516 77.4465 73.5161 76.8806C74.0836 76.3148 74.7541 75.9945 75.2531 75.8546C75.5025 75.7831 75.7115 75.7489 75.8549 75.7365C75.9984 75.724 76.0795 75.7271 76.0795 75.7365C76.0826 75.7645 75.7645 75.7987 75.2874 75.9634C74.8102 76.1251 74.1741 76.4485 73.6314 76.9926C73.0888 77.5366 72.7645 78.1709 72.6023 78.6466C72.4371 79.1254 72.4028 79.4394 72.3747 79.4363Z" fill="#263238"/>
<path d="M72.8354 75.9017C72.8167 75.8675 73.403 75.569 74.2044 75.5068C75.0028 75.4384 75.6327 75.6343 75.6171 75.6747C75.6077 75.7244 74.984 75.6032 74.2169 75.6685C73.4497 75.7275 72.8541 75.9483 72.8354 75.9017Z" fill="#263238"/>
<g opacity="0.3">
<path d="M43.1271 83.9414L42.3506 84.8213C43.1832 85.7882 44.2653 86.5966 45.5065 86.9013C46.7477 87.206 48.0356 87.2402 49.3142 87.2464C49.8319 87.2464 50.3558 87.2433 50.8547 87.1003C51.3599 86.9541 51.834 86.6681 52.361 86.637C52.7134 86.6152 53.0595 86.7116 53.4057 86.7862C53.7518 86.8609 54.1167 86.9106 54.4535 86.8018C54.7903 86.693 55.0834 86.3821 55.0616 86.0307C51.1759 84.899 47.1656 84.1995 43.1271 83.9414Z" fill="black"/>
</g>
<path d="M68.6974 85.0701L66.4988 82.7414L61.977 81.6003C61.977 81.6003 57.8325 82.8378 57.7358 82.8347C57.636 82.8315 54.1308 81.8802 54.1308 81.8802L52.9053 86.3604L59.2202 86.7926L66.4302 86.5034C66.4302 86.5034 66.8076 86.1552 66.583 85.9158C66.3616 85.6764 67.7899 86.32 67.9583 86.3262C68.1236 86.3324 68.4541 86.463 68.6755 86.1956C68.8284 86.0122 69.0342 85.4245 68.6974 85.0701Z" fill="#FFBE9D"/>
<path d="M66.5876 85.9161C66.5783 85.9379 66.307 85.8508 65.8704 85.7109C65.4307 85.571 64.8257 85.3876 64.149 85.2135C63.4691 85.0394 62.8486 84.9119 62.3995 84.8217C61.9473 84.7316 61.6698 84.6756 61.6729 84.6538C61.6729 84.6321 61.9629 84.6476 62.4182 84.7098C62.8766 84.772 63.5066 84.8839 64.1895 85.058C64.8725 85.2321 65.4806 85.4373 65.9109 85.6052C66.3413 85.7731 66.6001 85.8975 66.5908 85.9161H66.5876Z" fill="#EB996E"/>
<path d="M68.6979 85.0698C68.6885 85.0916 68.3112 84.9517 67.6937 84.7465C67.0794 84.5382 66.2187 84.2863 65.2613 84.0189C64.307 83.736 63.4557 83.4531 62.8101 83.4158C62.1677 83.3629 61.7748 83.4873 61.7686 83.4562C61.7686 83.4469 61.859 83.4096 62.0399 83.366C62.2176 83.3225 62.4858 83.2914 62.8164 83.3007C63.4837 83.3101 64.36 83.5837 65.3049 83.8635C66.2623 84.1309 67.123 84.4014 67.7311 84.6377C68.0367 84.7527 68.28 84.8584 68.4453 84.933C68.6105 85.0076 68.701 85.0574 68.6947 85.0667L68.6979 85.0698Z" fill="#EB996E"/>
<path d="M43.6343 58.3914C43.6343 58.3914 40.3755 60.6517 39.5834 63.9038C38.7913 67.159 35.3547 80.4443 36.0595 82.4341C36.7643 84.4239 50.4701 86.3733 50.4701 86.3733L52.0948 79.5426L45.1343 77.6429C45.1343 77.6429 45.2217 71.3159 45.309 68.6949C45.3963 66.074 43.6343 58.3914 43.6343 58.3914Z" fill="#FEF2CA"/>
<path d="M52.0002 80.5625L54.2424 81.1128L52.8952 86.2708L50.6904 85.9164L52.0002 80.5625Z" fill="white"/>
<path d="M36.0066 81.7344C36.0066 81.7344 36.0004 81.8495 36.0409 82.0578C36.0846 82.263 36.2187 82.5615 36.5181 82.832C37.1137 83.3854 38.252 83.8455 39.6927 84.1036H39.699H39.7052C40.3632 84.3181 41.1148 84.4922 41.9193 84.6725C42.7239 84.8529 43.5877 85.0363 44.4983 85.2198C46.3227 85.5928 48.3403 85.9815 50.4765 86.3826L50.3829 86.4416C50.5389 85.8074 50.701 85.1389 50.8663 84.458C51.2499 82.891 51.6241 81.3707 51.9765 79.9312L52.0326 80.0244C49.7312 79.3684 47.6293 78.7715 45.8486 78.2647H45.8455H45.8424C44.8975 77.8791 43.9588 77.7392 43.1449 77.7952C42.3279 77.8325 41.6418 78.0501 41.1085 78.2709C40.5753 78.4979 40.1948 78.7466 39.9391 78.9176C39.8206 79.0046 39.727 79.0699 39.6553 79.1228C39.5898 79.1694 39.5555 79.1912 39.5555 79.1881C39.5555 79.1881 39.5836 79.157 39.6428 79.1072C39.7052 79.0575 39.7925 78.9798 39.9172 78.8865C40.1667 78.7062 40.5441 78.445 41.0804 78.2056C41.6137 77.9724 42.306 77.7392 43.1387 77.6926C43.9651 77.6273 44.9256 77.761 45.8923 78.1465H45.8861C47.673 78.644 49.7748 79.2316 52.0794 79.8752L52.1511 79.897L52.1324 79.9716C51.78 81.4111 51.4089 82.9314 51.0285 84.4984C50.8632 85.1762 50.6979 85.8478 50.542 86.482L50.5233 86.5567L50.4484 86.5411C48.3091 86.14 46.2915 85.7421 44.4703 85.3628C43.5597 85.1731 42.6958 84.9835 41.8913 84.8C41.0867 84.6135 40.3414 84.4363 39.6709 84.2093H39.6802C38.2208 83.9357 37.0825 83.4569 36.4807 82.8755C36.1782 82.5894 36.0503 82.2754 36.0129 82.0609C35.9817 81.8464 36.0129 81.7344 36.0129 81.7344H36.0066Z" fill="#263238"/>
<path d="M45.5087 78.0996C45.49 78.1214 45.2561 77.9068 44.8383 77.627C44.4204 77.3472 43.8029 77.0176 43.0701 76.8031C42.3341 76.5917 41.6356 76.5388 41.1335 76.5513C40.6314 76.5637 40.3195 76.6166 40.3164 76.5917C40.3133 76.5761 40.6158 76.4798 41.1304 76.4393C41.6418 76.3958 42.3622 76.4331 43.1168 76.6508C43.8715 76.8715 44.4983 77.2259 44.9069 77.5369C45.3154 77.8478 45.5212 78.0903 45.5087 78.1027V78.0996Z" fill="#263238"/>
<path d="M46.4228 66.9701C46.4228 66.9701 46.4352 67.1194 46.4259 67.3868C46.4196 67.6542 46.3978 68.0428 46.3604 68.5185C46.2824 69.473 46.1421 70.7912 45.8895 72.2308C45.6431 73.6734 45.3282 74.9637 45.0257 75.8746C44.9477 76.1016 44.8697 76.3068 44.8042 76.484C44.7294 76.6519 44.6639 76.8011 44.6047 76.9317C44.4768 77.168 44.402 77.2955 44.3926 77.2924C44.3833 77.2862 44.4394 77.1494 44.5485 76.9069C44.5984 76.7732 44.6577 76.6208 44.72 76.4529C44.7793 76.2726 44.8479 76.0705 44.9165 75.8404C45.1909 74.9264 45.4841 73.6392 45.7304 72.2028C45.9799 70.7664 46.139 69.4574 46.245 68.506C46.2918 68.0552 46.3323 67.679 46.3635 67.3806C46.3916 67.1132 46.4103 66.967 46.4228 66.967V66.9701Z" fill="#263238"/>
<path d="M54.3682 63.4429C54.3682 63.4429 54.337 63.359 54.259 63.2128C54.1811 63.0698 54.0439 62.8677 53.7913 62.7029C53.5449 62.5413 53.1676 62.4231 52.7777 62.5537C52.3942 62.6781 52.0168 63.0356 51.9233 63.5206L51.8796 63.7414L51.7829 63.5362C51.4555 62.8304 51.1187 62.0189 50.8287 61.1359C50.3017 59.5347 50.074 58.002 50.1239 56.8951C50.1239 56.6184 50.1613 56.3697 50.18 56.152C50.2175 55.9344 50.2455 55.7479 50.2798 55.5986C50.3578 55.3001 50.4077 55.1354 50.417 55.1385C50.4576 55.1447 50.2331 55.8007 50.2393 56.8982C50.2206 57.9895 50.4607 59.5005 50.9846 61.0862C51.2715 61.9598 51.599 62.7713 51.917 63.474L51.7767 63.4895C51.8921 62.9454 52.3162 62.563 52.7403 62.4355C53.1769 62.3019 53.5886 62.4418 53.8412 62.6283C54.1031 62.8149 54.2372 63.0387 54.3027 63.1911C54.3339 63.2688 54.3557 63.331 54.3619 63.3745C54.3713 63.418 54.3744 63.4398 54.3682 63.4398V63.4429Z" fill="#263238"/>
<path d="M61.9701 64.1435C61.9701 64.1435 61.9389 64.0129 61.8984 63.7735C61.8641 63.5341 61.7861 63.1828 61.8329 62.732C61.8953 62.2905 62.1042 61.7526 62.5845 61.3546C62.8215 61.1588 63.1458 61.0282 63.492 61.0313C63.8319 61.0313 64.203 61.1619 64.4462 61.4572L64.309 61.535C64.2155 61.2956 64.1157 61.0468 64.0127 60.7919C63.4296 59.3275 62.9119 57.9968 62.5471 57.033C62.3755 56.5728 62.2321 56.1873 62.1198 55.8888C62.0231 55.6183 61.9732 55.466 61.9826 55.4598C61.992 55.4567 62.0606 55.5997 62.1791 55.8639C62.3038 56.1593 62.4629 56.5386 62.6531 56.9926C63.0491 57.9471 63.5824 59.2684 64.1656 60.7359C64.2653 60.9909 64.3651 61.2396 64.4587 61.479L64.6489 61.9578L64.3215 61.5567C64.1188 61.308 63.7945 61.1867 63.492 61.1836C63.1832 61.1805 62.8963 61.2893 62.6749 61.4666C62.229 61.821 62.0107 62.334 61.9421 62.7475C61.8828 63.1735 61.9421 63.5279 61.9608 63.7673C61.9826 64.0098 61.9857 64.1435 61.9764 64.1435H61.9701Z" fill="#263238"/>
<path d="M67.756 64.9147C67.7997 64.9085 68.5045 69.6344 69.3309 75.4702C70.1573 81.3091 70.7872 86.0442 70.7436 86.0504C70.6999 86.0567 69.9951 81.3308 69.1687 75.4919C68.3454 69.6561 67.7124 64.9178 67.756 64.9116V64.9147Z" fill="#263238"/>
<g opacity="0.3">
<path d="M50.9258 61.1895C50.9632 62.3958 51.2283 63.5959 51.7023 64.6996C52.0422 64.283 52.4195 63.8384 52.9341 63.7172C53.5796 63.5648 54.2283 63.9597 54.6961 64.4416C54.5963 63.9597 54.4341 63.4809 54.1347 63.1016C53.8353 62.7191 53.3769 62.4455 52.8998 62.458C52.4227 62.4704 51.9455 62.8217 51.8582 63.3036L50.9632 61.2112" fill="black"/>
</g>
<path d="M45.6607 64.6066C45.6295 64.6066 45.642 64.2801 45.5453 63.7733C45.4517 63.2665 45.2241 62.5794 44.7875 61.9234C44.5661 61.5969 44.3197 61.3171 44.0734 61.0777C43.8208 60.8477 43.5806 60.658 43.3592 60.5243C42.9226 60.2476 42.6139 60.1419 42.6233 60.1139C42.6264 60.1046 42.7043 60.1232 42.8478 60.1699C42.9195 60.1916 43.0037 60.2227 43.1004 60.2662C43.1971 60.3098 43.3062 60.3564 43.4216 60.4248C43.6555 60.5492 43.9143 60.7388 44.1794 60.9689C44.4382 61.2083 44.6971 61.4975 44.9247 61.8332C45.3769 62.511 45.5952 63.2292 45.6607 63.7547C45.695 64.0158 45.7043 64.2304 45.6919 64.3796C45.6825 64.5257 45.6731 64.6066 45.6638 64.6066H45.6607Z" fill="#263238"/>
<path d="M63.7617 42.416C63.3937 38.9649 60.4249 36.375 56.9446 36.4652L56.5985 36.4745C52.875 36.7885 51.06 40.1153 51.4779 43.8182L52.5007 56.8423L52.9342 57.3708C54.9363 59.8208 58.3417 60.6229 61.2325 59.3202L60.9456 55.1291C60.9456 55.1291 64.5163 54.4825 64.4695 50.907C64.4477 49.1783 64.1078 45.6277 63.7648 42.416H63.7617Z" fill="#FFBE9D"/>
<path d="M60.9712 55.1261C60.9712 55.1261 58.6853 55.322 56.2373 53.8762C56.2373 53.8762 57.4099 56.4195 60.9774 56.006L60.9712 55.1261Z" fill="#EB996E"/>
<path d="M62.626 45.3739C62.6416 45.6444 62.4264 45.8807 62.1458 45.9024C61.8651 45.9242 61.6219 45.7252 61.6063 45.4547C61.5907 45.1842 61.8058 44.948 62.0865 44.9262C62.3672 44.9044 62.6104 45.1034 62.626 45.3739Z" fill="#263238"/>
<path d="M62.8537 43.4304C62.8132 43.4926 62.4078 43.5361 61.9213 43.7973C61.4348 44.0554 61.1448 44.3849 61.0762 44.3787C61.045 44.3787 61.073 44.2885 61.1978 44.1424C61.3225 43.9994 61.5533 43.7973 61.8558 43.6356C62.1583 43.474 62.4421 43.3993 62.6167 43.3838C62.7944 43.3682 62.8724 43.3993 62.8537 43.4273V43.4304Z" fill="#263238"/>
<path d="M57.4493 45.6439C57.4649 45.9144 57.2497 46.1507 56.969 46.1725C56.6883 46.1942 56.4451 45.9953 56.4295 45.7248C56.4139 45.4543 56.6291 45.218 56.9098 45.1962C57.1904 45.1744 57.4337 45.3734 57.4493 45.6439Z" fill="#263238"/>
<path d="M57.3718 44.1828C57.3001 44.1984 56.9664 43.9745 56.4331 43.8408C55.8999 43.7071 55.4664 43.7413 55.4165 43.6947C55.3916 43.6729 55.4726 43.6325 55.6629 43.617C55.85 43.5983 56.1556 43.6138 56.4893 43.6947C56.823 43.7786 57.0818 43.9061 57.2252 44.0056C57.3687 44.1051 57.4061 44.1766 57.3718 44.1828Z" fill="#263238"/>
<path d="M59.5346 48.4516C59.5314 48.4205 59.8713 48.3521 60.4264 48.2682C60.5668 48.2495 60.6978 48.2184 60.7196 48.1221C60.7508 48.0195 60.6884 47.8702 60.6136 47.7085C60.4732 47.3728 60.3235 47.0214 60.1707 46.6515C59.5533 45.1466 59.1042 43.9061 59.1635 43.8812C59.2258 43.8564 59.7747 45.0565 60.3921 46.5644C60.5418 46.9344 60.6822 47.2888 60.8194 47.6277C60.8755 47.7863 60.9722 47.9635 60.9067 48.1749C60.8724 48.2806 60.7695 48.3584 60.6822 48.3863C60.5917 48.4174 60.5138 48.4205 60.4452 48.4268C59.8869 48.4703 59.5408 48.4827 59.5377 48.4516H59.5346Z" fill="#263238"/>
<path d="M57.3798 42.0589C57.3175 42.205 56.7717 42.1087 56.1231 42.1553C55.4713 42.1895 54.9412 42.3512 54.8632 42.2144C54.8289 42.1491 54.9256 42.0123 55.1439 41.8786C55.359 41.7449 55.699 41.6236 56.0888 41.5988C56.4786 41.5739 56.831 41.6547 57.0618 41.7604C57.2956 41.8662 57.4079 41.9905 57.3798 42.0589Z" fill="#263238"/>
<path d="M62.8413 42.1808C62.7228 42.3083 62.2457 42.1808 61.6781 42.1808C61.1074 42.1653 60.6272 42.2741 60.5149 42.1466C60.465 42.0844 60.5398 41.957 60.7488 41.8388C60.9546 41.7176 61.3008 41.6181 61.6937 41.6243C62.0835 41.6305 62.4265 41.7393 62.623 41.8668C62.8257 41.9943 62.8912 42.1218 62.8413 42.1808Z" fill="#263238"/>
<path d="M64.8071 39.2548C64.7385 38.9314 64.4173 38.6547 64.0899 38.7045C64.2645 38.6423 64.4454 38.577 64.5857 38.4526C64.726 38.3283 64.8134 38.1293 64.7541 37.9552C64.6637 37.6785 64.3082 37.6225 64.0275 37.5417C63.6595 37.4391 63.3289 37.2183 63.0919 36.9198C62.752 36.4908 62.621 35.9311 62.3248 35.471C61.9443 34.8741 61.2801 34.4605 60.5753 34.3828C59.8674 34.3051 59.1314 34.5631 58.6294 35.0637C58.0805 34.5041 57.2541 34.2274 56.4776 34.3455C55.7011 34.4636 54.9963 34.9735 54.6408 35.67C53.6897 35.2751 52.5296 35.4368 51.7219 36.0804C50.9173 36.7209 50.5025 37.8153 50.6772 38.8288L52.91 40.1937C52.9474 39.5066 53.7177 38.9594 54.382 39.1491C55.0556 39.3418 55.4859 40.1222 56.1876 40.1751C56.7333 40.2155 57.1949 39.7958 57.725 39.6559C58.3643 39.4849 59.041 39.7398 59.6179 40.0663C60.1948 40.3896 60.7437 40.7938 61.3861 40.9555C62.1408 41.1451 62.9423 40.9803 63.6626 40.685C63.9714 40.5606 64.277 40.4052 64.5046 40.1658C64.7323 39.9264 64.8757 39.5843 64.8102 39.2579L64.8071 39.2548Z" fill="#263238"/>
<path d="M53.2982 39.1424L63.5269 39.0833C63.1901 38.39 62.607 37.8428 61.977 37.392C60.6205 36.425 58.9708 35.8436 57.3024 35.8592C55.634 35.8747 52.2972 37.9951 51.1215 39.1735C50.1797 40.1187 50.2078 40.9115 50.2078 40.9115C50.0924 42.236 50.8752 43.719 51.2057 45.0062C51.3772 45.6715 51.7265 47.6862 51.7265 47.6862C52.291 47.6676 52.4874 47.2168 52.3845 46.6633L52.2192 44.487C52.2192 44.487 54.0966 43.0754 53.1205 40.6192C52.9677 40.4265 52.634 39.5279 53.2982 39.1393V39.1424Z" fill="#263238"/>
<path d="M52.0607 44.3471C51.5399 42.5407 51.0627 40.6069 51.6147 38.8098C51.5149 38.8067 51.412 38.8005 51.3122 38.7974L51.1844 38.8906C50.6137 38.6979 49.9276 38.9155 49.5721 39.4036C49.2166 39.8887 49.2197 40.6069 49.5752 41.0919C48.9702 41.0639 48.3871 41.5676 48.3341 42.1707C48.2966 42.5874 48.4775 42.9884 48.6646 43.3615C48.8517 43.7346 49.0513 44.1233 49.0544 44.5399C49.0544 44.9565 48.7894 45.4104 48.3746 45.4602C48.5617 45.8892 49.0794 46.1411 49.5316 46.0198C49.3881 46.3743 49.1417 46.6821 48.8299 46.9028C49.4973 47.3536 50.411 47.2013 51.1345 46.85C51.5648 46.6416 51.9858 46.3432 52.1605 45.9017C52.3538 45.4104 52.2072 44.857 52.0607 44.3502V44.3471Z" fill="#263238"/>
<path d="M51.8928 46.4497C51.8304 46.4248 49.4105 45.7874 49.5508 48.2281C49.6911 50.6687 52.1204 50.0251 52.1204 49.9536C52.1204 49.8821 51.8897 46.4497 51.8897 46.4497H51.8928Z" fill="#FFBE9D"/>
<path d="M51.5358 49.0677C51.5358 49.0677 51.4953 49.0988 51.4235 49.1361C51.3549 49.1734 51.2364 49.2014 51.1054 49.161C50.8404 49.0801 50.6002 48.6853 50.5628 48.2438C50.5441 48.023 50.5784 47.8085 50.647 47.6282C50.7125 47.4447 50.8185 47.3142 50.9495 47.2831C51.0774 47.2458 51.1741 47.3173 51.2084 47.3857C51.2458 47.451 51.2333 47.5007 51.2458 47.5038C51.252 47.51 51.2957 47.4603 51.2707 47.3608C51.2583 47.3142 51.2271 47.2582 51.1647 47.2147C51.1023 47.1711 51.015 47.1525 50.9246 47.1649C50.7375 47.1898 50.5753 47.3732 50.5005 47.5691C50.4131 47.7681 50.3695 48.0075 50.3913 48.2593C50.435 48.7506 50.7156 49.1952 51.0743 49.2791C51.2489 49.3133 51.3892 49.2542 51.461 49.1921C51.5327 49.1268 51.542 49.0708 51.5358 49.0677Z" fill="#EB996E"/>
<path d="M49.3499 44.4252C49.3499 44.4252 49.2813 44.3319 49.3062 44.1423C49.3281 43.9557 49.4653 43.6852 49.7647 43.5049C50.0609 43.3246 50.4694 43.2811 50.8873 43.2344C51.299 43.1909 51.7699 43.0728 52.0037 42.6686C52.2408 42.2737 52.247 41.7918 52.194 41.3876C52.1347 40.9772 52.0256 40.6041 51.9726 40.2839C51.8416 39.6372 51.9663 39.2237 51.9882 39.2361C52.0162 39.2392 51.9445 39.6372 52.1035 40.2559C52.1721 40.5668 52.2938 40.9306 52.3655 41.3627C52.4247 41.7887 52.4341 42.3048 52.1628 42.7681C52.0256 42.995 51.8104 43.1691 51.5796 43.2593C51.3489 43.3526 51.1181 43.3837 50.9029 43.4085C50.4757 43.4458 50.0983 43.4769 49.827 43.6231C49.5588 43.763 49.4185 43.993 49.378 44.1547C49.3343 44.3195 49.3686 44.4221 49.3499 44.4252Z" fill="#455A64"/>
<path d="M48.7589 43.3617C48.7589 43.3617 48.7059 43.2933 48.6841 43.141C48.6654 42.9917 48.6747 42.7586 48.8057 42.5129C48.8712 42.3917 48.9647 42.2673 49.0957 42.1647C49.2236 42.059 49.3982 41.9906 49.5666 41.9471C49.7319 41.8973 49.9065 41.8569 50.0313 41.7574C50.156 41.6579 50.2122 41.4963 50.2153 41.3097C50.2215 41.1232 50.1934 40.9273 50.1997 40.7314C50.1997 40.5386 50.2246 40.3521 50.262 40.178C50.3369 39.8298 50.4648 39.5344 50.6144 39.3043C50.761 39.068 50.998 38.953 51.1571 38.9592C51.3192 38.9592 51.3878 39.0338 51.3785 39.0401C51.3722 39.0556 51.2974 39.0121 51.1602 39.0338C51.023 39.0494 50.8483 39.1551 50.7267 39.3758C50.6051 39.5935 50.4959 39.8826 50.4336 40.2122C50.4024 40.377 50.3868 40.5511 50.3868 40.7345C50.3868 40.9149 50.4149 41.1045 50.4086 41.319C50.4086 41.5273 50.3307 41.7699 50.1498 41.9035C49.972 42.0372 49.7787 42.0714 49.6165 42.1181C49.2797 42.1834 49.0552 42.3699 48.9242 42.5844C48.6654 43.0228 48.7964 43.3679 48.762 43.3679L48.7589 43.3617Z" fill="#455A64"/>
<path d="M63.0915 36.923C63.0915 36.923 62.9075 37.0567 62.5863 36.9043C62.4303 36.8359 62.2744 36.6867 62.1247 36.5126C61.975 36.3354 61.8035 36.1457 61.5572 36.0089C61.08 35.7384 60.3035 35.6669 59.711 36.1301C59.4085 36.3478 59.1403 36.6556 58.7879 36.9105C58.6133 37.0349 58.4075 37.1468 58.1736 37.1935C57.9428 37.2401 57.6965 37.2059 57.475 37.1282C57.0322 36.9696 56.6861 36.6991 56.3056 36.5623C55.9251 36.4162 55.5291 36.3509 55.1549 36.3571C54.4002 36.3571 53.7453 36.6432 53.2994 36.9945C52.8472 37.3458 52.579 37.7376 52.4231 38.0174C52.2703 38.3003 52.2141 38.4744 52.1985 38.4682C52.1923 38.4682 52.1985 38.4216 52.2235 38.3376C52.2453 38.2537 52.289 38.1324 52.3576 37.9832C52.4979 37.6878 52.7536 37.2681 53.2152 36.8888C53.6674 36.5095 54.3534 36.1954 55.1518 36.183C55.5478 36.1737 55.9657 36.2359 56.3711 36.3913C56.7827 36.5406 57.1382 36.811 57.5374 36.951C57.737 37.0225 57.9397 37.0473 58.1362 37.01C58.3326 36.9727 58.5104 36.8763 58.6757 36.7613C59.0062 36.5281 59.2807 36.2203 59.605 35.9902C59.9262 35.7508 60.3191 35.6327 60.6746 35.6358C61.0333 35.6358 61.3607 35.7384 61.6227 35.8907C61.8877 36.0431 62.0686 36.2607 62.2058 36.4411C62.3493 36.6214 62.4802 36.7613 62.6206 36.8359C62.9012 36.9945 63.0946 36.9012 63.0915 36.9199V36.923Z" fill="#455A64"/>
<path d="M58.1743 49.0916C58.2522 49.0729 58.3395 49.5952 58.851 49.8906C59.3624 50.186 59.9081 50.0336 59.9269 50.1082C59.9393 50.1393 59.8208 50.2295 59.5838 50.2761C59.353 50.3228 59.0038 50.3041 58.6919 50.1238C58.3801 49.9434 58.2117 49.6605 58.1587 49.4491C58.1025 49.2346 58.14 49.0947 58.1743 49.0916Z" fill="#263238"/>
<path d="M90.4457 97.6689C89.5195 96.845 88.2378 96.4626 86.9997 96.5341L84.8916 103.212C86.4353 103.281 87.9758 104.074 89.4664 103.666C90.664 103.34 91.5714 102.218 91.7367 100.993C91.902 99.7676 91.3687 98.4928 90.4425 97.6689H90.4457Z" fill="#FEF2CA"/>
<path d="M87.0363 96.3783C87.0394 96.3255 87.2639 96.282 87.6756 96.2882C88.081 96.3006 88.6859 96.3441 89.4001 96.6115C90.1173 96.8758 90.897 97.4168 91.4988 98.2376C91.8013 98.648 92.0539 99.1361 92.2005 99.6864C92.3502 100.234 92.3751 100.846 92.2535 101.437C92.1319 102.031 91.8699 102.587 91.4864 103.032C91.1028 103.48 90.6132 103.787 90.1267 103.971C89.1444 104.338 88.1995 104.279 87.476 104.142C86.7462 103.999 86.1974 103.787 85.8232 103.632C85.4521 103.473 85.2587 103.355 85.2743 103.302C85.2899 103.249 85.5176 103.265 85.9136 103.33C86.3097 103.392 86.871 103.514 87.557 103.576C88.2369 103.638 89.0602 103.616 89.846 103.281C90.2358 103.113 90.5976 102.864 90.8783 102.522C91.162 102.18 91.3616 101.745 91.4583 101.275C91.661 100.327 91.371 99.3786 90.8876 98.6635C90.4011 97.9422 89.7681 97.4261 89.1693 97.1339C88.5674 96.8354 88.0124 96.7017 87.6319 96.5991C87.2483 96.4996 87.03 96.4343 87.0363 96.3783Z" fill="#F5F5F5"/>
<path d="M67.509 121.426L62.9248 134.232L78.8759 139.999C79.3344 138.448 72.193 132.413 72.193 132.413L75.4674 124.329L67.509 121.429V121.426Z" fill="#FEF2CA"/>
<g opacity="0.6">
<path d="M67.5096 129.938C67.1696 129.91 66.8297 130.18 66.7892 130.516C66.7486 130.852 67.02 131.2 67.3567 131.231C67.6967 131.265 68.1114 130.954 68.1145 130.615C68.1177 130.276 67.7777 129.888 67.4409 129.934" fill="white"/>
</g>
<path d="M62.9248 134.232L63.3863 132.938L78.5392 138.964C78.5392 138.964 79.1379 139.53 78.8759 139.999L62.9248 134.232Z" fill="white"/>
<path d="M72.4794 132.426C72.4482 132.503 72.0459 132.398 71.5719 132.506C71.0948 132.606 70.7736 132.87 70.7143 132.814C70.6488 132.774 70.9326 132.351 71.5096 132.227C72.0834 132.096 72.5231 132.36 72.4794 132.426Z" fill="#263238"/>
<path d="M73.901 133.719C73.8917 133.8 73.505 133.813 73.1214 134.043C72.7316 134.263 72.5351 134.596 72.4572 134.565C72.3792 134.549 72.4915 134.077 72.9748 133.797C73.4551 133.511 73.926 133.645 73.901 133.719Z" fill="#263238"/>
<path d="M74.1263 136.061C74.0483 136.051 74.0826 135.625 74.4382 135.271C74.7905 134.916 75.2178 134.879 75.2271 134.957C75.249 135.038 74.9278 135.181 74.6409 135.473C74.3477 135.759 74.2074 136.079 74.1263 136.061Z" fill="#263238"/>
<path d="M73.0192 130.498C72.9599 130.557 72.6418 130.321 72.1928 130.19C71.7437 130.05 71.3477 130.075 71.3321 129.994C71.3071 129.923 71.7468 129.755 72.277 129.917C72.8071 130.072 73.0815 130.451 73.0223 130.498H73.0192Z" fill="#263238"/>
<path d="M73.3276 128.475C73.3183 128.506 72.9908 128.444 72.5293 128.183C72.2985 128.052 72.0397 127.869 71.7871 127.623C71.6592 127.502 71.5345 127.365 71.416 127.216C71.3598 127.141 71.2912 127.063 71.2444 126.942C71.1883 126.83 71.2133 126.606 71.3598 126.516C71.4846 126.423 71.6499 126.423 71.7652 126.463C71.8837 126.501 71.9711 126.56 72.049 126.612C72.2112 126.718 72.3577 126.839 72.4825 126.961C72.7382 127.209 72.9222 127.474 73.0438 127.71C73.2902 128.186 73.3089 128.521 73.2777 128.528C73.2341 128.54 73.1405 128.232 72.8661 127.813C72.7289 127.604 72.5417 127.371 72.2985 127.153C72.1769 127.045 72.0397 126.942 71.89 126.846C71.7372 126.74 71.5937 126.687 71.522 126.746C71.497 126.768 71.4908 126.78 71.5064 126.843C71.5251 126.902 71.5781 126.97 71.6343 127.045C71.7434 127.188 71.8557 127.318 71.9679 127.436C72.1956 127.676 72.4295 127.865 72.6322 128.012C73.0438 128.304 73.337 128.434 73.3183 128.475H73.3276Z" fill="#263238"/>
<path d="M73.1852 128.549C73.154 128.549 73.101 128.216 73.2538 127.703C73.3318 127.448 73.4659 127.156 73.6811 126.87C73.7871 126.727 73.9149 126.59 74.0615 126.459C74.2112 126.335 74.4014 126.167 74.7164 126.242C74.8754 126.291 74.9628 126.462 74.969 126.584C74.9815 126.711 74.9596 126.807 74.9441 126.904C74.9066 127.1 74.8349 127.28 74.7507 127.442C74.5761 127.762 74.3359 127.992 74.1114 128.141C73.6499 128.44 73.2912 128.415 73.2944 128.387C73.2819 128.337 73.6093 128.287 73.9898 127.976C74.1769 127.824 74.3765 127.603 74.5137 127.32C74.5823 127.177 74.6384 127.022 74.6665 126.854C74.7039 126.677 74.6883 126.515 74.6197 126.512C74.5418 126.481 74.3609 126.562 74.2455 126.671C74.1114 126.783 73.9929 126.907 73.89 127.031C73.6842 127.283 73.5407 127.541 73.4472 127.771C73.2569 128.231 73.232 128.552 73.1852 128.549Z" fill="#263238"/>
<path d="M52.0536 87.2224C49.6336 87.2784 47.3384 87.6204 45.6731 89.3677C43.4621 91.6871 40.7303 94.9952 40.5744 97.2866C40.3436 100.713 42.4143 101.733 43.9299 102.566C44.6004 102.936 45.3613 103.101 46.1284 103.073L74.0952 102.861L74.9746 98.1385L56.8873 93.6925L57.6388 86.9053L52.0567 87.2193L52.0536 87.2224Z" fill="#263238"/>
<path d="M57.6332 86.9083L66.4305 86.5042C66.4305 86.5042 81.627 87.3467 84.8702 90.3097C88.1135 93.2727 87.708 96.6398 86.6259 99.8702C85.5438 103.101 76.023 123.773 76.023 123.773C76.023 123.773 76.7964 125.088 76.3598 126.4C75.6862 128.43 73.8775 128.757 73.8775 128.757L65.4201 125.657C65.4201 125.657 64.2725 125.253 65.0833 124.177C65.8941 123.098 66.4336 122.899 66.4336 122.899V120.745C66.4336 120.745 69.4056 115.357 69.6769 114.617C69.9482 113.877 72.7954 102.914 72.7954 102.914L74.6883 99.6712C74.6883 99.6712 70.1135 97.5259 66.1467 95.9714L56.8848 93.6955L57.6363 86.9083H57.6332Z" fill="#263238"/>
<path d="M71.9044 125.272C71.8889 125.294 71.6207 125.082 71.1622 124.787C70.7038 124.491 70.0458 124.125 69.2693 123.829C68.4928 123.537 67.7537 123.372 67.2142 123.291C66.6747 123.207 66.3348 123.189 66.3379 123.164C66.3379 123.145 66.6809 123.123 67.2298 123.179C67.7787 123.232 68.5365 123.381 69.3286 123.68C70.1207 123.982 70.7818 124.37 71.2308 124.693C71.6799 125.017 71.92 125.259 71.9076 125.272H71.9044Z" fill="#455A64"/>
<path d="M76.1287 123.788C76.1131 123.801 75.9228 123.608 75.6359 123.272C75.3521 122.94 74.9717 122.464 74.5725 121.926C74.1734 121.388 73.8334 120.884 73.5995 120.514C73.3657 120.144 73.2347 119.905 73.2503 119.893C73.269 119.88 73.4343 120.095 73.6931 120.449C73.9894 120.853 74.3262 121.317 74.7004 121.83C75.0808 122.339 75.4239 122.8 75.7232 123.201C75.9852 123.552 76.1411 123.773 76.1255 123.788H76.1287Z" fill="#455A64"/>
<path d="M79.2284 96.7117C79.2346 96.7365 78.9165 96.8049 78.4269 96.9666C77.9373 97.1283 77.2762 97.4019 76.6057 97.8185C75.9383 98.2351 75.3988 98.7077 75.0402 99.0746C74.6785 99.4415 74.4789 99.6964 74.457 99.6809C74.4415 99.6715 74.6099 99.3917 74.956 98.9969C75.299 98.602 75.8385 98.1045 76.5215 97.6786C77.2045 97.2558 77.8874 96.9915 78.3957 96.8547C78.904 96.7179 79.2284 96.6899 79.2315 96.7085L79.2284 96.7117Z" fill="#455A64"/>
<path d="M70.5771 111.348C70.5771 111.348 70.5834 111.283 70.6114 111.165C70.6458 111.031 70.6894 110.86 70.7424 110.652C70.8672 110.186 71.0387 109.548 71.2476 108.771C71.6967 107.167 72.3048 104.987 72.9784 102.581C73.3308 101.374 73.6302 100.221 73.9701 99.1794C74.363 98.144 74.9867 97.3481 75.5636 96.7574C76.1437 96.1666 76.6894 95.7687 77.0761 95.5137C77.2726 95.3894 77.4254 95.2961 77.5314 95.2401C77.6374 95.1811 77.6967 95.1531 77.6967 95.1593C77.7029 95.1717 77.4846 95.3023 77.1104 95.5666C76.7362 95.834 76.2092 96.2413 75.6447 96.8351C75.0865 97.4258 74.4846 98.2187 74.1104 99.2291C73.7861 100.258 73.4836 101.421 73.1343 102.624C72.442 105.028 71.8183 107.201 71.3568 108.802C71.126 109.576 70.9389 110.207 70.8017 110.671C70.7362 110.876 70.6832 111.044 70.6426 111.177C70.6052 111.292 70.5834 111.352 70.5771 111.352V111.348Z" fill="#455A64"/>
<path d="M62.7967 95.5584C62.753 95.5615 62.5659 93.923 62.3851 91.8959C62.2011 89.8687 62.0888 88.2209 62.1325 88.2178C62.1761 88.2147 62.3632 89.8532 62.5441 91.8803C62.7281 93.9074 62.8404 95.5522 62.7967 95.5584Z" fill="#455A64"/>
<path d="M48.152 99.9392C48.1271 99.9517 47.993 99.6874 47.7154 99.2957C47.441 98.907 47.0106 98.4033 46.4368 97.9587C45.863 97.5141 45.2705 97.2157 44.8246 97.0478C44.3786 96.8768 44.0886 96.8084 44.0948 96.7804C44.0948 96.7648 44.4004 96.7897 44.8651 96.939C45.3298 97.0851 45.9472 97.3742 46.5397 97.8313C47.1291 98.2914 47.5595 98.82 47.8121 99.2335C48.0678 99.647 48.1676 99.933 48.152 99.9392Z" fill="#455A64"/>
<path d="M53.5448 93.9848C53.5292 94.0097 53.155 93.7703 52.5095 93.478C51.864 93.1826 50.9315 92.8624 49.8619 92.7069C48.7891 92.5546 47.8037 92.6043 47.102 92.7069C46.4003 92.8064 45.9731 92.9308 45.9669 92.9028C45.9637 92.8935 46.0667 92.8531 46.2569 92.7909C46.4471 92.7256 46.7309 92.6572 47.0833 92.5919C47.7881 92.4613 48.7922 92.3929 49.8837 92.5453C50.9721 92.7038 51.917 93.0489 52.5563 93.3754C52.8775 93.5371 53.1269 93.6832 53.2922 93.7982C53.4575 93.9102 53.5479 93.9755 53.5417 93.9848H53.5448Z" fill="#455A64"/>
<path d="M74.6093 98.1354C74.6093 98.1354 74.5313 98.1292 74.391 98.0981C74.2319 98.0639 74.0261 98.0204 73.7704 97.9644C73.2153 97.84 72.4388 97.6659 71.4908 97.4545C69.5666 97.0254 66.9034 96.4471 63.9502 95.8657C60.997 95.2843 58.3151 94.8055 56.3691 94.4698C55.4118 94.305 54.629 94.1713 54.0677 94.0749C53.8088 94.0283 53.5999 93.9909 53.4409 93.963C53.2974 93.935 53.2226 93.9194 53.2257 93.9132C53.2288 93.907 53.3036 93.9132 53.4471 93.9319C53.6061 93.9536 53.8151 93.9785 54.077 94.0127C54.6228 94.0873 55.4149 94.2024 56.3878 94.3547C58.3369 94.6594 61.0251 95.1196 63.9814 95.7041C66.9346 96.2886 69.5978 96.8824 71.5157 97.3395C72.4762 97.5695 73.2496 97.7592 73.7829 97.8991C74.0355 97.9675 74.2413 98.0204 74.3972 98.0639C74.5375 98.1043 74.6093 98.1261 74.6093 98.1323V98.1354Z" fill="#455A64"/>
<path d="M56.8806 94.4983C56.8495 94.5077 56.784 94.1284 56.4939 93.606C56.3474 93.348 56.1353 93.0588 55.8547 92.7821C55.5771 92.5023 55.2372 92.2194 54.8754 91.9364C54.1457 91.3799 53.4035 90.985 52.8734 90.6959C52.337 90.4099 52.0064 90.2326 52.0189 90.2109C52.0283 90.1922 52.3775 90.3321 52.9264 90.5933C53.4721 90.8576 54.233 91.24 54.9752 91.809C55.3432 92.095 55.6831 92.381 55.9638 92.6764C56.2476 92.9687 56.4596 93.2765 56.5969 93.5501C56.7341 93.8268 56.8089 94.0662 56.8463 94.231C56.8838 94.3988 56.8931 94.4921 56.8838 94.4952L56.8806 94.4983Z" fill="#455A64"/>
<path d="M88.0314 98.7131C88.0688 98.7473 87.6011 99.2199 87.2362 99.935C86.8651 100.647 86.7528 101.303 86.7029 101.294C86.6624 101.294 86.7029 100.603 87.0896 99.8635C87.4701 99.1173 88.0065 98.682 88.0314 98.7162V98.7131Z" fill="#263238"/>
<g opacity="0.3">
<path d="M68.0146 66.8508L70.0167 80.9102L70.1165 81.1341C70.5905 76.2963 69.8608 71.3466 68.0146 66.8508Z" fill="black"/>
</g>
<path d="M78.7953 74.9324L72.287 86.2837L56.2485 86.6319L56.208 87.3564L71.7381 87.2413L72.2309 87.2258L88.6311 87.2569L91.946 81.5579L96.181 75.5076C96.4585 75.1096 96.1716 74.5686 95.6883 74.5686L79.3192 74.6308C79.1041 74.6308 78.9076 74.7458 78.8016 74.9324H78.7953Z" fill="#E0E0E0"/>
<path d="M91.9447 81.5549C91.9447 81.5549 92.7867 82.326 92.6558 82.9789C92.5217 83.6318 92.5684 84.1199 91.9447 84.1635C91.9447 84.1635 91.9884 85.0029 91.1028 85.1366C91.1028 85.1366 91.293 86.1626 90.0955 86.3399C90.0955 86.3399 89.7275 87.4374 88.9728 87.17C88.2181 86.9026 87.7317 86.5948 87.7317 86.5948L87.5102 86.1968C87.5102 86.1968 86.4001 85.7802 86.6745 85.1553C86.8398 84.776 87.4167 84.6765 87.4167 84.6765C87.4167 84.6765 87.1766 84.1199 87.4884 83.7033C87.7535 83.3458 88.6235 83.6411 88.6235 83.6411C88.6235 83.6411 88.5736 83.181 88.898 82.7955C89.1942 82.4472 90.5726 83.3955 90.5726 83.3955L91.3273 82.5001L91.951 81.5549H91.9447Z" fill="#FFBE9D"/>
<path d="M90.0958 86.3398C90.0708 86.3771 89.4534 86.0351 88.7112 85.5781C87.969 85.118 87.3889 84.7169 87.4139 84.6796C87.4388 84.6423 88.0563 84.9812 88.7985 85.4413C89.5376 85.9014 90.1207 86.3025 90.0958 86.3398Z" fill="#EB996E"/>
<path d="M91.1033 85.1366C91.0814 85.1739 90.5045 84.8723 89.8185 84.4588C89.1324 84.0453 88.596 83.6815 88.6178 83.6442C88.6397 83.6069 89.2166 83.9085 89.9027 84.322C90.5887 84.7355 91.1251 85.0993 91.1033 85.1366Z" fill="#EB996E"/>
<path d="M89.7291 82.8863C89.754 82.8397 90.2686 83.1102 90.8673 83.4895C91.4661 83.8719 91.9495 84.1673 91.937 84.1984C91.9152 84.2512 91.3788 84.0087 90.78 83.6263C90.1781 83.247 89.7104 82.9205 89.726 82.8863H89.7291Z" fill="#EB996E"/>
<path d="M96.177 74.9982C96.177 74.9982 96.1489 75.0044 96.099 75.0075C96.0367 75.0075 95.9618 75.0137 95.8683 75.0168C95.6531 75.0199 95.3568 75.0262 94.9826 75.0324C94.1999 75.0386 93.0897 75.0479 91.7269 75.0572C88.9639 75.0635 85.1718 75.0728 80.9836 75.0821C80.7217 75.0821 80.4597 75.0821 80.2009 75.0821C79.9545 75.0635 79.7331 75.1723 79.6053 75.3619C79.3589 75.8065 79.1157 76.2418 78.8755 76.674C78.3953 77.5352 77.9338 78.3684 77.494 79.1613C76.6115 80.7438 75.8163 82.1678 75.1458 83.3679C74.4785 84.5525 73.9327 85.5163 73.5491 86.1972C73.362 86.5205 73.2155 86.7755 73.1094 86.962C73.0627 87.0429 73.0221 87.105 72.9909 87.1579C72.9629 87.2014 72.9473 87.2232 72.9473 87.2232C72.9473 87.2232 72.9566 87.1983 72.9785 87.1517C73.0065 87.0957 73.0408 87.0304 73.0814 86.9465C73.1812 86.7568 73.3215 86.4957 73.4961 86.1661C73.8703 85.479 74.3974 84.5089 75.046 83.3119C75.7071 82.1056 76.493 80.6754 77.3662 79.0866C77.8028 78.2907 78.2643 77.4575 78.7414 76.5931C78.9816 76.161 79.2248 75.7195 79.4743 75.2718C79.6271 75.0293 79.9327 74.8956 80.204 74.9173C80.4629 74.9173 80.7248 74.9173 80.9868 74.9173C85.178 74.9267 88.9701 74.936 91.73 74.9422C93.0959 74.9515 94.203 74.9609 94.9857 74.9671C95.3599 74.9733 95.6562 74.9795 95.8714 74.9826C95.9649 74.9857 96.0398 74.9888 96.1022 74.992C96.1552 74.992 96.1801 74.9982 96.1801 75.0013L96.177 74.9982Z" fill="#263238"/>
<path d="M84.6399 80.7025C84.3498 81.0227 84.3436 81.486 84.6243 81.7409C84.9049 81.9928 85.3696 81.9399 85.6565 81.6197C85.9465 81.2994 85.9527 80.8362 85.6721 80.5812C85.3914 80.3294 84.9268 80.3822 84.6367 80.7025H84.6399Z" fill="white"/>
<g opacity="0.3">
<path d="M39.1119 76.3153C38.9715 76.3712 38.8156 76.4645 38.8125 76.6137C38.8125 76.735 38.9248 76.8314 39.0433 76.8562C39.1618 76.8811 39.5921 76.7039 39.7106 76.679C41.3977 76.309 42.7855 76.6635 44.3915 77.2915L44.4445 77.2387C43.8021 75.8893 40.9268 75.5846 39.1119 76.3153Z" fill="black"/>
</g>
<path d="M126 139.425C126 139.468 97.79 139.506 63.0031 139.506C28.2162 139.506 0 139.468 0 139.425C0 139.381 28.2037 139.344 63.0031 139.344C97.8025 139.344 126 139.381 126 139.425Z" fill="#263238"/>
<path d="M30.3868 40.3219C30.4398 40.3747 40.7963 36.8272 40.7963 36.8272L36.814 27.7175L27.5957 31.2308L32.6664 34.1347L30.3868 40.3219Z" fill="#455A64"/>
<path d="M35.2451 30.4626V18.0572C35.2451 18.0572 49.531 15.4549 59.822 15.6073C70.1131 15.7596 80.7129 17.4447 80.7129 17.4447V29.3526C80.7129 29.3526 48.4551 26.4798 35.2451 30.4626Z" fill="#455A64"/>
<path d="M35.1699 30.4718L40.7957 36.8797V29.3525C40.7957 29.3525 36.0899 29.9153 35.1699 30.4718Z" fill="#263238"/>
<path d="M35.2443 18.0571C35.2879 18.0571 35.3097 20.8367 35.2879 24.266C35.2661 27.6954 35.2131 30.4749 35.1694 30.4749C35.1258 30.4749 35.1039 27.6954 35.1258 24.266C35.1476 20.8367 35.2006 18.0602 35.2443 18.0602V18.0571Z" fill="#263238"/>
<path d="M85.5531 39.3695C85.5001 39.4223 75.1436 35.8748 75.1436 35.8748L79.1259 26.7651L88.3442 30.2784L83.2735 33.1823L85.5531 39.3695Z" fill="#455A64"/>
<path d="M80.7693 29.521L75.1436 35.9289V28.9458C77.0178 29.008 78.8951 29.2007 80.7693 29.521Z" fill="#263238"/>
<path d="M80.7143 17.4453C80.7579 17.4453 80.8078 20.1471 80.8234 23.4832C80.839 26.8193 80.8172 29.5211 80.7704 29.5211C80.7267 29.5211 80.6768 26.8193 80.6612 23.4832C80.6456 20.1502 80.6675 17.4453 80.7143 17.4453Z" fill="#263238"/>
<path d="M43.3011 23.4952C43.1639 22.5065 43.8281 21.6919 44.851 21.552C45.4186 21.4742 45.9238 21.6142 46.2855 21.9468L45.8583 22.4629C45.6026 22.2391 45.3063 22.1489 44.9789 22.1924C44.3645 22.2764 43.9872 22.7676 44.0714 23.3895C44.1587 24.0082 44.6545 24.3781 45.272 24.2942C45.6026 24.2476 45.8614 24.0797 46.0454 23.7905L46.5974 24.1729C46.3385 24.5958 45.8926 24.8663 45.3188 24.9471C44.299 25.087 43.4383 24.487 43.3011 23.4952Z" fill="white"/>
<path d="M46.7029 23.0282C46.6031 22.0488 47.2923 21.2467 48.3339 21.1378C49.3724 21.0321 50.2175 21.6726 50.3173 22.6551C50.4202 23.6376 49.7248 24.4366 48.6863 24.5454C47.6416 24.6511 46.8027 24.0076 46.7029 23.0282ZM49.547 22.7359C49.4815 22.111 48.995 21.7286 48.4056 21.7876C47.8162 21.8467 47.4171 22.3224 47.4794 22.9473C47.5449 23.5723 48.0314 23.9547 48.6208 23.8956C49.2102 23.8366 49.6094 23.3609 49.547 22.7359Z" fill="white"/>
<path d="M54.054 24.0642L53.9199 22.0806L53.0499 23.7751L52.7037 23.7968L51.6309 22.2671L51.7557 24.2072L51.0353 24.2539L50.8232 20.9489L51.4563 20.9085L52.8284 22.8827L53.9168 20.7499L54.5467 20.7095L54.7681 24.0145L54.0478 24.0611L54.054 24.0642Z" fill="white"/>
<path d="M58.3482 21.803C58.3701 22.5399 57.8274 23.0156 56.9387 23.0404L56.2713 23.0591L56.2963 23.9732L55.5291 23.9949L55.4355 20.6837L56.8732 20.6433C57.7588 20.6185 58.3295 21.0631 58.3482 21.803ZM57.5686 21.8248C57.5593 21.461 57.316 21.2558 56.8451 21.2683L56.2183 21.2869L56.2495 22.4373L56.8763 22.4186C57.3472 22.4062 57.578 22.1854 57.5655 21.8279L57.5686 21.8248Z" fill="white"/>
<path d="M58.9297 20.6001H59.6968V23.2864H61.3621V23.9113H58.9297V20.6001Z" fill="white"/>
<path d="M64.36 23.3793L64.3413 23.9949L61.7686 23.9203L61.8652 20.6091L64.3756 20.6806L64.3569 21.2962L62.6105 21.2465L62.5887 21.9647L64.1293 22.0082L64.1105 22.6052L62.57 22.5616L62.5482 23.3265L64.3569 23.3793H64.36Z" fill="white"/>
<path d="M65.779 21.3866L64.7188 21.3245L64.7562 20.7026L67.6439 20.8767L67.6065 21.4986L66.5462 21.4333L66.384 24.1133L65.6169 24.0667L65.779 21.3866Z" fill="white"/>
<path d="M70.4416 23.8335L70.3855 24.4459L67.8252 24.2097L68.1308 20.9109L70.6318 21.141L70.5757 21.7535L68.8356 21.5918L68.7701 22.3069L70.3044 22.4499L70.2483 23.0437L68.714 22.9007L68.6422 23.6624L70.4416 23.8303V23.8335Z" fill="white"/>
<path d="M71.4026 21.2256L72.8964 21.4246C73.9722 21.5676 74.624 22.3138 74.4899 23.3056C74.3558 24.3005 73.5325 24.8477 72.4567 24.7047L70.9629 24.5057L71.4026 21.2256ZM72.5034 24.0766C73.1583 24.1637 73.6354 23.831 73.7196 23.203C73.8038 22.5749 73.4296 22.1272 72.7747 22.0433L72.0793 21.95L71.808 23.9834L72.5034 24.0766Z" fill="white"/>
<path d="M87.1035 18.5726L87.9206 19.5271L90.222 18.5726L89.5484 17.5684L87.1035 18.5726Z" fill="#455A64"/>
<path d="M86.0503 14.034C86.0503 14.6931 85.5139 15.2279 84.8528 15.2279C84.1917 15.2279 83.6553 14.6931 83.6553 14.034C83.6553 13.3749 84.1917 12.8401 84.8528 12.8401C85.5139 12.8401 86.0503 13.3749 86.0503 14.034Z" fill="#FEF2CA"/>
<path d="M59.2229 31.8394C59.2229 32.1689 58.9547 32.4363 58.6241 32.4363C58.2936 32.4363 58.0254 32.1689 58.0254 31.8394C58.0254 31.5098 58.2936 31.2424 58.6241 31.2424C58.9547 31.2424 59.2229 31.5098 59.2229 31.8394Z" fill="#FEF2CA"/>
<path d="M31.3286 22.8665C31.3286 23.1184 31.1259 23.3205 30.8733 23.3205C30.6207 23.3205 30.418 23.1184 30.418 22.8665C30.418 22.6147 30.6207 22.4126 30.8733 22.4126C31.1259 22.4126 31.3286 22.6147 31.3286 22.8665Z" fill="#FEF2CA"/>
<path d="M29.6387 17.8701L30.9796 17.9509L31.6189 15.3237L30.3653 15.3735L29.6387 17.8701Z" fill="#455A64"/>
<path d="M71.5508 38.8663L72.003 40.1286L74.6786 39.684L74.1391 38.5522L71.5508 38.8663Z" fill="#FEF2CA"/>
<path d="M44.4885 31.5818L43.6621 32.642L45.474 34.6505L46.1413 33.5934L44.4885 31.5818Z" fill="#455A64"/>
<path d="M41.2859 6.74951L44.4512 9.97055L48.9107 8.28852L49.0853 9.39225L47.155 13.3346L48.9356 16.2758L48.7859 17.1526L44.473 16.4282L41.9221 19.2201L41.3265 18.7662L40.7963 15.2187L36.7735 13.1294L36.5957 12.321L40.6466 11.2142L41.2859 6.74951Z" fill="#FEF2CA"/>
<g opacity="0.3">
<path d="M41.2859 6.74951L44.4512 9.97055L48.9107 8.28852L49.0853 9.39225L47.155 13.3346L48.9356 16.2758L48.7859 17.1526L44.473 16.4282L41.9221 19.2201L41.3265 18.7662L40.7963 15.2187L36.7735 13.1294L36.5957 12.321L40.6466 11.2142L41.2859 6.74951Z" fill="black"/>
</g>
<path d="M41.2859 5.84473L44.4512 9.06576L48.9107 8.28849L46.8182 12.2899L48.9356 16.2758L44.473 15.5265L41.3265 18.7662L40.6591 14.3046L36.5957 12.321L40.6466 10.3125L41.2859 5.84473Z" fill="#FEF2CA"/>
<path d="M74.1082 6.74951L70.9398 9.97055L66.4834 8.28852L66.3057 9.39225L68.236 13.3346L66.4585 16.2758L66.605 17.1526L70.9179 16.4282L73.4689 19.2201L74.0676 18.7662L74.5946 15.2187L78.6175 13.1294L78.7953 12.321L74.7443 11.2142L74.1082 6.74951Z" fill="#FEF2CA"/>
<g opacity="0.3">
<path d="M74.1082 6.74951L70.9398 9.97055L66.4834 8.28852L66.3057 9.39225L68.236 13.3346L66.4585 16.2758L66.605 17.1526L70.9179 16.4282L73.4689 19.2201L74.0676 18.7662L74.5946 15.2187L78.6175 13.1294L78.7953 12.321L74.7443 11.2142L74.1082 6.74951Z" fill="black"/>
</g>
<path d="M74.1087 5.84473L70.9403 9.06576L66.4839 8.28849L68.5764 12.2899L66.459 16.2758L70.9184 15.5265L74.0681 18.7662L74.7324 14.3046L78.7958 12.321L74.7448 10.3125L74.1087 5.84473Z" fill="#FEF2CA"/>
<path d="M57.5932 1.10059L60.2284 6.23372L66.3063 5.87617L66.1005 7.28771L62.2398 11.3637L63.2876 15.6294L62.7699 16.643L57.7834 14.1246L53.6078 16.5591L53.0496 15.7787L53.7606 11.2487L49.6504 7.17267L49.7439 6.11869L55.1109 6.30834L57.5932 1.10059Z" fill="#FEF2CA"/>
<g opacity="0.3">
<path d="M57.5932 1.10059L60.2284 6.23372L66.3063 5.87617L66.1005 7.28771L62.2398 11.3637L63.2876 15.6294L62.7699 16.643L57.7834 14.1246L53.6078 16.5591L53.0496 15.7787L53.7606 11.2487L49.6504 7.17267L49.7439 6.11869L55.1109 6.30834L57.5932 1.10059Z" fill="black"/>
</g>
<path d="M57.9364 0L60.5716 5.13314L66.3065 5.87621L62.2244 9.96158L63.2878 15.6295L58.1298 13.0209L53.0498 15.7787L53.9448 10.0828L49.7441 6.11872L55.4541 5.20775L57.9364 0Z" fill="#FEF2CA"/>
<path d="M68.4367 46.0482L72.84 46.5332C73.9003 45.0284 75.3785 43.7879 77.1966 43.0075C82.4263 40.7627 88.4887 43.1723 90.7402 48.3862C92.9918 53.6002 90.575 59.6443 85.3452 61.8891C80.1155 64.1339 74.0531 61.7243 71.8016 56.5103C70.8629 54.334 70.7382 52.0115 71.2901 49.8817V49.8879L68.4336 46.0513L68.4367 46.0482Z" fill="#FAFAFA"/>
<path d="M68.4349 46.0484C68.6065 46.2754 69.4984 47.4537 71.3196 49.8633H71.251C71.2603 49.8446 71.2853 49.8353 71.3071 49.8477C71.3227 49.857 71.332 49.8757 71.3258 49.8944C70.9609 51.3152 70.8206 53.1838 71.3944 55.2016C71.541 55.7022 71.7187 56.2152 71.9651 56.7126C72.0898 56.9614 72.2083 57.2163 72.3456 57.4681C72.4984 57.7107 72.6512 57.9563 72.8071 58.205C73.4776 59.1688 74.3476 60.0767 75.411 60.8104C76.4713 61.5473 77.725 62.1131 79.0878 62.4085C80.4505 62.7039 81.9256 62.7412 83.3788 62.4272C84.8289 62.1131 86.251 61.4758 87.4859 60.5306C88.7146 59.5854 89.7811 58.348 90.4641 56.8867C91.1688 55.4037 91.5462 53.7807 91.4869 52.1951C91.4433 50.6126 91.0254 49.0798 90.3331 47.7429C89.6408 46.4059 88.674 45.2525 87.5451 44.3912C86.4225 43.5238 85.1595 42.9268 83.8934 42.588C82.6241 42.2491 81.3549 42.1713 80.1699 42.2895C78.9817 42.4138 77.9058 42.7683 76.9422 43.1787C75.0243 44.0555 73.7021 45.3799 72.8663 46.5521C72.857 46.5645 72.8445 46.5707 72.8289 46.5676C70.041 46.238 68.7 46.0764 68.4287 46.0453C68.7 46.0733 70.0441 46.207 72.8383 46.4899L72.8009 46.5054C73.6304 45.3178 74.9557 43.9715 76.8923 43.073C77.8622 42.6501 78.9537 42.2864 80.1543 42.1589C81.3518 42.0345 82.6397 42.1092 83.9277 42.4512C85.2125 42.79 86.4911 43.3932 87.6356 44.27C88.7801 45.1405 89.7624 46.3096 90.4703 47.6651C91.1782 49.0207 91.6023 50.5753 91.6491 52.1858C91.7083 53.7963 91.3279 55.4441 90.6137 56.952C89.9183 58.4382 88.8362 59.6943 87.5857 60.655C86.332 61.6157 84.8851 62.2624 83.4131 62.5764C81.9381 62.8904 80.4381 62.8531 79.0566 62.5484C77.672 62.2437 76.4058 61.6685 75.33 60.9193C74.2541 60.17 73.3747 59.2497 72.7011 58.2703C72.5451 58.0185 72.3892 57.7697 72.2364 57.5241C72.0992 57.2692 71.9807 57.0111 71.8559 56.7593C71.6096 56.2556 71.4318 55.7364 71.2853 55.2296C70.7146 53.1869 70.8705 51.2997 71.2478 49.8695L71.3227 49.9006V49.9068C71.3102 49.9254 71.2853 49.9348 71.2666 49.9223C71.2603 49.9223 71.2572 49.9161 71.2541 49.9099C69.4734 47.4724 68.6033 46.2785 68.4349 46.0484Z" fill="#263238"/>
<path d="M77.4694 48.7912C77.4694 48.7912 77.4756 48.841 77.4787 48.9343C77.4787 49.0369 77.485 49.1674 77.4881 49.3322C77.4912 49.6898 77.4974 50.1934 77.5068 50.8277C77.5162 52.118 77.5286 53.9337 77.5411 56.1101L77.4694 56.0386C79.6056 56.0355 82.1222 56.0323 84.8072 56.0261C84.8259 56.0075 84.6544 56.1785 84.7261 56.107V55.6095C84.7261 55.4447 84.7261 55.2768 84.7261 55.1121C84.7261 54.7825 84.7261 54.456 84.7261 54.1327C84.7261 53.486 84.7261 52.8548 84.7261 52.2423C84.7261 51.0142 84.7324 49.8545 84.7355 48.7912L84.8072 48.8627C82.6243 48.8472 80.8031 48.8348 79.5089 48.8285C78.8727 48.8192 78.3706 48.8161 78.0089 48.8099C77.8436 48.8068 77.7126 48.8037 77.6097 48.8006C77.5193 48.8006 77.4694 48.7943 77.4663 48.7912C77.4663 48.7912 77.5068 48.785 77.5941 48.7819C77.6939 48.7819 77.8218 48.7757 77.9808 48.7726C78.3363 48.7695 78.8353 48.7633 79.4652 48.7539C80.7688 48.7446 82.6087 48.7322 84.8072 48.7197H84.8758V48.7912C84.8758 49.8545 84.8821 51.0142 84.8852 52.2423C84.8852 52.8579 84.8852 53.4891 84.8852 54.1327C84.8852 54.456 84.8852 54.7825 84.8852 55.1121C84.8852 55.2768 84.8852 55.4416 84.8852 55.6095V55.8582V55.9826V56.1007V56.107C84.9569 56.0355 84.7854 56.2065 84.8041 56.1878C82.1191 56.1847 79.6024 56.1816 77.4663 56.1754H77.3945V56.1039C77.4101 53.9088 77.4226 52.0776 77.4288 50.778C77.4351 50.153 77.4413 49.6556 77.4475 49.298C77.4507 49.1395 77.4538 49.012 77.4569 48.9125C77.4569 48.8254 77.4631 48.7819 77.4663 48.785L77.4694 48.7912Z" fill="#263238"/>
<path d="M84.0175 50.0007C84.1235 50.0847 83.135 51.5024 81.8127 53.1658C81.5476 53.4985 81.2919 53.8156 81.0518 54.1047L80.8959 54.2944L80.7212 54.1358C79.5736 53.1067 78.7971 52.317 78.8688 52.2362C78.9406 52.1553 79.8356 52.8082 81.0237 53.7876L80.69 53.8187C80.9177 53.5202 81.1672 53.1969 81.4323 52.8642C82.7545 51.2008 83.9146 49.9168 84.0206 50.0007H84.0175Z" fill="#FEF2CA"/>
</g>
<defs>
<clipPath id="clip0_532_4421">
<rect width="126" height="140" fill="white"/>
</clipPath>
</defs>
</svg>
