<svg width="149" height="146" viewBox="0 0 149 146" fill="none" xmlns="http://www.w3.org/2000/svg">
<g clip-path="url(#clip0_532_4700)">
<path d="M149 82.0181C149 82.0181 148.974 37.1887 124.851 15.7776C103.554 -3.12369 74.2343 -6.96311 54.5449 14.8933C47.529 22.6803 39.0459 30.795 30.2336 36.2376C20.3538 42.3387 8.80546 45.1252 2.08038 65.3275C-4.64469 85.5298 5.76895 115.151 21.041 125.639C36.313 136.126 60.244 132.23 80.8027 127.843C101.358 123.457 147.206 137.65 149 82.0212V82.0181Z" fill="#FEF2CA"/>
<path opacity="0.7" d="M149 82.0181C149 82.0181 148.974 37.1887 124.851 15.7776C103.554 -3.12369 74.2343 -6.96311 54.5449 14.8933C47.529 22.6803 39.0459 30.795 30.2336 36.2376C20.3538 42.3387 8.80546 45.1252 2.08038 65.3275C-4.64469 85.5298 5.76895 115.151 21.041 125.639C36.313 136.126 60.244 132.23 80.8027 127.843C101.358 123.457 147.206 137.65 149 82.0212V82.0181Z" fill="white"/>
<path opacity="0.16" d="M75.6711 145.999C102.749 145.999 124.7 143.335 124.7 140.048C124.7 136.761 102.749 134.096 75.6711 134.096C48.5934 134.096 26.6426 136.761 26.6426 140.048C26.6426 143.335 48.5934 145.999 75.6711 145.999Z" fill="black"/>
<path opacity="0.07" d="M124.853 15.7743C121.42 12.727 117.776 10.0709 113.998 7.85372L82.092 55.5714L125.45 16.3183C125.252 16.1306 125.054 15.9525 124.849 15.7711L124.853 15.7743ZM96.2997 0.951025C91.2463 -0.0700652 86.1514 -0.286371 81.1715 0.381632L82.0952 55.5746L96.2997 0.951025ZM62.8597 7.51972C59.9447 9.54282 57.1607 11.989 54.5461 14.8932C53.6799 15.857 52.7881 16.824 51.8772 17.7942L82.092 55.5746L62.8597 7.51972ZM36.6818 31.765C34.5627 33.3873 32.4083 34.8919 30.2348 36.2343C25.4499 39.1862 20.2751 41.3652 15.4454 45.1219L82.092 55.5714L36.6818 31.765ZM0.115845 75.7037C-0.465886 84.3146 1.17383 93.6348 4.34778 102.064L82.0952 55.5746L0.115845 75.7037ZM82.0952 55.5746L26.591 128.683C34.6681 132.175 44.3722 132.805 54.4342 132.048L82.0984 55.5746H82.0952ZM82.0952 55.5746L84.7354 127.235C90.4377 126.628 97.4057 126.816 104.623 126.507L82.092 55.5746H82.0952ZM144.404 105.229L82.092 55.5746L130.606 120.66C136.257 117.514 141.099 112.682 144.404 105.229ZM147.041 62.4041L82.0952 55.5746L148.94 79.664C148.806 76.4163 148.377 70.0766 147.041 62.4041ZM136.522 30.6962L82.0952 55.5746L142.234 43.5887C140.703 39.2212 138.827 34.8506 136.519 30.6962H136.522Z" fill="black"/>
<path d="M128.32 22.6033C128.32 22.6033 124.836 23.6562 123.599 23.6689C122.362 23.6817 118.68 23.0741 117.005 21.7858C115.331 20.4975 113.844 18.9484 112.805 17.7619C111.767 16.5786 110.993 16.6295 110.92 18.1754C110.843 19.7182 111.747 21.4963 112.69 22.3743C113.633 23.2522 115.152 23.9743 115.215 24.2383C115.279 24.5024 115.452 25.0018 115.452 25.0018C115.452 25.0018 112.729 26.5064 111.089 27.1775C109.449 27.8487 108.247 28.5167 108.637 29.2325C109.027 29.9482 110.053 30.7689 110.638 31.4082C111.223 32.0476 114.509 34.3633 115.548 34.6783C116.587 34.9932 117.424 35.2063 117.929 35.2158C118.434 35.2254 118.584 35.4322 119.428 34.955C120.272 34.4779 121.266 33.9562 121.614 33.8321C121.963 33.7081 122.458 33.7908 123.788 32.7792C125.121 31.7677 126.169 30.7116 126.169 30.7116L131.344 29.3215L128.32 22.6001V22.6033Z" fill="#FFBE9D" stroke="#263238" stroke-width="0.75" stroke-miterlimit="10"/>
<path d="M126.441 22.7619L130.002 31.2741L133.563 30.4153L129.507 21.8203L126.441 22.7619Z" fill="#FFBE9D" stroke="#263238" stroke-width="0.75" stroke-miterlimit="10"/>
<path d="M134.411 19.1992L128.066 21.7281L132.343 31.8404L142.143 30.0209L141.702 29.337L134.411 19.1992Z" fill="#263238" stroke="#263238" stroke-width="0.75" stroke-miterlimit="10"/>
<path d="M115.553 25.4888C115.553 25.4888 116.774 27.9699 117.16 28.5043C117.544 29.0387 119.734 29.6527 120.203 29.4395" stroke="#263238" stroke-width="0.75" stroke-miterlimit="10"/>
<path d="M118.74 31.6599C118.74 31.6599 119.466 31.4532 119.655 32.0639C119.843 32.6747 119.108 34.2524 118.766 34.9936C118.424 35.7347 118.187 35.8397 117.264 35.9383C116.337 36.0401 115.729 35.5407 115.729 35.5407C115.729 35.5407 116.73 34.7645 116.88 34.5355C117.027 34.3065 118.74 31.6599 118.74 31.6599Z" fill="#FFBE9D" stroke="#263238" stroke-width="0.75" stroke-miterlimit="10"/>
<path d="M113.227 33.969C113.227 33.969 114.585 35.8584 115.158 35.6994C115.73 35.5404 116.436 35.2223 116.695 34.9773C116.954 34.7292 118.421 32.6934 118.616 32.1812C118.811 31.6691 118.798 30.8739 118.239 30.5271L117.679 30.1804C117.679 30.1804 116.931 30.9629 115.899 31.6946C114.867 32.4294 112.898 33.3328 112.863 33.5459C112.827 33.7558 113.227 33.969 113.227 33.969Z" fill="#FFBE9D" stroke="#263238" stroke-width="0.75" stroke-miterlimit="10"/>
<path d="M110.779 31.8629C110.779 31.8629 110.619 32.1619 110.885 32.5309C111.15 32.8999 111.454 34.3599 112.294 34.3186C113.138 34.2772 115.158 33.272 115.529 33.008C115.9 32.744 117.527 30.406 117.674 30.177C117.821 29.9479 117.29 29.2099 116.999 28.9809C116.712 28.7519 115.909 29.2004 115.909 29.2004C115.909 29.2004 112.675 31.3794 110.776 31.8629H110.779Z" fill="#FFBE9D" stroke="#263238" stroke-width="0.75" stroke-miterlimit="10"/>
<path d="M110.053 28.5963C110.053 28.5963 112.083 28.6408 112.39 28.5486C112.697 28.4563 114.912 27.8074 114.912 27.8074C114.912 27.8074 115.247 27.7533 115.602 28.2464C115.957 28.7394 115.791 29.2897 115.439 29.6651C115.088 30.0405 113.777 31.3446 113.093 31.5228C112.409 31.7009 110.651 31.7709 110.105 31.79C109.555 31.8091 109.28 31.5101 109.162 30.9089C109.043 30.3108 108.641 29.2325 108.641 29.2325" fill="#FFBE9D"/>
<path d="M110.053 28.5963C110.053 28.5963 112.083 28.6408 112.39 28.5486C112.697 28.4563 114.912 27.8074 114.912 27.8074C114.912 27.8074 115.247 27.7533 115.602 28.2464C115.957 28.7394 115.791 29.2897 115.439 29.6651C115.088 30.0405 113.777 31.3446 113.093 31.5228C112.409 31.7009 110.651 31.7709 110.105 31.79C109.555 31.8091 109.28 31.5101 109.162 30.9089C109.043 30.3108 108.641 29.2325 108.641 29.2325" stroke="#263238" stroke-width="0.75" stroke-miterlimit="10"/>
<path d="M138.425 100.665C138.425 100.665 134.976 99.5042 133.96 98.7981C132.946 98.0919 130.306 95.4676 129.699 93.4477C129.092 91.4278 128.785 89.3092 128.635 87.7442C128.481 86.1792 127.823 85.7752 126.861 86.9871C125.895 88.1991 125.592 90.1681 125.847 91.4309C126.1 92.6938 126.912 94.157 126.813 94.4083C126.71 94.6596 126.56 95.1654 126.56 95.1654C126.56 95.1654 123.466 94.8123 121.74 94.4083C120.014 94.0044 118.646 93.8517 118.544 94.6596C118.441 95.4676 118.796 96.7304 118.898 97.5861C119.001 98.445 120.318 102.23 120.979 103.089C121.641 103.948 122.197 104.603 122.603 104.906C123.009 105.208 123.009 105.462 123.971 105.561C124.936 105.663 126.052 105.812 126.407 105.914C126.761 106.016 127.116 106.369 128.791 106.318C130.466 106.267 131.936 106.016 131.936 106.016L136.958 107.883L138.428 100.665H138.425Z" fill="#FFBE9D" stroke="#263238" stroke-width="0.75" stroke-miterlimit="10"/>
<path d="M136.802 99.7056L134.721 108.692L138.118 110.053L139.844 100.714L136.802 99.7056Z" fill="#FFBE9D" stroke="#263238" stroke-width="0.75" stroke-miterlimit="10"/>
<path d="M145.366 101.423L138.728 99.8069L136.292 110.508L145.325 114.703L145.366 113.892V101.423Z" fill="#263238" stroke="#263238" stroke-width="0.75" stroke-miterlimit="10"/>
<path d="M126.356 95.6169C126.356 95.6169 125.898 98.343 125.898 98.9983C125.898 99.6536 127.318 101.422 127.826 101.521" stroke="#263238" stroke-width="0.75" stroke-miterlimit="10"/>
<path d="M125.338 102.482C125.338 102.482 126.047 102.733 125.846 103.341C125.644 103.948 124.12 104.804 123.41 105.208C122.701 105.612 122.445 105.561 121.636 105.106C120.824 104.651 120.623 103.894 120.623 103.894C120.623 103.894 121.892 103.843 122.145 103.741C122.397 103.64 125.341 102.479 125.341 102.479L125.338 102.482Z" fill="#FFBE9D" stroke="#263238" stroke-width="0.75" stroke-miterlimit="10"/>
<path d="M119.503 101.168C119.503 101.168 119.503 103.49 120.063 103.69C120.622 103.891 121.383 104.043 121.738 103.993C122.092 103.942 124.477 103.134 124.934 102.831C125.391 102.529 125.848 101.871 125.592 101.266L125.34 100.662C125.34 100.662 124.276 100.862 123.007 100.862C121.738 100.862 119.609 100.458 119.455 100.611C119.302 100.764 119.507 101.168 119.507 101.168H119.503Z" fill="#FFBE9D" stroke="#263238" stroke-width="0.75" stroke-miterlimit="10"/>
<path d="M118.744 98.0378C118.744 98.0378 118.44 98.1905 118.44 98.6422C118.44 99.0939 117.833 100.459 118.543 100.913C119.252 101.368 121.483 101.721 121.94 101.721C122.397 101.721 125.085 100.761 125.338 100.662C125.59 100.564 125.59 99.6538 125.491 99.3007C125.392 98.9476 124.478 98.8458 124.478 98.8458C124.478 98.8458 120.572 98.744 118.747 98.0378H118.744Z" fill="#FFBE9D" stroke="#263238" stroke-width="0.75" stroke-miterlimit="10"/>
<path d="M120.063 94.9587C120.063 94.9587 121.687 96.1706 121.99 96.2724C122.294 96.3742 124.477 97.1313 124.477 97.1313C124.477 97.1313 124.781 97.284 124.781 97.8884C124.781 98.4927 124.324 98.849 123.815 98.9476C123.307 99.0462 121.482 99.3516 120.824 99.1003C120.165 98.849 118.692 97.8884 118.238 97.5862C117.781 97.284 117.73 96.88 117.985 96.3233C118.241 95.7666 118.545 94.6565 118.545 94.6565" fill="#FFBE9D"/>
<path d="M120.063 94.9587C120.063 94.9587 121.687 96.1706 121.99 96.2724C122.294 96.3742 124.477 97.1313 124.477 97.1313C124.477 97.1313 124.781 97.284 124.781 97.8884C124.781 98.4927 124.324 98.849 123.815 98.9476C123.307 99.0462 121.482 99.3516 120.824 99.1003C120.165 98.849 118.692 97.8884 118.238 97.5862C117.781 97.284 117.73 96.88 117.985 96.3233C118.241 95.7666 118.545 94.6565 118.545 94.6565" stroke="#263238" stroke-width="0.75" stroke-miterlimit="10"/>
<path d="M16.7219 99.5237C16.7219 99.5237 20.1708 98.3626 21.1872 97.6565C22.2005 96.9503 24.8406 94.326 25.4479 92.3061C26.0552 90.2862 26.3621 88.1676 26.5123 86.6026C26.6657 85.0376 27.3242 84.6336 28.2863 85.8455C29.2515 87.0575 29.5552 89.0265 29.2995 90.2893C29.047 91.5522 28.2351 93.0154 28.3342 93.2667C28.4365 93.518 28.5867 94.0238 28.5867 94.0238C28.5867 94.0238 31.6808 93.6707 33.4068 93.2667C35.1328 92.8627 36.5008 92.7101 36.6031 93.518C36.7054 94.326 36.3506 95.5888 36.2483 96.4445C36.146 97.3034 34.8291 101.089 34.1675 101.948C33.5059 102.806 32.9497 103.462 32.5438 103.764C32.1378 104.066 32.1378 104.321 31.1757 104.419C30.2136 104.518 29.0949 104.67 28.7401 104.772C28.3853 104.874 28.0306 105.227 26.3557 105.176C24.6808 105.125 23.2105 104.874 23.2105 104.874L18.1891 106.741L16.7188 99.5237H16.7219Z" fill="#FFBE9D" stroke="#263238" stroke-width="0.75" stroke-miterlimit="10"/>
<path d="M18.3456 98.5627L20.4264 107.549L17.0288 108.914L15.3027 99.5743L18.3456 98.5627Z" fill="#FFBE9D" stroke="#263238" stroke-width="0.75" stroke-miterlimit="10"/>
<path d="M9.77832 100.281L16.4171 98.6653L18.8527 109.366L9.81987 113.562L9.77832 112.751V100.281Z" fill="#263238" stroke="#263238" stroke-width="0.75" stroke-miterlimit="10"/>
<path d="M28.7965 94.4753C28.7965 94.4753 29.2536 97.2014 29.2536 97.8567C29.2536 98.512 27.8344 100.281 27.3262 100.379" stroke="#263238" stroke-width="0.75" stroke-miterlimit="10"/>
<path d="M29.8108 101.34C29.8108 101.34 29.1012 101.591 29.3026 102.199C29.5039 102.807 31.0286 103.662 31.7382 104.066C32.4478 104.47 32.7035 104.419 33.5121 103.964C34.324 103.51 34.5254 102.752 34.5254 102.752C34.5254 102.752 33.2564 102.702 33.0039 102.6C32.7514 102.498 29.8076 101.337 29.8076 101.337L29.8108 101.34Z" fill="#FFBE9D" stroke="#263238" stroke-width="0.75" stroke-miterlimit="10"/>
<path d="M35.6431 100.026C35.6431 100.026 35.6431 102.348 35.0837 102.549C34.5244 102.749 33.7636 102.902 33.4088 102.851C33.054 102.8 30.6696 101.992 30.2125 101.69C29.7554 101.388 29.2984 100.729 29.5541 100.125L29.8066 99.5204C29.8066 99.5204 30.871 99.7208 32.1399 99.7208C33.4088 99.7208 35.5376 99.3168 35.691 99.4695C35.8444 99.6222 35.6399 100.026 35.6399 100.026H35.6431Z" fill="#FFBE9D" stroke="#263238" stroke-width="0.75" stroke-miterlimit="10"/>
<path d="M36.4028 96.8987C36.4028 96.8987 36.7065 97.0514 36.7065 97.5031C36.7065 97.9548 37.3138 99.3194 36.6042 99.7743C35.8946 100.229 33.6636 100.582 33.2065 100.582C32.7494 100.582 30.0613 99.6216 29.8088 99.523C29.5563 99.4244 29.5563 98.5146 29.6554 98.1615C29.7545 97.8084 30.6686 97.7066 30.6686 97.7066C30.6686 97.7066 34.5745 97.6049 36.3996 96.8987H36.4028Z" fill="#FFBE9D" stroke="#263238" stroke-width="0.75" stroke-miterlimit="10"/>
<path d="M35.085 93.8171C35.085 93.8171 33.4612 95.029 33.1576 95.1308C32.8539 95.2326 30.6708 95.9897 30.6708 95.9897C30.6708 95.9897 30.3672 96.1424 30.3672 96.7468C30.3672 97.3511 30.8243 97.7074 31.3325 97.806C31.8407 97.9046 33.6658 98.21 34.3242 97.9587C34.9827 97.7074 36.4562 96.7468 36.9101 96.4446C37.3671 96.1424 37.4183 95.7384 37.1626 95.1817C36.9069 94.625 36.6032 93.5149 36.6032 93.5149" fill="#FFBE9D"/>
<path d="M35.085 93.8171C35.085 93.8171 33.4612 95.029 33.1576 95.1308C32.8539 95.2326 30.6708 95.9897 30.6708 95.9897C30.6708 95.9897 30.3672 96.1424 30.3672 96.7468C30.3672 97.3511 30.8243 97.7074 31.3325 97.806C31.8407 97.9046 33.6658 98.21 34.3242 97.9587C34.9827 97.7074 36.4562 96.7468 36.9101 96.4446C37.3671 96.1424 37.4183 95.7384 37.1626 95.1817C36.9069 94.625 36.6032 93.5149 36.6032 93.5149" stroke="#263238" stroke-width="0.75" stroke-miterlimit="10"/>
<path d="M20.4729 25.6263C20.4729 25.6263 23.9569 26.6792 25.1939 26.692C26.4309 26.7047 30.1131 26.0971 31.7879 24.8088C33.4628 23.5205 34.9523 21.9714 35.9879 20.7849C37.0235 19.5984 37.8002 19.6525 37.8738 21.1984C37.9505 22.7412 37.0459 24.5194 36.103 25.3973C35.1601 26.2784 33.6418 26.9973 33.5779 27.2613C33.514 27.5254 33.3414 28.0248 33.3414 28.0248C33.3414 28.0248 36.0646 29.5294 37.7043 30.2006C39.3441 30.8717 40.5459 31.5398 40.1559 32.2555C39.766 32.9712 38.74 33.7919 38.155 34.4312C37.5701 35.0706 34.2843 37.3864 33.2455 37.7013C32.2067 38.0162 31.3692 38.2293 30.8642 38.2389C30.356 38.2516 30.209 38.4552 29.3651 37.978C28.5213 37.5009 27.5272 36.9792 27.1788 36.8551C26.8304 36.7311 26.335 36.8138 25.0053 35.8022C23.6725 34.7907 22.6241 33.7346 22.6241 33.7346L17.4492 32.3445L20.4729 25.6232V25.6263Z" fill="#FFBE9D" stroke="#263238" stroke-width="0.75" stroke-miterlimit="10"/>
<path d="M22.357 25.7858L18.7931 34.2981L15.2324 33.4392L19.2918 24.8442L22.357 25.7858Z" fill="#FFBE9D" stroke="#263238" stroke-width="0.75" stroke-miterlimit="10"/>
<path d="M14.3811 22.2222L20.729 24.751L16.4523 34.8633L6.65234 33.0438L7.09344 32.3599L14.3811 22.2222Z" fill="#263238" stroke="#263238" stroke-width="0.75" stroke-miterlimit="10"/>
<path d="M33.2434 28.5117C33.2434 28.5117 32.0224 30.9929 31.6357 31.5273C31.2521 32.0617 29.0626 32.6756 28.5928 32.4625" stroke="#263238" stroke-width="0.75" stroke-miterlimit="10"/>
<path d="M30.0559 34.6826C30.0559 34.6826 29.3304 34.4759 29.1418 35.0866C28.9532 35.6974 29.6884 37.2751 30.0304 38.0163C30.3724 38.7574 30.6089 38.8624 31.5326 38.961C32.4596 39.0628 33.0669 38.5634 33.0669 38.5634C33.0669 38.5634 32.0664 37.7873 31.9194 37.5582C31.7724 37.3292 30.0591 34.6826 30.0591 34.6826H30.0559Z" fill="#FFBE9D" stroke="#263238" stroke-width="0.75" stroke-miterlimit="10"/>
<path d="M35.5655 36.9919C35.5655 36.9919 34.2071 38.8814 33.6349 38.7223C33.0628 38.5633 32.3564 38.2452 32.0975 38.0003C31.8386 37.7522 30.3715 35.7163 30.1765 35.2042C29.9815 34.6921 29.9943 33.8968 30.5537 33.5501L31.113 33.2034C31.113 33.2034 31.861 33.9859 32.8934 34.7175C33.9258 35.4523 35.8947 36.3557 35.9299 36.5688C35.965 36.7788 35.5655 36.9919 35.5655 36.9919Z" fill="#FFBE9D" stroke="#263238" stroke-width="0.75" stroke-miterlimit="10"/>
<path d="M38.0145 34.8861C38.0145 34.8861 38.1743 35.1851 37.909 35.5541C37.6437 35.9231 37.34 37.3831 36.4994 37.3418C35.6588 37.3004 33.6355 36.2952 33.2647 36.0312C32.8939 35.7672 31.267 33.4292 31.12 33.2001C30.9729 32.9711 31.5035 32.2331 31.7944 32.0041C32.0853 31.7751 32.8843 32.2236 32.8843 32.2236C32.8843 32.2236 36.119 34.4025 38.0177 34.8861H38.0145Z" fill="#FFBE9D" stroke="#263238" stroke-width="0.75" stroke-miterlimit="10"/>
<path d="M38.7422 31.6192C38.7422 31.6192 36.7125 31.6638 36.4057 31.5715C36.0988 31.4761 33.8838 30.8304 33.8838 30.8304C33.8838 30.8304 33.5482 30.7763 33.1934 31.2693C32.8386 31.7624 33.0048 32.3127 33.3564 32.688C33.7112 33.0634 35.0185 34.3676 35.7025 34.5457C36.3865 34.7239 38.1445 34.7938 38.6911 34.8129C39.2376 34.832 39.5157 34.533 39.634 33.9318C39.7522 33.3338 40.155 32.2554 40.155 32.2554" fill="#FFBE9D"/>
<path d="M38.7422 31.6192C38.7422 31.6192 36.7125 31.6638 36.4057 31.5715C36.0988 31.4761 33.8838 30.8304 33.8838 30.8304C33.8838 30.8304 33.5482 30.7763 33.1934 31.2693C32.8386 31.7624 33.0048 32.3127 33.3564 32.688C33.7112 33.0634 35.0185 34.3676 35.7025 34.5457C36.3865 34.7239 38.1445 34.7938 38.6911 34.8129C39.2376 34.832 39.5157 34.533 39.634 33.9318C39.7522 33.3338 40.155 32.2554 40.155 32.2554" stroke="#263238" stroke-width="0.75" stroke-miterlimit="10"/>
<path d="M67.2736 71.7364C67.2736 71.7364 65.0362 81.4893 64.9467 86.0762C64.8604 90.6632 65.1129 107.195 65.1992 110.741C65.2855 114.288 66.8517 125.8 66.8517 126.837C66.8517 127.874 67.1138 129.865 67.1138 129.865L66.417 133.587C66.417 133.587 65.8097 134.106 64.2435 134.971C62.6773 135.836 60.8522 136.962 60.3312 137.567C60.0595 137.881 60.1809 138.368 60.5677 138.518C61.0599 138.705 61.7471 138.909 62.5047 138.953C63.9814 139.039 66.417 139.039 67.7211 138.693C69.0252 138.346 70.0704 137.223 70.6777 136.787L71.285 136.355L71.3713 137.306C71.3713 137.306 71.4576 137.306 72.2407 137.134C73.0238 136.962 74.0658 136.355 74.0658 136.355C74.0658 136.355 74.1521 134.885 74.1521 134.017C74.1521 133.148 73.7174 131.593 73.6311 131.246C73.5448 130.899 73.6311 127.785 73.369 126.745C73.1069 125.708 72.9343 125.966 72.7617 124.063C72.5891 122.161 74.1521 104.16 74.0658 103.642C73.9795 103.123 76.2808 87.5172 76.2808 87.5172C76.2808 87.5172 80.6758 107.882 82.0662 111.775C83.4566 115.669 84.1534 123.198 84.1534 123.717C84.1534 124.235 84.9365 130.381 85.2849 131.246C85.6333 132.111 86.589 134.793 86.589 134.793C86.589 134.793 87.9794 136.87 88.5899 137.907C89.1972 138.944 91.2844 139.812 92.8506 140.07C94.4168 140.331 95.6346 140.417 95.7209 138.34C95.8072 136.262 95.0241 134.879 93.72 133.928C92.4159 132.976 92.1538 132.111 92.1538 132.111C92.1538 132.111 92.3264 129.773 92.1538 128.304C91.9812 126.834 91.0223 125.708 90.936 122.68C90.8497 119.651 90.2392 103.727 89.7182 101.218C89.1972 98.7079 88.51 81.9155 88.5963 79.5807C88.6826 77.2427 88.3789 70.7344 88.3789 70.7344L67.2065 70.4927L67.2704 71.7301L67.2736 71.7364Z" fill="#263238" stroke="#263238" stroke-width="0.75" stroke-miterlimit="10"/>
<path d="M75.5855 36.8734C75.5855 36.8734 72.354 38.7693 70.0654 39.9113C67.7768 41.0501 64.9864 41.6926 64.6988 42.332C64.4111 42.9714 59.476 53.4399 58.5458 54.865C57.6157 56.2901 55.3975 59.0671 55.8258 60.6321C56.2541 62.1971 58.044 64.3347 59.1883 64.1916C60.3326 64.0484 62.6212 63.4091 63.5545 61.7709C64.4846 60.1327 66.7029 54.865 66.7029 54.865C66.7029 54.865 67.0609 59.7796 66.9905 62.2003C66.9202 64.621 66.9202 66.6155 66.7764 67.8243C66.6326 69.0362 65.9901 70.5313 66.2746 70.9575C66.559 71.3838 66.917 71.8132 67.275 71.74C67.633 71.67 72.9996 71.5969 74.6457 71.67C76.2919 71.74 83.7329 71.67 85.3055 71.74C86.8781 71.81 88.2397 71.0275 88.3836 70.7444C88.5274 70.4613 88.8119 70.0318 88.6712 68.4668C88.5274 66.9018 88.8151 62.1303 89.2434 60.279C89.6717 58.4277 92.2479 51.3055 92.2479 51.3055C92.2479 51.3055 99.0465 56.6463 100.475 57.0726C101.907 57.4988 105.772 56.8595 107.057 55.2912C108.341 53.723 108.773 52.5143 107.987 51.4455C107.2 50.3766 104.336 49.381 101.332 46.1746C98.3273 42.9714 97.1831 41.4763 95.1054 40.4775C93.031 39.4818 88.8087 38.1267 87.8082 37.7005C86.8078 37.2742 86.5201 37.0611 85.8776 36.7748C85.2352 36.4886 83.7297 35.9192 80.9393 35.8492C78.1489 35.7792 75.5823 36.8703 75.5823 36.8703L75.5855 36.8734Z" fill="#FEF2CA" stroke="#263238" stroke-width="0.75" stroke-miterlimit="10"/>
<path d="M65.2609 49.8176C65.36 50.1612 66.7024 54.8626 66.7024 54.8626L64.7207 50.9469" stroke="#263238" stroke-width="0.75" stroke-miterlimit="10"/>
<path d="M92.2448 51.3021C91.9443 51.2894 89.1348 49.7212 89.1348 49.7212" stroke="#263238" stroke-width="0.75" stroke-miterlimit="10"/>
<path d="M87.7012 49.5244C87.7012 49.5244 88.8359 50.9972 89.8235 51.293" stroke="#263238" stroke-width="0.75" stroke-miterlimit="10"/>
<path d="M75.1841 41.2413L76.0822 44.6163C76.0822 44.6163 73.2375 58.7652 72.79 61.1478C72.3425 63.5303 72.2402 65.5152 72.2402 65.5152L74.7334 70.4298L77.8754 65.1176C77.8754 65.1176 77.5749 58.4153 77.4758 53.0522C77.3767 47.6891 77.5749 45.1093 77.527 44.9598C77.4758 44.8103 80.669 42.4787 80.669 42.4787C80.669 42.4787 82.5132 40.4429 82.6155 40.0961C82.7146 39.7494 81.3178 40.1948 81.0205 40.4938C80.7201 40.7928 79.8219 41.3367 78.5274 41.0886C77.2297 40.8405 75.5356 39.3995 75.2863 40.0961C75.037 40.7896 75.1872 41.2381 75.1872 41.2381L75.1841 41.2413Z" fill="#263238" stroke="#263238" stroke-width="0.75" stroke-miterlimit="10"/>
<path d="M77.328 35.4842C77.1778 35.5828 75.9823 35.8818 75.5828 36.8743C75.1833 37.8667 73.1376 42.4346 72.5399 43.179C71.9422 43.9233 72.8883 43.6243 73.6874 43.1281C74.4865 42.6318 75.1833 40.6946 75.6339 41.5408C76.0814 42.3837 77.3791 42.7336 77.3791 42.7336C77.3791 42.7336 80.0736 42.2374 80.6714 41.8398C81.2691 41.4421 81.8188 40.895 81.8188 40.895C81.8188 40.895 84.1138 44.3209 84.7627 44.6199C85.4115 44.9189 85.5106 44.4227 85.5617 43.8756C85.6129 43.3285 86.0604 40.103 86.7092 37.9685C87.3581 35.8341 86.1115 35.1375 85.3124 34.2436C84.5133 33.3498 83.6152 33.9446 82.717 34.0464C81.8188 34.145 77.328 35.4874 77.328 35.4874V35.4842Z" fill="#FEF2CA" stroke="#263238" stroke-width="0.75" stroke-miterlimit="10"/>
<path d="M75.9618 20.196C75.9618 20.196 74.402 22.5499 74.6928 23.1256C74.9805 23.7014 74.9805 24.4458 74.6928 24.8497C74.4052 25.2505 74.0568 25.769 74.1718 26.7456C74.2869 27.7221 73.7116 32.6622 74.5746 33.2379C75.4408 33.8137 76.3645 34.1 76.3645 34.1C76.3645 34.1 77.3458 42.3737 77.691 42.1415C78.0362 41.9124 83.0001 36.8579 83.5786 35.7636C84.1572 34.6726 84.8476 33.1202 84.8476 33.1202C84.8476 33.1202 86.8101 29.3858 87.964 27.8367C89.1179 26.2875 90.4475 23.4119 90.0416 21.9201C89.6389 20.425 87.558 19.3339 86.5768 18.5292C85.5955 17.7244 86.2316 15.8858 84.8444 14.9665C83.4604 14.0472 81.7855 13.8181 80.6891 14.2189C79.5928 14.6197 79.5353 15.4818 78.2056 14.6197C76.8791 13.7577 75.607 12.8957 73.5869 13.8722C71.5668 14.8488 71.1609 18.2969 72.3755 19.2162C73.5869 20.1355 75.9554 20.1928 75.9554 20.1928L75.9618 20.196Z" fill="#FFBE9D" stroke="#263238" stroke-width="0.75" stroke-miterlimit="10"/>
<path d="M86.5817 18.5292C85.6004 17.7244 86.2364 15.8858 84.8492 14.9665C83.4652 14.0472 81.7904 13.8181 80.694 14.2189C79.5977 14.6197 79.5401 15.4818 78.2105 14.6197C76.884 13.7577 75.6119 12.8957 73.5918 13.8722C71.5717 14.8488 71.1658 18.2969 72.3804 19.2162C73.5918 20.1355 75.9603 20.1928 75.9603 20.1928C75.9603 20.1928 77.6927 19.388 78.8465 18.7582C80.0004 18.1252 82.599 19.159 83.0593 19.563C83.5196 19.9638 82.8292 19.6775 82.7141 20.425C82.599 21.1725 84.0406 22.3781 84.6766 22.9539C85.3127 23.5296 84.5616 23.9304 84.389 24.678C84.2164 25.4255 84.91 25.7118 85.3127 25.4255C85.7154 25.1392 86.9876 23.5296 87.4479 24.4489C87.9081 25.3682 88.6017 26.7456 87.3328 27.7221C86.0638 28.6987 85.1401 28.4697 85.1401 28.4697C85.1401 28.4697 84.7246 30.9572 85.9264 31.1544C86.5689 30.0061 87.3775 28.6351 87.9689 27.8398C89.1227 26.2875 90.4524 23.4151 90.0465 21.9232C89.6437 20.4282 87.5629 19.3371 86.5817 18.5323V18.5292Z" fill="#263238" stroke="#263238" stroke-width="0.75" stroke-miterlimit="10"/>
<path d="M79.0791 23.2403C79.0791 23.2403 79.6576 23.0113 80.233 23.0685" stroke="#263238" stroke-width="0.5" stroke-miterlimit="10"/>
<path d="M76.1239 23.8064C76.1239 23.8064 75.6189 23.9114 75.3057 24.099" stroke="#263238" stroke-width="0.5" stroke-miterlimit="10"/>
<path d="M76.1441 22.2388C76.1441 22.2388 76.502 22.8877 76.3135 23.5143C76.1249 24.141 74.3413 25.5406 74.3605 25.8142C74.3829 26.0846 75.4089 26.6508 75.3897 26.8798C75.3705 27.1088 75.3066 27.4842 75.3066 27.4842" stroke="#263238" stroke-width="0.75" stroke-miterlimit="10"/>
<path d="M80.0481 24.036C80.2564 24.036 80.4252 23.8295 80.4252 23.5748C80.4252 23.32 80.2564 23.1135 80.0481 23.1135C79.8398 23.1135 79.6709 23.32 79.6709 23.5748C79.6709 23.8295 79.8398 24.036 80.0481 24.036Z" fill="#263238" stroke="#263238" stroke-width="0.5" stroke-miterlimit="10"/>
<path d="M79.3145 24.3287C79.3784 24.3064 80.3021 23.9311 80.9094 23.9724" stroke="#263238" stroke-width="0.75" stroke-miterlimit="10"/>
<path d="M77.9805 21.5602C77.9805 21.5602 79.2174 20.4183 80.1795 20.6473C81.1384 20.8795 81.5028 21.7956 81.3494 21.7988C81.196 21.802 80.7133 21.0895 80.1827 21.0386C79.6553 20.9845 79.2846 21.2326 78.8339 21.4616C78.3832 21.6875 78.0987 21.8529 77.9837 21.5602H77.9805Z" fill="#263238" stroke="#263238" stroke-width="0.5" stroke-miterlimit="10"/>
<path d="M76.2273 22.4671C76.2273 22.3748 76.0803 21.9454 75.5145 22.0281C74.9488 22.1108 74.5173 23.1351 74.6899 23.1255C74.8625 23.116 75.051 22.4671 75.4921 22.4034C75.9332 22.3398 76.2273 23.0301 76.2273 22.4671Z" fill="#263238" stroke="#263238" stroke-width="0.5" stroke-miterlimit="10"/>
<path d="M75.2617 28.7776C75.2617 28.7776 76.1631 28.6727 77.3393 28.5263C78.5156 28.38 80.1745 28.151 80.4462 27.3144C80.7178 26.4778 80.6571 26.0388 80.6571 26.0388" stroke="#263238" stroke-width="0.75" stroke-miterlimit="10"/>
<path d="M80.0273 25.979C80.1104 25.9568 80.7817 25.9568 81.0566 26.0427" stroke="#263238" stroke-width="0.75" stroke-miterlimit="10"/>
<path d="M84.8717 30.1079C84.8717 30.1079 84.648 31.3421 83.5996 32.0069C82.5512 32.6718 74.8512 33.432 75.1037 33.5274C75.3562 33.6229 76.3631 34.1 76.3631 34.1L76.6635 36.8197C76.6635 36.8197 78.1275 35.4265 80.6717 34.1287C83.216 32.8308 84.8078 32.3887 84.8717 30.1079Z" fill="#263238" stroke="#263238" stroke-width="0.5" stroke-miterlimit="10"/>
<path d="M89.1672 67.2526C89.1672 67.2526 87.7352 67.1826 87.3773 67.1094C87.0193 67.0395 85.875 65.9707 85.3732 66.0406C84.8713 66.1106 83.9412 67.1094 83.5832 67.9619C83.2252 68.8176 83.0814 69.2439 83.0814 69.2439C83.0814 69.2439 81.7933 70.3827 82.4389 71.1652C83.0814 71.9477 83.7974 71.6646 83.7974 71.6646C83.7974 71.6646 84.2257 72.3771 84.7978 72.4471C85.37 72.5171 86.0859 72.5171 86.0859 72.5171C86.0859 72.5171 86.8019 72.7302 87.2302 72.6602C87.6585 72.5903 88.09 72.304 88.09 72.304C88.09 72.304 88.5919 72.3739 88.9498 72.0908C89.2119 71.8809 90.4841 70.5926 91.1361 69.9246C91.3695 69.686 91.5261 69.527 91.5261 69.527L89.164 67.2494L89.1672 67.2526Z" fill="#FFBE9D" stroke="#263238" stroke-width="0.75" stroke-miterlimit="10"/>
<path d="M101.115 52.5845C101.115 52.5845 98.4682 55.5047 97.6084 56.9297C96.7486 58.3548 94.102 62.0575 93.1016 63.1962C92.1011 64.335 88.5947 67.112 88.5947 67.112C88.5947 67.112 89.6687 69.3896 90.455 69.7458C91.2413 70.1021 91.8869 70.2453 91.8869 70.2453L94.7477 68.1077C94.7477 68.1077 100.185 63.9788 103.049 61.628C105.909 59.2773 109.917 56.144 110.205 54.7921C110.493 53.4402 110.275 52.7277 108.847 51.6589C107.415 50.5901 105.912 50.1638 105.912 50.1638" fill="#FEF2CA"/>
<path d="M101.115 52.5845C101.115 52.5845 98.4682 55.5047 97.6084 56.9297C96.7486 58.3548 94.102 62.0575 93.1016 63.1962C92.1011 64.335 88.5947 67.112 88.5947 67.112C88.5947 67.112 89.6687 69.3896 90.455 69.7458C91.2413 70.1021 91.8869 70.2453 91.8869 70.2453L94.7477 68.1077C94.7477 68.1077 100.185 63.9788 103.049 61.628C105.909 59.2773 109.917 56.144 110.205 54.7921C110.493 53.4402 110.275 52.7277 108.847 51.6589C107.415 50.5901 105.912 50.1638 105.912 50.1638" stroke="#263238" stroke-width="0.75" stroke-miterlimit="10"/>
<path d="M90.8115 65.3301C90.8115 65.3301 91.454 68.4633 93.6722 68.4633" stroke="#263238" stroke-width="0.75" stroke-miterlimit="10"/>
<path d="M59.6373 42.2582C59.6373 42.2582 59.9346 44.7616 60.0816 45.8909C60.2286 47.0201 60.5738 47.51 60.5738 47.51C60.5738 47.51 58.2565 52.6632 58.1574 52.8127C58.0583 52.959 55.6419 57.476 55.2488 58.0167C54.8556 58.5575 53.9159 60.2752 54.5104 61.3536C55.1017 62.4319 56.0383 64.6427 57.272 64.6904C58.5058 64.7381 60.2318 64.0033 61.4145 63.3162C62.5971 62.6291 62.9935 62.187 63.0926 60.2243C63.1916 58.2617 63.1405 54.7276 63.4857 52.8604C63.8309 50.9963 64.077 49.0305 64.3231 48.2957C64.5693 47.5609 66.0012 47.8058 66.4934 47.51C66.9857 47.2142 67.43 46.578 68.3185 46.1835C69.2071 45.7923 70.4409 45.8877 70.735 45.9863C71.0322 46.0849 71.5724 45.6428 71.4254 45.102C71.2783 44.5612 70.2907 44.2686 69.303 44.3672C68.3154 44.4658 67.43 44.7584 67.1807 44.6121C66.9345 44.4658 66.6884 41.8638 66.6884 41.8638C66.6884 41.8638 63.1852 42.1596 61.9547 42.2073C60.7241 42.255 59.6373 42.255 59.6373 42.255V42.2582Z" fill="#FFBE9D" stroke="#263238" stroke-width="0.75" stroke-miterlimit="10"/>
<path d="M65.0625 40.3439C65.0625 40.3439 65.1104 43.5821 65.1104 43.8779C65.1104 44.1737 65.4077 44.4187 65.6538 44.3678C65.8999 44.3201 66.5424 44.565 66.6894 43.827C66.8365 43.0922 67.1337 41.0278 66.9867 40.5379C66.8397 40.048 65.5068 39.8508 65.0625 40.3407V40.3439Z" fill="#FFBE9D" stroke="#263238" stroke-width="0.75" stroke-miterlimit="10"/>
<path d="M65.0613 40.3434C65.0613 40.3434 63.4823 39.9521 63.038 40.1971C62.5937 40.442 63.2841 43.9284 63.3352 44.221C63.3864 44.5137 64.0736 44.6632 64.3709 44.5645C64.6681 44.4659 65.1092 44.2687 65.1092 43.8775C65.1092 43.4862 65.0613 40.3434 65.0613 40.3434Z" fill="#FFBE9D" stroke="#263238" stroke-width="0.75" stroke-miterlimit="10"/>
<path d="M62.6952 40.2959C62.6952 40.2959 61.6596 40.0987 61.3624 40.4422C61.0651 40.7857 60.9692 41.2756 61.0651 42.1599C61.1642 43.0442 61.6564 44.3675 61.8546 44.6633C62.0528 44.9592 62.692 45.0069 63.0884 44.8606C63.4815 44.7142 63.3345 44.2212 63.3345 44.2212C63.3345 44.2212 63.1363 44.024 63.0884 42.5035C63.0404 40.983 63.0404 40.1973 63.0404 40.1973L62.6952 40.2959Z" fill="#FFBE9D" stroke="#263238" stroke-width="0.75" stroke-miterlimit="10"/>
<path d="M60.9679 40.8845C60.7697 40.9322 59.5359 40.9831 59.488 41.473C59.44 41.9629 59.8811 44.2723 60.0793 44.5172C60.2775 44.7621 60.8177 44.6635 61.0158 44.5649C61.214 44.4663 61.5592 44.32 61.5081 44.0241C61.4601 43.7283 60.9647 40.8813 60.9647 40.8813L60.9679 40.8845Z" fill="#FFBE9D" stroke="#263238" stroke-width="0.75" stroke-miterlimit="10"/>
<path d="M61.3633 50.6025C60.4875 50.5134 60.0017 49.8359 59.7556 49.3237C59.078 50.8251 58.215 52.7242 58.1574 52.8101C58.0583 52.9564 55.6419 57.4734 55.2488 58.0141C54.8556 58.5549 53.9159 60.2726 54.5104 61.351C55.1017 62.4293 56.0383 64.6401 57.272 64.6878C58.5058 64.7355 60.2318 64.0007 61.4145 63.3136C62.5971 62.6265 62.9935 62.1844 63.0926 60.2217C63.1916 58.2591 63.1405 54.725 63.4857 52.8578C63.6551 51.9417 63.8021 51.0065 63.9332 50.1985C63.1693 50.4371 62.1496 50.6788 61.3633 50.5993V50.6025Z" fill="#FEF2CA" stroke="#263238" stroke-width="0.75" stroke-miterlimit="10"/>
<path d="M63.6321 45.2041C63.6321 45.2041 62.7947 45.9389 62.6956 46.5783C62.5965 47.2177 62.9417 47.7552 62.9417 47.7552" fill="#FFBE9D"/>
<path d="M63.6321 45.2041C63.6321 45.2041 62.7947 45.9389 62.6956 46.5783C62.5965 47.2177 62.9417 47.7552 62.9417 47.7552" stroke="#263238" stroke-width="0.75" stroke-miterlimit="10"/>
</g>
<defs>
<clipPath id="clip0_532_4700">
<rect width="149" height="146" fill="white"/>
</clipPath>
</defs>
</svg>
