<svg width="124" height="149" viewBox="0 0 124 149" fill="none" xmlns="http://www.w3.org/2000/svg">
<g clip-path="url(#clip0_532_5238)">
<path d="M123.94 70.4521C123.895 71.1368 123.839 71.8253 123.768 72.5025C123.739 72.8449 123.698 73.1835 123.657 73.5259C122.998 79.1748 121.525 84.4999 119.152 89.1478C118.955 89.5423 118.747 89.9256 118.531 90.3051C116.838 93.3454 114.74 96.0694 112.2 98.3617C111.973 98.5701 111.742 98.771 111.511 98.9646C109.283 100.855 106.735 102.429 103.852 103.616C103.513 103.758 103.175 103.892 102.829 104.022H102.825C96.1927 106.485 87.8712 106.98 77.6674 104.773C77.66 104.773 77.6488 104.77 77.6414 104.77C77.288 104.695 76.9383 104.625 76.5924 104.569C67.1326 102.879 60.0945 106.653 52.6249 110.486C52.3533 110.623 52.0855 110.761 51.8102 110.899C42.8043 115.491 33.0209 119.893 17.5014 114.787C-6.4438 106.906 -1.61534 80.0046 7.33852 60.8252C7.47988 60.5163 7.62496 60.2149 7.77004 59.9097C9.6858 55.9131 11.769 52.2774 13.7852 49.2632C15.3996 46.8443 16.6867 44.3139 17.7506 41.7313C17.892 41.3926 18.0259 41.054 18.1598 40.7117C23.4904 27.0285 23.0292 12.2439 32.5113 6.46472C32.7531 6.31215 33.0023 6.16702 33.259 6.03305C34.5981 5.31484 36.1233 4.77154 37.8717 4.41429C42.5327 3.46537 46.4982 4.31382 49.9503 6.26377C50.2702 6.44983 50.5864 6.6359 50.8951 6.84057C58.1601 11.4996 63.1374 21.0447 67.7873 28.6138C67.9547 28.8966 68.1258 29.1682 68.2932 29.4399C71.9945 35.3716 75.521 39.8744 79.8808 39.4501C80.7624 39.3608 81.6552 39.3013 82.5517 39.2604C82.8642 39.2455 83.1729 39.238 83.4817 39.2306C91.2377 39.0371 99.4067 40.5702 106.363 43.8078C106.653 43.938 106.94 44.0757 107.219 44.2171C113.568 47.3467 118.817 51.935 121.667 57.9709C121.793 58.2352 121.912 58.5031 122.031 58.771C123.508 62.2132 124.215 66.1094 123.936 70.4484L123.94 70.4521Z" fill="#EBEBEB"/>
<path d="M101.831 30.3769C100.893 30.8346 99.9671 31.203 99.0446 31.4933C98.7209 31.5938 98.3973 31.6868 98.0774 31.7649C82.0036 35.8658 68.7272 15.7858 67.6149 6.28535C66.4915 -3.33416 78.9049 -0.439003 90.8161 5.18013C91.1881 5.35503 91.5601 5.52993 91.9283 5.71227C92.3115 5.90206 92.6984 6.09184 93.0815 6.28535C105.9 12.7343 119.545 21.7324 101.831 30.3769Z" fill="#EBEBEB"/>
<path opacity="0.62" d="M77.6637 104.773C77.6637 104.773 77.6451 104.769 77.6377 104.769C77.2843 104.695 76.9346 104.624 76.5887 104.568C74.1372 98.6513 70.5735 92.6898 65.7116 90.5314C62.3971 89.0578 58.7628 89.5155 54.9089 91.8971C43.6115 98.882 34.8771 102.815 28.9997 99.2988C23.3826 95.9384 21.1767 85.7384 22.2443 68.1033C22.9213 56.9245 21.411 48.0865 17.7432 41.7306C17.8845 41.3919 18.0184 41.0533 18.1524 40.7109C22.1662 47.2641 23.829 56.4631 23.1185 68.1554C22.0732 85.4258 24.1414 95.3654 29.4498 98.5396C35.2677 102.026 44.9061 97.0437 54.4439 91.1454C58.5582 88.6001 62.4678 88.12 66.0613 89.7202C71.3696 92.0795 75.1416 98.5285 77.66 104.769L77.6637 104.773Z" fill="white"/>
<path opacity="0.62" d="M52.6223 110.481C52.3508 110.619 52.0829 110.757 51.8076 110.894C51.2348 108.959 50.2825 107.091 48.7201 105.852C46.4584 104.058 43.2407 103.835 39.1562 105.182C30.1168 108.178 23.22 107.895 18.652 104.352C13.5408 100.393 11.3609 92.3067 12.1756 80.3316C12.767 71.5829 10.4346 65.2753 7.33594 60.821C7.47729 60.5121 7.62237 60.2107 7.76745 59.9055C11.1079 64.5125 13.6821 71.1252 13.0535 80.3912C12.2574 92.0536 14.3294 99.8832 19.1913 103.657C23.5102 107.009 30.1391 107.244 38.8772 104.345C43.263 102.894 46.756 103.173 49.2669 105.164C50.9595 106.507 51.9974 108.461 52.6186 110.478L52.6223 110.481Z" fill="white"/>
<path opacity="0.62" d="M93.5156 72.9302C92.0314 84.1759 93.724 92.9247 98.5487 98.9382C100.2 101 102.06 102.507 103.853 103.616C103.515 103.757 103.176 103.891 102.83 104.022H102.827C101.149 102.909 99.434 101.443 97.8791 99.5039C92.887 93.2968 91.1274 84.3211 92.6489 72.8186C94.6204 57.8851 100.833 48.954 106.368 43.8149C106.658 43.9452 106.945 44.0829 107.224 44.2243C101.744 49.2108 95.4909 58.0153 93.5156 72.9339V72.9302Z" fill="white"/>
<path opacity="0.62" d="M106.274 76.7514C105.006 85.288 106.062 91.7184 109.433 95.8564C110.311 96.9319 111.27 97.7506 112.2 98.3609C111.973 98.5693 111.743 98.7702 111.512 98.9637C110.582 98.3236 109.63 97.4901 108.752 96.4109C105.218 92.0719 104.095 85.4145 105.404 76.6211C106.739 67.6826 112.342 61.2783 121.671 57.9775C121.798 58.2417 121.917 58.5097 122.036 58.7776C112.874 61.9705 107.573 68.0101 106.274 76.7514Z" fill="white"/>
<path opacity="0.62" d="M123.77 72.5018C123.74 72.8441 123.699 73.1828 123.658 73.5251C121.802 74.448 120.425 75.7728 119.536 77.4808C117.728 80.964 118.223 85.5076 119.153 89.147C119.153 89.147 119.153 89.1483 119.153 89.1508C118.956 89.5415 118.748 89.9248 118.532 90.3044C117.408 86.397 116.642 81.1463 118.751 77.0752C119.812 75.036 121.489 73.5065 123.766 72.498L123.77 72.5018Z" fill="white"/>
<path opacity="0.62" d="M83.4847 39.2337C83.016 41.325 82.339 43.6918 81.3718 46.0362C77.8081 54.6807 71.9046 59.2206 64.2676 59.2206C63.9625 59.2206 63.6649 59.2169 63.3562 59.202C52.959 58.722 46.9811 42.5084 41.204 26.8306C38.3694 19.1462 35.6241 11.6999 32.5068 6.4678C32.7486 6.31523 32.9979 6.1701 33.2545 6.03613C36.4351 11.3613 39.1878 18.8299 42.0261 26.5255C47.7065 41.939 53.5839 57.8735 63.4008 58.3238C75.8402 58.8969 80.6985 47.1711 82.551 39.2672C82.8635 39.2523 83.1722 39.2448 83.481 39.2374L83.4847 39.2337Z" fill="white"/>
<path opacity="0.62" d="M68.2922 29.4464C67.5407 29.5841 66.7112 29.6697 65.8296 29.6697C63.9919 29.6697 61.9311 29.2826 59.8926 28.1179C54.521 25.0478 51.188 17.7132 49.9492 6.27026C50.2691 6.45633 50.5853 6.64239 50.8941 6.84706C52.1514 17.6053 55.3133 24.4896 60.3278 27.355C62.9504 28.8547 65.6622 28.9477 67.7863 28.6203C67.9537 28.9031 68.1248 29.1747 68.2922 29.4464Z" fill="white"/>
<path opacity="0.62" d="M99.047 31.4933C98.7234 31.5938 98.3998 31.6868 98.0798 31.765C95.7586 29.3387 93.2477 24.4601 92.645 14.6322C92.4181 10.8849 91.7448 7.77019 90.8223 5.18018C91.1943 5.35508 91.5663 5.52998 91.9345 5.71232C92.7417 8.21674 93.3146 11.1491 93.5267 14.5801C94.1404 24.6611 96.7704 29.3276 99.0507 31.4933H99.047Z" fill="white"/>
<path d="M61.2136 149.004C80.9651 149.004 96.9769 147.391 96.9769 145.402C96.9769 143.413 80.9651 141.8 61.2136 141.8C41.462 141.8 25.4502 143.413 25.4502 145.402C25.4502 147.391 41.462 149.004 61.2136 149.004Z" fill="#F9F6ED"/>
<path d="M18.4879 59.8396C18.4879 59.8396 19.1129 60.2676 20.2326 60.9151C23.9004 63.0511 32.8915 67.6096 42.7418 67.5538C43.0543 67.5538 43.3668 67.5464 43.6792 67.5315C44.0326 67.5166 44.3823 67.5017 44.7357 67.4757C45.6806 67.405 46.6254 67.2896 47.5777 67.1296L48.8127 57.6515L45.5429 57.8115L44.6464 57.8562L44.1145 57.8822L35.447 58.3102L22.3566 54.1423L20.4855 53.5432C20.4855 53.5432 18.142 55.1843 18.4916 59.8433L18.4879 59.8396Z" fill="#FEF2CA"/>
<path d="M18.4879 59.8385C18.4879 59.8385 19.1129 60.2665 20.2326 60.914C20.3627 58.3426 21.4676 55.8009 22.3566 54.1338L20.4855 53.5347C20.4855 53.5347 18.142 55.1757 18.4916 59.8348L18.4879 59.8385Z" fill="#FAFCFF"/>
<path opacity="0.47" d="M43.6777 67.535C44.0311 67.5201 44.3808 67.5053 44.7342 67.4792C45.6791 67.4085 46.6239 67.2931 47.5762 67.1331L48.8112 57.655L45.5414 57.815L44.6449 57.8597C44.4031 58.8049 44.1911 59.8208 44.0237 60.9223C43.6629 63.2742 43.5773 65.4883 43.6777 67.5388V67.535Z" fill="#C9C9C9"/>
<path d="M27.2852 50.2206L15.5713 52.0955L18.0743 67.7453L29.7881 65.8705L27.2852 50.2206Z" fill="#BAC1CC"/>
<path d="M28.6167 51.0574H16.7539V66.9063H28.6167V51.0574Z" fill="#EDF1F9"/>
<path d="M20.6719 54.4025C20.6719 55.0538 20.1437 55.5822 19.4927 55.5822C18.8417 55.5822 18.3135 55.0538 18.3135 54.4025C18.3135 53.7513 18.8417 53.2229 19.4927 53.2229C20.1437 53.2229 20.6719 53.7513 20.6719 54.4025Z" fill="#F4D242"/>
<path d="M25.3028 58.1495H18.6553C18.4619 58.1495 18.3057 57.9933 18.3057 57.7998C18.3057 57.6062 18.4619 57.45 18.6553 57.45H25.3028C25.4963 57.45 25.6525 57.6062 25.6525 57.7998C25.6525 57.9933 25.4963 58.1495 25.3028 58.1495Z" fill="#BAC1CC"/>
<path d="M26.8541 59.9808H18.6553C18.4619 59.9808 18.3057 59.8246 18.3057 59.6311C18.3057 59.4375 18.4619 59.2812 18.6553 59.2812H26.8541C27.0475 59.2812 27.2037 59.4375 27.2037 59.6311C27.2037 59.8246 27.0475 59.9808 26.8541 59.9808Z" fill="#BAC1CC"/>
<path d="M26.8541 61.6818H18.6553C18.4619 61.6818 18.3057 61.5255 18.3057 61.332C18.3057 61.1385 18.4619 60.9822 18.6553 60.9822H26.8541C27.0475 60.9822 27.2037 61.1385 27.2037 61.332C27.2037 61.5255 27.0475 61.6818 26.8541 61.6818Z" fill="#BAC1CC"/>
<path d="M26.8541 63.2775H18.6553C18.4619 63.2775 18.3057 63.1212 18.3057 62.9277C18.3057 62.7342 18.4619 62.5779 18.6553 62.5779H26.8541C27.0475 62.5779 27.2037 62.7342 27.2037 62.9277C27.2037 63.1212 27.0475 63.2775 26.8541 63.2775Z" fill="#BAC1CC"/>
<path d="M16.3671 57.0296C16.3671 57.0296 18.9115 56.7542 18.9859 57.4501C19.0603 58.146 17.4496 58.3283 17.4496 58.3283C17.4496 58.3283 19.7931 58.4548 19.8675 58.9795C19.9419 59.5042 17.4496 59.9768 17.4496 59.9768C17.4496 59.9768 19.4472 59.9619 19.4918 60.4718C19.5364 60.9816 17.4868 61.3277 17.4868 61.3277C17.4868 61.3277 19.0603 61.4058 19.0975 61.8449C19.1347 62.284 16.5345 63.0915 16.0211 62.578C15.5078 62.0645 16.2034 61.1118 15.6194 60.5462C15.0316 59.9806 15.0316 59.0614 15.3627 58.6595C15.6938 58.2576 14.5927 57.0445 16.3708 57.0296H16.3671Z" fill="#FEB19E"/>
<path d="M30.7634 102.444L23.915 100.107L24.7148 97.7591C25.0199 96.8585 26.0019 96.3785 26.9021 96.6836L30.4881 97.9079C31.3884 98.2168 31.8682 99.1955 31.5632 100.096L30.7634 102.444ZM25.0682 99.5416L30.1943 101.291L30.7002 99.802C30.8453 99.3778 30.6183 98.9127 30.1943 98.7675L26.6083 97.5432C26.1842 97.3981 25.7192 97.6251 25.5741 98.0493L25.0682 99.5378V99.5416Z" fill="#593131"/>
<path d="M16.5918 98.9866L36.1137 105.65L33.0108 114.747C32.5363 116.138 31.0206 116.883 29.6299 116.408L15.1496 111.466C13.759 110.991 13.0144 109.475 13.4889 108.084L16.5918 98.9866Z" fill="#593131"/>
<path d="M34.8108 107.011L25.5147 105.909C25.1873 105.872 24.8711 105.764 24.5884 105.593L16.5571 100.781C16.1516 100.539 15.9694 100.044 16.1219 99.594L16.8919 97.3315C17.0705 96.8068 17.6396 96.5277 18.1678 96.7063L36.0235 102.802C36.548 102.98 36.827 103.55 36.6484 104.078L35.8784 106.341C35.7259 106.787 35.2795 107.07 34.8108 107.014V107.011Z" fill="#754343"/>
<path d="M31.8603 94.1269C31.8603 94.1269 33.1399 97.6509 32.4257 98.1719C31.7115 98.6929 30.3946 96.7429 29.9817 97.4835C29.5688 98.224 30.9154 99.6269 29.074 99.7348C27.2327 99.8465 25.5847 98.4435 25.7782 96.4936C25.9716 94.5436 27.5451 93.3305 27.5414 92.7426L27.9209 91.522L32.1504 92.9509L31.8603 94.1231V94.1269Z" fill="#FEB19E"/>
<path d="M27.2031 92.6343L32.3143 94.268L33.3894 92.0129L33.408 91.9719L38.4819 81.3626L43.8386 80.049L46.1375 79.487L46.5095 79.394L49.24 78.7242L51.4756 78.1734L48.6559 68.8628C48.6559 68.8628 47.6962 69.0116 46.2045 69.4173C45.6726 69.5624 45.0699 69.7373 44.4189 69.9531C44.2515 70.0089 44.0767 70.0685 43.9019 70.128C43.541 70.2508 43.169 70.3922 42.7822 70.5411C39.9402 71.6389 36.555 73.3879 33.8097 76.0895C29.7178 80.1159 28.1219 86.4719 27.5342 90.0145C27.5268 90.0629 27.5156 90.1113 27.5119 90.1597C27.2664 91.6631 27.2031 92.6269 27.2031 92.6269V92.6343Z" fill="#FEF2CA"/>
<path opacity="0.47" d="M44.4204 69.9605C44.253 70.0163 44.0782 70.0759 43.9033 70.1354C44.4055 74.0688 45.5289 77.2393 46.5147 79.3977L49.2451 78.7278L51.4808 78.1771L48.6611 68.8665C48.6611 68.8665 47.7014 69.0153 46.2097 69.4209C45.6777 69.5661 45.0751 69.741 44.4241 69.9568L44.4204 69.9605Z" fill="#C9C9C9"/>
<path d="M27.5089 90.1675C27.2634 91.6709 27.2002 92.6347 27.2002 92.6347L32.3114 94.2684L33.3864 92.0133L33.405 91.9724C30.6225 91.5146 28.6063 90.7034 27.5089 90.1638V90.1675Z" fill="#9EB2EF"/>
<path d="M108.745 47.1667L104.065 48.1388C103.59 48.2374 103.285 48.7024 103.384 49.1773L105.472 59.2408C105.571 59.7157 106.036 60.0207 106.51 59.9221L111.191 58.95C111.665 58.8514 111.97 58.3865 111.872 57.9116L109.783 47.848C109.684 47.3731 109.22 47.0681 108.745 47.1667Z" fill="#23406D"/>
<path d="M104.774 48.8732L108.38 48.1243C108.711 48.0554 109.032 48.2662 109.101 48.5977L110.811 56.8358L106.011 57.833L104.301 49.5949C104.232 49.2633 104.443 48.9421 104.774 48.8732Z" fill="#A8AFBA"/>
<path d="M101.448 58.4501L102.627 58.0408C102.627 58.0408 103.609 58.558 105.179 57.8324L104.227 53.2478C104.227 53.2478 105.867 52.1053 105.841 51.4206C105.815 50.7322 102.601 50.8996 101.31 54.0292L99.8818 54.6321L101.448 58.4501Z" fill="#FEB19E"/>
<path d="M101.797 59.8386C101.797 59.8386 101.172 60.2666 100.052 60.9141C96.384 63.0501 87.393 67.6087 77.5426 67.5529C77.2301 67.5529 76.9176 67.5454 76.6052 67.5305C76.2555 67.5156 75.9021 67.5008 75.5487 67.4747C74.6039 67.404 73.659 67.2886 72.7067 67.1286L71.4717 57.6505L74.7415 57.8105L75.638 57.8552L76.1699 57.8812L84.8374 58.3092L97.9278 54.1414L99.7989 53.5422C99.7989 53.5422 102.142 55.1833 101.793 59.8424L101.797 59.8386Z" fill="#FEF2CA"/>
<path opacity="0.47" d="M76.6101 67.5338C76.2604 67.5189 75.907 67.504 75.5536 67.478C74.6087 67.4073 73.6639 67.2919 72.7116 67.1319L71.4766 57.6538L74.7464 57.8138L75.6429 57.8585C75.8847 58.8037 76.0967 59.8196 76.2641 60.9211C76.6249 63.2729 76.7105 65.4871 76.6101 67.5375V67.5338Z" fill="#C9C9C9"/>
<path d="M99.8037 53.542L97.9326 54.1411C98.8217 55.8083 99.9228 58.3499 100.057 60.9213C101.176 60.2701 101.801 59.8458 101.801 59.8458C102.147 55.1868 99.8075 53.5457 99.8075 53.5457L99.8037 53.542Z" fill="#9EB2EF"/>
<path d="M94.3936 96.3968C94.5164 96.687 94.3824 97.0182 94.0923 97.141L88.1144 99.6901L87.668 98.6444L93.6459 96.0953C93.936 95.9725 94.2671 96.1065 94.3899 96.3968H94.3936Z" fill="#A1A7AF"/>
<path d="M80.6143 102.273C81.5034 104.361 83.9139 105.328 85.997 104.443C88.0802 103.553 89.0474 101.146 88.1583 99.058C87.2693 96.9741 84.8625 96.0066 82.7793 96.8923C80.6961 97.7816 79.729 100.189 80.6143 102.273ZM87.4181 99.3706C88.1323 101.049 87.3511 102.984 85.6771 103.695C84.0032 104.406 82.0688 103.632 81.3546 101.953C80.6403 100.279 81.4215 98.3398 83.0955 97.6291C84.7695 96.9146 86.7075 97.6961 87.4181 99.3706Z" fill="#BAC1CC"/>
<path d="M88.3516 93.5011L88.7608 94.7366C88.7608 94.7366 88.8686 96.0911 88.8091 96.7684C88.7496 97.4457 88.2474 98.5881 88.9096 98.7518C89.568 98.9156 89.4266 100.359 90.8551 100.032C92.2798 99.7082 94.4411 98.4057 94.3853 97.2447C94.3332 96.0874 92.6332 93.9923 92.6332 93.9923L92.384 92.8945L88.3553 93.5011H88.3516Z" fill="#FEB19E"/>
<path d="M93.0831 92.6343L87.9719 94.268L86.8968 92.0129L86.8782 91.9719L81.8042 81.3626L76.4476 80.049L74.1486 79.487L73.7766 79.394L71.0462 78.7242L68.8105 78.1734L71.6303 68.8628C71.6303 68.8628 72.59 69.0116 74.0817 69.4173C74.6136 69.5624 75.2163 69.7373 75.8672 69.9531C76.0346 70.0089 76.2095 70.0685 76.3843 70.128C76.7451 70.2508 77.1171 70.3922 77.504 70.5411C80.346 71.6389 83.7312 73.3879 86.4765 76.0895C90.5684 80.1159 92.1642 86.4719 92.752 90.0145C92.7594 90.0629 92.7706 90.1113 92.7743 90.1597C93.0198 91.6631 93.0831 92.6269 93.0831 92.6269V92.6343Z" fill="#FEF2CA"/>
<path opacity="0.47" d="M75.8632 69.9608C76.0305 70.0166 76.2054 70.0761 76.3802 70.1357C75.878 74.069 74.7546 77.2396 73.7688 79.3979L71.0384 78.7281L68.8027 78.1773L71.6224 68.8667C71.6224 68.8667 72.5822 69.0156 74.0739 69.4212C74.6058 69.5663 75.2084 69.7412 75.8594 69.957L75.8632 69.9608Z" fill="#C9C9C9"/>
<path d="M86.873 91.976L86.8916 92.0169L87.9667 94.272L93.0779 92.6384C93.0779 92.6384 93.0146 91.6745 92.7691 90.1711C91.6718 90.707 89.6518 91.522 86.873 91.9797V91.976Z" fill="#9EB2EF"/>
<path d="M42.7496 25.0008C42.7496 25.0008 40.4916 24.0072 40.3019 23.1774C40.1159 22.3475 39.7959 20.4385 39.1487 20.312C38.5014 20.1854 38.8771 23.2592 38.8771 23.2592C38.8771 23.2592 38.706 20.338 37.8318 20.0292C36.9614 19.724 37.6867 23.6425 37.5975 23.5123C37.5082 23.3783 37.0916 20.5427 36.6266 20.5985C36.1616 20.6543 36.0016 23.4974 36.66 24.8891C37.3185 26.2809 37.5305 27.5201 37.5305 27.5201L41.6187 27.7917L42.7458 25.0008H42.7496Z" fill="#F49D8C"/>
<path d="M41.9027 27.7762C41.9027 27.7762 43.8928 26.5853 44.4545 23.7981C44.8302 21.93 43.0856 23.5227 42.5127 24.8475C42.5127 24.8475 39.5331 24.6689 39.0234 27.5752L41.9027 27.7724V27.7762Z" fill="#FEB19E"/>
<path d="M37.7247 45.203C39.6851 49.2778 42.9288 52.4297 45.4696 54.4466C45.5254 54.4913 45.5812 54.5285 45.6332 54.5732C45.6556 54.5918 45.6741 54.6029 45.6965 54.6215C47.7164 56.1956 49.2527 57.0292 49.2527 57.0292L55.0632 49.2257L53.1438 47.9493L52.2993 47.3874L51.8083 47.0636L43.9146 41.8241L42.7317 30.076L42.4825 27.5976L37.1183 27.4004C37.1183 27.4004 36.8356 28.3865 36.5455 29.9718C35.8982 33.507 35.2435 40.023 37.7321 45.1993L37.7247 45.203Z" fill="#FEF2CA"/>
<path opacity="0.47" d="M49.2449 57.0288L55.0554 49.2253L53.136 47.9489L52.2915 47.387L51.8005 47.0632C50.1228 48.0047 47.5263 50.111 45.6924 54.6211C47.7123 56.1952 49.2486 57.0288 49.2486 57.0288H49.2449Z" fill="#C9C9C9"/>
<path d="M36.5361 29.9718C38.9206 29.7522 41.1414 29.8936 42.7224 30.0797L42.4731 27.5976L37.109 27.4004C37.109 27.4004 36.8226 28.3865 36.5361 29.9718Z" fill="#9EB2EF"/>
<path d="M44.1303 11.4548C44.1303 9.64251 42.661 8.17261 40.8494 8.17261C39.0378 8.17261 37.5609 9.65368 37.5684 11.4659C37.5684 12.3665 37.9367 13.1814 38.5244 13.7731C38.982 14.2346 39.3205 14.8002 39.4879 15.4291L39.752 16.4078H41.9021L42.1513 15.4812C42.3262 14.8411 42.6721 14.2606 43.1446 13.7955C43.7509 13.2001 44.1266 12.3702 44.1266 11.4548H44.1303Z" fill="#F4D242"/>
<path d="M40.1026 12.1995C39.8682 12.1995 39.6748 12.393 39.6748 12.6274C39.6748 12.8619 39.8682 13.0554 40.1026 13.0554C40.1919 13.0554 40.2774 13.0256 40.3481 12.9772V16.4082H40.5304V12.6274C40.5304 12.393 40.3407 12.1995 40.1026 12.1995ZM40.1026 12.8693C39.9687 12.8693 39.8571 12.7577 39.8571 12.6237C39.8571 12.4897 39.9687 12.3781 40.1026 12.3781C40.2365 12.3781 40.3481 12.4897 40.3481 12.6237C40.3481 12.7577 40.2365 12.8693 40.1026 12.8693Z" fill="white"/>
<path d="M41.3759 12.5718C41.1415 12.5718 40.9481 12.7653 40.9481 12.9997L40.9258 16.4084H41.1081L41.1304 13.3495C41.2011 13.3979 41.2829 13.4277 41.3759 13.4277C41.6102 13.4277 41.8037 13.2342 41.8037 12.9997C41.8037 12.7653 41.6102 12.5718 41.3759 12.5718ZM41.3759 13.2416C41.242 13.2416 41.1304 13.13 41.1304 12.996C41.1304 12.862 41.242 12.7504 41.3759 12.7504C41.5098 12.7504 41.6214 12.862 41.6214 12.996C41.6214 13.13 41.5098 13.2416 41.3759 13.2416Z" fill="white"/>
<path d="M40.8336 17.6399C40.2161 17.6399 39.7139 17.1375 39.7139 16.5198V16.2593H41.9533V16.5198C41.9533 17.1375 41.4511 17.6399 40.8336 17.6399Z" fill="#383838"/>
<path d="M41.9627 16.7759H39.7047C39.6563 16.7759 39.6191 16.7387 39.6191 16.6903C39.6191 16.6419 39.6563 16.6047 39.7047 16.6047H41.9627C42.0111 16.6047 42.0483 16.6419 42.0483 16.6903C42.0483 16.7387 42.0111 16.7759 41.9627 16.7759Z" fill="#838689"/>
<path d="M41.9773 17.1409H39.7193C39.671 17.1409 39.6338 17.1037 39.6338 17.0553C39.6338 17.0069 39.671 16.9697 39.7193 16.9697H41.9773C42.0257 16.9697 42.0629 17.0069 42.0629 17.0553C42.0629 17.1037 42.0257 17.1409 41.9773 17.1409Z" fill="#838689"/>
<path d="M36.8646 11.3095H36.0053C35.9123 11.3095 35.8379 11.2351 35.8379 11.1421C35.8379 11.049 35.9123 10.9746 36.0053 10.9746H36.8646C36.9576 10.9746 37.032 11.049 37.032 11.1421C37.032 11.2351 36.9576 11.3095 36.8646 11.3095Z" fill="#F4D242"/>
<path d="M37.1279 9.76583L36.3653 9.36765C36.2835 9.32672 36.2537 9.22625 36.2946 9.14438C36.3355 9.06251 36.436 9.03274 36.5178 9.07367L37.2804 9.47185C37.3622 9.51278 37.392 9.61326 37.3511 9.69513C37.3102 9.77699 37.2097 9.80677 37.1279 9.76583Z" fill="#F4D242"/>
<path d="M37.1835 12.4968L36.421 12.8949C36.3391 12.9359 36.3094 13.0364 36.3503 13.1182C36.3912 13.2001 36.4916 13.2299 36.5735 13.1889L37.3361 12.7907C37.4179 12.7498 37.4477 12.6493 37.4067 12.5675C37.3658 12.4856 37.2654 12.4558 37.1835 12.4968Z" fill="#F4D242"/>
<path d="M38.0589 8.48886L37.4488 7.87857C37.3856 7.8153 37.3856 7.70739 37.4488 7.64413C37.512 7.58086 37.6199 7.58086 37.6832 7.64413L38.2932 8.25442C38.3565 8.31768 38.3565 8.42559 38.2932 8.48886C38.23 8.55212 38.1221 8.55212 38.0589 8.48886Z" fill="#F4D242"/>
<path d="M39.1119 7.67773L38.8143 6.87021C38.7846 6.78462 38.8255 6.68787 38.9111 6.6581C38.9966 6.62833 39.0933 6.66926 39.1231 6.75485L39.4207 7.56237C39.4505 7.64796 39.4095 7.74471 39.324 7.77448C39.2384 7.80425 39.1417 7.76332 39.1119 7.67773Z" fill="#F4D242"/>
<path d="M44.8637 11.1982H45.723C45.816 11.1982 45.8904 11.1238 45.8904 11.0307C45.8904 10.9377 45.816 10.8633 45.723 10.8633H44.8637C44.7707 10.8633 44.6963 10.9377 44.6963 11.0307C44.6963 11.1238 44.7707 11.1982 44.8637 11.1982Z" fill="#F4D242"/>
<path d="M44.5979 9.65792L45.3605 9.25974C45.4423 9.21881 45.4721 9.11834 45.4311 9.03647C45.3902 8.9546 45.2898 8.92483 45.208 8.96576L44.4454 9.36394C44.3635 9.40487 44.3338 9.50535 44.3747 9.58722C44.4156 9.66908 44.516 9.69886 44.5979 9.65792Z" fill="#F4D242"/>
<path d="M44.5471 12.3889L45.3097 12.787C45.3915 12.828 45.4213 12.9284 45.3804 13.0103C45.3394 13.0922 45.239 13.122 45.1572 13.081L44.3946 12.6828C44.3127 12.6419 44.283 12.5414 44.3239 12.4596C44.3648 12.3777 44.4653 12.3479 44.5471 12.3889Z" fill="#F4D242"/>
<path d="M43.6714 8.38095L44.2815 7.77066C44.3447 7.70739 44.3447 7.59948 44.2815 7.53622C44.2183 7.47295 44.1104 7.47295 44.0471 7.53622L43.4371 8.14651C43.3738 8.20977 43.3738 8.31768 43.4371 8.38095C43.5003 8.44421 43.6082 8.44421 43.6714 8.38095Z" fill="#F4D242"/>
<path d="M42.6192 7.56982L42.9168 6.7623C42.9465 6.67671 42.9056 6.57996 42.8201 6.55019C42.7345 6.52042 42.6378 6.56135 42.608 6.64694L42.3104 7.45446C42.2807 7.54005 42.3216 7.6368 42.4072 7.66657C42.4927 7.69634 42.5894 7.65541 42.6192 7.56982Z" fill="#F4D242"/>
<path d="M40.6816 7.31296V6.45335C40.6816 6.36031 40.756 6.28589 40.849 6.28589C40.942 6.28589 41.0164 6.36031 41.0164 6.45335V7.31296C41.0164 7.40599 40.942 7.48042 40.849 7.48042C40.756 7.48042 40.6816 7.40599 40.6816 7.31296Z" fill="#F4D242"/>
<path d="M77.6396 24.8929C77.6396 24.8929 79.8976 23.8993 80.0874 23.0694C80.2734 22.2396 80.5933 20.3306 81.2405 20.2041C81.8878 20.0775 81.5121 23.1513 81.5121 23.1513C81.5121 23.1513 81.6869 20.2301 82.5574 19.9212C83.4278 19.6161 82.7025 23.5346 82.7917 23.4044C82.881 23.2704 83.2977 20.4348 83.7626 20.4906C84.2276 20.5464 84.3876 23.3895 83.7292 24.7812C83.0707 26.173 82.8587 27.4122 82.8587 27.4122L78.7705 27.6838L77.6434 24.8929H77.6396Z" fill="#F49D8C"/>
<path d="M78.4911 27.6646C78.4911 27.6646 76.5009 26.4738 75.9392 23.6865C75.5635 21.8185 77.3081 23.4112 77.881 24.7359C77.881 24.7359 80.8607 24.5573 81.3703 27.4636L78.4911 27.6609V27.6646Z" fill="#FEB19E"/>
<path d="M82.5612 45.2042C80.6008 49.279 77.3571 52.4309 74.8163 54.4479C74.7605 54.4925 74.7047 54.5297 74.6527 54.5744C74.6303 54.593 74.6117 54.6042 74.5894 54.6228C72.5695 56.1969 71.0332 57.0304 71.0332 57.0304L65.2227 49.2269L67.1421 47.9505L67.9866 47.3886L68.4776 47.0648L76.3713 41.8253L77.5542 30.0772L77.8034 27.5988L83.1676 27.4016C83.1676 27.4016 83.4503 28.3878 83.7404 29.973C84.3877 33.5082 85.0424 40.0242 82.5538 45.2005L82.5612 45.2042Z" fill="#FEF2CA"/>
<path opacity="0.47" d="M71.04 57.03L65.2295 49.2265L67.149 47.9501L67.9934 47.3882L68.4844 47.0645C70.1621 48.0059 72.7586 50.1122 74.5925 54.6224C72.5726 56.1965 71.0363 57.03 71.0363 57.03H71.04Z" fill="#C9C9C9"/>
<path d="M77.8117 27.5988L77.5625 30.0809C79.1435 29.8911 81.3643 29.7497 83.7487 29.973C83.4586 28.3878 83.1759 27.4016 83.1759 27.4016L77.8117 27.5988Z" fill="#9EB2EF"/>
<path d="M78.6302 16.1141C80.5861 16.1141 82.1716 14.528 82.1716 12.5715C82.1716 10.6149 80.5861 9.02881 78.6302 9.02881C76.6744 9.02881 75.0889 10.6149 75.0889 12.5715C75.0889 14.528 76.6744 16.1141 78.6302 16.1141Z" fill="#EFA245"/>
<path d="M78.6295 8.58618C76.4311 8.58618 74.6455 10.3687 74.6455 12.5717C74.6455 14.7747 76.4273 16.5572 78.6295 16.5572C80.8317 16.5572 82.6136 14.7747 82.6136 12.5717C82.6136 10.3687 80.8317 8.58618 78.6295 8.58618ZM78.6295 15.8799C78.2873 15.8799 77.9562 15.8278 77.6475 15.731C76.6133 15.4073 75.7912 14.5886 75.4713 13.5541C75.3746 13.2415 75.3225 12.914 75.3225 12.5717C75.3225 12.4563 75.33 12.3447 75.3411 12.233C75.4788 10.9008 76.4088 9.7956 77.6512 9.40858C77.9637 9.31183 78.291 9.25973 78.6333 9.25973C80.4598 9.25973 81.944 10.7445 81.944 12.5717C81.944 14.3988 80.4598 15.8836 78.6333 15.8836L78.6295 15.8799Z" fill="#F4D242"/>
<path d="M78.8927 12.3183V11.3582C79.3466 11.4363 79.3466 11.7191 79.3466 11.8196H79.8785C79.8785 11.2577 79.514 10.8967 78.8927 10.8186V10.4353H78.3608V10.8186C77.7358 10.8967 77.375 11.2577 77.375 11.8196C77.375 12.3815 77.7396 12.7425 78.3608 12.8206V13.7807C77.9069 13.7026 77.9069 13.4198 77.9069 13.3193H77.375C77.375 13.8812 77.7396 14.2422 78.3608 14.3203V14.7036H78.8927V14.3203C79.5177 14.2422 79.8785 13.8812 79.8785 13.3193C79.8785 12.7574 79.514 12.3964 78.8927 12.3183ZM77.9069 11.8196C77.9069 11.7191 77.9069 11.4363 78.3608 11.3582V12.2811C77.9069 12.2029 77.9069 11.9201 77.9069 11.8196ZM78.8927 13.7807V12.8579C79.3466 12.936 79.3466 13.2188 79.3466 13.3193C79.3466 13.4198 79.3466 13.7026 78.8927 13.7807Z" fill="#F4D242"/>
<path d="M59.9967 139.328H51.6455C51.6455 139.328 49.261 109.874 50.1092 84.1567H60.6552L62.2027 106.443C62.2027 106.443 60.2162 128.008 59.9967 139.328Z" fill="#263238"/>
<path d="M58.0667 139.343C57.1292 126.177 59.815 98.7851 59.8411 98.5098L60.28 98.5544C60.254 98.8298 57.5719 126.185 58.5056 139.314L58.0667 139.343Z" fill="#455A64"/>
<path d="M59.7774 144.345C59.7812 144.81 59.7514 145.171 59.6658 145.338C59.2604 146.142 45.638 145.96 44.8345 145.922C44.1314 145.893 44.2356 143.645 47.5426 142.354C48.0225 142.164 48.5693 141.996 49.1943 141.859C52.4901 141.126 52.3785 139.332 52.3785 139.332L59.2269 139.351C59.2269 139.351 59.7551 142.596 59.7774 144.348V144.345Z" fill="#263238"/>
<path d="M59.7774 144.345C59.7812 144.81 59.7514 145.171 59.6658 145.338C59.2604 146.142 45.638 145.96 44.8345 145.922C44.1314 145.893 44.2356 143.645 47.5426 142.354C48.3461 142.506 49.2129 143.135 49.5588 144.992C49.5588 144.992 56.6416 145.07 59.7774 144.345Z" fill="#455A64"/>
<path d="M75.1087 145.316C74.0746 145.773 70.5369 145.915 68.4426 145.677C67.747 145.602 67.2113 145.479 66.9807 145.316C66.0433 144.657 67.0328 139.347 67.0328 139.347H72.0882C72.0882 139.347 71.9766 141.308 73.3008 141.914C73.7324 142.112 74.2197 142.476 74.6326 142.904C74.6586 142.93 74.6847 142.956 74.707 142.982C75.0009 143.288 75.1534 143.526 75.1534 143.526C75.663 144.255 75.823 145.003 75.1087 145.316Z" fill="#263238"/>
<path d="M75.1084 145.315C74.0743 145.773 70.5367 145.914 68.4423 145.676C68.2229 143.064 70.3655 141.799 72.1362 141.799C73.2782 141.799 74.1264 142.409 74.6286 142.904C74.6546 142.93 74.6807 142.956 74.703 142.982C74.9968 143.287 75.1494 143.525 75.1494 143.525C75.659 144.255 75.8189 145.003 75.1047 145.315H75.1084Z" fill="#455A64"/>
<path d="M58.2861 85.2135L65.4954 139.332H73.2998L71.6481 92.403C71.6481 92.403 72.2917 88.3915 72.1615 84.1604L58.2861 85.2135Z" fill="#263238"/>
<path d="M71.3582 139.336L70.9192 139.321C71.4326 124.198 68.8212 92.8422 68.7951 92.5296C69.2304 87.7627 68.5533 85.2173 68.5459 85.1913L68.97 85.0759C68.9997 85.1801 69.6768 87.7143 69.2341 92.5334C69.2601 92.8087 71.8752 124.187 71.3619 139.34L71.3582 139.336Z" fill="#455A64"/>
<path d="M47.8968 72.0702C47.8968 72.0702 46.3195 76.4651 42.3652 74.1579C38.4109 71.8507 42.979 61.6804 42.979 61.6804L47.8968 72.0702Z" fill="#FEF2CA"/>
<path d="M44.675 59.5147C44.675 59.5147 44.2919 58.2234 46.1593 57.8402C48.0267 57.4569 48.8227 58.6365 49.3175 59.7641L44.675 59.5185V59.5147Z" fill="#FEB19E"/>
<path d="M72.4641 68.2525C71.0393 71.7952 71.1398 72.5431 71.1398 72.5431L72.159 84.1572C72.159 84.1572 55.5012 89.7615 50.111 84.1572L49.5828 74.7834L49.315 70.0127L49.2629 69.7559L47.1611 59.6415L49.315 59.7568C48.943 58.9084 48.3924 58.019 47.3434 57.8032C48.0204 56.1063 49.5902 52.6082 51.4651 51.2351C53.9835 49.3968 59.1728 47.1715 66.7577 49.341C74.3352 51.5142 73.8814 64.7061 72.4603 68.2488L72.4641 68.2525Z" fill="#FEF2CA"/>
<path d="M71.1407 72.5431C71.1407 72.5431 70.9138 78.7391 65.2744 80.4211C59.635 82.1031 55.1302 75.3639 54.1779 74.8243C53.3855 74.3815 50.5398 74.6717 49.5875 74.7833L49.3197 70.0127L49.2676 69.7559L54.0216 68.8628L61.216 75.6541L71.1445 72.5357L71.1407 72.5431Z" fill="#FEF2CA"/>
<path d="M66.1511 61.3716C66.1511 61.3716 60.1137 63.2397 51.7959 61.3716V69.5956C51.7959 69.5956 60.8762 71.5195 67.6167 69.5956L66.1511 61.3716Z" fill="#A9D0FF"/>
<path opacity="0.47" d="M67.6178 56.2556C67.6178 56.2556 63.4701 72.2348 56.6068 67.1366L54.6836 69.2764L64.2587 75.2267L67.6178 56.2593V56.2556Z" fill="#3150BC"/>
<path d="M62.152 46.8996C62.152 46.8996 64.2873 43.7142 63.3796 40.0897C62.4719 36.4651 60.4409 37.2875 60.4409 37.2875C60.4409 37.2875 61.9251 34.9245 59.3956 33.7709C56.866 32.6173 55.0916 33.5514 56.8809 34.21C56.8809 34.21 53.1907 34.21 51.0481 36.5172C48.9054 38.8244 47.369 36.4614 46.7627 36.9563C46.1601 37.4513 47.2835 39.0477 48.247 39.2077C48.247 39.2077 45.9406 38.7128 45.7769 39.2077C45.6132 39.7026 47.0826 42.8322 50.4343 42.7764C50.4343 42.7764 50.0065 44.8045 53.4102 46.8959C56.8177 48.9872 62.152 46.8959 62.152 46.8959V46.8996Z" fill="url(#paint0_linear_532_5238)"/>
<path d="M63.3797 49.7617C63.3797 49.7617 63.2532 50.2417 62.9816 50.9004C62.3455 52.4261 60.9134 54.9417 58.3801 54.845C57.5133 54.8152 57.2269 54.0858 57.1413 53.1555C57.0149 51.8865 57.2418 50.2455 56.8438 49.4863L59.3063 46.3158L60.9394 44.2095L61.2147 43.8523C61.2147 43.8523 61.8694 46.74 63.3797 49.7617Z" fill="#FEB19E"/>
<path d="M62.9787 50.8997C62.3426 52.4254 60.9104 54.941 58.3771 54.8442C57.5104 54.8144 57.224 54.0851 57.1384 53.1548C57.0119 51.8858 57.2389 50.2447 56.8408 49.4856L59.3034 46.315L61.1783 45.6638C61.1783 45.6638 61.1262 49.4111 58.1688 51.763C58.1688 51.763 59.6791 52.2989 61.6916 50.2708C62.112 49.8465 62.5472 50.2261 62.9787 50.8997Z" fill="#FF856A"/>
<path d="M62.367 47.4766L62.6348 48.1427C62.6348 48.1427 61.783 51.6593 58.8145 52.7012L59.0934 56.0541C59.0934 56.0541 63.4532 53.9404 64.2493 49.3521C64.2493 49.3521 63.3862 47.417 62.3595 47.4803L62.367 47.4766Z" fill="#23406D"/>
<path d="M57.637 52.5489L57.2762 56.006C57.2762 56.006 54.6722 54.1342 55.539 50.2715C55.539 50.2715 56.5248 50.8781 57.265 50.7404C57.265 50.7404 56.9005 51.4214 57.6407 52.5489H57.637Z" fill="#23406D"/>
<path d="M51.4688 42.5046C52.2462 45.8165 53.165 48.9945 55.9066 50.4867C56.6134 50.87 57.4578 50.8514 58.1423 50.4272C59.4703 49.6085 61.494 47.7293 61.2187 43.9708C61.2187 43.9708 62.1263 44.302 62.2751 42.5046C62.4202 40.7109 61.8064 40.3983 61.1406 40.5435C60.4747 40.6886 60.5379 43.0888 60.5379 43.0888C60.5379 43.0888 58.1944 42.5864 57.6736 39.4531C57.6736 39.4531 56.6841 40.856 55.8322 41.2133C54.9804 41.5705 55.3114 39.9778 55.3114 39.9778C55.3114 39.9778 54.6976 42.259 51.4762 42.5046H51.4688Z" fill="#FEB19E"/>
<path d="M51.4016 58.8918L44.281 59.3974C43.7051 59.4383 43.2714 59.9384 43.3123 60.5145L44.1053 71.6911C44.1462 72.2672 44.6461 72.7011 45.222 72.6602L52.3426 72.1546C52.9185 72.1137 53.3522 71.6135 53.3113 71.0375L52.5183 59.8608C52.4774 59.2848 51.9774 58.8509 51.4016 58.8918Z" fill="#BAC1CC"/>
<path d="M50.9895 58.8955L43.8688 59.4011C43.293 59.442 42.8593 59.9421 42.9002 60.5182L43.6932 71.6948C43.7341 72.2709 44.234 72.7047 44.8099 72.6638L51.9305 72.1582C52.5064 72.1173 52.94 71.6172 52.8992 71.0411L52.1062 59.8645C52.0653 59.2884 51.5653 58.8546 50.9895 58.8955Z" fill="#E1E7F4"/>
<path d="M48.5383 65.7625C48.5941 66.544 48.2035 67.2064 47.6716 67.2436C47.1359 67.2808 46.6597 66.6779 46.6039 65.9002C46.5481 65.1187 46.9387 64.4563 47.4707 64.4191C48.0064 64.3819 48.4825 64.9847 48.5383 65.7625Z" fill="#F8FBFF"/>
<path d="M55.3751 66.615C55.3751 66.615 54.9175 63.7421 52.7823 63.6342V64.7915C52.7823 64.7915 51.3873 65.1227 50.5355 64.1589C49.6836 63.1988 48.7759 62.4657 48.9991 65.1265C49.2186 67.7872 51.086 69.0784 53.091 68.9408L53.8611 69.5994L56.0595 67.3667L55.3825 66.615H55.3751Z" fill="#FEB19E"/>
<path d="M66.2254 78.4445C61.0733 80.4317 56.4011 74.8721 54.2621 71.7499C53.4809 70.6112 53.042 69.7962 53.042 69.7962L56.1891 66.7932L57.9523 68.2259L63.3797 72.6542C63.3797 72.6542 64.3208 68.3338 65.128 63.2766C65.9315 58.2193 67.2558 55.0302 70.0309 55.4395C75.5252 56.2433 73.2561 75.7317 66.2254 78.4445Z" fill="#FEF2CA"/>
<path d="M57.9505 68.2255C57.4074 69.0925 56.2877 70.5066 54.2641 71.7458C53.4829 70.6071 53.0439 69.7921 53.0439 69.7921L56.191 66.7891L57.9542 68.2218L57.9505 68.2255Z" fill="#9EB2EF"/>
</g>
<defs>
<linearGradient id="paint0_linear_532_5238" x1="55.8096" y1="44.7078" x2="53.684" y2="36.2087" gradientUnits="userSpaceOnUse">
<stop stop-color="#1F3A65"/>
<stop offset="1" stop-color="#294A7A"/>
</linearGradient>
<clipPath id="clip0_532_5238">
<rect width="124" height="149" fill="white"/>
</clipPath>
</defs>
</svg>
