<svg width="128" height="60" viewBox="0 0 128 60" fill="none" xmlns="http://www.w3.org/2000/svg">
<path d="M90.1365 21.308C88.7564 23.9164 87.9697 26.8698 87.9697 30.0164C87.9697 40.3396 96.3469 48.7168 106.656 48.7168C116.966 48.7168 125.343 40.3396 125.343 30.0164C125.343 26.8698 124.556 23.9164 123.19 21.308H90.1227H90.1365Z" fill="#261E1C"/>
<path d="M109.461 31.1744C109.461 34.8179 106.508 37.7575 102.878 37.7575C99.2483 37.7575 96.2949 34.8041 96.2949 31.1744C96.2949 27.5447 99.2483 24.5913 102.878 24.5913C106.508 24.5913 109.461 27.5447 109.461 31.1744Z" fill="white"/>
<path d="M118.474 28.4017C118.474 30.5133 116.763 32.2246 114.651 32.2246C112.539 32.2246 110.828 30.5133 110.828 28.4017C110.828 26.2902 112.539 24.5789 114.651 24.5789C116.763 24.5789 118.474 26.2902 118.474 28.4017Z" fill="white"/>
<path d="M87.749 21.308H125.591" stroke="#261E1C" stroke-width="3" stroke-linecap="round" stroke-linejoin="round"/>
<path d="M2.62217 30.0164C2.62217 40.3396 10.9856 48.7168 21.3087 48.7168C31.6319 48.7168 39.9953 40.3396 39.9953 30.0164C39.9953 26.8698 39.2086 23.9164 37.8285 21.308H4.77517C3.39507 23.9164 2.6084 26.8698 2.6084 30.0164H2.62217Z" fill="#261E1C"/>
<path d="M24.0959 31.1744C24.0959 34.8179 21.1424 37.7575 17.5127 37.7575C13.8831 37.7575 10.9297 34.8041 10.9297 31.1744C10.9297 27.5447 13.8831 24.5913 17.5127 24.5913C21.1424 24.5913 24.0959 27.5447 24.0959 31.1744Z" fill="white"/>
<path d="M33.1077 28.4017C33.1077 30.5133 31.3963 32.2246 29.2848 32.2246C27.1732 32.2246 25.4619 30.5133 25.4619 28.4017C25.4619 26.2902 27.1732 24.5789 29.2848 24.5789C31.3963 24.5789 33.1077 26.2902 33.1077 28.4017Z" fill="white"/>
<path d="M2.3877 21.308H40.23" stroke="#261E1C" stroke-width="3" stroke-linecap="round" stroke-linejoin="round"/>
<path d="M21.5333 52.249C20.1394 55.2852 14.2602 55.575 8.3948 52.8838C2.52937 50.1926 -1.08648 45.5555 0.293616 42.5193C1.68752 39.4831 7.56673 39.207 13.4322 41.8844C19.2976 44.5756 22.9134 49.2128 21.5195 52.249H21.5333Z" fill="#FCA695"/>
<path d="M106.467 52.249C107.861 55.2852 113.74 55.575 119.605 52.8838C125.471 50.1926 129.086 45.5555 127.706 42.5193C126.312 39.4831 120.433 39.207 114.568 41.8844C108.702 44.5756 105.087 49.2128 106.48 52.249H106.467Z" fill="#FCA695"/>
<path d="M50.3789 57.9241H77.6083" stroke="#261E1C" stroke-width="3" stroke-linecap="round" stroke-linejoin="round"/>
<path d="M94.2812 13.1788L109.669 2" stroke="#261E1C" stroke-width="3" stroke-linecap="round" stroke-linejoin="round"/>
<path d="M33.7073 13.1788L18.333 2" stroke="#261E1C" stroke-width="3" stroke-linecap="round" stroke-linejoin="round"/>
</svg>
