<svg width="135" height="55" viewBox="0 0 135 55" fill="none" xmlns="http://www.w3.org/2000/svg">
<path d="M16.9247 27.7642C16.9247 32.4356 13.1337 36.2266 8.46237 36.2266C3.791 36.2266 0 32.4356 0 27.7642C0 23.0929 3.791 19.3019 8.46237 19.3019C13.1337 19.3019 16.9247 23.0929 16.9247 27.7642Z" fill="#FCA695"/>
<path d="M117.737 27.7647C117.737 32.4361 121.528 36.2271 126.2 36.2271C130.871 36.2271 134.662 32.4361 134.662 27.7647C134.662 23.0934 130.871 19.3024 126.2 19.3024C121.528 19.3024 117.737 23.0934 117.737 27.7647Z" fill="#FCA695"/>
<path d="M29.8103 14.8822C29.8103 21.9971 24.043 27.7644 16.9281 27.7644C9.81324 27.7644 4.0459 21.9971 4.0459 14.8822C4.0459 7.76734 9.81324 2 16.9281 2C24.043 2 29.8103 7.76734 29.8103 14.8822Z" fill="#261E1C" stroke="#261E1C" stroke-width="3" stroke-linecap="round" stroke-linejoin="round"/>
<path d="M24.3827 17.9973C23.2508 19.1472 21.3822 19.1472 20.2503 17.9973C19.1184 16.8475 19.1184 14.9969 20.2503 13.865C21.4002 12.7151 23.2508 12.7151 24.3827 13.865C25.5325 15.0148 25.5325 16.8654 24.3827 17.9973Z" fill="white"/>
<path d="M19.3718 12.2275C18.7789 12.8204 17.8266 12.8204 17.2337 12.2275C16.6408 11.6346 16.6408 10.6824 17.2337 10.0895C17.8266 9.49655 18.7789 9.49655 19.3718 10.0895C19.9647 10.6824 19.9647 11.6346 19.3718 12.2095V12.2275Z" fill="white"/>
<path d="M104.857 14.8822C104.857 21.9971 110.625 27.7644 117.74 27.7644C124.854 27.7644 130.622 21.9971 130.622 14.8822C130.622 7.76734 124.854 2 117.74 2C110.625 2 104.857 7.76734 104.857 14.8822Z" fill="#261E1C" stroke="#261E1C" stroke-width="3" stroke-linecap="round" stroke-linejoin="round"/>
<path d="M124.765 17.9973C123.633 19.1472 121.765 19.1472 120.633 17.9973C119.483 16.8475 119.483 14.9969 120.633 13.865C121.783 12.7151 123.633 12.7151 124.765 13.865C125.915 15.0148 125.915 16.8654 124.765 17.9973Z" fill="white"/>
<path d="M119.771 12.2275C119.178 12.8204 118.226 12.8204 117.633 12.2275C117.04 11.6346 117.04 10.6824 117.633 10.0895C118.226 9.49655 119.178 9.49655 119.771 10.0895C120.364 10.6824 120.364 11.6346 119.771 12.2275Z" fill="white"/>
<path d="M58.088 51.5489C57.9981 43.5717 64.3763 37.0317 72.3536 36.9419C74.7612 36.906 77.0429 37.4809 79.0552 38.505L78.9115 26.3774C78.5162 26.4134 78.1389 26.4673 77.7436 26.4673C71.3475 26.4673 66.1551 21.2748 66.1551 14.8787C66.1551 21.2748 60.9627 26.4673 54.5665 26.4673C54.1173 26.4673 53.6861 26.4134 53.2549 26.3595L53.4525 42.314C53.5064 46.5542 55.6085 50.2733 58.8066 52.573C58.5731 52.3934 58.3215 52.2317 58.088 52.034V51.531V51.5489Z" fill="#261E1C"/>
<path d="M79.0891 42.0271L79.0532 38.5056C77.0409 37.4815 74.7591 36.9066 72.3515 36.9425C64.3743 37.0323 57.9961 43.5723 58.0859 51.5495V52.0526C60.3497 53.9212 63.2603 55.0351 66.4225 54.9992C73.5014 54.9093 79.1789 49.106 79.0891 42.0091V42.0271Z" fill="#FE6661"/>
<path d="M84.4628 24.3112C82.5584 25.6767 80.2406 26.4673 77.7253 26.4673C71.3291 26.4673 66.1367 21.2748 66.1367 14.8787C66.1367 21.2748 60.9443 26.4673 54.5481 26.4673C52.0327 26.4673 49.715 25.6588 47.8105 24.3112" stroke="#261E1C" stroke-width="2" stroke-linecap="round" stroke-linejoin="round"/>
</svg>
