<svg width="130" height="48" viewBox="0 0 130 48" fill="none" xmlns="http://www.w3.org/2000/svg">
<path d="M16.3388 27.3966C16.3388 31.9063 12.6791 35.566 8.1694 35.566C3.65974 35.566 0 31.9063 0 27.3966C0 22.887 3.65974 19.2272 8.1694 19.2272C12.6791 19.2272 16.3388 22.887 16.3388 27.3966Z" fill="#FCA695"/>
<path d="M113.661 27.3966C113.661 31.9063 117.321 35.566 121.831 35.566C126.34 35.566 130 31.9063 130 27.3966C130 22.887 126.34 19.2272 121.831 19.2272C117.321 19.2272 113.661 22.887 113.661 27.3966Z" fill="#FCA695"/>
<path d="M44.4209 16.2949H85.5802" stroke="#FE6661" stroke-width="2" stroke-linecap="round" stroke-linejoin="round"/>
<path d="M50.2988 22.1769H79.6983" stroke="#FE6661" stroke-width="2" stroke-linecap="round" stroke-linejoin="round"/>
<path d="M52.9187 31.6826C52.9187 35.6025 55.4857 38.9327 59.0241 40.0775V45.4891C59.0241 46.5298 59.8566 47.3623 60.8973 47.3623C61.938 47.3623 62.7706 46.5298 62.7706 45.4891V40.4938H68.2515C73.1254 40.4938 77.0627 36.5392 77.0627 31.6826C77.0627 26.8261 52.9014 26.8087 52.9014 31.6826H52.9187Z" fill="#261E1C"/>
<path d="M19.201 15.1331C22.0282 13.9016 21.0049 10.3979 18.5419 9.65209C15.4198 8.69812 12.6794 11.456 12.5753 14.3872C12.4886 18.7408 17.0329 20.3538 20.71 19.7815C24.5953 19.1224 26.8501 15.8269 26.8674 11.8376C26.9194 1.23986 14.2751 -1.22313 8.32579 6.54735C5.29044 10.5193 4.4232 17.1624 7.9442 21.1864C10.7888 24.4299 14.7954 26.5633 19.6866 25.7481C22.5138 25.2798 25.4625 23.58 27.0755 21.117" stroke="#261E1C" stroke-width="2.5" stroke-linecap="round" stroke-linejoin="round"/>
<path d="M111.04 15.1331C108.195 13.9016 109.236 10.3979 111.699 9.65209C114.821 8.69812 117.561 11.456 117.666 14.3872C117.752 18.7408 113.225 20.3538 109.531 19.7815C105.646 19.1224 103.391 15.8269 103.373 11.8376C103.321 1.23986 115.966 -1.22313 121.915 6.54735C124.95 10.5193 125.818 17.1624 122.297 21.1864C119.452 24.4299 115.445 26.5633 110.572 25.7481C107.744 25.2798 104.796 23.58 103.183 21.117" stroke="#261E1C" stroke-width="2.5" stroke-linecap="round" stroke-linejoin="round"/>
</svg>
