<svg width="24" height="25" viewBox="0 0 24 25" fill="none" xmlns="http://www.w3.org/2000/svg">
<path d="M15.999 9H17.999C17.999 6.163 15.244 4.869 12.999 4.571V2.5H10.999V4.571C8.75402 4.869 5.99902 6.163 5.99902 9C5.99902 11.706 8.66502 13.113 10.999 13.43V18.4C9.55102 18.149 7.99902 17.376 7.99902 16H5.99902C5.99902 18.589 8.42402 20.119 10.999 20.436V22.5H12.999V20.43C15.244 20.132 17.999 18.837 17.999 16C17.999 13.163 15.244 11.869 12.999 11.571V6.6C14.329 6.839 15.999 7.541 15.999 9ZM7.99902 9C7.99902 7.541 9.66902 6.839 10.999 6.6V11.399C9.62802 11.146 7.99902 10.397 7.99902 9ZM15.999 16C15.999 17.459 14.329 18.161 12.999 18.4V13.6C14.329 13.839 15.999 14.541 15.999 16Z" fill="white"/>
</svg>
