<svg width="125" height="65" viewBox="0 0 125 65" fill="none" xmlns="http://www.w3.org/2000/svg">
<path d="M39.0772 34.1725C39.0772 44.2537 30.9098 52.4211 20.8286 52.4211C10.7475 52.4211 2.58008 44.2537 2.58008 34.1725C2.58008 24.0913 10.7475 15.924 20.8286 15.924C30.9098 15.924 39.0772 24.0913 39.0772 34.1725Z" fill="#261E1C"/>
<path d="M18.9005 33.2412C18.9005 36.7992 16.0164 39.67 12.4718 39.67C8.92717 39.67 6.04297 36.7858 6.04297 33.2412C6.04297 29.6966 8.92717 26.8124 12.4718 26.8124C16.0164 26.8124 18.9005 29.6966 18.9005 33.2412Z" fill="white"/>
<path d="M27.7019 30.5457C27.7019 32.6077 26.0307 34.2789 23.9686 34.2789C21.9066 34.2789 20.2354 32.6077 20.2354 30.5457C20.2354 28.4836 21.9066 26.8124 23.9686 26.8124C26.0307 26.8124 27.7019 28.4836 27.7019 30.5457Z" fill="white"/>
<path d="M122.421 34.1725C122.421 44.2537 114.254 52.4211 104.172 52.4211C94.0912 52.4211 85.9238 44.2537 85.9238 34.1725C85.9238 24.0913 94.1047 15.924 104.172 15.924C114.24 15.924 122.421 24.0913 122.421 34.1725Z" fill="#261E1C"/>
<path d="M102.261 33.2412C102.261 36.7992 99.3767 39.67 95.8321 39.67C92.2875 39.67 89.4033 36.7858 89.4033 33.2412C89.4033 29.6966 92.2875 26.8124 95.8321 26.8124C99.3767 26.8124 102.261 29.6966 102.261 33.2412Z" fill="white"/>
<path d="M111.062 30.5457C111.062 32.6077 109.391 34.2789 107.329 34.2789C105.267 34.2789 103.596 32.6077 103.596 30.5457C103.596 28.4836 105.267 26.8124 107.329 26.8124C109.391 26.8124 111.062 28.4836 111.062 30.5457Z" fill="white"/>
<path d="M21.0287 55.8817C19.6674 58.8468 13.926 59.1298 8.19804 56.5017C2.47009 53.8736 -1.06102 49.3451 0.286734 46.3801C1.64797 43.415 7.38938 43.132 13.1173 45.7601C18.8453 48.3882 22.3764 52.9167 21.0152 55.8817H21.0287Z" fill="#FCA695"/>
<path d="M103.972 55.8817C105.333 58.8468 111.074 59.1298 116.802 56.5017C122.53 53.8736 126.061 49.3451 124.714 46.3801C123.352 43.415 117.611 43.132 111.883 45.7601C106.155 48.3882 102.624 52.9167 103.985 55.8817H103.972Z" fill="#FCA695"/>
<path d="M80.195 53.3358C71.7311 47.7561 57.8896 52.6484 55.248 63.417" stroke="#261E1C" stroke-width="3" stroke-linecap="round" stroke-linejoin="round"/>
<path d="M105.02 2C106.691 8.34792 115.478 11.9599 121.395 7.90315" stroke="#261E1C" stroke-width="3" stroke-linecap="round" stroke-linejoin="round"/>
<path d="M20.717 2C19.0458 8.34792 10.2584 11.9599 4.3418 7.90315" stroke="#261E1C" stroke-width="3" stroke-linecap="round" stroke-linejoin="round"/>
</svg>
