<svg width="126" height="26" viewBox="0 0 126 26" fill="none" xmlns="http://www.w3.org/2000/svg">
<path d="M16.9081 13.711C16.9081 17.9638 13.4569 21.4151 9.20407 21.4151C4.95128 21.4151 1.5 17.9638 1.5 13.711C1.5 9.45824 4.95128 6.00696 9.20407 6.00696C13.4569 6.00696 16.9081 9.45824 16.9081 13.711Z" fill="#FCA695"/>
<path d="M108.688 13.711C108.688 17.9638 112.139 21.4151 116.392 21.4151C120.644 21.4151 124.096 17.9638 124.096 13.711C124.096 9.45824 120.644 6.00696 116.392 6.00696C112.139 6.00696 108.688 9.45824 108.688 13.711Z" fill="#FCA695"/>
<path d="M1.69531 2H32.757" stroke="#261E1C" stroke-width="3" stroke-linecap="round" stroke-linejoin="round"/>
<path d="M123.897 2H92.835" stroke="#261E1C" stroke-width="3" stroke-linecap="round" stroke-linejoin="round"/>
<path d="M43.3906 8.67249H82.2055" stroke="#FE6661" stroke-width="2" stroke-linecap="round" stroke-linejoin="round"/>
<path d="M48.9336 14.2196H76.6584" stroke="#FE6661" stroke-width="2" stroke-linecap="round" stroke-linejoin="round"/>
<path d="M51.5352 24.0002H74.0585" stroke="#261E1C" stroke-width="3" stroke-linecap="round" stroke-linejoin="round"/>
</svg>
