<svg width="87" height="86" viewBox="0 0 87 86" fill="none" xmlns="http://www.w3.org/2000/svg">
<path d="M47.5312 49.7188V56.4375L42.1562 65.8438L38.9564 71.4422C38.3097 72.5746 37.3474 73.4943 36.1868 74.089C35.0263 74.6838 33.7177 74.9278 32.4208 74.7914L11.25 72.5625L9.90625 65.8438H30.0625L31.7909 60.6603L35.4375 49.7188H47.5312Z" fill="#FFCEB6"/>
<path d="M47.5314 49.7188V56.4375L42.1564 65.8438L31.791 60.6602L35.4376 49.7188H47.5314Z" fill="#FFA100"/>
<path d="M11.25 72.5625L7.21875 79.2812H4.53125V65.8438H9.90625L11.25 72.5625Z" fill="#E0EDFF"/>
<path d="M75.75 72.5625L69.0312 76.5938L65 56.4375H42.1562C40.3744 56.4374 38.6655 55.7295 37.4055 54.4695C36.1455 53.2095 35.4376 51.5006 35.4375 49.7188V41.6562H48.875L59.625 44.0448L68.3442 45.9831C69.7188 46.2886 70.9626 47.0182 71.8999 48.0689C72.8373 49.1196 73.4208 50.4382 73.5681 51.8385L75.75 72.5625Z" fill="#FFCEB6"/>
<path d="M59.625 44.0448V56.4375H42.1562C40.3744 56.4374 38.6655 55.7295 37.4055 54.4695C36.1455 53.2095 35.4376 51.5006 35.4375 49.7188V41.6562H48.875L59.625 44.0448Z" fill="#FFB401"/>
<path d="M43.5 20.1562L50.1372 26.7935C50.5891 27.2454 50.9475 27.7818 51.1921 28.3722C51.4366 28.9626 51.5625 29.5953 51.5625 30.2344C51.5625 30.8734 51.4366 31.5062 51.1921 32.0966C50.9475 32.687 50.5891 33.2234 50.1372 33.6753L48.875 34.9375V41.6562H35.4375V30.9062C35.4375 28.8201 35.9232 26.7627 36.8561 24.8968C37.7891 23.0309 39.1436 21.4079 40.8125 20.1562H43.5Z" fill="#EF5E3B"/>
<path d="M39.4688 10.0781L36.0866 8.38644C35.6607 8.17341 35.1911 8.0625 34.7148 8.0625H34.6693C34.2404 8.06239 33.8158 8.14679 33.4196 8.31087C33.0234 8.47494 32.6634 8.71549 32.3602 9.01875C32.057 9.32201 31.8165 9.68204 31.6525 10.0783C31.4886 10.4745 31.4042 10.8992 31.4044 11.328C31.4049 12.294 31.4053 13.381 31.4055 14.4536C31.406 16.2613 31.0503 18.0514 30.3587 19.7215C29.6671 21.3917 28.6532 22.9093 27.375 24.1875H31.4062C32.2886 24.1875 33.1622 24.0137 33.9774 23.6761C34.7926 23.3384 35.5332 22.8435 36.1571 22.2196C36.781 21.5957 37.2759 20.8551 37.6136 20.0399C37.9512 19.2247 38.125 18.3511 38.125 17.4688V14.7812L39.4688 10.0781Z" fill="#B1712C"/>
<path d="M40.8125 14.7812L43.5 12.0938H48.875V17.4688C48.875 18.8943 48.3087 20.2614 47.3007 21.2694C46.2927 22.2775 44.9255 22.8438 43.5 22.8438C42.0745 22.8438 40.7073 22.2775 39.6993 21.2694C38.6913 20.2614 38.125 18.8943 38.125 17.4688V14.7812H40.8125Z" fill="#FFCEB6"/>
<path d="M48.875 12.0938C48.875 10.6682 48.3087 9.30106 47.3007 8.29305C46.2927 7.28504 44.9255 6.71875 43.5 6.71875C42.0745 6.71875 40.7073 7.28504 39.6993 8.29305C38.6913 9.30106 38.125 10.6682 38.125 12.0938V14.7812H40.8125L43.5 12.0938H48.875Z" fill="#C78640"/>
<path d="M46.773 29.2802L40.8125 37.625L44.8438 45.6875L48.875 47.0312L50.2188 48.375L48.875 51.0625H40.8125L34.7656 43C33.4573 41.2555 32.75 39.1337 32.75 36.9531C32.75 34.7725 33.4573 32.6507 34.7656 30.9062L39.2236 24.9623C39.7169 24.3045 40.3566 23.7706 41.0921 23.4029C41.8275 23.0352 42.6385 22.8437 43.4607 22.8438C43.9953 22.8437 44.5246 22.949 45.0184 23.1536C45.5123 23.3582 45.961 23.658 46.339 24.036C46.717 24.414 47.0168 24.8627 47.2214 25.3566C47.426 25.8504 47.5312 26.3797 47.5312 26.9143C47.5312 27.7627 47.2662 28.5899 46.773 29.2802Z" fill="#FFCEB6"/>
<path d="M69.0312 76.5938L75.75 72.5625L82.4688 76.5938V79.2812H69.0312V76.5938Z" fill="#E0EDFF"/>
</svg>
