<svg width="87" height="85" viewBox="0 0 87 85" fill="none" xmlns="http://www.w3.org/2000/svg">
<g clip-path="url(#clip0_532_3176)">
<path d="M43.6867 55.7719L30.7196 68.5865C28.4764 70.8033 25.6319 72.3301 22.529 72.9834L22.5278 72.9837C20.6078 73.3885 18.8476 74.3339 17.4593 75.7057L16.4485 76.7046L0.5 60.9438L2.18782 59.2758C3.11631 58.3583 3.63843 57.1136 3.63759 55.8152V34.4464C3.63759 33.1518 4.16794 31.9795 5.02705 31.1305C5.88616 30.2815 7.07218 29.7574 8.38235 29.7574C11.0032 29.7581 13.1271 31.857 13.1271 34.4464V40.4508L27.2042 26.5394C28.0383 25.7151 29.1315 25.3037 30.224 25.3037C31.3173 25.3029 32.4104 25.7159 33.2438 26.5394C34.9113 28.1872 34.9105 30.8594 33.243 32.5073L35.8296 29.9512C37.5046 28.2958 40.2871 28.255 41.9482 29.9241C42.7651 30.745 43.173 31.8129 43.1737 32.8822C43.1737 33.9618 42.7559 35.0422 41.9225 35.8658L38.8028 38.9487C40.4703 37.3008 43.1735 37.3008 44.8418 38.9495C45.6752 39.7731 46.093 40.8534 46.093 41.9332C46.0922 43.0136 45.6759 44.0924 44.8418 44.9168L38.7719 50.9153C39.4505 50.2447 40.3405 49.9089 41.2297 49.9096C42.1188 49.9089 43.0089 50.2447 43.6874 50.9153C45.0444 52.2558 45.0444 54.4302 43.6867 55.7719Z" fill="#EEC5C5"/>
<path d="M34.6377 55.0021L38.7733 50.9151C40.131 49.5734 42.3311 49.5734 43.6881 50.9143C43.8862 51.11 44.0547 51.324 44.1949 51.5503C42.8565 50.7396 41.083 50.906 39.9237 52.0518L36.9385 55.0019C36.303 55.6299 35.273 55.6299 34.6377 55.0021Z" fill="#D8AEAE"/>
<path d="M33.8751 27.3354C33.1975 26.9285 32.4297 26.724 31.6615 26.7246C30.5691 26.7246 29.4758 27.136 28.6417 27.9603L13.8651 42.563L13.127 41.8336V40.4508L27.204 26.5394C28.0381 25.7151 29.1314 25.3037 30.2238 25.3037C31.3171 25.3029 32.4102 25.7159 33.2437 26.5394C33.4913 26.7844 33.7013 27.0517 33.8751 27.3354Z" fill="#D8AEAE"/>
<path d="M22.5625 43.0591L35.8839 29.8943C36.718 29.0701 37.8113 28.6587 38.9038 28.6587C39.997 28.6579 41.0902 29.0709 41.9236 29.8943C42.1714 30.1392 42.3814 30.4065 42.5552 30.6902C41.8776 30.2833 41.1098 30.0788 40.3416 30.0795C39.2491 30.0795 38.1559 30.4908 37.3218 31.3151L25.438 43.0591C24.6439 43.8438 23.3564 43.8438 22.5625 43.0591Z" fill="#D8AEAE"/>
<path d="M28.5049 49.1243L38.8013 38.949C39.6354 38.1248 40.7287 37.7134 41.8211 37.7134C42.9144 37.7126 44.0075 38.1256 44.8409 38.949C45.0887 39.1939 45.2987 39.4612 45.4726 39.7449C44.7949 39.338 44.0272 39.1335 43.2589 39.1341C42.1665 39.1341 41.0732 39.5455 40.2391 40.3698L31.3806 49.1241C30.5863 49.9091 29.299 49.9091 28.5049 49.1243Z" fill="#D8AEAE"/>
<path d="M6.94535 55.8162C6.94619 57.1146 6.42407 58.3592 5.49558 59.2768L2.15388 62.5793L0.5 60.9449L2.18782 59.277C3.11631 58.3594 3.63843 57.1148 3.63775 55.8164V34.4475C3.63775 33.1529 4.1681 31.9807 5.02722 31.1317C5.88633 30.2827 7.07235 29.7585 8.38252 29.7585C8.9636 29.7594 9.51966 29.8623 10.034 30.0512C9.3903 30.2886 8.81241 30.6597 8.33481 31.1317C7.4757 31.9807 6.94535 33.1527 6.94535 34.4475V55.8162Z" fill="#D8AEAE"/>
<path d="M18.7886 55.1452C18.5944 55.1452 18.3974 55.102 18.2116 55.0107C17.5699 54.6953 17.3083 53.9253 17.6275 53.2909C19.0361 50.4924 18.4794 47.1268 16.2422 44.9158L13.8646 42.5662C13.3576 42.0653 13.3576 41.2532 13.8646 40.7521C14.3715 40.2512 15.1933 40.2512 15.7003 40.7521L18.0779 43.1017C21.1047 46.0928 21.8579 50.6466 19.9518 54.4335C19.725 54.8844 19.2657 55.1452 18.7886 55.1452Z" fill="#D8AEAE"/>
<path d="M65.328 30.8497L78.2951 43.6643C80.5383 45.8811 82.0833 48.692 82.7444 51.7585L82.7447 51.7597C83.1543 53.6571 84.111 55.3966 85.4991 56.7685L86.5099 57.7675L70.5614 73.5283L68.8736 71.8604C67.9451 70.9428 66.6857 70.4268 65.3718 70.4276H43.7486C42.4386 70.4276 41.2524 69.9035 40.3933 69.0545C39.5341 68.2055 39.0038 67.0335 39.0038 65.7387C39.0045 63.1485 41.1284 61.0498 43.7486 61.0498H49.8245L35.7474 47.1383C34.9134 46.314 34.4971 45.2336 34.4971 44.154C34.4962 43.0736 34.9142 41.9933 35.7474 41.1697C37.4149 39.5218 40.1189 39.5227 41.7864 41.1705L39.1998 38.6144C37.5248 36.9591 37.4835 34.2093 39.1725 32.5678C40.0032 31.7604 41.0837 31.3574 42.1657 31.3567C43.2582 31.3567 44.3515 31.7696 45.1849 32.5932L48.3045 35.6761C46.637 34.0282 46.637 31.3569 48.3053 29.7082C49.1388 28.8846 50.2319 28.4717 51.3245 28.4717C52.4178 28.4725 53.5096 28.8839 54.3436 29.7082L60.4135 35.7066C59.735 35.0361 59.3952 34.1566 59.3958 33.2778C59.395 32.3991 59.735 31.5196 60.4135 30.849C61.7701 29.508 63.9703 29.508 65.328 30.8497Z" fill="#EAAC9D"/>
<path d="M67.5359 42.7432L60.4129 35.704C59.0552 34.3623 59.0552 32.1881 60.4121 30.8471C60.6101 30.6513 60.8267 30.4848 61.0557 30.3462C60.2354 31.6688 60.4037 33.4215 61.5632 34.5671L67.5359 40.4697C68.1711 41.0975 68.1711 42.1154 67.5359 42.7432Z" fill="#DF9380"/>
<path d="M36.553 40.5422C36.1412 41.2119 35.9342 41.9706 35.9349 42.7298C35.9349 43.8094 36.3512 44.8899 37.1853 45.7141L51.9619 60.3169L51.2237 61.0463H49.8245L35.7474 47.1349C34.9134 46.3106 34.4971 45.2302 34.4971 44.1506C34.4962 43.0702 34.9142 41.9899 35.7474 41.1663C35.9954 40.9216 36.2659 40.7141 36.553 40.5422Z" fill="#DF9380"/>
<path d="M52.4634 51.7224L39.142 38.5577C38.3079 37.7334 37.8916 36.653 37.8916 35.5734C37.8908 34.4929 38.3087 33.4127 39.142 32.5891C39.3898 32.3442 39.6602 32.1367 39.9473 31.9648C39.5356 32.6346 39.3286 33.3932 39.3293 34.1524C39.3293 35.232 39.7456 36.3125 40.5796 37.1367L52.4634 48.8807C53.2575 49.6654 53.2575 50.9378 52.4634 51.7224Z" fill="#DF9380"/>
<path d="M58.6005 45.8484L48.3041 35.6731C47.47 34.8489 47.0537 33.7684 47.0537 32.6888C47.0529 31.6084 47.4708 30.5281 48.3041 29.7045C48.5519 29.4597 48.8223 29.2521 49.1094 29.0803C48.6977 29.75 48.4907 30.5087 48.4914 31.2679C48.4914 32.3475 48.9077 33.4279 49.7418 34.2522L58.6003 43.0065C59.3946 43.7913 59.3946 45.0636 58.6005 45.8484Z" fill="#DF9380"/>
<path d="M65.3727 67.162C66.6866 67.1611 67.946 67.6771 68.8745 68.5947L72.2162 71.8971L70.5623 73.5315L68.8745 71.8635C67.946 70.946 66.6866 70.43 65.3727 70.4307H43.7496C42.4396 70.4307 41.2535 69.9066 40.3943 69.0575C39.5352 68.2085 39.0049 67.0365 39.0049 65.7417C39.0057 65.1675 39.1099 64.618 39.3011 64.1096C39.5413 64.7458 39.9167 65.3169 40.3943 65.7889C41.2535 66.6379 42.4395 67.162 43.7496 67.162H65.3727Z" fill="#DF9380"/>
<path d="M51.047 60.6993C50.7149 60.6993 50.3826 60.5739 50.1293 60.3236C49.6223 59.8227 49.6223 59.0106 50.1293 58.5095L52.5069 56.1599C55.5336 53.1685 60.1416 52.4244 63.9735 54.308C64.6152 54.6234 64.8768 55.3934 64.5576 56.0278C64.2384 56.6619 63.4593 56.9204 62.8174 56.605C59.9855 55.213 56.5798 55.763 54.3425 57.974L51.9649 60.3236C51.7114 60.5739 51.3791 60.6993 51.047 60.6993Z" fill="#DF9380"/>
<path d="M58.2682 26.0682V12.1244C58.2682 9.71238 57.5612 7.35214 56.2327 5.32841L56.2322 5.32758C55.4105 4.07499 54.9732 2.61422 54.9732 1.12157V0.034668H37.6193V1.84972C37.6193 2.84813 37.2182 3.80605 36.5029 4.51211L24.7386 16.138C24.0258 16.8424 23.6689 17.7653 23.6689 18.689C23.6689 19.6127 24.0258 20.5356 24.7386 21.24C26.165 22.6488 28.4759 22.6488 29.9014 21.24L33.2072 17.9732V33.1105C33.2072 34.0074 33.5754 34.8191 34.17 35.4065C34.7643 35.9947 35.5865 36.3579 36.4933 36.3579C38.3076 36.3579 39.7784 34.9036 39.7784 33.1106V35.8921C39.7784 37.6933 41.2696 39.2115 43.0923 39.1966C43.9888 39.1893 44.7985 38.8275 45.3876 38.2462C45.982 37.6588 46.3495 36.8463 46.3495 35.9502V32.5956C46.3495 34.3886 47.8203 35.8421 49.6355 35.8421C50.5423 35.8421 51.3644 35.479 51.9588 34.8915C52.5532 34.3033 52.9207 33.4925 52.9207 32.5955V26.0684C52.9207 26.798 53.2199 27.4593 53.7042 27.9371C54.1877 28.4155 54.8568 28.7114 55.5951 28.7114C57.0713 28.711 58.2682 27.5282 58.2682 26.0682Z" fill="#FFDDCE"/>
<path d="M52.9209 18.407V26.0664C52.9209 27.5264 54.1178 28.7092 55.5943 28.7092C55.8099 28.7092 56.0193 28.6833 56.2203 28.6357C55.0458 28.3571 54.1726 27.3132 54.1726 26.0664V19.6438C54.1726 18.9608 53.6122 18.407 52.9209 18.407Z" fill="#FFCBBE"/>
<path d="M37.2779 36.2676C36.6852 36.1247 36.1549 35.8232 35.7372 35.4096C35.1429 34.8223 34.7745 34.0106 34.7745 33.1136V17.2241H33.9713L33.21 17.9765V33.1138C33.21 34.0108 33.5782 34.8224 34.1727 35.4098C34.7671 35.998 35.5892 36.3612 36.4961 36.3612C36.7657 36.3611 37.0271 36.3285 37.2779 36.2676Z" fill="#FFCBBE"/>
<path d="M39.7822 21.6304V35.9552C39.7822 36.8522 40.1505 37.6638 40.745 38.2512C41.3393 38.8394 42.1615 39.2026 43.0683 39.2026C43.3379 39.2026 43.5993 39.1701 43.8502 39.1092C43.2575 38.9662 42.7271 38.6647 42.3095 38.2512C41.7151 37.6638 41.3467 36.8522 41.3467 35.9552V23.1765C41.3467 22.3227 40.6462 21.6304 39.7822 21.6304Z" fill="#FFCBBE"/>
<path d="M46.3486 21.5266V32.5985C46.3486 33.4955 46.7169 34.3072 47.3114 34.8945C47.9057 35.4827 48.7279 35.846 49.6347 35.846C49.9044 35.846 50.1657 35.8134 50.4166 35.7525C49.8239 35.6096 49.2935 35.3081 48.8759 34.8945C48.2815 34.3072 47.9131 33.4955 47.9131 32.5985V23.0727C47.913 22.2187 47.2126 21.5266 46.3486 21.5266Z" fill="#FFCBBE"/>
<path d="M38.3024 6.2903C39.0177 5.58424 39.4189 4.62649 39.4189 3.62791V0.034668H37.6193V1.84972C37.6193 2.84813 37.2182 3.80604 36.5029 4.51211L24.7385 16.138C24.0258 16.8424 23.6689 17.7653 23.6689 18.689C23.6689 19.6127 24.0258 20.5356 24.7385 21.24C25.055 21.552 25.4144 21.7948 25.7982 21.9688C25.5787 21.4935 25.4686 20.9809 25.4686 20.4674C25.4686 19.5437 25.8255 18.6208 26.5382 17.9164L38.3024 6.2903Z" fill="#FFCBBE"/>
<path d="M84.9325 8.38615C82.8297 6.30813 79.4207 6.30813 77.3179 8.38615L75.4266 10.2552L73.5354 8.38615C71.4326 6.30813 68.0236 6.30813 65.9208 8.38615C63.8181 10.4642 63.8181 13.8331 65.9208 15.9111L75.4265 25.305L84.9321 15.9111C87.0351 13.8331 87.0351 10.4642 84.9325 8.38615Z" fill="#DD636E"/>
<path d="M75.4267 25.3043L65.9209 15.9109C64.8691 14.8722 64.3438 13.5102 64.3438 12.1483C64.3438 10.7865 64.8691 9.42453 65.9209 8.38577C67.0654 7.25404 68.5983 6.73873 70.0955 6.83983C68.6527 7.86415 67.8581 9.49276 67.8581 11.1619C67.8581 12.0799 68.0987 13.0093 68.6042 13.8571L75.4267 25.3043Z" fill="#DA4A54"/>
<path d="M29.1034 68.048C27.0006 65.97 23.5916 65.97 21.4888 68.048L19.5975 69.917L17.7063 68.048C15.6035 65.97 12.1945 65.97 10.0917 68.048C7.98896 70.126 7.98896 73.495 10.0917 75.573L19.5977 84.9668L29.1034 75.573C31.2061 73.495 31.2061 70.126 29.1034 68.048Z" fill="#DD636E"/>
<path d="M19.5976 84.9663L10.0918 75.5728C9.03996 74.534 8.51465 73.172 8.51465 71.8102C8.51465 70.4484 9.03996 69.0864 10.0918 68.0476C11.2363 66.9159 12.7692 66.4006 14.2664 66.5017C12.8236 67.526 12.029 69.1546 12.029 70.8237C12.029 71.7418 12.2696 72.6712 12.7751 73.519L19.5976 84.9663Z" fill="#DA4A54"/>
<path d="M18.4367 11.5591C16.8871 10.0278 14.375 10.0278 12.8254 11.5591L11.4317 12.9364L10.0381 11.5591C8.48853 10.0278 5.97638 10.0278 4.42682 11.5591C2.87726 13.0905 2.87726 15.5731 4.42682 17.1044L11.4317 24.0269L18.4367 17.1044C19.9862 15.5731 19.9862 13.0903 18.4367 11.5591Z" fill="#DD636E"/>
<path d="M11.4319 24.0265L4.42682 17.1043C3.6517 16.3388 3.26465 15.3352 3.26465 14.3316C3.26465 13.3281 3.6517 12.3245 4.42682 11.559C5.2703 10.725 6.39988 10.3453 7.50309 10.4198C6.43987 11.1745 5.85441 12.3748 5.85441 13.6048C5.85441 14.2813 6.03164 14.9663 6.40408 15.591L11.4319 24.0265Z" fill="#DA4A54"/>
</g>
<defs>
<clipPath id="clip0_532_3176">
<rect width="86.0119" height="85" fill="white" transform="translate(0.5)"/>
</clipPath>
</defs>
</svg>
