<svg width="86" height="85" viewBox="0 0 86 85" fill="none" xmlns="http://www.w3.org/2000/svg">
<g clip-path="url(#clip0_532_3339)">
<path d="M56.9231 21.3327C58.0606 19.4477 60.1433 18.1844 62.5253 18.1844C66.1259 18.1844 69.0446 21.0694 69.0446 24.6279C69.0446 24.8843 69.0276 25.1369 68.9983 25.3856C69.7833 25.1679 70.5791 25.0545 71.3646 25.0545C72.0923 25.0545 72.7789 25.1536 73.4149 25.3443C73.4307 25.1073 73.4415 24.8689 73.4415 24.628C73.4415 18.6691 68.554 13.8386 62.5251 13.8386C58.9321 13.8386 55.7452 15.5548 53.7559 18.2026L56.9231 21.3327Z" fill="#FED2A4"/>
<path d="M18.5026 42.7528L18.7282 42.7126L18.6191 42.5132C18.4324 42.1719 18.2722 41.8265 18.1352 41.4798C14.9728 41.0358 12.5405 38.3502 12.5405 35.102C12.5405 31.5433 15.4594 28.6585 19.0597 28.6585C20.9439 28.6585 22.6404 29.4494 23.8305 30.7126C24.0847 29.6078 24.6128 28.6323 25.3976 27.8567C25.6937 27.5639 26.0185 27.308 26.3678 27.0881C24.4328 25.3634 21.8707 24.3127 19.0599 24.3127C13.0311 24.3127 8.14355 29.1434 8.14355 35.1022C8.14355 39.4151 10.7048 43.1356 14.4055 44.8626C15.3505 43.8192 16.7815 43.0592 18.5026 42.7528Z" fill="#FED2A4"/>
<path d="M48.0531 31.7699C48.5258 31.5474 49.0515 31.4339 49.6208 31.4339C50.5661 31.4339 51.6231 31.7502 52.6775 32.349L52.8945 32.472L52.925 32.2266C53.4581 27.9448 55.7499 24.8368 58.3743 24.8368C60.276 24.8368 62.0285 26.4403 63.0619 29.126L63.1645 29.3926L63.3462 29.1708C63.61 28.8485 63.8867 28.5437 64.1686 28.2632L46.9737 11.2684C46.6226 10.9214 46.0498 10.9444 45.7216 11.3128C42.0684 15.4123 41.2349 21.1049 43.2143 25.9349C45.3753 26.1526 47.2634 28.4693 48.0531 31.7699Z" fill="#FB2B3A"/>
<path d="M48.0531 31.7699C48.5258 31.5474 49.0515 31.4339 49.6208 31.4339C49.7911 31.4339 49.9663 31.4476 50.1433 31.4682C45.9303 26.4324 45.7996 19.1851 49.7463 14.0088L46.9737 11.2684C46.6226 10.9214 46.0498 10.9444 45.7216 11.3128C42.0684 15.4123 41.2349 21.1049 43.2143 25.9349C45.3753 26.1526 47.2634 28.4693 48.0531 31.7699Z" fill="#E41F2D"/>
<path d="M50.1045 27.8567C49.7859 27.8567 49.4671 27.7366 49.2241 27.4962C48.7378 27.0156 48.7378 26.2363 49.2241 25.7559L50.6023 24.3937C51.0886 23.9131 51.877 23.9131 52.3631 24.3937C52.8494 24.8743 52.8494 25.6535 52.3631 26.1339L50.9848 27.4962C50.7416 27.7366 50.423 27.8567 50.1045 27.8567Z" fill="#FE646F"/>
<path d="M49.6806 21.8043H47.7314C47.0438 21.8043 46.4863 21.2533 46.4863 20.5737C46.4863 19.894 47.0438 19.343 47.7314 19.343H49.6806C50.3683 19.343 50.9258 19.894 50.9258 20.5737C50.9258 21.2533 50.3683 21.8043 49.6806 21.8043Z" fill="#FE646F"/>
<path d="M36.5205 17.5671C41.276 12.8669 41.4845 5.37447 37.146 0.429266C36.8206 0.0584332 36.2446 0.0380867 35.8935 0.385127L19.1363 16.9476C18.7852 17.2946 18.8058 17.864 19.181 18.1856C24.1842 22.4735 31.765 22.2674 36.5205 17.5671Z" fill="#FD4755"/>
<path d="M22.3499 14.3367C22.2403 14.2428 22.1648 14.1268 22.1161 14.0024L19.1363 16.9476C18.7852 17.2946 18.8058 17.864 19.181 18.1856C24.1844 22.4737 31.765 22.2676 36.5205 17.5674C37.4497 16.649 38.2029 15.6229 38.7849 14.531C34.0148 18.4265 27.0468 18.362 22.3499 14.3367Z" fill="#FB2B3A"/>
<path d="M32.9188 15.4841C32.6002 15.4841 32.2814 15.364 32.0384 15.1237L30.809 13.9086C30.3228 13.428 30.3228 12.6488 30.809 12.1683C31.2953 11.6877 32.0837 11.6877 32.5698 12.1683L33.7991 13.3834C34.2854 13.864 34.2854 14.6432 33.7991 15.1237C33.5561 15.3639 33.2373 15.4841 32.9188 15.4841Z" fill="#E41F2D"/>
<path d="M27.4629 17.5736C26.7753 17.5736 26.2178 17.0226 26.2178 16.343V14.6247C26.2178 13.945 26.7753 13.394 27.4629 13.394C28.1505 13.394 28.708 13.945 28.708 14.6247V16.343C28.708 17.0226 28.1505 17.5736 27.4629 17.5736Z" fill="#E41F2D"/>
<path d="M35.2883 10.1876H33.5498C32.8622 10.1876 32.3047 9.6366 32.3047 8.95696C32.3047 8.27732 32.8622 7.72632 33.5498 7.72632H35.2883C35.976 7.72632 36.5334 8.27732 36.5334 8.95696C36.5334 9.6366 35.976 10.1876 35.2883 10.1876Z" fill="#E41F2D"/>
<path d="M28.1371 52.2899C28.1371 51.4939 28.2289 50.7191 28.3977 49.9727C25.4051 49.0348 23.4166 47.1828 23.4166 45.1192C23.4166 43.2401 25.0382 41.5084 27.7543 40.4868L28.0235 40.3855L27.7999 40.206C27.4697 39.9412 27.1578 39.6641 26.8729 39.3825C25.1428 37.6725 24.0324 35.5557 23.7332 33.4095C22.1469 33.0685 20.5812 33.3112 19.3627 34.2266C17.07 35.949 16.768 39.4788 18.4692 42.5876C15.5935 43.0997 13.3747 44.9108 13.0416 47.326C12.7677 49.3119 13.834 51.2409 15.6846 52.5613H28.1441C28.1417 52.4707 28.1371 52.3808 28.1371 52.2899Z" fill="#80D261"/>
<path d="M45.5227 52.5638C45.537 52.5464 45.5531 52.5295 45.5672 52.5121C45.5697 52.4391 45.5729 52.366 45.5729 52.2924C45.5729 48.6489 42.574 45.6848 38.8876 45.6848C35.2012 45.6848 32.2021 48.6489 32.2021 52.2924C32.2021 52.3834 32.2071 52.4735 32.2108 52.5638H45.5227Z" fill="#017B4E"/>
<path d="M38.888 41.6658C42.6336 41.6658 45.9362 43.5702 47.8615 46.4494C47.8034 45.3863 47.8674 44.3177 48.0545 43.2655C47.9292 43.0709 47.8062 42.8735 47.6878 42.6708C46.4269 40.5123 45.7517 38.1947 45.7866 36.1448C45.821 34.1256 46.5411 32.6134 47.8143 31.8868C47.9393 31.8154 48.069 31.7531 48.2021 31.6984C47.3594 28.2126 45.2925 25.7485 42.876 25.7485C40.8377 25.7485 39.0492 27.5029 38.0332 30.1434C37.7682 29.8197 37.4838 29.504 37.1765 29.2002C33.4819 25.5485 28.1539 24.8938 25.2764 27.7379C22.3988 30.582 23.0612 35.848 26.7559 39.4997C27.0587 39.799 27.3733 40.076 27.6957 40.3346C25.0252 41.3389 23.251 43.1063 23.251 45.1203C23.251 47.2974 25.323 49.1863 28.3604 50.1346C29.3716 45.3062 33.7076 41.6658 38.888 41.6658Z" fill="#017B4E"/>
<path d="M35.3555 50.4943C34.4686 50.3202 33.6395 50.0708 32.8888 49.7595C32.5408 50.5657 32.3539 51.4558 32.369 52.3911C32.3697 52.3918 32.3702 52.3923 32.3708 52.3929H35.694C35.7659 52.1383 35.856 51.8813 35.9641 51.623C36.1668 51.1382 35.8761 50.5965 35.3555 50.4943Z" fill="#026841"/>
<path d="M23.251 45.1173C23.251 47.2561 25.2501 49.118 28.2007 50.0819C28.4295 48.9935 28.8258 47.9661 29.359 47.0249C28.9994 46.4288 28.8024 45.7869 28.8024 45.1175C28.8024 43.4008 30.091 41.8635 32.125 40.825C32.6279 40.5682 32.717 39.9009 32.3163 39.5057C32.3133 39.5028 32.3103 39.4998 32.3071 39.4967C28.6125 35.845 27.95 30.579 30.8276 27.7349C31.395 27.1741 32.0588 26.7514 32.7854 26.4588C29.993 25.5257 27.1274 25.905 25.276 27.7349C22.3985 30.579 23.0609 35.845 26.7556 39.4967C27.0584 39.7958 27.373 40.073 27.6954 40.3316C25.025 41.3358 23.251 43.1031 23.251 45.1173Z" fill="#026841"/>
<path d="M37.6754 41.7385C38.073 41.6942 38.4766 41.6693 38.886 41.6693C39.7642 41.6693 40.6174 41.7762 41.435 41.9736L34.646 35.2635C34.1597 34.7829 33.3713 34.7829 32.8852 35.2635C32.3989 35.7441 32.3989 36.5234 32.8852 37.0038L37.6754 41.7385Z" fill="#026841"/>
<path d="M73.5512 39.2542C73.8736 38.9955 74.1882 38.7185 74.491 38.4194C78.1857 34.7677 78.8481 29.5017 75.9706 26.6576C73.093 23.8135 67.7651 24.4682 64.0704 28.1199C63.7631 28.4236 63.4789 28.7393 63.2137 29.0631C62.1977 26.4226 60.4092 24.6682 58.3709 24.6682C55.6023 24.6682 53.2923 27.9022 52.7569 32.2019C50.9566 31.1799 49.1336 30.9441 47.7331 31.7434C44.992 33.3076 44.908 38.2361 47.5457 42.7515C47.6961 43.009 47.854 43.2569 48.0149 43.5003C48.4138 41.0067 49.4982 38.5974 51.2832 36.576C51.4261 36.4143 51.6327 36.3214 51.8498 36.3214C52.0489 36.3214 52.2361 36.398 52.3767 36.537L68.5893 52.5611H71.3058C71.2751 51.6169 70.9433 50.6002 70.3549 49.5909C74.7145 49.066 77.9959 46.7803 77.9959 44.0401C77.9958 42.0258 76.2217 40.2586 73.5512 39.2542Z" fill="#68CA44"/>
<path d="M68.3583 34.1764C67.872 33.6958 67.0836 33.6958 66.5975 34.1764L58.4111 42.2676L60.1719 44.0079L68.3583 35.9167C68.8445 35.4362 68.8445 34.657 68.3583 34.1764Z" fill="#80D261"/>
<path d="M49.647 52.2934C49.647 52.3175 49.6461 52.3416 49.6453 52.3656L49.6393 52.5648H68.8312L52.5013 36.4247C52.1267 36.0545 51.5137 36.0773 51.1654 36.4718C48.7233 39.2374 47.5607 42.7228 47.6769 46.1738C48.9158 47.9052 49.647 50.0159 49.647 52.2934Z" fill="white"/>
<path d="M59.0047 52.5621H64.7729C65.6567 52.1996 66.4852 51.6644 67.2038 50.954L56.5737 40.4475C53.6382 43.3489 53.6382 48.0527 56.5737 50.954C57.2924 51.6644 58.1208 52.1996 59.0047 52.5621Z" fill="#FEDF74"/>
<path d="M59.0093 52.5621H61.8299C60.9457 52.1998 60.117 51.6645 59.3981 50.954C56.9519 48.5363 56.5461 44.8673 58.1771 42.0322L56.5737 40.4475C53.6382 43.3489 53.6382 48.0527 56.5737 50.954C57.2934 51.6655 58.1238 52.1998 59.0093 52.5621Z" fill="#FED402"/>
<path d="M32.3796 52.5613C32.3758 52.4712 32.3727 52.381 32.3727 52.2899C32.3727 48.7312 35.2916 45.8465 38.8919 45.8465C42.4923 45.8465 45.4112 48.7314 45.4112 52.2899C45.4112 52.381 45.4081 52.4712 45.4042 52.5613H49.8013C49.8037 52.4709 49.8083 52.381 49.8083 52.2899C49.8083 46.331 44.9208 41.5005 38.8919 41.5005C32.8631 41.5005 27.9756 46.3312 27.9756 52.2899C27.9756 52.381 27.9802 52.4707 27.9826 52.5613H32.3796Z" fill="#FED2A4"/>
<path d="M30.2011 84.0118H54.4955C54.8268 84.0118 55.156 83.951 55.4623 83.8259C67.4274 78.9432 75.9957 67.5803 76.6894 54.1618C76.7391 53.2011 75.9541 52.3987 74.9806 52.3987H9.71591C8.74256 52.3987 7.95748 53.2009 8.00711 54.1618C8.70089 67.5803 17.2691 78.9432 29.2342 83.8259C29.5405 83.951 29.8697 84.0118 30.2011 84.0118Z" fill="#D8ECFE"/>
<path d="M15.4121 60.3499H8.91113C11.4958 71.0093 19.1621 79.7158 29.2373 83.8275C29.5436 83.9525 29.8728 84.0134 30.2041 84.0134H36.7051C36.3738 84.0134 36.0446 83.9525 35.7383 83.8275C25.6631 79.716 17.9968 71.0093 15.4121 60.3499Z" fill="#C4E2FF"/>
<path d="M74.9806 52.3987H9.71591C8.74256 52.3987 7.95748 53.2009 8.00711 54.1618C8.11668 56.2811 8.42315 58.3489 8.90808 60.3483H75.7885C76.2732 58.3489 76.5799 56.2811 76.6894 54.1618C76.7391 53.2011 75.954 52.3987 74.9806 52.3987Z" fill="#EAF6FF"/>
<path d="M8.00711 54.1618C8.11668 56.2811 8.42315 58.3489 8.90808 60.3483H15.4091C14.9243 58.3489 14.6177 56.2811 14.5081 54.1618C14.4585 53.2011 15.2436 52.3987 16.2169 52.3987H9.71591C8.74256 52.3987 7.95748 53.2011 8.00711 54.1618Z" fill="#D8ECFE"/>
<path d="M63.9363 7.75426C64.3504 7.64466 64.6207 7.24872 64.5642 6.82882C64.3401 5.15909 63.5799 3.5463 62.2818 2.26315C60.9838 0.980171 59.352 0.228661 57.6626 0.00731006C57.2378 -0.0483148 56.8372 0.218816 56.7263 0.62788L54.4705 8.94864C54.3001 9.57709 54.8819 10.152 55.5177 9.98369L63.9363 7.75426Z" fill="#FE9901"/>
<path d="M58.21 8.9488L60.3979 0.878438C59.5364 0.421789 58.6086 0.131358 57.6626 0.00731006C57.2378 -0.0483148 56.8372 0.218816 56.7263 0.62788L54.4705 8.94864C54.3001 9.57709 54.8819 10.152 55.5177 9.98369L58.1876 9.27665C58.1739 9.1718 58.1794 9.0612 58.21 8.9488Z" fill="#FB8801"/>
</g>
<defs>
<clipPath id="clip0_532_3339">
<rect width="85" height="84.0116" fill="white" transform="translate(0.5)"/>
</clipPath>
</defs>
</svg>
