<svg width="32" height="32" viewBox="0 0 32 32" fill="none" xmlns="http://www.w3.org/2000/svg">
<path d="M11.5334 17.9459H6.50638C5.84034 17.9497 5.20286 18.2169 4.73323 18.6893C4.2636 19.1616 3.99999 19.8005 4 20.4666V25.4936C4 26.1584 4.26406 26.7959 4.7341 27.2659C5.20414 27.7359 5.84165 28 6.50638 28H11.5334C12.1993 28 12.8382 27.7364 13.3103 27.2667C13.7824 26.797 14.0493 26.1595 14.0528 25.4936V20.4666C14.0528 19.7984 13.7873 19.1576 13.3149 18.6851C12.8424 18.2127 12.2016 17.9472 11.5334 17.9472M11.5334 4H6.50638C6.17724 4 5.85132 4.06483 5.54723 4.19079C5.24314 4.31674 4.96684 4.50136 4.7341 4.7341C4.50136 4.96684 4.31674 5.24314 4.19079 5.54723C4.06483 5.85132 4 6.17724 4 6.50638V11.5334C3.99999 12.1993 4.26364 12.8382 4.73331 13.3103C5.20298 13.7824 5.84046 14.0493 6.50638 14.0528H11.5334C12.2016 14.0528 12.8424 13.7873 13.3149 13.3149C13.7873 12.8424 14.0528 12.2016 14.0528 11.5334V6.50638C14.0493 5.84046 13.7824 5.20298 13.3103 4.73331C12.8382 4.26364 12.1993 3.99999 11.5334 4ZM25.4936 4H20.4666C19.8007 3.99999 19.1618 4.26364 18.6897 4.73331C18.2176 5.20298 17.9507 5.84046 17.9472 6.50638V11.5334C17.9476 12.2015 18.2131 12.8421 18.6855 13.3145C19.1579 13.7869 19.7985 14.0524 20.4666 14.0528H25.4936C26.1595 14.0493 26.797 13.7824 27.2667 13.3103C27.7364 12.8382 28 12.1993 28 11.5334V6.50638C28 5.84165 27.7359 5.20414 27.2659 4.7341C26.7959 4.26406 26.1584 4 25.4936 4ZM22.973 17.9459C21.6397 17.9459 20.3611 18.4756 19.4183 19.4183C18.4756 20.3611 17.9459 21.6397 17.9459 22.973C17.9459 24.3062 18.4756 25.5849 19.4183 26.5276C20.3611 27.4704 21.6397 28 22.973 28C24.3062 28 25.5849 27.4704 26.5276 26.5276C27.4704 25.5849 28 24.3062 28 22.973C28 21.6397 27.4704 20.3611 26.5276 19.4183C25.5849 18.4756 24.3062 17.9459 22.973 17.9459Z" stroke="white" stroke-width="1.5" stroke-linecap="round" stroke-linejoin="round"/>
</svg>
