<svg width="32" height="32" viewBox="0 0 32 32" fill="none" xmlns="http://www.w3.org/2000/svg">
<path d="M13.4243 10.3645L13.5583 10.3272C13.755 10.2725 13.9647 10.2961 14.1441 10.3924L14.2659 10.4578L14.3369 10.5764C14.3723 10.6356 14.4442 10.7656 14.5388 11.0455L14.5388 11.0456C14.674 11.4457 14.8128 12.0079 15.0057 12.7924L16.6653 19.5402C16.9278 20.6073 17.1309 21.432 17.3222 22.0206L17.3222 22.0207C17.4192 22.3194 17.5187 22.5755 17.6297 22.7798L17.6298 22.78C17.7391 22.981 17.8782 23.1675 18.0709 23.2823L17.8149 23.7118L18.0709 23.2823C18.5579 23.5726 19.1601 23.5726 19.6471 23.2823L19.9031 23.7118L19.6471 23.2823C19.8397 23.1675 19.9789 22.981 20.0881 22.78L20.0882 22.7798C20.1993 22.5755 20.2987 22.3194 20.3957 22.0207L20.3958 22.0206C20.587 21.432 20.7902 20.6074 21.0526 19.5403C21.0526 19.5403 21.0526 19.5402 21.0527 19.5402L21.2332 18.8058L21.2332 18.8058C21.2983 18.5413 21.3424 18.3627 21.3867 18.2257C21.3868 18.2255 21.3868 18.2253 21.3869 18.2251L21.8627 18.3789C21.8766 18.3356 21.8873 18.3081 21.8945 18.2916L13.4243 10.3645ZM13.4243 10.3645L13.3287 10.4657C13.2812 10.516 13.1831 10.6273 13.0308 10.8799C12.8133 11.2409 12.5578 11.7595 12.2021 12.4825L10.2873 16.3752L10.2872 16.3752L10.2491 16.4531L13.4243 10.3645ZM18.0512 21.7658C18.142 22.0455 18.2235 22.2472 18.2997 22.3877L18.3004 22.389C18.3119 22.4101 18.3222 22.4276 18.3304 22.4414L18.4213 22.5928L18.5872 22.6535C18.7627 22.7178 18.9553 22.7178 19.1308 22.6535L19.2966 22.5928L19.3875 22.4414C19.3958 22.4276 19.406 22.4101 19.4176 22.389L19.4183 22.3877C19.4945 22.2472 19.5759 22.0456 19.6668 21.7659L18.5267 21.6114M18.0512 21.7658L18.5267 21.6114M18.0512 21.7658C18.0512 21.7658 18.0512 21.7659 18.0512 21.7659L18.5267 21.6114M18.0512 21.7658C17.869 21.205 17.6713 20.4027 17.4008 19.3028L17.8864 19.1833C18.1589 20.2918 18.3516 21.0723 18.5267 21.6114M21.7354 18.1429L21.5068 17.968C21.5055 17.9697 21.5042 17.9714 21.503 17.9731C21.5859 17.8618 21.6964 17.7742 21.8233 17.719L21.8549 17.7052L21.8882 17.6959C21.9408 17.6811 22.0079 17.6706 22.0984 17.664L22.0987 17.6639C22.241 17.6536 22.4229 17.6533 22.6914 17.6533H27.1154C27.3201 17.6533 27.5 17.4823 27.5 17.2541C27.5 17.026 27.3201 16.855 27.1154 16.855H22.6914L22.5835 16.8547C22.1484 16.8535 21.8148 16.8595 21.5358 16.9785L21.7354 18.1429ZM21.7354 18.1429L21.717 18.1325L21.4835 18.0014L21.7354 18.1429ZM15.7406 12.5528L17.4008 19.3027L8.73313 16.8475C8.80177 16.8431 8.86407 16.836 8.91727 16.8221L8.93746 16.8168L8.95715 16.8099C9.06836 16.7707 9.16857 16.7074 9.25129 16.6257L9.26905 16.6081L9.28498 16.5889C9.31549 16.5521 9.34705 16.5041 9.383 16.4412L9.38319 16.4409C9.44059 16.3403 9.50546 16.2088 9.60211 16.0123C9.60212 16.0123 9.60213 16.0123 9.60213 16.0123L11.5362 12.0807L11.5362 12.0807C11.876 11.3898 12.1436 10.8467 12.3786 10.4567C12.6084 10.0756 12.8583 9.74754 13.1965 9.61134C13.6754 9.41848 14.2171 9.47851 14.6448 9.77331L14.6448 9.77335C14.9474 9.98188 15.1218 10.3587 15.2647 10.7815C15.411 11.2141 15.5563 11.8034 15.7406 12.5528L15.7406 12.5528ZM8.25674 16.855C8.47198 16.855 8.6178 16.8549 8.73293 16.8475L10.249 16.4531C10.0931 16.7721 9.96734 17.0189 9.78567 17.1997L9.78564 17.1997C9.61959 17.365 9.42005 17.4902 9.20177 17.5668C8.9637 17.6502 8.69309 17.6543 8.34242 17.6534H8.34117L8.29989 17.6533L8.25674 17.6533H5.88462C5.67986 17.6533 5.5 17.4823 5.5 17.2541C5.5 17.026 5.67986 16.855 5.88462 16.855H8.25674ZM19.6668 21.7658C19.849 21.205 20.0466 20.4027 20.3171 19.3028C20.3171 19.3028 20.3171 19.3027 20.3171 19.3027L20.4877 18.6093C20.4878 18.609 20.4878 18.6088 20.4879 18.6086C20.4879 18.6086 20.4879 18.6085 20.4879 18.6085C20.4968 18.5725 20.5055 18.5366 20.5141 18.5012C20.6181 18.0725 20.7056 17.7412 20.8892 17.4921L20.8892 17.492C21.0567 17.2647 21.28 17.0879 21.5356 16.9786L19.6668 21.7658ZM21.8603 17.7046L21.9365 17.9299L21.8555 17.7062L21.8561 17.7061L21.8583 17.7053L21.8593 17.7049L21.8598 17.7048L21.8601 17.7047L21.8602 17.7046L21.8602 17.7046L21.8603 17.7046L21.8603 17.7046ZM21.8531 17.7071L21.9131 17.88L21.8497 17.7083L21.8531 17.7071ZM21.4822 18.0034L21.7202 18.1698L21.7641 18.2004C21.4565 18.0492 21.4565 18.0492 21.4566 18.0491L21.4566 18.049L21.4567 18.0488L21.4569 18.0484L21.4574 18.0475L21.4583 18.0457L21.4601 18.042L21.4642 18.0342C21.4651 18.0325 21.466 18.0308 21.467 18.0291C21.4692 18.0251 21.4716 18.0208 21.4743 18.0163C21.4766 18.0124 21.4792 18.0081 21.4822 18.0034Z" fill="white" stroke="white"/>
</svg>
