<svg width="86" height="85" viewBox="0 0 86 85" fill="none" xmlns="http://www.w3.org/2000/svg">
<g clip-path="url(#clip0_532_3230)">
<path d="M0.5 39.1621C0.5 36.2218 2.541 33.7581 5.28367 33.1106C6.01683 32.9376 6.7175 33.5045 6.7175 34.2578V44.0665C6.7175 44.8198 6.01667 45.3866 5.28367 45.2136C2.541 44.5661 0.5 42.1025 0.5 39.1621Z" fill="url(#paint0_linear_532_3230)"/>
<path d="M45.4548 39.1621C45.4548 36.2218 43.4138 33.7581 40.6711 33.1106C39.938 32.9376 39.2373 33.5045 39.2373 34.2578V44.0665C39.2373 44.8198 39.9381 45.3866 40.6711 45.2136C43.4138 44.5661 45.4548 42.1025 45.4548 39.1621Z" fill="url(#paint1_linear_532_3230)"/>
<path d="M45.4548 39.1621C45.4548 36.2218 43.4138 33.7581 40.6711 33.1106C39.938 32.9376 39.2373 33.5045 39.2373 34.2578V44.0665C39.2373 44.8198 39.9381 45.3866 40.6711 45.2136C43.4138 44.5661 45.4548 42.1025 45.4548 39.1621Z" fill="url(#paint2_linear_532_3230)"/>
<path d="M67.7182 53.7622H27.1523V65.3177H41.8122C41.126 67.198 40.7513 69.2282 40.7513 71.346V77.1799H83.2113C84.366 77.1799 85.302 76.2439 85.302 75.0892V71.346C85.302 61.6349 77.4294 53.7622 67.7182 53.7622Z" fill="url(#paint3_linear_532_3230)"/>
<path d="M45.2549 77.1797H80.7956V59.594C77.5767 56.014 72.9099 53.7622 67.7167 53.7622H58.3337C53.1404 53.7622 48.4737 56.0142 45.2549 59.594V77.1797Z" fill="url(#paint4_linear_532_3230)"/>
<path d="M40.752 59.5935V77.1792H58.3378L40.752 59.5935Z" fill="url(#paint5_linear_532_3230)"/>
<path d="M74.8091 77.1799H83.2102C84.3649 77.1799 85.3009 76.2439 85.3009 75.0892V71.346C85.3009 61.6347 77.4284 53.7622 67.7171 53.7622H58.3341C56.2567 53.7622 54.2641 54.1235 52.4141 54.7849L74.8091 77.1799Z" fill="url(#paint6_linear_532_3230)"/>
<path d="M40.876 39.1621C40.876 36.2218 42.9171 33.7581 45.6596 33.1106C46.3926 32.9376 47.0935 33.5045 47.0935 34.2578V44.0665C47.0935 44.8198 46.3926 45.3866 45.6596 45.2136C42.917 44.5661 40.876 42.1025 40.876 39.1621Z" fill="url(#paint7_linear_532_3230)"/>
<path d="M85.4987 39.1621C85.4987 36.2218 83.4577 33.7581 80.7151 33.1106C79.9819 32.9376 79.2812 33.5045 79.2812 34.2578V44.0665C79.2812 44.8198 79.9821 45.3866 80.7151 45.2136C83.4577 44.5661 85.4987 42.1025 85.4987 39.1621Z" fill="url(#paint8_linear_532_3230)"/>
<path d="M85.4987 39.1621C85.4987 36.2218 83.4577 33.7581 80.7151 33.1106C79.9819 32.9376 79.2812 33.5045 79.2812 34.2578V44.0665C79.2812 44.8198 79.9821 45.3866 80.7151 45.2136C83.4577 44.5661 85.4987 42.1025 85.4987 39.1621Z" fill="url(#paint9_linear_532_3230)"/>
<path d="M63.0182 58.5783C72.8901 58.5783 80.8929 49.8877 80.8929 39.1674C80.8929 28.4471 72.8901 19.7566 63.0182 19.7566C53.1463 19.7566 45.1436 28.4471 45.1436 39.1674C45.1436 49.8877 53.1463 58.5783 63.0182 58.5783Z" fill="url(#paint10_linear_532_3230)"/>
<path d="M84.8547 25.4526C84.8547 24.1721 84.3197 23.0166 83.4612 22.1971C82.7537 21.5217 82.5007 20.4809 82.8257 19.5584C83.094 18.7971 83.2123 17.965 83.1448 17.0974C82.9322 14.3609 80.8317 12.0921 78.1198 11.6682C77.856 11.627 77.5948 11.6037 77.3377 11.597C76.4532 11.5744 75.6588 11.097 75.1993 10.3409C74.41 9.04205 72.9818 8.17455 71.351 8.17455C70.49 8.17455 69.6858 8.41655 69.0023 8.83622C68.1805 9.34072 67.1343 9.35655 66.3325 8.82088C65.384 8.18705 64.2442 7.81738 63.0177 7.81738C61.7912 7.81738 60.6513 8.18705 59.7028 8.82088C58.901 9.35655 57.8548 9.34072 57.033 8.83622C56.3495 8.41655 55.5453 8.17455 54.6843 8.17455C53.0535 8.17455 51.6252 9.04205 50.836 10.3409C50.3765 11.097 49.582 11.5744 48.6973 11.597C48.4405 11.6037 48.1798 11.6269 47.9163 11.6681C45.2045 12.0914 43.1037 14.3597 42.8905 17.0961C42.8228 17.9639 42.9412 18.7962 43.2095 19.5577C43.5347 20.4806 43.2813 21.5217 42.5737 22.1974C41.7153 23.0167 41.1807 24.1721 41.1807 25.4524C41.1807 26.9806 41.9427 28.3302 43.1072 29.1432C44.3865 30.0364 45.143 31.5031 45.143 33.0634V39.1637C45.143 33.1877 46.7627 28.1711 63.0177 28.1711C79.2727 28.1711 80.8923 33.1876 80.8923 39.1637V33.0634C80.8923 31.5031 81.6488 30.0364 82.9282 29.1432C84.0928 28.3304 84.8547 26.9807 84.8547 25.4526Z" fill="url(#paint11_linear_532_3230)"/>
<path d="M55.0482 42.448C53.6047 42.448 52.4346 41.2779 52.4346 39.8344V38.494C52.4346 37.0505 53.6047 35.8804 55.0482 35.8804C56.4917 35.8804 57.6619 37.0505 57.6619 38.494V39.8344C57.6619 41.2779 56.4917 42.448 55.0482 42.448Z" fill="url(#paint12_linear_532_3230)"/>
<path d="M70.9926 42.448C69.5491 42.448 68.3789 41.2779 68.3789 39.8344V38.494C68.3789 37.0505 69.5491 35.8804 70.9926 35.8804C72.4361 35.8804 73.6062 37.0505 73.6062 38.494V39.8344C73.6062 41.2779 72.4361 42.448 70.9926 42.448Z" fill="url(#paint13_linear_532_3230)"/>
<path d="M45.2509 77.1799H2.79086C1.6362 77.1799 0.700195 76.2439 0.700195 75.0892V71.346C0.700195 61.6347 8.5727 53.7622 18.284 53.7622H27.667C37.3784 53.7622 45.2509 61.6347 45.2509 71.346V77.1799Z" fill="url(#paint14_linear_532_3230)"/>
<path d="M45.2475 71.3455V77.1789H15.9925L2.63086 63.8189V63.3222C3.25586 62.1055 4.01919 60.9705 4.90086 59.9389C8.12419 56.1589 12.9225 53.7622 18.2809 53.7622H27.6642C37.3759 53.7622 45.2475 61.6337 45.2475 71.3455Z" fill="url(#paint15_linear_532_3230)"/>
<path d="M5.2041 77.1797H40.7448V59.594C37.5259 56.014 32.8591 53.7622 27.6659 53.7622H18.2829C13.0896 53.7622 8.42294 56.0142 5.2041 59.594V77.1797Z" fill="url(#paint16_linear_532_3230)"/>
<path d="M10.6264 62.4085C8.77244 64.2625 6.18261 64.932 3.79711 64.417C1.77928 63.9813 1.08328 61.4433 2.54294 59.9835L8.20128 54.3252C9.66094 52.8655 12.1991 53.5615 12.6348 55.5793C13.1498 57.9647 12.4803 60.5547 10.6264 62.4085Z" fill="url(#paint17_linear_532_3230)"/>
<path d="M34.7583 77.1799H45.2501V71.346C45.2501 61.6347 37.3776 53.7622 27.6663 53.7622H18.2833C16.2059 53.7622 14.2133 54.1235 12.3633 54.7849L34.7583 77.1799Z" fill="url(#paint18_linear_532_3230)"/>
<path d="M22.9743 58.5783C32.8462 58.5783 40.8489 49.8877 40.8489 39.1674C40.8489 28.4471 32.8462 19.7566 22.9743 19.7566C13.1024 19.7566 5.09961 28.4471 5.09961 39.1674C5.09961 49.8877 13.1024 58.5783 22.9743 58.5783Z" fill="url(#paint19_linear_532_3230)"/>
<path d="M15.0043 42.4485C13.5608 42.4485 12.3906 41.2784 12.3906 39.8349V38.4945C12.3906 37.051 13.5608 35.8809 15.0043 35.8809C16.4478 35.8809 17.618 37.051 17.618 38.4945V39.8349C17.618 41.2784 16.4478 42.4485 15.0043 42.4485Z" fill="url(#paint20_linear_532_3230)"/>
<path d="M30.9486 42.4485C29.5051 42.4485 28.335 41.2784 28.335 39.8349V38.4945C28.335 37.051 29.5051 35.8809 30.9486 35.8809C32.3921 35.8809 33.5623 37.051 33.5623 38.4945V39.8349C33.5623 41.2784 32.3921 42.4485 30.9486 42.4485Z" fill="url(#paint21_linear_532_3230)"/>
<path d="M43.8702 29.9779C41.2807 35.8746 31.6031 37.3267 22.2547 33.2214C12.9064 29.1161 7.42724 21.0077 10.0169 15.1109C12.6066 9.21406 22.2841 7.76206 31.6324 11.8674C40.9807 15.9727 46.4599 24.0811 43.8702 29.9779Z" fill="url(#paint22_linear_532_3230)"/>
<path d="M7.71933 35.9813C11.7065 35.9813 14.9387 31.761 14.9387 26.555C14.9387 21.349 11.7065 17.1287 7.71933 17.1287C3.73221 17.1287 0.5 21.349 0.5 26.555C0.5 31.761 3.73221 35.9813 7.71933 35.9813Z" fill="url(#paint23_linear_532_3230)"/>
</g>
<defs>
<linearGradient id="paint0_linear_532_3230" x1="2.3295" y1="36.474" x2="7.3305" y2="41.475" gradientUnits="userSpaceOnUse">
<stop stop-color="#FFDFCF"/>
<stop offset="1" stop-color="#FFA78F"/>
</linearGradient>
<linearGradient id="paint1_linear_532_3230" x1="37.2991" y1="35.5241" x2="44.297" y2="42.522" gradientUnits="userSpaceOnUse">
<stop stop-color="#FFDFCF"/>
<stop offset="1" stop-color="#FFA78F"/>
</linearGradient>
<linearGradient id="paint2_linear_532_3230" x1="42.6255" y1="39.1621" x2="38.4555" y2="39.1621" gradientUnits="userSpaceOnUse">
<stop stop-color="#CA6E59" stop-opacity="0"/>
<stop offset="1" stop-color="#883F2E"/>
</linearGradient>
<linearGradient id="paint3_linear_532_3230" x1="50.5305" y1="50.7574" x2="64.1277" y2="89.0762" gradientUnits="userSpaceOnUse">
<stop stop-color="#CCFC5C"/>
<stop offset="0.1591" stop-color="#C6F95A"/>
<stop offset="0.3653" stop-color="#B6F053"/>
<stop offset="0.5975" stop-color="#9BE248"/>
<stop offset="0.8469" stop-color="#76CF38"/>
<stop offset="1" stop-color="#5CC12D"/>
</linearGradient>
<linearGradient id="paint4_linear_532_3230" x1="63.0252" y1="67.425" x2="63.0252" y2="89.2099" gradientUnits="userSpaceOnUse">
<stop stop-color="#5CC12D" stop-opacity="0"/>
<stop offset="0.6065" stop-color="#61942D" stop-opacity="0.607"/>
<stop offset="1" stop-color="#647C2D"/>
</linearGradient>
<linearGradient id="paint5_linear_532_3230" x1="51.5613" y1="70.3933" x2="34.5058" y2="67.2267" gradientUnits="userSpaceOnUse">
<stop stop-color="#5CC12D" stop-opacity="0"/>
<stop offset="0.6065" stop-color="#61942D" stop-opacity="0.607"/>
<stop offset="1" stop-color="#647C2D"/>
</linearGradient>
<linearGradient id="paint6_linear_532_3230" x1="68.8574" y1="73.2874" x2="68.8574" y2="43.2459" gradientUnits="userSpaceOnUse">
<stop stop-color="#5CC12D" stop-opacity="0"/>
<stop offset="0.6065" stop-color="#61942D" stop-opacity="0.607"/>
<stop offset="1" stop-color="#647C2D"/>
</linearGradient>
<linearGradient id="paint7_linear_532_3230" x1="42.7055" y1="36.474" x2="47.7063" y2="41.475" gradientUnits="userSpaceOnUse">
<stop stop-color="#F1B0A2"/>
<stop offset="1" stop-color="#CA6E59"/>
</linearGradient>
<linearGradient id="paint8_linear_532_3230" x1="77.3431" y1="35.5241" x2="84.3409" y2="42.522" gradientUnits="userSpaceOnUse">
<stop stop-color="#F1B0A2"/>
<stop offset="1" stop-color="#CA6E59"/>
</linearGradient>
<linearGradient id="paint9_linear_532_3230" x1="84.4729" y1="39.1621" x2="79.7151" y2="39.1621" gradientUnits="userSpaceOnUse">
<stop stop-color="#CA6E59" stop-opacity="0"/>
<stop offset="1" stop-color="#883F2E"/>
</linearGradient>
<linearGradient id="paint10_linear_532_3230" x1="53.2601" y1="29.4093" x2="77.3629" y2="53.5123" gradientUnits="userSpaceOnUse">
<stop stop-color="#F1B0A2"/>
<stop offset="1" stop-color="#CA6E59"/>
</linearGradient>
<linearGradient id="paint11_linear_532_3230" x1="54.3752" y1="13.1039" x2="68.0998" y2="33.2401" gradientUnits="userSpaceOnUse">
<stop stop-color="#7A6D79"/>
<stop offset="1" stop-color="#554E56"/>
</linearGradient>
<linearGradient id="paint12_linear_532_3230" x1="52.4346" y1="39.1642" x2="57.6619" y2="39.1642" gradientUnits="userSpaceOnUse">
<stop stop-color="#7A6D79"/>
<stop offset="1" stop-color="#554E56"/>
</linearGradient>
<linearGradient id="paint13_linear_532_3230" x1="68.3789" y1="39.1642" x2="73.6062" y2="39.1642" gradientUnits="userSpaceOnUse">
<stop stop-color="#7A6D79"/>
<stop offset="1" stop-color="#554E56"/>
</linearGradient>
<linearGradient id="paint14_linear_532_3230" x1="17.7092" y1="57.0362" x2="28.3725" y2="87.0874" gradientUnits="userSpaceOnUse">
<stop stop-color="#89E2FF"/>
<stop offset="1" stop-color="#3FA9F5"/>
</linearGradient>
<linearGradient id="paint15_linear_532_3230" x1="19.7899" y1="61.1907" x2="-5.76564" y2="40.1352" gradientUnits="userSpaceOnUse">
<stop stop-color="#2740B0" stop-opacity="0"/>
<stop offset="0.2879" stop-color="#243CA6" stop-opacity="0.288"/>
<stop offset="0.7742" stop-color="#1D308C" stop-opacity="0.774"/>
<stop offset="1" stop-color="#192A7D"/>
</linearGradient>
<linearGradient id="paint16_linear_532_3230" x1="22.9744" y1="67.675" x2="22.9744" y2="92.4442" gradientUnits="userSpaceOnUse">
<stop stop-color="#2740B0" stop-opacity="0"/>
<stop offset="0.2879" stop-color="#243CA6" stop-opacity="0.288"/>
<stop offset="0.7742" stop-color="#1D308C" stop-opacity="0.774"/>
<stop offset="1" stop-color="#192A7D"/>
</linearGradient>
<linearGradient id="paint17_linear_532_3230" x1="5.47678" y1="57.259" x2="9.93111" y2="61.7133" gradientUnits="userSpaceOnUse">
<stop stop-color="#FFDFCF"/>
<stop offset="1" stop-color="#FFA78F"/>
</linearGradient>
<linearGradient id="paint18_linear_532_3230" x1="30.1073" y1="71.2402" x2="23.8573" y2="28.8237" gradientUnits="userSpaceOnUse">
<stop stop-color="#2740B0" stop-opacity="0"/>
<stop offset="0.2879" stop-color="#243CA6" stop-opacity="0.288"/>
<stop offset="0.7742" stop-color="#1D308C" stop-opacity="0.774"/>
<stop offset="1" stop-color="#192A7D"/>
</linearGradient>
<linearGradient id="paint19_linear_532_3230" x1="13.2161" y1="29.4093" x2="37.3189" y2="53.5123" gradientUnits="userSpaceOnUse">
<stop stop-color="#FFDFCF"/>
<stop offset="1" stop-color="#FFA78F"/>
</linearGradient>
<linearGradient id="paint20_linear_532_3230" x1="12.3906" y1="39.1647" x2="17.618" y2="39.1647" gradientUnits="userSpaceOnUse">
<stop stop-color="#7A6D79"/>
<stop offset="1" stop-color="#554E56"/>
</linearGradient>
<linearGradient id="paint21_linear_532_3230" x1="28.335" y1="39.1647" x2="33.5623" y2="39.1647" gradientUnits="userSpaceOnUse">
<stop stop-color="#7A6D79"/>
<stop offset="1" stop-color="#554E56"/>
</linearGradient>
<linearGradient id="paint22_linear_532_3230" x1="24.4917" y1="16.2989" x2="30.3806" y2="31.2989" gradientUnits="userSpaceOnUse">
<stop stop-color="#F5F173"/>
<stop offset="1" stop-color="#FBB03B"/>
</linearGradient>
<linearGradient id="paint23_linear_532_3230" x1="4.71017" y1="21.3285" x2="11.0435" y2="32.3285" gradientUnits="userSpaceOnUse">
<stop stop-color="#F5F173"/>
<stop offset="1" stop-color="#FBB03B"/>
</linearGradient>
<clipPath id="clip0_532_3230">
<rect width="85" height="85" fill="white" transform="translate(0.5)"/>
</clipPath>
</defs>
</svg>
