<svg width="87" height="88" viewBox="0 0 87 88" fill="none" xmlns="http://www.w3.org/2000/svg">
<g clip-path="url(#clip0_532_2865)">
<path d="M23.0975 43.2552C22.2901 43.2552 21.4825 43.2999 20.6794 43.3879C11.3337 44.4155 2.41059 53.5089 1.37288 63.0749C-0.0074743 75.3496 8.59919 86.4444 20.5948 87.8569C25.4848 88.4326 30.4201 87.3021 34.6046 84.6502C36.7239 83.2393 39.1419 82.3698 41.6578 82.1147C42.2641 82.0596 42.8792 82.0327 43.5031 82.0327C44.0948 82.0327 44.6822 82.0535 45.2637 82.0968C47.8173 82.343 50.2747 83.2214 52.4232 84.6562C62.6989 91.1455 76.1694 87.8821 82.5112 77.3676C85.0897 73.0931 86.1872 68.0551 85.626 63.0661C84.5897 53.5075 75.6652 44.4157 66.3193 43.3881C65.5176 43.3001 64.713 43.2554 63.9085 43.2554H23.0975V43.2552Z" fill="#FFD33F"/>
<path d="M53.7028 70.1005C56.1178 70.1005 58.0755 68.0972 58.0755 65.6261C58.0755 63.155 56.1178 61.1517 53.7028 61.1517C51.2878 61.1517 49.3301 63.155 49.3301 65.6261C49.3301 68.0972 51.2878 70.1005 53.7028 70.1005Z" fill="#EA3836"/>
<path d="M81.5287 52.9017C63.9857 73.0197 24.476 80.5069 9.04492 82.7306C16.2583 88.9708 26.5806 89.7419 34.6029 84.6412C36.7221 83.2302 39.1402 82.3607 41.656 82.1057C42.2653 82.0565 42.8832 82.0311 43.5057 82.0311C44.0974 82.0311 44.6848 82.0519 45.2663 82.0952C47.8199 82.3413 50.2773 83.2198 52.4258 84.6546C62.7016 91.1438 76.1721 87.8805 82.5139 77.3659C85.0923 73.0914 86.1898 68.0534 85.6287 63.0644C85.158 59.3671 83.7442 55.8622 81.5287 52.9017Z" fill="#FFAC3E"/>
<path d="M20.1823 55.1862H26.0125V62.6435H33.3001V68.6092H26.0125V76.0665H20.1823V68.6092H12.8945V62.6435H20.1823V55.1862Z" fill="#383856"/>
<path d="M63.9069 61.1486C66.3219 61.1486 68.2796 59.1454 68.2796 56.6743C68.2796 54.2031 66.3219 52.1999 63.9069 52.1999C61.4919 52.1999 59.5342 54.2031 59.5342 56.6743C59.5342 59.1454 61.4919 61.1486 63.9069 61.1486Z" fill="#91CECE"/>
<path d="M63.9069 79.0451C66.3219 79.0451 68.2796 77.0419 68.2796 74.5707C68.2796 72.0996 66.3219 70.0963 63.9069 70.0963C61.4919 70.0963 59.5342 72.0996 59.5342 74.5707C59.5342 77.0419 61.4919 79.0451 63.9069 79.0451Z" fill="#91CECE"/>
<path d="M74.1247 70.1005C76.5396 70.1005 78.4974 68.0972 78.4974 65.6261C78.4974 63.155 76.5396 61.1517 74.1247 61.1517C71.7097 61.1517 69.752 63.155 69.752 65.6261C69.752 68.0972 71.7097 70.1005 74.1247 70.1005Z" fill="#EA3836"/>
<path d="M40.5889 43.2483V37.2826H46.419V43.2483" fill="#874D1B"/>
<path d="M44.9657 37.286H42.0506V32.8116C42.0506 31.1635 40.7462 29.8287 39.1355 29.8287H31.8477C28.628 29.8287 26.0176 27.1576 26.0176 23.863C26.0176 20.5683 28.628 17.8972 31.8477 17.8972H55.1684C56.779 17.8972 58.0835 16.5625 58.0835 14.9144C58.0835 13.2663 56.779 11.9315 55.1684 11.9315H47.8806C44.6608 11.9315 42.0504 9.2604 42.0504 5.96575V0H44.9655V5.96575C44.9655 7.61385 46.27 8.94862 47.8806 8.94862H55.1684C58.3882 8.94862 60.9985 11.6197 60.9985 14.9144C60.9985 18.209 58.3882 20.8801 55.1684 20.8801H31.8477C30.2371 20.8801 28.9327 22.2149 28.9327 23.863C28.9327 25.5111 30.2371 26.8459 31.8477 26.8459H39.1355C42.3553 26.8459 44.9657 29.517 44.9657 32.8116V37.286Z" fill="#383856"/>
<path d="M55.9682 61.8177C56.391 62.5142 56.6154 63.3166 56.6182 64.1354C56.6182 66.6068 54.6607 68.6098 52.2455 68.6098C51.4453 68.6069 50.6612 68.3771 49.9805 67.9447C51.2253 70.0536 53.9071 70.7308 55.968 69.457C58.029 68.1832 58.6908 65.4391 57.446 63.3302C57.0803 62.7111 56.573 62.1921 55.9682 61.8177Z" fill="#D62121"/>
<path d="M66.1723 52.8659C66.5951 53.5623 66.8195 54.3648 66.8223 55.1836C66.8223 57.655 64.8648 59.658 62.4496 59.658C61.6494 59.6551 60.8653 59.4253 60.1846 58.9928C61.4294 61.1017 64.1111 61.7789 66.1721 60.5052C68.2331 59.2314 68.8949 56.4873 67.6501 54.3784C67.2844 53.7591 66.7773 53.2402 66.1723 52.8659Z" fill="#83B2B7"/>
<path d="M76.3764 61.8177C76.799 62.5142 77.0236 63.3166 77.0264 64.1354C77.0264 66.6068 75.0689 68.6098 72.6537 68.6098C71.8535 68.6069 71.0694 68.3771 70.3887 67.9447C71.6335 70.0536 74.3153 70.7308 76.3762 69.457C78.4372 68.1832 79.099 65.4391 77.8542 63.3302C77.4885 62.7111 76.9812 62.1921 76.3764 61.8177Z" fill="#D62121"/>
<path d="M66.1723 70.7624C66.5951 71.4588 66.8195 72.2613 66.8223 73.0801C66.8223 75.5515 64.8648 77.5545 62.4496 77.5545C61.6494 77.5516 60.8653 77.3218 60.1846 76.8893C61.4294 78.9982 64.1111 79.6754 66.1721 78.4016C68.2331 77.1279 68.8949 74.3837 67.6501 72.2749C67.2844 71.6558 66.7773 71.1367 66.1723 70.7624Z" fill="#83B2B7"/>
<path d="M12.8945 67.1499V68.607H20.1823V76.0643H26.0125V68.607H33.3003V62.6413H30.8676C25.1102 66.7487 16.3315 67.1603 12.8945 67.1499Z" fill="#202033"/>
<path d="M40.5889 42.8419V43.249H46.419V38.3496C45.0301 40.481 42.9735 42.0648 40.5889 42.8419Z" fill="#6B3713"/>
</g>
<defs>
<clipPath id="clip0_532_2865">
<rect width="86" height="88" fill="white" transform="translate(0.5)"/>
</clipPath>
</defs>
</svg>
