<svg width="135" height="55" viewBox="0 0 135 55" fill="none" xmlns="http://www.w3.org/2000/svg">
<path d="M42.2031 19.7085C42.2031 30.5962 33.3823 39.4169 22.4946 39.4169C11.6069 39.4169 2.78613 30.5962 2.78613 19.7085C2.78613 8.82077 11.6069 0 22.4946 0C33.3823 0 42.2031 8.82077 42.2031 19.7085Z" fill="#261E1C"/>
<path d="M25.4174 18.7158C25.4174 22.5585 22.3025 25.6589 18.4743 25.6589C14.6462 25.6589 11.5312 22.5439 11.5312 18.7158C11.5312 14.8876 14.6462 11.7727 18.4743 11.7727C22.3025 11.7727 25.4174 14.8876 25.4174 18.7158Z" fill="white"/>
<path d="M34.9359 15.7916C34.9359 18.0186 33.131 19.8235 30.904 19.8235C28.677 19.8235 26.8721 18.0186 26.8721 15.7916C26.8721 13.5646 28.677 11.7596 30.904 11.7596C33.131 11.7596 34.9359 13.5646 34.9359 15.7916Z" fill="white"/>
<path d="M132.215 19.7085C132.215 30.5962 123.394 39.4169 112.506 39.4169C101.619 39.4169 92.7979 30.5962 92.7979 19.7085C92.7979 8.82077 101.619 0 112.506 0C123.394 0 132.215 8.82077 132.215 19.7085Z" fill="#261E1C"/>
<path d="M115.447 18.7158C115.447 22.5585 112.332 25.6589 108.504 25.6589C104.675 25.6589 101.561 22.5439 101.561 18.7158C101.561 14.8876 104.675 11.7727 108.504 11.7727C112.332 11.7727 115.447 14.8876 115.447 18.7158Z" fill="white"/>
<path d="M124.952 15.7916C124.952 18.0186 123.147 19.8235 120.92 19.8235C118.693 19.8235 116.888 18.0186 116.888 15.7916C116.888 13.5646 118.693 11.7596 120.92 11.7596C123.147 11.7596 124.952 13.5646 124.952 15.7916Z" fill="white"/>
<path d="M84.7344 39.4315C84.7344 46.7822 77.0199 52.75 67.4859 52.75C57.9519 52.75 50.2373 46.7822 50.2373 39.4315" stroke="#261E1C" stroke-width="3" stroke-linecap="round" stroke-linejoin="round"/>
<path d="M22.7109 43.1588C21.2408 46.361 15.0401 46.6667 8.85388 43.8283C2.6677 40.99 -1.1459 36.0993 0.309673 32.897C1.7798 29.6947 7.98054 29.3891 14.1667 32.2274C20.3529 35.0658 24.1665 39.9565 22.6964 43.1588H22.7109Z" fill="#FCA695"/>
<path d="M112.289 43.1588C113.759 46.361 119.96 46.6667 126.146 43.8283C132.332 40.99 136.146 36.0993 134.69 32.897C133.22 29.6947 127.019 29.3891 120.833 32.2274C114.647 35.0658 110.833 39.9565 112.303 43.1588H112.289Z" fill="#FCA695"/>
</svg>
