<svg width="32" height="32" viewBox="0 0 32 32" fill="none" xmlns="http://www.w3.org/2000/svg">
<path d="M20.1429 20C20.1429 18.7371 16.5611 17.7143 12.1429 17.7143M20.1429 20C20.1429 21.2629 16.5611 22.2857 12.1429 22.2857C7.72457 22.2857 4.14286 21.2629 4.14286 20M20.1429 20V25.6423C20.1429 26.944 16.5611 28 12.1429 28C7.72457 28 4.14286 26.9451 4.14286 25.6423V20M20.1429 20C24.5131 20 28.1429 18.872 28.1429 17.7143V6.28571M12.1429 17.7143C7.72457 17.7143 4.14286 18.7371 4.14286 20M12.1429 17.7143C7.09371 17.7143 3 16.5863 3 15.4286V9.71429M12.1429 7.42857C7.09371 7.42857 3 8.45143 3 9.71429M3 9.71429C3 10.9771 7.09371 12 12.1429 12C12.1429 13.1577 15.8606 14.2857 20.2309 14.2857C24.6011 14.2857 28.1429 13.1577 28.1429 12M28.1429 6.28571C28.1429 5.02286 24.6 4 20.2309 4C15.8617 4 12.3189 5.02286 12.3189 6.28571M28.1429 6.28571C28.1429 7.54857 24.6 8.57143 20.2309 8.57143C15.8617 8.57143 12.3189 7.54857 12.3189 6.28571M12.3189 6.28571V17.904" stroke="white" stroke-width="1.5"/>
</svg>
