<svg width="136" height="54" viewBox="0 0 136 54" fill="none" xmlns="http://www.w3.org/2000/svg">
<path d="M30.5223 15.7612C30.5223 23.912 23.912 23.5082 15.7612 23.5082C7.61037 23.5082 1 23.912 1 15.7612C1 7.61037 7.61037 1 15.7612 1C23.912 1 30.5223 7.61037 30.5223 15.7612Z" fill="#261E1C" stroke="#261E1C" stroke-linecap="round" stroke-linejoin="round"/>
<path d="M26.1236 9.12355C26.1236 13.5354 22.5342 17.1248 18.1223 17.1248C13.7104 17.1248 10.1211 13.5354 10.1211 9.12355C10.1211 4.71165 13.6955 1.12231 18.1223 1.12231C22.5492 1.12231 26.1236 4.71165 26.1236 9.12355Z" fill="white"/>
<path d="M15.0876 18.9476C15.0876 20.6226 13.7266 21.9836 12.0516 21.9836C10.3766 21.9836 9.01562 20.6226 9.01562 18.9476C9.01562 17.2726 10.3766 15.9116 12.0516 15.9116C13.7266 15.9116 15.0876 17.2726 15.0876 18.9476Z" fill="white"/>
<path d="M105.734 15.7612C105.734 23.912 112.345 23.5082 120.496 23.5082C128.646 23.5082 135.257 23.912 135.257 15.7612C135.257 7.61037 128.646 1 120.496 1C112.345 1 105.734 7.61037 105.734 15.7612Z" fill="#261E1C" stroke="#261E1C" stroke-linecap="round" stroke-linejoin="round"/>
<path d="M110.057 9.10665C110.057 13.5634 113.676 17.1827 118.133 17.1827C122.589 17.1827 126.209 13.5634 126.209 9.10665C126.209 4.64989 122.589 1.03064 118.133 1.03064C113.676 1.03064 110.057 4.64989 110.057 9.10665Z" fill="white"/>
<path d="M121.184 19.0212C121.184 20.7112 122.545 22.0871 124.249 22.0871C125.954 22.0871 127.315 20.7112 127.315 19.0212C127.315 17.3312 125.939 15.9553 124.249 15.9553C122.56 15.9553 121.184 17.3312 121.184 19.0212Z" fill="white"/>
<path d="M91.6885 32.7645C91.6885 21.5927 81.1448 32.0167 68.1185 32.0167C55.0922 32.0167 44.5635 21.5927 44.5635 32.7645C44.5635 43.9363 55.1072 52.9994 68.1185 52.9994C81.1299 52.9994 91.6885 43.9363 91.6885 32.7645Z" fill="#261E1C" stroke="#261E1C" stroke-linecap="round" stroke-linejoin="round"/>
<path d="M54.2991 35.2327C52.8933 33.4231 52.0109 30.5815 51.8613 28.3232C56.0938 29.5795 61.8068 32.0173 68.118 32.0173C74.4293 32.0173 80.1573 29.5646 84.3748 28.3232C84.1953 30.8956 83.7765 33.2885 81.9968 35.2626C79.0356 38.5379 57.1556 38.9268 54.2841 35.2477L54.2991 35.2327Z" fill="white"/>
<path d="M68.1354 42.1422C61.7494 42.1422 56.3055 44.9688 54.0771 48.9769C58.0105 51.4894 62.8561 53 68.1354 53C73.4147 53 78.2603 51.4894 82.1936 48.9769C79.9653 44.9688 74.5065 42.1422 68.1354 42.1422Z" fill="#FE6661"/>
</svg>
