<svg width="80" height="79" viewBox="0 0 80 79" fill="none" xmlns="http://www.w3.org/2000/svg">
<path fill-rule="evenodd" clip-rule="evenodd" d="M41.0481 73.892C41.998 74.682 42.4707 75.1116 42.948 75.1299C43.4206 75.1114 43.8978 74.6818 44.8478 73.892L69.8946 47.8375C77.3027 39.7855 77.3027 26.6059 69.8946 18.5493C63.1636 11.2318 52.1105 12.8581 45.0976 19.8658L43.7796 21.1825C43.016 21.9447 42.8707 21.9447 42.0888 21.164L40.7935 19.8658C33.7944 12.8534 22.7275 11.2318 15.9966 18.5493C8.58838 26.6059 8.58838 39.7855 15.9966 47.8375L19.0007 50.965L41.0481 73.892Z" fill="#FD8087"/>
<path fill-rule="evenodd" clip-rule="evenodd" d="M48.1826 17.3075C51.7867 22.62 53.8774 28.9303 53.8774 35.6981C53.8774 36.4371 53.85 37.1671 53.8001 37.8878C53.4001 43.8979 51.3458 49.4876 48.0644 54.2597C46.6192 56.3616 44.9375 58.3063 43.0469 60.0619C41.029 61.9375 38.7792 63.5913 36.3386 64.9818C35.5023 65.4577 34.6434 65.9057 33.7617 66.3215L41.0472 73.8976C41.9971 74.6876 42.4698 75.1173 42.9471 75.1356C43.4197 75.1171 43.8969 74.6875 44.8469 73.8976L52.5095 65.9242L69.8935 47.8428C75.7473 41.4816 76.9744 31.9145 73.5795 24.2091C72.675 22.1626 71.4479 20.2455 69.8935 18.5547C68.8709 17.446 67.7484 16.5405 66.5575 15.8292C62.6762 13.5149 58.054 13.2515 53.691 14.6096C51.7776 15.2055 49.9097 16.1203 48.1826 17.3075Z" fill="#FE636E"/>
<path d="M50.3334 45.0204C50.3263 45.0204 50.3192 45.0202 50.3123 45.0202C49.8847 45.0125 49.4941 44.7725 49.2882 44.3916L43.126 32.9779L38.5378 41.126C38.3299 41.4953 37.9467 41.7267 37.5281 41.7356C37.1065 41.7434 36.717 41.5296 36.4942 41.1696L33.6442 36.5666L31.4935 40.1975C31.2779 40.5616 30.8904 40.7842 30.4722 40.7842H23.0231C22.3648 40.7842 21.8311 40.2417 21.8311 39.5725C21.8311 38.9034 22.3648 38.3609 23.0231 38.3609H29.7984L32.6004 33.6305C32.814 33.2701 33.196 33.0478 33.61 33.0438C33.614 33.0436 33.6178 33.0436 33.6217 33.0436C34.0312 33.0436 34.4123 33.2573 34.6306 33.6099L37.4545 38.1707L42.1132 29.8976C42.3256 29.5203 42.7206 29.2878 43.1477 29.2878C43.1514 29.2878 43.1548 29.2878 43.1585 29.288C43.5898 29.2919 43.9854 29.5324 44.1929 29.9167L50.3757 41.3687L53.4949 36.0467C53.7099 35.6799 54.099 35.4551 54.5191 35.4551H64.4542C65.1126 35.4551 65.6463 35.9976 65.6463 36.6668C65.6463 37.3359 65.1126 37.8784 64.4542 37.8784H55.1967L51.3575 44.4288C51.1422 44.7959 50.753 45.0204 50.3334 45.0204Z" fill="#F8F2F0"/>
<path fill-rule="evenodd" clip-rule="evenodd" d="M66.5601 26.3086C73.6865 26.3086 79.4994 20.4001 79.4994 13.152C79.4994 5.90851 73.6865 0 66.5601 0C59.4291 0 53.6162 5.90851 53.6162 13.152C53.6162 20.4001 59.4291 26.3086 66.5601 26.3086Z" fill="#F8F2F0"/>
<path fill-rule="evenodd" clip-rule="evenodd" d="M61.9206 0.868525C66.47 2.91044 69.6423 7.53004 69.6423 12.9072C69.6423 12.9903 69.6423 13.0735 69.6378 13.152C69.6105 14.6811 69.3287 16.1455 68.8288 17.499C67.5381 21.0285 64.7929 23.8417 61.3389 25.1907C62.9341 25.9114 64.702 26.3086 66.561 26.3086C69.147 26.3086 71.5603 25.5371 73.5828 24.2066C77.146 21.8598 79.5002 17.7854 79.5002 13.152C79.5002 5.89001 73.7055 0 66.5608 0C64.9247 0 63.3614 0.304869 61.9206 0.868525Z" fill="#D6DCEA"/>
<path d="M71.2692 11.9413H67.7528V8.36716C67.7528 7.69801 67.2191 7.15552 66.5607 7.15552C65.9023 7.15552 65.3686 7.69801 65.3686 8.36716V11.9414H61.8522C61.1939 11.9414 60.6602 12.4839 60.6602 13.1531C60.6602 13.8222 61.1939 14.3647 61.8522 14.3647H65.3686V17.939C65.3686 18.6081 65.9023 19.1506 66.5607 19.1506C67.2191 19.1506 67.7528 18.6081 67.7528 17.939V14.3645H71.2692C71.9276 14.3645 72.4613 13.822 72.4613 13.1529C72.4613 12.4838 71.9277 11.9413 71.2692 11.9413Z" fill="#FD8087"/>
<path fill-rule="evenodd" clip-rule="evenodd" d="M11.5399 53.8972L8.88574 62.6468L11.5399 71.9182L23.7657 75.2997L33.6826 78.0391C39.4682 79.8685 42.0224 78.8244 47.3445 77.0875L66.8466 70.731C72.4459 68.9064 71.6097 61.0807 63.4153 63.7554L52.5121 65.9219L50.7305 66.2776C48.0854 66.7996 47.7217 67.0167 45.054 66.5964L36.3414 64.9796L34.7597 64.684C31.1874 63.5245 32.5781 58.6646 35.696 59.1451C37.8047 59.4177 40.6317 59.8056 43.0495 60.0597C43.0995 60.0642 43.1495 60.0689 43.195 60.0735C47.8626 60.5539 49.7351 57.0107 48.0672 54.2574C47.4355 53.2088 46.2856 52.271 44.5812 51.7213L38.0138 50.4971C33.7552 49.7026 30.7283 50.6912 24.1201 51.7953L20.3979 52.419L11.5399 53.8972Z" fill="#FED1A3"/>
<path fill-rule="evenodd" clip-rule="evenodd" d="M0.5 52.3325V73.6519C0.5 73.9198 0.777269 74.137 1.11363 74.137H10.9216C11.2624 74.137 11.5397 73.92 11.5397 73.6519V71.9196V53.8986V52.3325C11.5397 52.0647 11.2624 51.8474 10.9216 51.8474H1.11363C0.777269 51.8476 0.5 52.0647 0.5 52.3325Z" fill="#99E6FC"/>
<path fill-rule="evenodd" clip-rule="evenodd" d="M0.5 70.3748V73.6501C0.5 73.918 0.777269 74.1352 1.11363 74.1352H10.9216C11.2624 74.1352 11.5397 73.9181 11.5397 73.6501V71.9178V70.3748C11.5397 70.6381 11.2624 70.8599 10.9216 70.8599H1.11363C0.777269 70.8599 0.5 70.6381 0.5 70.3748Z" fill="#62DBFB"/>
<path fill-rule="evenodd" clip-rule="evenodd" d="M11.54 70.3742V71.9172L23.7658 75.2986L33.6827 78.0381C39.4683 79.8674 42.0225 78.8234 47.3446 77.0865L66.8468 70.73C70.0055 69.7044 71.1144 66.7664 70.0146 64.877C69.4738 65.9671 68.4149 66.9465 66.8468 67.4546L47.3446 73.8111C42.0225 75.5435 39.4683 76.5921 33.6827 74.7627L23.7658 72.0233L11.54 68.6371V70.3742Z" fill="#FFBC85"/>
<path fill-rule="evenodd" clip-rule="evenodd" d="M35.696 55.8683C33.2236 55.4895 31.8374 58.4599 33.1463 60.2846C33.6689 59.4946 34.5689 58.9727 35.696 59.1435C37.8048 59.4161 40.6318 59.804 43.0496 60.0581L43.1951 60.0719C47.6445 60.5293 49.5534 57.3372 48.2808 54.6531C47.9309 55.3368 47.3445 55.9235 46.5356 56.3161C45.672 56.7365 44.5495 56.9351 43.1951 56.7966L43.0496 56.7828C40.6318 56.5288 37.8049 56.1407 35.696 55.8683Z" fill="#FFBC85"/>
</svg>
