<svg width="86" height="85" viewBox="0 0 86 85" fill="none" xmlns="http://www.w3.org/2000/svg">
<path d="M82.8438 43.42V50.313C82.6097 50.1708 82.354 50.0676 82.0867 50.0075L81.5156 49.888V49.8747L80.1875 49.5825V43.513C80.5638 43.7267 80.99 43.8366 81.4227 43.8317H81.5156C81.987 43.8149 82.4455 43.6727 82.8438 43.42Z" fill="#565656"/>
<path d="M5.8125 43.5124V49.5819L4.48438 49.8741V49.8874L3.91328 50.0069C3.64603 50.067 3.39034 50.1702 3.15625 50.3124V43.4062C3.55066 43.6689 4.01069 43.8161 4.48438 43.8312H4.57734C5.01001 43.8361 5.43624 43.7261 5.8125 43.5124Z" fill="#565656"/>
<path d="M19.0938 47.8125V70.3906C19.0938 71.0951 18.8139 71.7707 18.3158 72.2689C17.8176 72.767 17.142 73.0469 16.4375 73.0469C15.733 73.0469 15.0574 72.767 14.5592 72.2689C14.0611 71.7707 13.7812 71.0951 13.7812 70.3906V47.8125C13.7834 47.1087 14.0639 46.4343 14.5616 45.9366C15.0593 45.4389 15.7337 45.1584 16.4375 45.1562C17.1404 45.1615 17.813 45.443 18.31 45.94C18.807 46.437 19.0885 47.1096 19.0938 47.8125Z" fill="#666666"/>
<path d="M66.9062 47.8125V70.3906V73.0469H52.2969V57.1094V41.1719H66.9062V47.8125Z" fill="#99E0D4"/>
<path d="M66.9062 73.0469V78.3594H52.2969V75.7031V73.0469H66.9062Z" fill="#7070F2"/>
<path d="M66.9062 35.8594V41.1719H52.2969V38.5156V35.8594H66.9062Z" fill="#7070F2"/>
<path d="M66.9062 31.875V35.8594H52.2969V31.875C52.2969 31.5228 52.4368 31.1849 52.6859 30.9359C52.9349 30.6868 53.2728 30.5469 53.625 30.5469H65.5781C65.9304 30.5469 66.2682 30.6868 66.5173 30.9359C66.7663 31.1849 66.9062 31.5228 66.9062 31.875Z" fill="#99E0D4"/>
<path d="M30.582 73.0469C30.0364 74.6011 29.0212 75.9473 27.6768 76.8991C26.3324 77.8509 24.7253 78.3612 23.0781 78.3594H19.0938V73.0469H30.582Z" fill="#7070F2"/>
<path d="M33.7031 57.1094V73.0469H19.0938V70.3906V47.8125V41.1719H33.7031V57.1094Z" fill="#99E0D4"/>
<path d="M33.7031 38.5156V41.1719H19.0938V35.8594H33.7031V38.5156Z" fill="#7070F2"/>
<path d="M33.7031 31.875V35.8594H19.0938V31.875C19.0938 31.5228 19.2337 31.1849 19.4827 30.9359C19.7318 30.6868 20.0696 30.5469 20.4219 30.5469H32.375C32.7272 30.5469 33.0651 30.6868 33.3141 30.9359C33.5632 31.1849 33.7031 31.5228 33.7031 31.875Z" fill="#99E0D4"/>
<path d="M33.7031 31.875V35.8594H31.0469V30.5469H32.375C32.7272 30.5469 33.0651 30.6868 33.3141 30.9359C33.5632 31.1849 33.7031 31.5228 33.7031 31.875Z" fill="#5BD3C7"/>
<path d="M31.0469 35.8594H33.7031V41.1719H31.0469V35.8594Z" fill="#5858DD"/>
<path d="M33.7041 41.1719V73.0469H30.583C30.8929 72.1957 31.0503 71.2965 31.0479 70.3906V41.1719H33.7041Z" fill="#5BD3C7"/>
<path d="M33.7031 73.0469V78.3594H23.0781C24.7253 78.3612 26.3324 77.8509 27.6768 76.8991C29.0212 75.9473 30.0364 74.6011 30.582 73.0469H33.7031Z" fill="#5858DD"/>
<path d="M33.7031 78.3594V82.3438C33.7031 82.696 33.5632 83.0338 33.3141 83.2829C33.0651 83.5319 32.7272 83.6719 32.375 83.6719H20.4219C20.0696 83.6719 19.7318 83.5319 19.4827 83.2829C19.2337 83.0338 19.0938 82.696 19.0938 82.3438V78.3594H33.7031Z" fill="#5BD3C7"/>
<path d="M66.9062 31.875V35.8594H64.25V30.5469H65.5781C65.9304 30.5469 66.2682 30.6868 66.5173 30.9359C66.7663 31.1849 66.9062 31.5228 66.9062 31.875Z" fill="#5BD3C7"/>
<path d="M64.25 35.8594H66.9062V41.1719H64.25V35.8594Z" fill="#5858DD"/>
<path d="M66.9072 41.1719V73.0469H63.7861C64.0961 72.1957 64.2534 71.2965 64.251 70.3906V41.1719H66.9072Z" fill="#5BD3C7"/>
<path d="M66.9062 73.0469V78.3594H56.2812C57.9285 78.3612 59.5355 77.8509 60.8799 76.8991C62.2243 75.9473 63.2396 74.6011 63.7852 73.0469H66.9062Z" fill="#5858DD"/>
<path d="M66.9062 78.3594V82.3438C66.9062 82.696 66.7663 83.0338 66.5173 83.2829C66.2682 83.5319 65.9304 83.6719 65.5781 83.6719H53.625C53.2728 83.6719 52.9349 83.5319 52.6859 83.2829C52.4368 83.0338 52.2969 82.696 52.2969 82.3438V78.3594H66.9062Z" fill="#5BD3C7"/>
<path d="M84.1719 52.5937V65.6094C84.1692 66.2135 83.9614 66.7987 83.5826 67.2693C83.2038 67.7398 82.6763 68.0677 82.0867 68.1992L72.2188 70.3906V47.8125L81.5156 49.8711V49.8844L82.0867 50.0039C82.6763 50.1354 83.2038 50.4633 83.5826 50.9339C83.9614 51.4044 84.1692 51.9897 84.1719 52.5937Z" fill="#EAEAEA"/>
<path d="M84.1719 52.5907V65.6063C84.1692 66.2104 83.9614 66.7957 83.5826 67.2662C83.2038 67.7368 82.6763 68.0647 82.0867 68.1962L72.2188 70.3876V66.8415L78.1023 65.5399C78.6919 65.4084 79.2194 65.0805 79.5982 64.61C79.9771 64.1394 80.1848 63.5542 80.1875 62.9501V49.9345C80.1857 49.8101 80.1769 49.6859 80.1609 49.5626L81.5156 49.8681V49.8813L82.0867 50.0009C82.6763 50.1324 83.2038 50.4603 83.5826 50.9308C83.9614 51.4014 84.1692 51.9866 84.1719 52.5907Z" fill="#DAD4D4"/>
<path d="M81.5125 43.8281H81.4195C80.7476 43.8292 80.1004 43.5745 79.6095 43.1157C79.1186 42.6568 78.8208 42.0283 78.7766 41.3578C77.5547 22.007 61.9758 6.64062 42.9969 6.64062C24.018 6.64062 8.43906 22.007 7.21719 41.3578C7.17298 42.0283 6.87516 42.6568 6.38426 43.1157C5.89335 43.5745 5.24617 43.8292 4.57422 43.8281H4.48125C3.7953 43.8041 3.14527 43.5155 2.66742 43.0228C2.18956 42.5301 1.92098 41.8715 1.91797 41.1852V40.9992C3.32578 18.8727 21.2156 1.32812 42.9969 1.32812C64.7781 1.32812 82.668 18.8727 84.0758 40.9992C84.0991 41.3546 84.0508 41.711 83.9336 42.0473C83.8164 42.3837 83.6328 42.693 83.3936 42.9569C83.1545 43.2208 82.8647 43.4339 82.5416 43.5836C82.2184 43.7333 81.8685 43.8164 81.5125 43.8281Z" fill="#666666"/>
<path d="M84.0789 40.9992C84.1022 41.3546 84.0539 41.711 83.9367 42.0473C83.8195 42.3837 83.6359 42.693 83.3968 42.9569C83.1576 43.2208 82.8679 43.4339 82.5447 43.5836C82.2215 43.7333 81.8716 43.8164 81.5156 43.8281H81.4227C80.9594 43.834 80.5039 43.7098 80.1078 43.4695C80.5345 43.2202 80.8835 42.8572 81.1157 42.4209C81.3479 41.9847 81.4542 41.4924 81.4227 40.9992C80.0414 19.3242 62.8555 2.04531 41.6719 1.36797C42.1102 1.34141 42.5617 1.32812 43 1.32812C64.7812 1.32812 82.6711 18.8727 84.0789 40.9992Z" fill="#4D4D4D"/>
<path d="M72.2188 47.8125V70.3906C72.2188 71.0951 71.9389 71.7707 71.4408 72.2689C70.9426 72.767 70.267 73.0469 69.5625 73.0469C68.858 73.0469 68.1824 72.767 67.6842 72.2689C67.1861 71.7707 66.9062 71.0951 66.9062 70.3906V47.8125C66.9115 47.1096 67.193 46.437 67.69 45.94C68.187 45.443 68.8596 45.1615 69.5625 45.1562C70.2663 45.1584 70.9407 45.4389 71.4384 45.9366C71.9361 46.4343 72.2166 47.1087 72.2188 47.8125Z" fill="#666666"/>
<path d="M72.2188 47.8098V70.3879C72.2183 70.8539 72.0952 71.3117 71.8619 71.7151C71.6285 72.1185 71.2932 72.4534 70.8894 72.6862C70.4857 72.9191 70.0279 73.0416 69.5618 73.0414C69.0958 73.0413 68.638 72.9186 68.2344 72.6856C68.6378 72.4527 68.9728 72.1178 69.2059 71.7145C69.4391 71.3112 69.562 70.8537 69.5625 70.3879V47.8098C69.562 47.344 69.4391 46.8865 69.2059 46.4832C68.9728 46.0799 68.6378 45.745 68.2344 45.5121C68.638 45.2791 69.0958 45.1564 69.5618 45.1563C70.0279 45.1561 70.4857 45.2786 70.8894 45.5114C71.2932 45.7443 71.6285 46.0792 71.8619 46.4826C72.0952 46.886 72.2183 47.3437 72.2188 47.8098Z" fill="#4D4D4D"/>
<path d="M19.0938 47.8098V70.3879C19.0933 70.8539 18.9702 71.3117 18.7369 71.7151C18.5035 72.1185 18.1682 72.4534 17.7644 72.6862C17.3607 72.9191 16.9029 73.0416 16.4368 73.0414C15.9708 73.0413 15.513 72.9186 15.1094 72.6856C15.5128 72.4527 15.8478 72.1178 16.0809 71.7145C16.3141 71.3112 16.437 70.8537 16.4375 70.3879V47.8098C16.437 47.344 16.3141 46.8865 16.0809 46.4832C15.8478 46.0799 15.5128 45.745 15.1094 45.5121C15.513 45.2791 15.9708 45.1564 16.4368 45.1563C16.9029 45.1561 17.3607 45.2786 17.7644 45.5114C18.1682 45.7443 18.5035 46.0792 18.7369 46.4826C18.9702 46.886 19.0933 47.3437 19.0938 47.8098Z" fill="#4D4D4D"/>
<path d="M52.2969 78.3594V82.3438C52.2969 82.696 52.1569 83.0338 51.9079 83.2829C51.6588 83.5319 51.321 83.6719 50.9688 83.6719H35.0312C34.679 83.6719 34.3412 83.5319 34.0921 83.2829C33.8431 83.0338 33.7031 82.696 33.7031 82.3438V57.1094H52.2969V78.3594Z" fill="#FFCA3A"/>
<path d="M52.2969 41.1719V57.1094H33.7031V41.1719V38.5156H52.2969V41.1719Z" fill="#F7931E"/>
<path d="M52.2969 35.8594V38.5156H33.7031V31.875C33.7031 31.5228 33.8431 31.1849 34.0921 30.9359C34.3412 30.6868 34.679 30.5469 35.0312 30.5469H50.9688C51.321 30.5469 51.6588 30.6868 51.9079 30.9359C52.1569 31.1849 52.2969 31.5228 52.2969 31.875V35.8594Z" fill="#FFCA3A"/>
<path d="M52.2969 57.1094V82.3438C52.2969 82.696 52.1569 83.0338 51.9079 83.2829C51.6588 83.5319 51.321 83.6719 50.9688 83.6719H35.0312C34.679 83.6719 34.3412 83.5319 34.0921 83.2829C33.8431 83.0338 33.7031 82.696 33.7031 82.3438V78.3594H40.3438C42.4572 78.3594 44.4841 77.5198 45.9785 76.0254C47.4729 74.531 48.3125 72.5041 48.3125 70.3906V57.1094H52.2969Z" fill="#F7931E"/>
<path d="M48.3125 38.5156H52.2969V57.1094H48.3125V38.5156Z" fill="#F15A24"/>
<path d="M52.2969 31.875V38.5156H48.3125V30.5469H50.9688C51.321 30.5469 51.6588 30.6868 51.9079 30.9359C52.1569 31.1849 52.2969 31.5228 52.2969 31.875Z" fill="#F7931E"/>
<path d="M13.7812 47.8125V70.3906L3.91328 68.1992C3.32368 68.0677 2.79625 67.7398 2.41741 67.2693C2.03857 66.7987 1.83079 66.2135 1.82812 65.6094V52.5937C1.83079 51.9897 2.03857 51.4044 2.41741 50.9339C2.79625 50.4633 3.32368 50.1354 3.91328 50.0039L4.48438 49.8844V49.8711L13.7812 47.8125Z" fill="#EAEAEA"/>
<path d="M13.7812 47.8125V70.3906L3.91328 68.1992C3.32368 68.0677 2.79625 67.7398 2.41741 67.2693C2.03857 66.7987 1.83079 66.2135 1.82812 65.6094V63.3117L4.5282 63.9107C5.16126 64.0511 5.81775 64.0475 6.44925 63.9003C7.08075 63.7531 7.67113 63.4659 8.17682 63.06C8.68251 62.6542 9.09062 62.1399 9.37101 61.5552C9.65141 60.9706 9.79694 60.3304 9.79688 59.682V48.6891L13.7812 47.8125Z" fill="#DAD4D4"/>
<path d="M5.81313 51.7969C4.10383 51.7969 2.77305 55.7812 4.48501 55.7812C6.19696 55.7812 7.52508 51.7969 5.81313 51.7969Z" fill="white"/>
</svg>
