<svg width="32" height="32" viewBox="0 0 32 32" fill="none" xmlns="http://www.w3.org/2000/svg">
<path d="M16.274 5.78128C18.5372 5.78128 21.6643 6.07895 22.6674 6.27958C22.6707 6.28004 22.674 6.28098 22.6772 6.28145C24.0446 6.54677 25.4471 7.88601 25.7457 9.20979C26.0654 10.7544 26.2159 12.2938 26.2192 14.0539C26.2159 15.8137 26.0654 17.3535 25.7457 18.8981C25.4471 20.2214 24.0446 21.5611 22.6772 21.8264C22.674 21.8269 22.6707 21.8278 22.6674 21.8283C22.0674 21.9483 20.806 22.0908 19.4541 22.1916C18.8939 22.2333 18.3858 22.5371 18.0839 23.011C17.9221 23.2646 17.7496 23.5309 17.5706 23.8023C16.9757 24.7032 16.4484 25.4523 16.0007 26.0336C15.553 25.4528 15.0257 24.7032 14.4308 23.8023C14.2513 23.5304 14.0788 23.2641 13.9171 23.011C13.6152 22.5371 13.1075 22.2333 12.5469 22.1916C11.195 22.0908 9.93355 21.9483 9.33354 21.8283C9.33026 21.8278 9.32698 21.8269 9.3237 21.8264C7.95633 21.5611 6.5538 20.2219 6.2552 18.8986C5.93551 17.354 5.78503 15.8141 5.78175 14.0544C5.78503 12.2942 5.93551 10.7548 6.2552 9.21026C6.5538 7.88695 7.95633 6.54724 9.32417 6.28192C9.32745 6.28145 9.33073 6.28051 9.33401 6.28004C10.3376 6.07942 13.4642 5.78175 15.7274 5.78175C15.8137 5.78175 15.898 5.78175 15.981 5.78316H16.0007C16.0007 5.78316 16.0138 5.78316 16.0204 5.78316C16.1034 5.78222 16.1877 5.78175 16.274 5.78175M15.7274 4C13.4366 4 10.1815 4.29344 8.98478 4.53251C6.94099 4.92908 4.96471 6.79615 4.51376 8.83431C4.25641 10.0718 4.00422 11.7556 4 14.0539C4.00375 16.3523 4.25641 18.0356 4.51329 19.2731C4.96471 21.3113 6.94053 23.1783 8.98432 23.5749C9.65652 23.7094 10.9789 23.8609 12.4142 23.9677C12.5769 24.2232 12.7531 24.4951 12.9439 24.7834C13.7057 25.937 14.2888 26.7409 14.7304 27.3011C15.0979 27.767 15.5493 28 16.0002 28C16.4512 28 16.9026 27.767 17.2701 27.3011C17.7117 26.7409 18.2943 25.937 19.0565 24.7834C19.2473 24.4946 19.4231 24.2232 19.5862 23.9677C21.0221 23.8609 22.344 23.7094 23.0166 23.5749C25.0604 23.1783 27.0362 21.3113 27.4876 19.2731C27.7445 18.0356 27.9972 16.3523 28.0009 14.0539C27.9972 11.7556 27.7445 10.0723 27.4876 8.83478C27.0362 6.79662 25.0604 4.92955 23.0166 4.53298C21.8199 4.29344 18.5648 4 16.274 4C16.1812 4 16.0902 4.00047 16.0007 4.00141C15.9112 4.00047 15.8198 4 15.7274 4Z" fill="white"/>
<path d="M14.8507 18.3441C14.8965 18.0859 15.1305 17.8518 15.3888 17.806C15.5452 17.7801 15.7585 17.7556 16.0498 17.7551C16.3407 17.7551 16.554 17.7797 16.7108 17.806C16.9691 17.8518 17.2031 18.0859 17.2489 18.3441C17.2748 18.5005 17.2994 18.7138 17.2998 19.0051C17.2998 19.296 17.2752 19.5093 17.2489 19.6662C17.2031 19.9244 16.9691 20.1585 16.7108 20.2042C16.5544 20.2301 16.3411 20.2547 16.0498 20.2551C15.7589 20.2551 15.5456 20.2305 15.3888 20.2042C15.1305 20.1585 14.8965 19.9244 14.8507 19.6662C14.8248 19.5097 14.8002 19.2964 14.7998 19.0051C14.7998 18.7143 14.8244 18.501 14.8507 18.3441Z" fill="white"/>
<path d="M16.0005 16.3667C15.5088 16.3667 15.1099 16.0362 15.1099 15.6288V9.1046C15.1099 8.6972 15.5088 8.3667 16.0005 8.3667C16.4922 8.3667 16.8911 8.6972 16.8911 9.1046V15.6288C16.8911 16.0362 16.4922 16.3667 16.0005 16.3667Z" fill="white"/>
</svg>
