<svg width="32" height="32" viewBox="0 0 32 32" fill="none" xmlns="http://www.w3.org/2000/svg">
<path d="M19.9998 16H2.6665M2.6665 16L7.33317 12M2.6665 16L7.33317 20" stroke="#C2C3C3" stroke-width="1.5" stroke-linecap="round" stroke-linejoin="round"/>
<path d="M12.0024 9.33341C12.0184 6.43341 12.1478 4.86275 13.1718 3.83875C14.3438 2.66675 16.2291 2.66675 19.9998 2.66675H21.3331C25.1051 2.66675 26.9904 2.66675 28.1624 3.83875C29.3331 5.00941 29.3331 6.89608 29.3331 10.6667V21.3334C29.3331 25.1041 29.3331 26.9907 28.1624 28.1614C27.1371 29.1867 25.5664 29.3147 22.6664 29.3307M12.0024 22.6667C12.0184 25.5667 12.1478 27.1374 13.1718 28.1614C14.0264 29.0174 15.2624 29.2481 17.3331 29.3107" stroke="#C2C3C3" stroke-width="1.5" stroke-linecap="round"/>
</svg>
