<svg width="117" height="54" viewBox="0 0 117 54" fill="none" xmlns="http://www.w3.org/2000/svg">
<path d="M36.3156 16.9644C36.3156 26.3362 28.7229 25.8476 19.3512 25.8476C9.97938 25.8476 2.38672 26.3362 2.38672 16.9644C2.38672 7.59266 9.97938 0 19.3512 0C28.7229 0 36.3156 7.59266 36.3156 16.9644Z" fill="#261E1C"/>
<path d="M21.8815 16.1012C21.8815 19.4089 19.2003 22.0776 15.9051 22.0776C12.6099 22.0776 9.92871 19.3963 9.92871 16.1012C9.92871 12.806 12.6099 10.1248 15.9051 10.1248C19.2003 10.1248 21.8815 12.806 21.8815 16.1012Z" fill="white"/>
<path d="M30.0622 13.5842C30.0622 15.5012 28.5086 17.0548 26.5917 17.0548C24.6747 17.0548 23.1211 15.5012 23.1211 13.5842C23.1211 11.6672 24.6747 10.1136 26.5917 10.1136C28.5086 10.1136 30.0622 11.6672 30.0622 13.5842Z" fill="white"/>
<path d="M113.806 16.9644C113.806 26.3362 106.213 25.8476 96.8414 25.8476C87.4696 25.8476 79.877 26.3362 79.877 16.9644C79.877 7.59266 87.4696 0 96.8414 0C106.213 0 113.806 7.59266 113.806 16.9644Z" fill="#261E1C"/>
<path d="M99.3717 16.1012C99.3717 19.4089 96.6905 22.0776 93.3954 22.0776C90.1002 22.0776 87.4189 19.3963 87.4189 16.1012C87.4189 12.806 90.1002 10.1248 93.3954 10.1248C96.6905 10.1248 99.3717 12.806 99.3717 16.1012Z" fill="white"/>
<path d="M107.552 13.5842C107.552 15.5012 105.999 17.0548 104.082 17.0548C102.165 17.0548 100.611 15.5012 100.611 13.5842C100.611 11.6672 102.165 10.1136 104.082 10.1136C105.999 10.1136 107.552 11.6672 107.552 13.5842Z" fill="white"/>
<path d="M19.5489 37.1356C18.2834 39.892 12.946 40.1551 7.62117 37.712C2.29629 35.2688 -0.986357 31.059 0.266556 28.3026C1.532 25.5462 6.86941 25.2831 12.1943 27.7263C17.5192 30.1694 20.8018 34.3792 19.5364 37.1356H19.5489Z" fill="#FCA695"/>
<path d="M96.6406 37.1356C97.906 39.892 103.243 40.1551 108.568 37.712C113.893 35.2688 117.176 31.059 115.923 28.3026C114.657 25.5462 109.32 25.2831 103.995 27.7263C98.6703 30.1694 95.3876 34.3792 96.6531 37.1356H96.6406Z" fill="#FCA695"/>
<path d="M58.1016 24.3574C50.1581 24.3574 40.874 26.4874 40.874 32.4763V36.7612C40.874 46.2583 48.6045 53.9888 58.1016 53.9888C67.5986 53.9888 75.3291 46.2583 75.3291 36.7612V32.4763C75.3291 26.4874 66.045 24.3574 58.1016 24.3574Z" fill="#261E1C"/>
<path d="M61.5584 43.9265H54.6298C50.9086 43.9265 47.6761 45.9437 45.9346 48.9507C49.0543 52.0705 53.3518 53.9999 58.1004 53.9999C62.8489 53.9999 67.1464 52.0705 70.2661 48.9507C68.5246 45.9562 65.2796 43.9265 61.5709 43.9265H61.5584Z" fill="#FE6661"/>
</svg>
