<svg width="24" height="25" viewBox="0 0 24 25" fill="none" xmlns="http://www.w3.org/2000/svg">
<path d="M9.533 11.6501C9.19173 11.9918 9.00003 12.4551 9 12.9381V15.5001H11.578C12.061 15.5001 12.525 15.3081 12.867 14.9661L20.467 7.36206C20.6362 7.19287 20.7705 6.99199 20.8621 6.77091C20.9537 6.54982 21.0008 6.31286 21.0008 6.07356C21.0008 5.83425 20.9537 5.59729 20.8621 5.37621C20.7705 5.15513 20.6362 4.95425 20.467 4.78506L19.716 4.03406C19.5468 3.86468 19.3459 3.7303 19.1247 3.63862C18.9035 3.54694 18.6664 3.49976 18.427 3.49976C18.1876 3.49976 17.9505 3.54694 17.7293 3.63862C17.5081 3.7303 17.3072 3.86468 17.138 4.03406L9.533 11.6501Z" stroke="#0033E8" stroke-width="1.5" stroke-linecap="round" stroke-linejoin="round"/>
<path d="M21 12.5C21 16.743 21 18.864 19.682 20.182C18.364 21.5 16.242 21.5 12 21.5C7.757 21.5 5.636 21.5 4.318 20.182C3 18.864 3 16.742 3 12.5C3 8.257 3 6.136 4.318 4.818C5.636 3.5 7.758 3.5 12 3.5" stroke="#0033E8" stroke-width="1.5" stroke-linecap="round" stroke-linejoin="round"/>
</svg>
