<svg width="27" height="29" viewBox="0 0 27 29" fill="none" xmlns="http://www.w3.org/2000/svg">
<path d="M13.4999 27.9642C20.7499 27.9642 25.9284 25.3998 25.9284 19.6909C25.9284 13.487 22.8213 9.35036 16.607 6.24736L19.0513 3.10293C19.1758 2.89667 19.2434 2.6611 19.2472 2.42022C19.251 2.17934 19.1909 1.94174 19.073 1.73165C18.9551 1.52155 18.7837 1.34645 18.5761 1.22419C18.3685 1.10193 18.1322 1.03687 17.8913 1.03564H9.10843C8.86803 1.03814 8.63254 1.10399 8.42571 1.22655C8.21888 1.34911 8.04802 1.52404 7.93038 1.7337C7.81273 1.94337 7.75245 2.18035 7.75562 2.42074C7.75879 2.66114 7.8253 2.89644 7.94843 3.10293L10.3927 6.26807C4.17843 9.39179 1.07129 13.5284 1.07129 19.7324C1.07129 25.3998 6.24986 27.9642 13.4999 27.9642Z" stroke="white" stroke-width="1.5" stroke-linecap="round" stroke-linejoin="round"/>
<path d="M16.3648 14.0979C16.2104 13.6599 15.9238 13.2805 15.5446 13.0122C15.1654 12.744 14.7123 12.6 14.2478 12.6003H12.5119C12.0173 12.5993 11.5398 12.7814 11.1714 13.1114C10.803 13.4414 10.5698 13.896 10.5165 14.3878C10.4633 14.8795 10.5939 15.3735 10.8831 15.7747C11.1723 16.1759 11.5998 16.456 12.0831 16.5609L14.7284 17.1409C15.2674 17.2611 15.7432 17.5757 16.0648 18.0246C16.3865 18.4735 16.5314 19.0252 16.472 19.5742C16.4125 20.1233 16.1528 20.6311 15.7425 21.0008C15.3322 21.3704 14.8 21.5758 14.2478 21.5779H12.7543C11.7766 21.5779 10.9459 20.9523 10.6373 20.0823M13.5 12.6003V10.3569M13.5 23.8212V21.5779" stroke="white" stroke-width="1.5" stroke-linecap="round" stroke-linejoin="round"/>
</svg>
