<svg width="86" height="85" viewBox="0 0 86 85" fill="none" xmlns="http://www.w3.org/2000/svg">
<g clip-path="url(#clip0_532_2656)">
<path d="M64.7287 73.4596C63.9745 74.2138 62.9877 74.5902 62.0009 74.5902C61.0125 74.5902 60.0238 74.2138 59.2713 73.4596C60.778 74.9664 60.778 77.4087 59.2713 78.9171C58.5187 79.6696 57.5303 80.0476 56.5417 80.0476C55.5549 80.0476 54.5681 79.6696 53.8139 78.9171L51.3049 76.4081C52.8116 77.9148 52.8116 80.3588 51.3049 81.8655C50.5523 82.6181 49.5638 82.9959 48.577 82.9959C47.5903 82.9959 46.6035 82.6179 45.8492 81.8672V81.8655H45.8476C37.115 88.409 18.2422 66.2765 13.1492 59.9793L11.2285 51.228L22.8086 37.6826C31.1034 35.7329 38.9364 36.9951 38.9364 36.9951L53.1948 45.9638L64.7287 68.0022C66.2355 69.509 66.2355 71.953 64.7287 73.4596Z" fill="#FFCBBE"/>
<path d="M45.8498 81.8674C37.1172 88.4109 18.2444 66.2783 13.1514 59.9812L15.2156 55.2147C22.6314 65.9689 33.3633 77.4089 39.6878 75.7037L45.8498 81.8674Z" fill="#EAAC9D"/>
<path d="M72.6142 58.4662C72.0584 60.1627 71.7607 61.8013 72.4586 63.2293V63.231C69.3203 67.8009 65.8263 69.6975 65.7287 69.7506C65.561 69.1109 65.2258 68.5055 64.7248 68.0044L44.7403 48.02C42.269 48.8444 39.6387 51.0523 37.7248 52.9301C36.7859 53.8503 35.5562 54.3204 34.318 54.3204C33.3055 54.3204 32.288 54.0057 31.4226 53.3662C31.3576 53.3184 31.2926 53.2687 31.231 53.2174C31.2293 53.2158 31.2275 53.2139 31.2258 53.2123C29.478 51.7791 28.9323 49.3111 29.9585 47.2742C34.1059 39.0359 40.9778 35.5691 43.1018 34.661C43.514 34.4849 43.9586 34.3994 44.4066 34.4165C46.4657 34.49 48.5028 34.9039 50.4388 35.5145C56.984 37.5736 62.3885 41.8801 63.6472 42.9336C64.7708 45.8804 72.9065 47.341 74.1414 50.2398C75.1761 52.6668 73.5377 55.6443 72.6142 58.4662Z" fill="#FFA894"/>
<path d="M72.4645 63.226V63.2276C69.3262 67.7975 65.8322 69.6941 65.7346 69.7472C65.5669 69.1076 65.2317 68.5021 64.7307 68.0011L52.6084 55.8788C56.8738 60.1442 66.1023 61.9674 70.3694 58.8272C70.9407 58.4082 71.712 58.3124 72.6201 58.463C72.0644 60.1593 71.7668 61.7979 72.4645 63.226Z" fill="#EF8F79"/>
<path d="M31.2258 53.2123C29.478 51.7791 28.9323 49.3111 29.9585 47.2742C34.1059 39.0359 40.9778 35.5691 43.1018 34.661C43.514 34.4849 43.9586 34.3994 44.4066 34.4165C46.4657 34.49 48.5027 34.9039 50.4388 35.5145C41.3506 35.5197 28.5578 50.5904 31.2258 53.2123Z" fill="#EF8F79"/>
<path d="M65.3921 72.567C65.2195 72.8867 64.997 73.1879 64.7269 73.458C63.9727 74.2122 62.9859 74.5886 61.9991 74.5886C61.0107 74.5886 60.022 74.2122 59.2695 73.458L46.5215 60.7098C47.0796 59.7068 48.4423 59.5165 49.2539 60.3281L60.8257 71.9016C61.5783 72.6558 62.5667 73.032 63.5553 73.032C64.188 73.0322 64.8209 72.8783 65.3921 72.567Z" fill="#EAAC9D"/>
<path d="M52.0351 80.8538C51.8521 81.2181 51.6109 81.5584 51.3082 81.8612C50.5557 82.6138 49.5672 82.9916 48.5786 82.9916C47.5918 82.9916 46.605 82.6136 45.8508 81.8612L35.4883 71.497C36.7263 70.7086 38.3459 70.8861 39.3837 71.924L47.5867 80.127C48.3392 80.8796 49.3277 81.2576 50.3145 81.2576C50.9047 81.2576 51.4947 81.1225 52.0351 80.8538Z" fill="#EAAC9D"/>
<path d="M59.909 78.0699C59.7413 78.3725 59.5276 78.6564 59.271 78.9131C58.5168 79.6656 57.53 80.0436 56.5432 80.0436C55.5547 80.0436 54.5661 79.6656 53.8135 78.9131L42.1562 67.2534C43.0584 66.4855 44.3991 66.5394 45.2368 67.3771L52.7839 74.9247L55.2911 77.4337C56.0453 78.1879 57.0321 78.5643 58.0207 78.5643C58.6725 78.5641 59.3241 78.3999 59.909 78.0699Z" fill="#EAAC9D"/>
<path d="M73.3765 65.0834C69.422 57.1681 65.8602 48.9468 62.79 40.6478C66.425 38.0138 70.503 36.2471 74.9108 35.3966C78.8655 43.3121 82.4274 51.5333 85.4975 59.8321C81.8624 62.466 77.7844 64.2329 73.3765 65.0834Z" fill="#9DC6FB"/>
<path d="M85.4972 59.8297C81.8457 62.4779 77.8061 64.2278 73.3766 65.0816C72.3421 63.0096 71.3391 60.9253 70.3652 58.8288C74.9788 57.932 79.1951 56.1216 83.0143 53.3955C83.8719 55.5283 84.7002 57.6729 85.4972 59.8297Z" fill="#80B4FB"/>
<path d="M12.6208 61.0506C8.21309 60.2001 4.13508 58.4333 0.5 55.7993C3.56996 47.5007 7.13183 39.2793 11.0866 31.3638C15.4944 32.2143 19.5724 33.981 23.2075 36.6151C20.1373 44.914 16.5755 53.1353 12.6208 61.0506Z" fill="#80CB8E"/>
<path d="M0.5 55.7969C4.15151 58.4451 8.19117 60.195 12.6206 61.0488C13.6551 58.9768 14.6581 56.8925 15.632 54.796C11.0184 53.8992 6.80212 52.0888 2.98293 49.3627C2.12529 51.4953 1.29704 53.6401 0.5 55.7969Z" fill="#6EC17D"/>
<path d="M42.9997 38.7055C20.9786 30.6228 18.3982 13.4382 22.4568 6.50772C25.2582 1.72465 31.7226 0.601052 37.0155 3.61191C37.0219 3.6154 37.0288 3.61905 37.0351 3.62353C37.0841 3.65109 37.1341 3.67965 37.1831 3.70903C37.1902 3.71252 37.1973 3.717 37.2045 3.72148C39.5059 5.08032 41.5723 7.23039 42.9997 10.2119C46.9559 1.95192 55.8128 0.0709637 60.9854 3.72148C62.0021 4.43883 62.8761 5.36985 63.5427 6.50772C67.6013 13.4382 65.0209 30.6228 42.9997 38.7055Z" fill="#DD636E"/>
<path d="M42.9997 38.7055C20.9786 30.6228 18.3982 13.4382 22.4568 6.50772C25.2582 1.72465 31.7226 0.601052 37.0155 3.61191C31.4439 0.548591 22.8662 12.9458 29.6199 23.0294C34.8618 30.8557 42.9997 38.7055 42.9997 38.7055Z" fill="#DA4A54"/>
</g>
<defs>
<clipPath id="clip0_532_2656">
<rect width="85" height="85" fill="white" transform="translate(0.5)"/>
</clipPath>
</defs>
</svg>
