<svg width="86" height="82" viewBox="0 0 86 82" fill="none" xmlns="http://www.w3.org/2000/svg">
<g clip-path="url(#clip0_532_2641)">
<path d="M85.3742 74.506L80.3937 60.092L78.0323 60.8521L75.6709 60.092L70.6904 74.506L75.4132 76.0262L78.0323 68.4462L80.6514 76.0262L85.3742 74.506Z" fill="#FF9F00"/>
<path d="M80.5195 23.95H75.5391V51.2407H80.5195V23.95Z" fill="#FF9F00"/>
<path d="M80.5195 49.2666C79.7228 48.9783 78.9258 48.8343 78.0293 48.8343C77.1328 48.8343 76.3358 48.9783 75.5391 49.2666C72.6502 50.2275 70.5586 52.9181 70.5586 56.0413C70.5586 60.0291 73.8953 63.2484 78.0293 63.2484C82.1633 63.2484 85.5 60.0291 85.5 56.0413C85.5 52.9181 83.4084 50.2275 80.5195 49.2666Z" fill="#FDBF00"/>
<path d="M20.5879 26.1589V41.6301C20.5879 48.5008 30.2002 53.6418 43 53.6418C55.7998 53.6418 65.4121 48.5008 65.4121 41.6301V26.1589H20.5879Z" fill="#53433F"/>
<path d="M65.4121 26.1589V41.6301C65.4121 48.5008 55.7998 53.6418 43 53.6418V26.1589H65.4121Z" fill="#3E322E"/>
<path d="M43 5.97917L0.5 22.4112L43 38.8431L75.5391 26.3028L80.5195 24.3808L85.5 22.411L43 5.97917Z" fill="#68544F"/>
<path d="M85.5 22.4112L80.5195 24.381L75.5391 26.303L43 38.8431V5.97917L85.5 22.4112Z" fill="#53433F"/>
</g>
<defs>
<clipPath id="clip0_532_2641">
<rect width="85" height="82" fill="white" transform="translate(0.5)"/>
</clipPath>
</defs>
</svg>
