<svg width="32" height="32" viewBox="0 0 32 32" fill="none" xmlns="http://www.w3.org/2000/svg">
<path d="M16.0003 13.3334C18.9458 13.3334 21.3337 10.9456 21.3337 8.00008C21.3337 5.05456 18.9458 2.66675 16.0003 2.66675C13.0548 2.66675 10.667 5.05456 10.667 8.00008C10.667 10.9456 13.0548 13.3334 16.0003 13.3334Z" stroke="white" stroke-width="1.5"/>
<path d="M26.6642 24.0002C26.6668 23.7815 26.6668 23.5588 26.6668 23.3335C26.6668 20.0202 21.8908 17.3335 16.0002 17.3335C10.1095 17.3335 5.3335 20.0202 5.3335 23.3335C5.3335 26.6468 5.3335 29.3335 16.0002 29.3335C18.9748 29.3335 21.1202 29.1242 22.6668 28.7508" stroke="white" stroke-width="1.5" stroke-linecap="round"/>
</svg>
