<svg width="137" height="46" viewBox="0 0 137 46" fill="none" xmlns="http://www.w3.org/2000/svg">
<path d="M28.7316 15.6158C28.7316 23.1358 22.6358 29.2316 15.1158 29.2316C7.59576 29.2316 1.5 23.1358 1.5 15.6158C1.5 8.09576 7.59576 2 15.1158 2C22.6358 2 28.7316 8.09576 28.7316 15.6158Z" fill="white" stroke="#261E1C" stroke-width="3" stroke-linecap="round" stroke-linejoin="round"/>
<path d="M108.053 15.6158C108.053 23.1358 114.148 29.2316 121.669 29.2316C129.189 29.2316 135.284 23.1358 135.284 15.6158C135.284 8.09576 129.189 2 121.669 2C114.148 2 108.053 8.09576 108.053 15.6158Z" fill="white" stroke="#261E1C" stroke-width="3" stroke-linecap="round" stroke-linejoin="round"/>
<path d="M45.8594 13.1095H90.9225" stroke="#FE6661" stroke-width="2" stroke-linecap="round" stroke-linejoin="round"/>
<path d="M52.2969 19.5464H84.4848" stroke="#FE6661" stroke-width="2" stroke-linecap="round" stroke-linejoin="round"/>
<path d="M86.9743 39.5625C86.9743 43.1136 84.0878 46 80.5367 46H56.2296C52.6785 46 49.792 43.1136 49.792 39.5625C49.792 36.0113 52.6785 33.1249 56.2296 33.1249H80.5367C84.0878 33.1249 86.9743 36.0113 86.9743 39.5625Z" fill="#261E1C"/>
</svg>
