<svg width="86" height="85" viewBox="0 0 86 85" fill="none" xmlns="http://www.w3.org/2000/svg">
<path d="M51.3559 18.645L30.7139 19.11L30.5352 11.025C30.5352 9.34774 32.5234 7.19799 32.5234 7.19799C33.0518 6.96205 33.624 6.84048 34.2027 6.84124H48.2207C49.3133 6.84124 50.3613 7.27531 51.1339 8.04796C51.9066 8.82061 52.3407 9.86854 52.3407 10.9612V12.7222L51.3559 18.645Z" fill="#F74F73"/>
<path d="M52.3427 12.7273C50.1665 13.3976 46.6285 14.0773 41.2137 14.0773C34.6187 14.0773 32.8865 10.1888 32.5267 7.20784C31.7999 7.53172 31.1826 8.05921 30.7492 8.72653C30.3159 9.39385 30.0852 10.1724 30.085 10.9681V20.2111H52.3427V12.7273Z" fill="#CC3B5E"/>
<path d="M23.8369 21.8976C22.624 21.1123 21.2446 20.6209 19.8084 20.4622C18.3722 20.3036 16.9189 20.4822 15.5638 20.9838C14.2087 21.4853 12.9894 22.2961 12.0026 23.3516C11.0158 24.4071 10.2889 25.6782 9.87958 27.064C9.47025 28.4497 9.38981 29.9118 9.64466 31.334C9.89951 32.7563 10.4826 34.0995 11.3476 35.2569C12.2127 36.4143 13.3357 37.3539 14.6276 38.0011C15.9195 38.6483 17.3445 38.9852 18.7894 38.9851H29.6554V25.1783L23.8369 21.8976Z" fill="#87A574"/>
<path d="M26.7759 19.95C26.8547 19.5593 27.0117 19.1886 27.2376 18.8602C27.4634 18.5319 27.7534 18.2526 28.09 18.0392C28.4266 17.8258 28.8029 17.6827 29.1963 17.6186C29.5897 17.5545 29.9919 17.5706 30.3789 17.666C35.0743 18.7656 39.8815 19.3167 44.7039 19.3083C49.5108 19.3236 54.2919 18.6055 58.8821 17.1788C59.2037 17.0729 59.5448 17.0404 59.8806 17.0835C60.2163 17.1267 60.5382 17.2444 60.8225 17.4282C61.1068 17.6119 61.3463 17.857 61.5236 18.1454C61.7009 18.4337 61.8113 18.7581 61.8469 19.0948C62.0189 20.9245 62.2179 23.3748 62.3081 25.7065C62.3081 25.7065 61.1209 33.7128 54.0296 33.149L29.1119 33.2453L27.1369 30.5453C26.9981 29.3365 26.2394 26.131 26.2394 26.131C26.2335 24.0588 26.4131 21.9902 26.7759 19.95Z" fill="#7AAEED"/>
<path d="M16.9377 34.1016C16.7403 34.1017 16.5433 34.0822 16.3497 34.0433C13.7259 33.5206 12.2509 31.4543 12.6787 28.9016C12.804 28.1525 13.0757 27.4353 13.4782 26.7912C13.8807 26.1471 14.4061 25.5885 15.0244 25.1474C15.6428 24.7064 16.3419 24.3914 17.082 24.2205C17.8221 24.0497 18.5886 24.0262 19.3377 24.1516C21.2029 24.4638 22.7097 25.4156 23.5794 26.8313C24.5404 28.3953 24.6852 30.3836 23.9984 32.5813C23.9642 32.691 23.9086 32.7929 23.835 32.8811C23.7613 32.9693 23.6711 33.0422 23.5693 33.0955C23.4675 33.1488 23.3562 33.1816 23.2417 33.1919C23.1272 33.2022 23.0119 33.1899 22.9022 33.1556C22.7925 33.1213 22.6906 33.0658 22.6024 32.9921C22.5142 32.9185 22.4414 32.8282 22.388 32.7264C22.3347 32.6246 22.302 32.5133 22.2916 32.3988C22.2813 32.2844 22.2937 32.169 22.3279 32.0593C22.8594 30.3593 22.7767 28.8673 22.0884 27.7473C21.4787 26.7548 20.4274 26.1081 19.0487 25.8773C17.9936 25.7008 16.9116 25.9506 16.0407 26.5718C15.1698 27.193 14.5813 28.1348 14.4047 29.1898C14.1327 30.8148 14.9879 31.9863 16.6919 32.3261C17.4694 32.4831 18.2569 31.8168 18.5389 31.1118C18.677 30.8368 18.7023 30.5188 18.6096 30.2254C18.5169 29.932 18.3134 29.6863 18.0424 29.5406C17.9453 29.4792 17.8613 29.3992 17.7951 29.3053C17.7288 29.2114 17.6818 29.1053 17.6565 28.9932C17.6056 28.7668 17.6466 28.5295 17.7707 28.3333C17.8948 28.1372 18.0916 27.9984 18.318 27.9474C18.5444 27.8965 18.7818 27.9375 18.9779 28.0616C19.5931 28.4273 20.0533 29.0054 20.2717 29.687C20.4902 30.3685 20.4519 31.1064 20.1639 31.7616C19.6799 32.9728 18.4299 34.1016 16.9377 34.1016Z" fill="#526D3A"/>
<path d="M62.2109 31.013C62.3839 29.6513 62.3859 27.7223 62.3092 25.7048C57.2107 28.7198 50.6419 28.7208 50.6419 28.7208H31.7312C28.7034 28.7208 27.0772 27.3208 26.2402 26.1303C26.2295 27.7444 26.3113 29.3579 26.4849 30.9628C26.8422 34.078 28.9349 33.8378 28.9349 33.8378H54.2477C61.3377 34.402 62.2109 31.013 62.2109 31.013Z" fill="#497FCE"/>
<path d="M39.5031 16.8921C40.036 16.8921 40.547 17.1038 40.9237 17.4805C41.3005 17.8573 41.5121 18.3683 41.5121 18.9011V34.0761H37.4941V18.9011C37.4941 18.6373 37.5461 18.376 37.6471 18.1323C37.748 17.8885 37.896 17.6671 38.0826 17.4805C38.2691 17.294 38.4906 17.146 38.7343 17.045C38.9781 16.9441 39.2393 16.8921 39.5031 16.8921Z" fill="#4A4A60"/>
<path d="M50.3352 16.8921C50.868 16.8921 51.379 17.1038 51.7557 17.4805C52.1325 17.8573 52.3442 18.3683 52.3442 18.9011V34.0761H48.3262V18.9011C48.3262 18.6373 48.3781 18.376 48.4791 18.1323C48.5801 17.8885 48.728 17.6671 48.9146 17.4805C49.1011 17.294 49.3226 17.146 49.5664 17.045C49.8101 16.9441 50.0713 16.8921 50.3352 16.8921Z" fill="#4A4A60"/>
<path d="M13.8152 41.5182L11.1211 40.9827C9.14821 40.5905 7.23091 41.872 6.83874 43.8449L4.11142 57.5655C3.71924 59.5384 5.0007 61.4557 6.97364 61.8479L9.66771 62.3834C11.6406 62.7755 13.5579 61.4941 13.9501 59.5212L16.6774 45.8006C17.0696 43.8277 15.7881 41.9104 13.8152 41.5182Z" fill="#4A4A60"/>
<path d="M81.9677 60.8411V55.6838L75.8227 47.6623L69.0567 47.4773C68.2233 47.448 67.4121 47.2016 66.7032 46.7624C65.9944 46.3232 65.4125 45.7065 65.0152 44.9733C63.5744 42.2726 61.9305 39.6852 60.0977 37.2336C59.2304 36.1002 58.1139 35.1815 56.8347 34.5486C55.5555 33.9156 54.1479 33.5855 52.7207 33.5836H30.2789C28.9991 33.5823 27.7318 33.8352 26.5505 34.3277C25.3693 34.8202 24.2976 35.5423 23.3977 36.4523C20.3584 39.5199 17.8046 43.0328 15.8242 46.8701L12.4862 57.0773C12.1827 59.0483 12.068 61.0436 12.1437 63.0363L16.0244 65.3613H79.6492L81.9677 60.8411Z" fill="#FFB655"/>
<path d="M75.8223 47.6603V51.5831C75.8222 52.6095 76.2175 53.5966 76.926 54.3393C77.6346 55.082 78.6019 55.5233 79.6273 55.5716L81.9673 55.6818C81.9673 55.6818 82.7028 47.6603 75.8223 47.6603Z" fill="#FFEEDC"/>
<path d="M15.8253 46.8717C16.2063 47.0205 16.5718 47.2061 16.9166 47.426C17.5488 47.8272 18.0572 48.3961 18.385 49.0694C18.7129 49.7426 18.8473 50.4936 18.7733 51.2388L18.5803 53.2165C18.5173 53.8631 18.3169 54.4887 17.9926 55.0516C17.6682 55.6145 17.2274 56.1016 16.6996 56.4803C16.1717 56.859 15.5691 57.1206 14.932 57.2476C14.2949 57.3745 13.638 57.3639 13.0053 57.2165C12.835 57.177 12.6623 57.1313 12.4873 57.0793C12.4873 57.0793 13.5476 50.7735 15.8253 46.8717Z" fill="#F74F73"/>
<path d="M28.8499 38.3081C28.4368 38.5368 28.0523 38.8138 27.7044 39.1331C25.8502 40.8829 24.349 42.9724 23.2824 45.2881C23.1339 45.6029 23.0674 45.9502 23.0889 46.2976C23.1105 46.645 23.2195 46.9814 23.4058 47.2754C23.5921 47.5695 23.8496 47.8117 24.1545 47.9796C24.4594 48.1475 24.8018 48.2356 25.1499 48.2359H27.0579C27.533 48.2359 27.9885 48.0472 28.3244 47.7113C28.6604 47.3754 28.8491 46.9199 28.8492 46.4449L28.8499 38.3081Z" fill="#4A4A60"/>
<path d="M40.9496 37.5334H34.2318C33.3363 37.5334 32.6104 38.2593 32.6104 39.1549V46.6131C32.6104 47.5086 33.3363 48.2346 34.2318 48.2346H40.9496C41.8451 48.2346 42.5711 47.5086 42.5711 46.6131V39.1549C42.5711 38.2593 41.8451 37.5334 40.9496 37.5334Z" fill="#4A4A60"/>
<path d="M59.2162 45.4261C58.3937 43.2649 57.3107 41.2121 55.9911 39.3131C55.5932 38.7612 55.0696 38.3119 54.4637 38.0024C53.8577 37.693 53.1868 37.5322 52.5064 37.5334H48.1089C47.6364 37.5334 47.1832 37.721 46.8491 38.0551C46.515 38.3892 46.3272 38.8424 46.3271 39.3149V46.4529C46.3271 46.9254 46.5149 47.3786 46.849 47.7128C47.1832 48.0469 47.6363 48.2346 48.1089 48.2346H57.2896C57.6252 48.2351 57.9558 48.1538 58.2527 47.9977C58.5497 47.8416 58.8042 47.6154 58.9939 47.3387C59.1837 47.062 59.3032 46.7432 59.3419 46.4099C59.3806 46.0766 59.3375 45.7389 59.2162 45.4261Z" fill="#4A4A60"/>
<path d="M35.1464 53.2916H32.6064C32.3744 53.2916 32.1518 53.1994 31.9877 53.0353C31.8236 52.8713 31.7314 52.6487 31.7314 52.4166C31.7314 52.1846 31.8236 51.962 31.9877 51.7979C32.1518 51.6338 32.3744 51.5416 32.6064 51.5416H35.1464C35.3785 51.5416 35.6011 51.6338 35.7652 51.7979C35.9293 51.962 36.0214 52.1846 36.0214 52.4166C36.0214 52.6487 35.9293 52.8713 35.7652 53.0353C35.6011 53.1994 35.3785 53.2916 35.1464 53.2916Z" fill="#E87B31"/>
<path d="M48.8713 53.2909H46.3311C46.099 53.2909 45.8764 53.1988 45.7123 53.0347C45.5482 52.8706 45.4561 52.648 45.4561 52.4159C45.4561 52.1839 45.5482 51.9613 45.7123 51.7972C45.8764 51.6331 46.099 51.5409 46.3311 51.5409H48.8713C49.1034 51.5409 49.3259 51.6331 49.49 51.7972C49.6541 51.9613 49.7463 52.1839 49.7463 52.4159C49.7463 52.648 49.6541 52.8706 49.49 53.0347C49.3259 53.1988 49.1034 53.2909 48.8713 53.2909Z" fill="#E87B31"/>
<path d="M77.7882 67.7208C78.8975 67.7207 79.9614 67.28 80.7458 66.4956C81.5302 65.7111 81.9709 64.6472 81.9709 63.5378V60.8378C79.9374 62.8356 77.2059 63.0338 77.2059 63.0338H12.1484C12.1577 63.2758 12.1679 63.5183 12.1827 63.7628C12.2432 64.831 12.7094 65.8358 13.4861 66.5717C14.2628 67.3076 15.2913 67.719 16.3612 67.7218L77.7882 67.7208Z" fill="#E87B31"/>
<path d="M27.6612 78.1591C33.3631 78.1591 37.9854 73.5367 37.9854 67.8348C37.9854 62.1329 33.3631 57.5106 27.6612 57.5106C21.9592 57.5106 17.3369 62.1329 17.3369 67.8348C17.3369 73.5367 21.9592 78.1591 27.6612 78.1591Z" fill="#4A4A60"/>
<path d="M27.66 72.6241C30.3092 72.6241 32.4568 70.4765 32.4568 67.8273C32.4568 65.1782 30.3092 63.0306 27.66 63.0306C25.0109 63.0306 22.8633 65.1782 22.8633 67.8273C22.8633 70.4765 25.0109 72.6241 27.66 72.6241Z" fill="white"/>
<path d="M65.9825 78.1591C71.6844 78.1591 76.3067 73.5367 76.3067 67.8348C76.3067 62.1329 71.6844 57.5106 65.9825 57.5106C60.2805 57.5106 55.6582 62.1329 55.6582 67.8348C55.6582 73.5367 60.2805 78.1591 65.9825 78.1591Z" fill="#4A4A60"/>
<path d="M65.9823 72.6241C68.6315 72.6241 70.779 70.4765 70.779 67.8273C70.779 65.1782 68.6315 63.0306 65.9823 63.0306C63.3331 63.0306 61.1855 65.1782 61.1855 67.8273C61.1855 70.4765 63.3331 72.6241 65.9823 72.6241Z" fill="white"/>
</svg>
